G04 (created by PCBNEW (22-Jun-2014 BZR 4027)-stable) date Tue 07 Jul 2015 09:18:42 PM CDT*
%MOIN*%
G04 Gerber Fmt 3.4, Leading zero omitted, Abs format*
%FSLAX34Y34*%
G01*
G70*
G90*
G04 APERTURE LIST*
%ADD10C,0.00590551*%
%ADD11C,0.0028*%
%ADD12C,0.005*%
%ADD13C,0.0045*%
G04 APERTURE END LIST*
G54D10*
G54D11*
X10450Y-19300D02*
X10650Y-19300D01*
X10650Y-19300D02*
X10650Y-19000D01*
X10650Y-19000D02*
X10450Y-19000D01*
X10250Y-19300D02*
X10050Y-19300D01*
X10050Y-19300D02*
X10050Y-19000D01*
X10050Y-19000D02*
X10250Y-19000D01*
X10450Y-19750D02*
X10650Y-19750D01*
X10650Y-19750D02*
X10650Y-19450D01*
X10650Y-19450D02*
X10450Y-19450D01*
X10250Y-19750D02*
X10050Y-19750D01*
X10050Y-19750D02*
X10050Y-19450D01*
X10050Y-19450D02*
X10250Y-19450D01*
X10350Y-17500D02*
X10350Y-17300D01*
X10350Y-17300D02*
X10050Y-17300D01*
X10050Y-17300D02*
X10050Y-17500D01*
X10350Y-17700D02*
X10350Y-17900D01*
X10350Y-17900D02*
X10050Y-17900D01*
X10050Y-17900D02*
X10050Y-17700D01*
X10950Y-19000D02*
X10750Y-19000D01*
X10750Y-19000D02*
X10750Y-19300D01*
X10750Y-19300D02*
X10950Y-19300D01*
X11150Y-19000D02*
X11350Y-19000D01*
X11350Y-19000D02*
X11350Y-19300D01*
X11350Y-19300D02*
X11150Y-19300D01*
X6750Y-16850D02*
X6950Y-16850D01*
X6950Y-16850D02*
X6950Y-16550D01*
X6950Y-16550D02*
X6750Y-16550D01*
X6550Y-16850D02*
X6350Y-16850D01*
X6350Y-16850D02*
X6350Y-16550D01*
X6350Y-16550D02*
X6550Y-16550D01*
X7650Y-17850D02*
X7450Y-17850D01*
X7450Y-17850D02*
X7450Y-18150D01*
X7450Y-18150D02*
X7650Y-18150D01*
X7850Y-17850D02*
X8050Y-17850D01*
X8050Y-17850D02*
X8050Y-18150D01*
X8050Y-18150D02*
X7850Y-18150D01*
X6250Y-18650D02*
X6450Y-18650D01*
X6450Y-18650D02*
X6450Y-18350D01*
X6450Y-18350D02*
X6250Y-18350D01*
X6050Y-18650D02*
X5850Y-18650D01*
X5850Y-18650D02*
X5850Y-18350D01*
X5850Y-18350D02*
X6050Y-18350D01*
X14950Y-9350D02*
X15150Y-9350D01*
X15150Y-9350D02*
X15150Y-9050D01*
X15150Y-9050D02*
X14950Y-9050D01*
X14750Y-9350D02*
X14550Y-9350D01*
X14550Y-9350D02*
X14550Y-9050D01*
X14550Y-9050D02*
X14750Y-9050D01*
X14950Y-9800D02*
X15150Y-9800D01*
X15150Y-9800D02*
X15150Y-9500D01*
X15150Y-9500D02*
X14950Y-9500D01*
X14750Y-9800D02*
X14550Y-9800D01*
X14550Y-9800D02*
X14550Y-9500D01*
X14550Y-9500D02*
X14750Y-9500D01*
X11900Y-16800D02*
X11700Y-16800D01*
X11700Y-16800D02*
X11700Y-17100D01*
X11700Y-17100D02*
X11900Y-17100D01*
X12100Y-16800D02*
X12300Y-16800D01*
X12300Y-16800D02*
X12300Y-17100D01*
X12300Y-17100D02*
X12100Y-17100D01*
X7000Y-15500D02*
X7000Y-15300D01*
X7000Y-15300D02*
X6700Y-15300D01*
X6700Y-15300D02*
X6700Y-15500D01*
X7000Y-15700D02*
X7000Y-15900D01*
X7000Y-15900D02*
X6700Y-15900D01*
X6700Y-15900D02*
X6700Y-15700D01*
X10300Y-6650D02*
X10300Y-6850D01*
X10300Y-6850D02*
X10600Y-6850D01*
X10600Y-6850D02*
X10600Y-6650D01*
X10300Y-6450D02*
X10300Y-6250D01*
X10300Y-6250D02*
X10600Y-6250D01*
X10600Y-6250D02*
X10600Y-6450D01*
X8800Y-16400D02*
X8600Y-16400D01*
X8600Y-16400D02*
X8600Y-16700D01*
X8600Y-16700D02*
X8800Y-16700D01*
X9000Y-16400D02*
X9200Y-16400D01*
X9200Y-16400D02*
X9200Y-16700D01*
X9200Y-16700D02*
X9000Y-16700D01*
X8250Y-16700D02*
X8450Y-16700D01*
X8450Y-16700D02*
X8450Y-16400D01*
X8450Y-16400D02*
X8250Y-16400D01*
X8050Y-16700D02*
X7850Y-16700D01*
X7850Y-16700D02*
X7850Y-16400D01*
X7850Y-16400D02*
X8050Y-16400D01*
X9900Y-7800D02*
X9900Y-7600D01*
X9900Y-7600D02*
X9600Y-7600D01*
X9600Y-7600D02*
X9600Y-7800D01*
X9900Y-8000D02*
X9900Y-8200D01*
X9900Y-8200D02*
X9600Y-8200D01*
X9600Y-8200D02*
X9600Y-8000D01*
X11950Y-19000D02*
X11750Y-19000D01*
X11750Y-19000D02*
X11750Y-19300D01*
X11750Y-19300D02*
X11950Y-19300D01*
X12150Y-19000D02*
X12350Y-19000D01*
X12350Y-19000D02*
X12350Y-19300D01*
X12350Y-19300D02*
X12150Y-19300D01*
X11850Y-11100D02*
X11850Y-11300D01*
X11850Y-11300D02*
X12150Y-11300D01*
X12150Y-11300D02*
X12150Y-11100D01*
X11850Y-10900D02*
X11850Y-10700D01*
X11850Y-10700D02*
X12150Y-10700D01*
X12150Y-10700D02*
X12150Y-10900D01*
X6100Y-10050D02*
X6100Y-10250D01*
X6100Y-10250D02*
X6400Y-10250D01*
X6400Y-10250D02*
X6400Y-10050D01*
X6100Y-9850D02*
X6100Y-9650D01*
X6100Y-9650D02*
X6400Y-9650D01*
X6400Y-9650D02*
X6400Y-9850D01*
X12150Y-18750D02*
X12350Y-18750D01*
X12350Y-18750D02*
X12350Y-18450D01*
X12350Y-18450D02*
X12150Y-18450D01*
X11950Y-18750D02*
X11750Y-18750D01*
X11750Y-18750D02*
X11750Y-18450D01*
X11750Y-18450D02*
X11950Y-18450D01*
X11950Y-14850D02*
X11950Y-14650D01*
X11950Y-14650D02*
X11650Y-14650D01*
X11650Y-14650D02*
X11650Y-14850D01*
X11950Y-15050D02*
X11950Y-15250D01*
X11950Y-15250D02*
X11650Y-15250D01*
X11650Y-15250D02*
X11650Y-15050D01*
G54D12*
X7000Y-18250D02*
X6300Y-18250D01*
X6300Y-18250D02*
X6300Y-17050D01*
X6300Y-17050D02*
X7000Y-17050D01*
X7000Y-17050D02*
X7000Y-18250D01*
G54D11*
X6450Y-12850D02*
X6250Y-12850D01*
X6250Y-12850D02*
X6250Y-13150D01*
X6250Y-13150D02*
X6450Y-13150D01*
X6650Y-12850D02*
X6850Y-12850D01*
X6850Y-12850D02*
X6850Y-13150D01*
X6850Y-13150D02*
X6650Y-13150D01*
X7100Y-12300D02*
X6900Y-12300D01*
X6900Y-12300D02*
X6900Y-12600D01*
X6900Y-12600D02*
X7100Y-12600D01*
X7300Y-12300D02*
X7500Y-12300D01*
X7500Y-12300D02*
X7500Y-12600D01*
X7500Y-12600D02*
X7300Y-12600D01*
X7500Y-5850D02*
X7300Y-5850D01*
X7300Y-5850D02*
X7300Y-6150D01*
X7300Y-6150D02*
X7500Y-6150D01*
X7700Y-5850D02*
X7900Y-5850D01*
X7900Y-5850D02*
X7900Y-6150D01*
X7900Y-6150D02*
X7700Y-6150D01*
X6250Y-7050D02*
X6250Y-6850D01*
X6250Y-6850D02*
X5950Y-6850D01*
X5950Y-6850D02*
X5950Y-7050D01*
X6250Y-7250D02*
X6250Y-7450D01*
X6250Y-7450D02*
X5950Y-7450D01*
X5950Y-7450D02*
X5950Y-7250D01*
X6400Y-7250D02*
X6400Y-7450D01*
X6400Y-7450D02*
X6700Y-7450D01*
X6700Y-7450D02*
X6700Y-7250D01*
X6400Y-7050D02*
X6400Y-6850D01*
X6400Y-6850D02*
X6700Y-6850D01*
X6700Y-6850D02*
X6700Y-7050D01*
X7000Y-14800D02*
X7000Y-14600D01*
X7000Y-14600D02*
X6700Y-14600D01*
X6700Y-14600D02*
X6700Y-14800D01*
X7000Y-15000D02*
X7000Y-15200D01*
X7000Y-15200D02*
X6700Y-15200D01*
X6700Y-15200D02*
X6700Y-15000D01*
X7000Y-9950D02*
X7200Y-9950D01*
X7200Y-9950D02*
X7200Y-9650D01*
X7200Y-9650D02*
X7000Y-9650D01*
X6800Y-9950D02*
X6600Y-9950D01*
X6600Y-9950D02*
X6600Y-9650D01*
X6600Y-9650D02*
X6800Y-9650D01*
X15450Y-6050D02*
X15450Y-5850D01*
X15450Y-5850D02*
X15150Y-5850D01*
X15150Y-5850D02*
X15150Y-6050D01*
X15450Y-6250D02*
X15450Y-6450D01*
X15450Y-6450D02*
X15150Y-6450D01*
X15150Y-6450D02*
X15150Y-6250D01*
X14950Y-6050D02*
X14950Y-5850D01*
X14950Y-5850D02*
X14650Y-5850D01*
X14650Y-5850D02*
X14650Y-6050D01*
X14950Y-6250D02*
X14950Y-6450D01*
X14950Y-6450D02*
X14650Y-6450D01*
X14650Y-6450D02*
X14650Y-6250D01*
G54D10*
X5484Y-21120D02*
X9657Y-21120D01*
G54D12*
X11900Y-18250D02*
X11900Y-17350D01*
X11900Y-17350D02*
X12400Y-17350D01*
X12400Y-17350D02*
X12400Y-18250D01*
X12400Y-18250D02*
X11900Y-18250D01*
G54D11*
X10650Y-9150D02*
X10650Y-8950D01*
X10650Y-8950D02*
X10350Y-8950D01*
X10350Y-8950D02*
X10350Y-9150D01*
X10650Y-9350D02*
X10650Y-9550D01*
X10650Y-9550D02*
X10350Y-9550D01*
X10350Y-9550D02*
X10350Y-9350D01*
G54D10*
X10105Y-6699D02*
X10424Y-6699D01*
X10462Y-6681D01*
X10480Y-6662D01*
X10499Y-6624D01*
X10499Y-6549D01*
X10480Y-6512D01*
X10462Y-6493D01*
X10424Y-6474D01*
X10105Y-6474D01*
X10105Y-6325D02*
X10105Y-6062D01*
X10499Y-6231D01*
X12906Y-8068D02*
X12906Y-7881D01*
X13019Y-8106D02*
X12625Y-7974D01*
X13019Y-7843D01*
X13019Y-7712D02*
X12625Y-7712D01*
X12625Y-7562D01*
X12644Y-7524D01*
X12662Y-7506D01*
X12700Y-7487D01*
X12756Y-7487D01*
X12794Y-7506D01*
X12812Y-7524D01*
X12831Y-7562D01*
X12831Y-7712D01*
X13019Y-7318D02*
X12625Y-7318D01*
X12625Y-7224D01*
X12644Y-7168D01*
X12681Y-7131D01*
X12719Y-7112D01*
X12794Y-7093D01*
X12850Y-7093D01*
X12925Y-7112D01*
X12962Y-7131D01*
X13000Y-7168D01*
X13019Y-7224D01*
X13019Y-7318D01*
X13000Y-6943D02*
X13019Y-6887D01*
X13019Y-6793D01*
X13000Y-6756D01*
X12981Y-6737D01*
X12944Y-6718D01*
X12906Y-6718D01*
X12869Y-6737D01*
X12850Y-6756D01*
X12831Y-6793D01*
X12812Y-6868D01*
X12794Y-6906D01*
X12775Y-6924D01*
X12737Y-6943D01*
X12700Y-6943D01*
X12662Y-6924D01*
X12644Y-6906D01*
X12625Y-6868D01*
X12625Y-6774D01*
X12644Y-6718D01*
X12869Y-6549D02*
X12869Y-6250D01*
X13019Y-6043D02*
X13019Y-5968D01*
X13000Y-5931D01*
X12981Y-5912D01*
X12925Y-5875D01*
X12850Y-5856D01*
X12700Y-5856D01*
X12662Y-5875D01*
X12644Y-5893D01*
X12625Y-5931D01*
X12625Y-6006D01*
X12644Y-6043D01*
X12662Y-6062D01*
X12700Y-6081D01*
X12794Y-6081D01*
X12831Y-6062D01*
X12850Y-6043D01*
X12869Y-6006D01*
X12869Y-5931D01*
X12850Y-5893D01*
X12831Y-5875D01*
X12794Y-5856D01*
X13019Y-5668D02*
X13019Y-5593D01*
X13000Y-5556D01*
X12981Y-5537D01*
X12925Y-5500D01*
X12850Y-5481D01*
X12700Y-5481D01*
X12662Y-5500D01*
X12644Y-5518D01*
X12625Y-5556D01*
X12625Y-5631D01*
X12644Y-5668D01*
X12662Y-5687D01*
X12700Y-5706D01*
X12794Y-5706D01*
X12831Y-5687D01*
X12850Y-5668D01*
X12869Y-5631D01*
X12869Y-5556D01*
X12850Y-5518D01*
X12831Y-5500D01*
X12794Y-5481D01*
X12625Y-5143D02*
X12625Y-5218D01*
X12644Y-5256D01*
X12662Y-5275D01*
X12719Y-5312D01*
X12794Y-5331D01*
X12944Y-5331D01*
X12981Y-5312D01*
X13000Y-5293D01*
X13019Y-5256D01*
X13019Y-5181D01*
X13000Y-5143D01*
X12981Y-5125D01*
X12944Y-5106D01*
X12850Y-5106D01*
X12812Y-5125D01*
X12794Y-5143D01*
X12775Y-5181D01*
X12775Y-5256D01*
X12794Y-5293D01*
X12812Y-5312D01*
X12850Y-5331D01*
X12625Y-4862D02*
X12625Y-4825D01*
X12644Y-4787D01*
X12662Y-4768D01*
X12700Y-4750D01*
X12775Y-4731D01*
X12869Y-4731D01*
X12944Y-4750D01*
X12981Y-4768D01*
X13000Y-4787D01*
X13019Y-4825D01*
X13019Y-4862D01*
X13000Y-4900D01*
X12981Y-4918D01*
X12944Y-4937D01*
X12869Y-4956D01*
X12775Y-4956D01*
X12700Y-4937D01*
X12662Y-4918D01*
X12644Y-4900D01*
X12625Y-4862D01*
G54D11*
X10330Y-19205D02*
X10290Y-19140D01*
X10261Y-19205D02*
X10261Y-19067D01*
X10307Y-19067D01*
X10318Y-19074D01*
X10324Y-19081D01*
X10330Y-19094D01*
X10330Y-19113D01*
X10324Y-19127D01*
X10318Y-19133D01*
X10307Y-19140D01*
X10261Y-19140D01*
X10387Y-19205D02*
X10410Y-19205D01*
X10421Y-19199D01*
X10427Y-19192D01*
X10438Y-19173D01*
X10444Y-19146D01*
X10444Y-19094D01*
X10438Y-19081D01*
X10432Y-19074D01*
X10421Y-19067D01*
X10398Y-19067D01*
X10387Y-19074D01*
X10381Y-19081D01*
X10375Y-19094D01*
X10375Y-19127D01*
X10381Y-19140D01*
X10387Y-19146D01*
X10398Y-19153D01*
X10421Y-19153D01*
X10432Y-19146D01*
X10438Y-19140D01*
X10444Y-19127D01*
X10272Y-19642D02*
X10267Y-19649D01*
X10250Y-19655D01*
X10238Y-19655D01*
X10221Y-19649D01*
X10210Y-19636D01*
X10204Y-19623D01*
X10198Y-19596D01*
X10198Y-19577D01*
X10204Y-19550D01*
X10210Y-19537D01*
X10221Y-19524D01*
X10238Y-19517D01*
X10250Y-19517D01*
X10267Y-19524D01*
X10272Y-19531D01*
X10387Y-19655D02*
X10318Y-19655D01*
X10352Y-19655D02*
X10352Y-19517D01*
X10341Y-19537D01*
X10330Y-19550D01*
X10318Y-19557D01*
X10501Y-19655D02*
X10432Y-19655D01*
X10467Y-19655D02*
X10467Y-19517D01*
X10455Y-19537D01*
X10444Y-19550D01*
X10432Y-19557D01*
X10255Y-17677D02*
X10190Y-17717D01*
X10255Y-17745D02*
X10117Y-17745D01*
X10117Y-17700D01*
X10124Y-17688D01*
X10131Y-17682D01*
X10144Y-17677D01*
X10163Y-17677D01*
X10177Y-17682D01*
X10183Y-17688D01*
X10190Y-17700D01*
X10190Y-17745D01*
X10255Y-17562D02*
X10255Y-17631D01*
X10255Y-17597D02*
X10117Y-17597D01*
X10137Y-17608D01*
X10150Y-17620D01*
X10157Y-17631D01*
X10255Y-17448D02*
X10255Y-17517D01*
X10255Y-17482D02*
X10117Y-17482D01*
X10137Y-17494D01*
X10150Y-17505D01*
X10157Y-17517D01*
X10972Y-19205D02*
X10932Y-19140D01*
X10904Y-19205D02*
X10904Y-19067D01*
X10950Y-19067D01*
X10961Y-19074D01*
X10967Y-19081D01*
X10972Y-19094D01*
X10972Y-19113D01*
X10967Y-19127D01*
X10961Y-19133D01*
X10950Y-19140D01*
X10904Y-19140D01*
X11087Y-19205D02*
X11018Y-19205D01*
X11052Y-19205D02*
X11052Y-19067D01*
X11041Y-19087D01*
X11030Y-19100D01*
X11018Y-19107D01*
X11161Y-19067D02*
X11172Y-19067D01*
X11184Y-19074D01*
X11190Y-19081D01*
X11195Y-19094D01*
X11201Y-19120D01*
X11201Y-19153D01*
X11195Y-19179D01*
X11190Y-19192D01*
X11184Y-19199D01*
X11172Y-19205D01*
X11161Y-19205D01*
X11150Y-19199D01*
X11144Y-19192D01*
X11138Y-19179D01*
X11132Y-19153D01*
X11132Y-19120D01*
X11138Y-19094D01*
X11144Y-19081D01*
X11150Y-19074D01*
X11161Y-19067D01*
X6630Y-16755D02*
X6590Y-16690D01*
X6561Y-16755D02*
X6561Y-16617D01*
X6607Y-16617D01*
X6618Y-16624D01*
X6624Y-16631D01*
X6630Y-16644D01*
X6630Y-16663D01*
X6624Y-16677D01*
X6618Y-16683D01*
X6607Y-16690D01*
X6561Y-16690D01*
X6698Y-16677D02*
X6687Y-16670D01*
X6681Y-16663D01*
X6675Y-16650D01*
X6675Y-16644D01*
X6681Y-16631D01*
X6687Y-16624D01*
X6698Y-16617D01*
X6721Y-16617D01*
X6732Y-16624D01*
X6738Y-16631D01*
X6744Y-16644D01*
X6744Y-16650D01*
X6738Y-16663D01*
X6732Y-16670D01*
X6721Y-16677D01*
X6698Y-16677D01*
X6687Y-16683D01*
X6681Y-16690D01*
X6675Y-16703D01*
X6675Y-16729D01*
X6681Y-16742D01*
X6687Y-16749D01*
X6698Y-16755D01*
X6721Y-16755D01*
X6732Y-16749D01*
X6738Y-16742D01*
X6744Y-16729D01*
X6744Y-16703D01*
X6738Y-16690D01*
X6732Y-16683D01*
X6721Y-16677D01*
X7730Y-18042D02*
X7724Y-18049D01*
X7707Y-18055D01*
X7695Y-18055D01*
X7678Y-18049D01*
X7667Y-18036D01*
X7661Y-18023D01*
X7655Y-17996D01*
X7655Y-17977D01*
X7661Y-17950D01*
X7667Y-17937D01*
X7678Y-17924D01*
X7695Y-17917D01*
X7707Y-17917D01*
X7724Y-17924D01*
X7730Y-17931D01*
X7787Y-18055D02*
X7810Y-18055D01*
X7821Y-18049D01*
X7827Y-18042D01*
X7838Y-18023D01*
X7844Y-17996D01*
X7844Y-17944D01*
X7838Y-17931D01*
X7832Y-17924D01*
X7821Y-17917D01*
X7798Y-17917D01*
X7787Y-17924D01*
X7781Y-17931D01*
X7775Y-17944D01*
X7775Y-17977D01*
X7781Y-17990D01*
X7787Y-17996D01*
X7798Y-18003D01*
X7821Y-18003D01*
X7832Y-17996D01*
X7838Y-17990D01*
X7844Y-17977D01*
X6072Y-18542D02*
X6067Y-18549D01*
X6050Y-18555D01*
X6038Y-18555D01*
X6021Y-18549D01*
X6010Y-18536D01*
X6004Y-18523D01*
X5998Y-18496D01*
X5998Y-18477D01*
X6004Y-18450D01*
X6010Y-18437D01*
X6021Y-18424D01*
X6038Y-18417D01*
X6050Y-18417D01*
X6067Y-18424D01*
X6072Y-18431D01*
X6187Y-18555D02*
X6118Y-18555D01*
X6152Y-18555D02*
X6152Y-18417D01*
X6141Y-18437D01*
X6130Y-18450D01*
X6118Y-18457D01*
X6261Y-18417D02*
X6272Y-18417D01*
X6284Y-18424D01*
X6290Y-18431D01*
X6295Y-18444D01*
X6301Y-18470D01*
X6301Y-18503D01*
X6295Y-18529D01*
X6290Y-18542D01*
X6284Y-18549D01*
X6272Y-18555D01*
X6261Y-18555D01*
X6250Y-18549D01*
X6244Y-18542D01*
X6238Y-18529D01*
X6232Y-18503D01*
X6232Y-18470D01*
X6238Y-18444D01*
X6244Y-18431D01*
X6250Y-18424D01*
X6261Y-18417D01*
X14830Y-9255D02*
X14790Y-9190D01*
X14761Y-9255D02*
X14761Y-9117D01*
X14807Y-9117D01*
X14818Y-9124D01*
X14824Y-9131D01*
X14830Y-9144D01*
X14830Y-9163D01*
X14824Y-9177D01*
X14818Y-9183D01*
X14807Y-9190D01*
X14761Y-9190D01*
X14932Y-9117D02*
X14910Y-9117D01*
X14898Y-9124D01*
X14892Y-9131D01*
X14881Y-9150D01*
X14875Y-9177D01*
X14875Y-9229D01*
X14881Y-9242D01*
X14887Y-9249D01*
X14898Y-9255D01*
X14921Y-9255D01*
X14932Y-9249D01*
X14938Y-9242D01*
X14944Y-9229D01*
X14944Y-9196D01*
X14938Y-9183D01*
X14932Y-9177D01*
X14921Y-9170D01*
X14898Y-9170D01*
X14887Y-9177D01*
X14881Y-9183D01*
X14875Y-9196D01*
X14830Y-9705D02*
X14790Y-9640D01*
X14761Y-9705D02*
X14761Y-9567D01*
X14807Y-9567D01*
X14818Y-9574D01*
X14824Y-9581D01*
X14830Y-9594D01*
X14830Y-9613D01*
X14824Y-9627D01*
X14818Y-9633D01*
X14807Y-9640D01*
X14761Y-9640D01*
X14870Y-9567D02*
X14950Y-9567D01*
X14898Y-9705D01*
X11922Y-16992D02*
X11917Y-16999D01*
X11900Y-17005D01*
X11888Y-17005D01*
X11871Y-16999D01*
X11860Y-16986D01*
X11854Y-16973D01*
X11848Y-16946D01*
X11848Y-16927D01*
X11854Y-16900D01*
X11860Y-16887D01*
X11871Y-16874D01*
X11888Y-16867D01*
X11900Y-16867D01*
X11917Y-16874D01*
X11922Y-16881D01*
X12037Y-17005D02*
X11968Y-17005D01*
X12002Y-17005D02*
X12002Y-16867D01*
X11991Y-16887D01*
X11980Y-16900D01*
X11968Y-16907D01*
X12077Y-16867D02*
X12151Y-16867D01*
X12111Y-16920D01*
X12128Y-16920D01*
X12140Y-16927D01*
X12145Y-16933D01*
X12151Y-16946D01*
X12151Y-16979D01*
X12145Y-16992D01*
X12140Y-16999D01*
X12128Y-17005D01*
X12094Y-17005D01*
X12082Y-16999D01*
X12077Y-16992D01*
X6892Y-15677D02*
X6899Y-15682D01*
X6905Y-15700D01*
X6905Y-15711D01*
X6899Y-15728D01*
X6886Y-15740D01*
X6873Y-15745D01*
X6846Y-15751D01*
X6827Y-15751D01*
X6800Y-15745D01*
X6787Y-15740D01*
X6774Y-15728D01*
X6767Y-15711D01*
X6767Y-15700D01*
X6774Y-15682D01*
X6781Y-15677D01*
X6781Y-15631D02*
X6774Y-15625D01*
X6767Y-15614D01*
X6767Y-15585D01*
X6774Y-15574D01*
X6781Y-15568D01*
X6794Y-15562D01*
X6807Y-15562D01*
X6827Y-15568D01*
X6905Y-15637D01*
X6905Y-15562D01*
X6767Y-15488D02*
X6767Y-15477D01*
X6774Y-15465D01*
X6781Y-15460D01*
X6794Y-15454D01*
X6820Y-15448D01*
X6853Y-15448D01*
X6879Y-15454D01*
X6892Y-15460D01*
X6899Y-15465D01*
X6905Y-15477D01*
X6905Y-15488D01*
X6899Y-15500D01*
X6892Y-15505D01*
X6879Y-15511D01*
X6853Y-15517D01*
X6820Y-15517D01*
X6794Y-15511D01*
X6781Y-15505D01*
X6774Y-15500D01*
X6767Y-15488D01*
X10492Y-6627D02*
X10499Y-6632D01*
X10505Y-6650D01*
X10505Y-6661D01*
X10499Y-6678D01*
X10486Y-6690D01*
X10473Y-6695D01*
X10446Y-6701D01*
X10427Y-6701D01*
X10400Y-6695D01*
X10387Y-6690D01*
X10374Y-6678D01*
X10367Y-6661D01*
X10367Y-6650D01*
X10374Y-6632D01*
X10381Y-6627D01*
X10505Y-6512D02*
X10505Y-6581D01*
X10505Y-6547D02*
X10367Y-6547D01*
X10387Y-6558D01*
X10400Y-6570D01*
X10407Y-6581D01*
X10367Y-6472D02*
X10367Y-6392D01*
X10505Y-6444D01*
X8822Y-16592D02*
X8817Y-16599D01*
X8800Y-16605D01*
X8788Y-16605D01*
X8771Y-16599D01*
X8760Y-16586D01*
X8754Y-16573D01*
X8748Y-16546D01*
X8748Y-16527D01*
X8754Y-16500D01*
X8760Y-16487D01*
X8771Y-16474D01*
X8788Y-16467D01*
X8800Y-16467D01*
X8817Y-16474D01*
X8822Y-16481D01*
X8868Y-16481D02*
X8874Y-16474D01*
X8885Y-16467D01*
X8914Y-16467D01*
X8925Y-16474D01*
X8931Y-16481D01*
X8937Y-16494D01*
X8937Y-16507D01*
X8931Y-16527D01*
X8862Y-16605D01*
X8937Y-16605D01*
X9051Y-16605D02*
X8982Y-16605D01*
X9017Y-16605D02*
X9017Y-16467D01*
X9005Y-16487D01*
X8994Y-16500D01*
X8982Y-16507D01*
X8072Y-16592D02*
X8067Y-16599D01*
X8050Y-16605D01*
X8038Y-16605D01*
X8021Y-16599D01*
X8010Y-16586D01*
X8004Y-16573D01*
X7998Y-16546D01*
X7998Y-16527D01*
X8004Y-16500D01*
X8010Y-16487D01*
X8021Y-16474D01*
X8038Y-16467D01*
X8050Y-16467D01*
X8067Y-16474D01*
X8072Y-16481D01*
X8118Y-16481D02*
X8124Y-16474D01*
X8135Y-16467D01*
X8164Y-16467D01*
X8175Y-16474D01*
X8181Y-16481D01*
X8187Y-16494D01*
X8187Y-16507D01*
X8181Y-16527D01*
X8112Y-16605D01*
X8187Y-16605D01*
X8232Y-16481D02*
X8238Y-16474D01*
X8250Y-16467D01*
X8278Y-16467D01*
X8290Y-16474D01*
X8295Y-16481D01*
X8301Y-16494D01*
X8301Y-16507D01*
X8295Y-16527D01*
X8227Y-16605D01*
X8301Y-16605D01*
X9792Y-7977D02*
X9799Y-7982D01*
X9805Y-8000D01*
X9805Y-8011D01*
X9799Y-8028D01*
X9786Y-8040D01*
X9773Y-8045D01*
X9746Y-8051D01*
X9727Y-8051D01*
X9700Y-8045D01*
X9687Y-8040D01*
X9674Y-8028D01*
X9667Y-8011D01*
X9667Y-8000D01*
X9674Y-7982D01*
X9681Y-7977D01*
X9805Y-7862D02*
X9805Y-7931D01*
X9805Y-7897D02*
X9667Y-7897D01*
X9687Y-7908D01*
X9700Y-7920D01*
X9707Y-7931D01*
X9727Y-7794D02*
X9720Y-7805D01*
X9713Y-7811D01*
X9700Y-7817D01*
X9694Y-7817D01*
X9681Y-7811D01*
X9674Y-7805D01*
X9667Y-7794D01*
X9667Y-7771D01*
X9674Y-7760D01*
X9681Y-7754D01*
X9694Y-7748D01*
X9700Y-7748D01*
X9713Y-7754D01*
X9720Y-7760D01*
X9727Y-7771D01*
X9727Y-7794D01*
X9733Y-7805D01*
X9740Y-7811D01*
X9753Y-7817D01*
X9779Y-7817D01*
X9792Y-7811D01*
X9799Y-7805D01*
X9805Y-7794D01*
X9805Y-7771D01*
X9799Y-7760D01*
X9792Y-7754D01*
X9779Y-7748D01*
X9753Y-7748D01*
X9740Y-7754D01*
X9733Y-7760D01*
X9727Y-7771D01*
X11972Y-19205D02*
X11932Y-19140D01*
X11904Y-19205D02*
X11904Y-19067D01*
X11950Y-19067D01*
X11961Y-19074D01*
X11967Y-19081D01*
X11972Y-19094D01*
X11972Y-19113D01*
X11967Y-19127D01*
X11961Y-19133D01*
X11950Y-19140D01*
X11904Y-19140D01*
X12087Y-19205D02*
X12018Y-19205D01*
X12052Y-19205D02*
X12052Y-19067D01*
X12041Y-19087D01*
X12030Y-19100D01*
X12018Y-19107D01*
X12195Y-19067D02*
X12138Y-19067D01*
X12132Y-19133D01*
X12138Y-19127D01*
X12150Y-19120D01*
X12178Y-19120D01*
X12190Y-19127D01*
X12195Y-19133D01*
X12201Y-19146D01*
X12201Y-19179D01*
X12195Y-19192D01*
X12190Y-19199D01*
X12178Y-19205D01*
X12150Y-19205D01*
X12138Y-19199D01*
X12132Y-19192D01*
X12042Y-11020D02*
X12049Y-11025D01*
X12055Y-11042D01*
X12055Y-11054D01*
X12049Y-11071D01*
X12036Y-11082D01*
X12023Y-11088D01*
X11996Y-11094D01*
X11977Y-11094D01*
X11950Y-11088D01*
X11937Y-11082D01*
X11924Y-11071D01*
X11917Y-11054D01*
X11917Y-11042D01*
X11924Y-11025D01*
X11931Y-11020D01*
X11917Y-10980D02*
X11917Y-10905D01*
X11970Y-10945D01*
X11970Y-10928D01*
X11977Y-10917D01*
X11983Y-10911D01*
X11996Y-10905D01*
X12029Y-10905D01*
X12042Y-10911D01*
X12049Y-10917D01*
X12055Y-10928D01*
X12055Y-10962D01*
X12049Y-10974D01*
X12042Y-10980D01*
X6292Y-10027D02*
X6299Y-10032D01*
X6305Y-10050D01*
X6305Y-10061D01*
X6299Y-10078D01*
X6286Y-10090D01*
X6273Y-10095D01*
X6246Y-10101D01*
X6227Y-10101D01*
X6200Y-10095D01*
X6187Y-10090D01*
X6174Y-10078D01*
X6167Y-10061D01*
X6167Y-10050D01*
X6174Y-10032D01*
X6181Y-10027D01*
X6181Y-9981D02*
X6174Y-9975D01*
X6167Y-9964D01*
X6167Y-9935D01*
X6174Y-9924D01*
X6181Y-9918D01*
X6194Y-9912D01*
X6207Y-9912D01*
X6227Y-9918D01*
X6305Y-9987D01*
X6305Y-9912D01*
X6167Y-9872D02*
X6167Y-9798D01*
X6220Y-9838D01*
X6220Y-9821D01*
X6227Y-9810D01*
X6233Y-9804D01*
X6246Y-9798D01*
X6279Y-9798D01*
X6292Y-9804D01*
X6299Y-9810D01*
X6305Y-9821D01*
X6305Y-9855D01*
X6299Y-9867D01*
X6292Y-9872D01*
X11972Y-18655D02*
X11932Y-18590D01*
X11904Y-18655D02*
X11904Y-18517D01*
X11950Y-18517D01*
X11961Y-18524D01*
X11967Y-18531D01*
X11972Y-18544D01*
X11972Y-18563D01*
X11967Y-18577D01*
X11961Y-18583D01*
X11950Y-18590D01*
X11904Y-18590D01*
X12087Y-18655D02*
X12018Y-18655D01*
X12052Y-18655D02*
X12052Y-18517D01*
X12041Y-18537D01*
X12030Y-18550D01*
X12018Y-18557D01*
X12190Y-18563D02*
X12190Y-18655D01*
X12161Y-18511D02*
X12132Y-18609D01*
X12207Y-18609D01*
X11842Y-14970D02*
X11849Y-14975D01*
X11855Y-14992D01*
X11855Y-15004D01*
X11849Y-15021D01*
X11836Y-15032D01*
X11823Y-15038D01*
X11796Y-15044D01*
X11777Y-15044D01*
X11750Y-15038D01*
X11737Y-15032D01*
X11724Y-15021D01*
X11717Y-15004D01*
X11717Y-14992D01*
X11724Y-14975D01*
X11731Y-14970D01*
X11731Y-14924D02*
X11724Y-14918D01*
X11717Y-14907D01*
X11717Y-14878D01*
X11724Y-14867D01*
X11731Y-14861D01*
X11744Y-14855D01*
X11757Y-14855D01*
X11777Y-14861D01*
X11855Y-14930D01*
X11855Y-14855D01*
G54D12*
X6577Y-18367D02*
X6577Y-18569D01*
X6589Y-18593D01*
X6601Y-18605D01*
X6625Y-18617D01*
X6672Y-18617D01*
X6696Y-18605D01*
X6708Y-18593D01*
X6720Y-18569D01*
X6720Y-18367D01*
X6815Y-18367D02*
X6970Y-18367D01*
X6887Y-18462D01*
X6922Y-18462D01*
X6946Y-18474D01*
X6958Y-18486D01*
X6970Y-18510D01*
X6970Y-18569D01*
X6958Y-18593D01*
X6946Y-18605D01*
X6922Y-18617D01*
X6851Y-18617D01*
X6827Y-18605D01*
X6815Y-18593D01*
X6751Y-18673D02*
X6501Y-18673D01*
X6679Y-18590D01*
X6501Y-18507D01*
X6751Y-18507D01*
X6727Y-18245D02*
X6739Y-18257D01*
X6751Y-18292D01*
X6751Y-18316D01*
X6739Y-18352D01*
X6715Y-18376D01*
X6691Y-18388D01*
X6644Y-18400D01*
X6608Y-18400D01*
X6560Y-18388D01*
X6536Y-18376D01*
X6513Y-18352D01*
X6501Y-18316D01*
X6501Y-18292D01*
X6513Y-18257D01*
X6525Y-18245D01*
X6751Y-18138D02*
X6501Y-18138D01*
X6501Y-18042D01*
X6513Y-18019D01*
X6525Y-18007D01*
X6548Y-17995D01*
X6584Y-17995D01*
X6608Y-18007D01*
X6620Y-18019D01*
X6632Y-18042D01*
X6632Y-18138D01*
X6501Y-17911D02*
X6501Y-17745D01*
X6751Y-17852D01*
X6501Y-17673D02*
X6501Y-17519D01*
X6596Y-17602D01*
X6596Y-17566D01*
X6608Y-17542D01*
X6620Y-17530D01*
X6644Y-17519D01*
X6703Y-17519D01*
X6727Y-17530D01*
X6739Y-17542D01*
X6751Y-17566D01*
X6751Y-17638D01*
X6739Y-17661D01*
X6727Y-17673D01*
X6608Y-17376D02*
X6596Y-17400D01*
X6584Y-17411D01*
X6560Y-17423D01*
X6548Y-17423D01*
X6525Y-17411D01*
X6513Y-17400D01*
X6501Y-17376D01*
X6501Y-17328D01*
X6513Y-17304D01*
X6525Y-17292D01*
X6548Y-17280D01*
X6560Y-17280D01*
X6584Y-17292D01*
X6596Y-17304D01*
X6608Y-17328D01*
X6608Y-17376D01*
X6620Y-17400D01*
X6632Y-17411D01*
X6655Y-17423D01*
X6703Y-17423D01*
X6727Y-17411D01*
X6739Y-17400D01*
X6751Y-17376D01*
X6751Y-17328D01*
X6739Y-17304D01*
X6727Y-17292D01*
X6703Y-17280D01*
X6655Y-17280D01*
X6632Y-17292D01*
X6620Y-17304D01*
X6608Y-17328D01*
X6501Y-17197D02*
X6501Y-17042D01*
X6596Y-17126D01*
X6596Y-17090D01*
X6608Y-17066D01*
X6620Y-17054D01*
X6644Y-17042D01*
X6703Y-17042D01*
X6727Y-17054D01*
X6739Y-17066D01*
X6751Y-17090D01*
X6751Y-17161D01*
X6739Y-17185D01*
X6727Y-17197D01*
X6751Y-16804D02*
X6751Y-16947D01*
X6751Y-16876D02*
X6501Y-16876D01*
X6536Y-16900D01*
X6560Y-16923D01*
X6572Y-16947D01*
X6501Y-16733D02*
X6501Y-16590D01*
X6751Y-16661D02*
X6501Y-16661D01*
G54D11*
X6530Y-13055D02*
X6490Y-12990D01*
X6461Y-13055D02*
X6461Y-12917D01*
X6507Y-12917D01*
X6518Y-12924D01*
X6524Y-12931D01*
X6530Y-12944D01*
X6530Y-12963D01*
X6524Y-12977D01*
X6518Y-12983D01*
X6507Y-12990D01*
X6461Y-12990D01*
X6644Y-13055D02*
X6575Y-13055D01*
X6610Y-13055D02*
X6610Y-12917D01*
X6598Y-12937D01*
X6587Y-12950D01*
X6575Y-12957D01*
X7180Y-12505D02*
X7140Y-12440D01*
X7111Y-12505D02*
X7111Y-12367D01*
X7157Y-12367D01*
X7168Y-12374D01*
X7174Y-12381D01*
X7180Y-12394D01*
X7180Y-12413D01*
X7174Y-12427D01*
X7168Y-12433D01*
X7157Y-12440D01*
X7111Y-12440D01*
X7225Y-12381D02*
X7231Y-12374D01*
X7242Y-12367D01*
X7271Y-12367D01*
X7282Y-12374D01*
X7288Y-12381D01*
X7294Y-12394D01*
X7294Y-12407D01*
X7288Y-12427D01*
X7220Y-12505D01*
X7294Y-12505D01*
G54D10*
X10839Y-15600D02*
X10839Y-15919D01*
X10858Y-15956D01*
X10876Y-15975D01*
X10914Y-15994D01*
X10989Y-15994D01*
X11026Y-15975D01*
X11045Y-15956D01*
X11064Y-15919D01*
X11064Y-15600D01*
X11439Y-15600D02*
X11251Y-15600D01*
X11233Y-15787D01*
X11251Y-15769D01*
X11289Y-15750D01*
X11383Y-15750D01*
X11420Y-15769D01*
X11439Y-15787D01*
X11458Y-15825D01*
X11458Y-15919D01*
X11439Y-15956D01*
X11420Y-15975D01*
X11383Y-15994D01*
X11289Y-15994D01*
X11251Y-15975D01*
X11233Y-15956D01*
X10165Y-21765D02*
X10390Y-21765D01*
X10278Y-22159D02*
X10278Y-21765D01*
X10522Y-22159D02*
X10522Y-21765D01*
X10671Y-21765D01*
X10709Y-21784D01*
X10728Y-21803D01*
X10746Y-21840D01*
X10746Y-21896D01*
X10728Y-21934D01*
X10709Y-21953D01*
X10671Y-21971D01*
X10522Y-21971D01*
X10896Y-22140D02*
X10953Y-22159D01*
X11046Y-22159D01*
X11084Y-22140D01*
X11103Y-22121D01*
X11121Y-22084D01*
X11121Y-22046D01*
X11103Y-22009D01*
X11084Y-21990D01*
X11046Y-21971D01*
X10971Y-21953D01*
X10934Y-21934D01*
X10915Y-21915D01*
X10896Y-21878D01*
X10896Y-21840D01*
X10915Y-21803D01*
X10934Y-21784D01*
X10971Y-21765D01*
X11065Y-21765D01*
X11121Y-21784D01*
X11459Y-21765D02*
X11384Y-21765D01*
X11346Y-21784D01*
X11328Y-21803D01*
X11290Y-21859D01*
X11271Y-21934D01*
X11271Y-22084D01*
X11290Y-22121D01*
X11309Y-22140D01*
X11346Y-22159D01*
X11421Y-22159D01*
X11459Y-22140D01*
X11478Y-22121D01*
X11496Y-22084D01*
X11496Y-21990D01*
X11478Y-21953D01*
X11459Y-21934D01*
X11421Y-21915D01*
X11346Y-21915D01*
X11309Y-21934D01*
X11290Y-21953D01*
X11271Y-21990D01*
X11871Y-22159D02*
X11646Y-22159D01*
X11759Y-22159D02*
X11759Y-21765D01*
X11721Y-21821D01*
X11684Y-21859D01*
X11646Y-21878D01*
X12021Y-21803D02*
X12040Y-21784D01*
X12078Y-21765D01*
X12171Y-21765D01*
X12209Y-21784D01*
X12228Y-21803D01*
X12246Y-21840D01*
X12246Y-21878D01*
X12228Y-21934D01*
X12003Y-22159D01*
X12246Y-22159D01*
X12490Y-21765D02*
X12528Y-21765D01*
X12565Y-21784D01*
X12584Y-21803D01*
X12603Y-21840D01*
X12621Y-21915D01*
X12621Y-22009D01*
X12603Y-22084D01*
X12584Y-22121D01*
X12565Y-22140D01*
X12528Y-22159D01*
X12490Y-22159D01*
X12453Y-22140D01*
X12434Y-22121D01*
X12415Y-22084D01*
X12396Y-22009D01*
X12396Y-21915D01*
X12415Y-21840D01*
X12434Y-21803D01*
X12453Y-21784D01*
X12490Y-21765D01*
X12865Y-21765D02*
X12902Y-21765D01*
X12940Y-21784D01*
X12959Y-21803D01*
X12977Y-21840D01*
X12996Y-21915D01*
X12996Y-22009D01*
X12977Y-22084D01*
X12959Y-22121D01*
X12940Y-22140D01*
X12902Y-22159D01*
X12865Y-22159D01*
X12827Y-22140D01*
X12809Y-22121D01*
X12790Y-22084D01*
X12771Y-22009D01*
X12771Y-21915D01*
X12790Y-21840D01*
X12809Y-21803D01*
X12827Y-21784D01*
X12865Y-21765D01*
G54D11*
X7522Y-6055D02*
X7482Y-5990D01*
X7454Y-6055D02*
X7454Y-5917D01*
X7500Y-5917D01*
X7511Y-5924D01*
X7517Y-5931D01*
X7522Y-5944D01*
X7522Y-5963D01*
X7517Y-5977D01*
X7511Y-5983D01*
X7500Y-5990D01*
X7454Y-5990D01*
X7637Y-6055D02*
X7568Y-6055D01*
X7602Y-6055D02*
X7602Y-5917D01*
X7591Y-5937D01*
X7580Y-5950D01*
X7568Y-5957D01*
X7694Y-6055D02*
X7717Y-6055D01*
X7728Y-6049D01*
X7734Y-6042D01*
X7745Y-6023D01*
X7751Y-5996D01*
X7751Y-5944D01*
X7745Y-5931D01*
X7740Y-5924D01*
X7728Y-5917D01*
X7705Y-5917D01*
X7694Y-5924D01*
X7688Y-5931D01*
X7682Y-5944D01*
X7682Y-5977D01*
X7688Y-5990D01*
X7694Y-5996D01*
X7705Y-6003D01*
X7728Y-6003D01*
X7740Y-5996D01*
X7745Y-5990D01*
X7751Y-5977D01*
X6155Y-7227D02*
X6090Y-7267D01*
X6155Y-7295D02*
X6017Y-7295D01*
X6017Y-7250D01*
X6024Y-7238D01*
X6031Y-7232D01*
X6044Y-7227D01*
X6063Y-7227D01*
X6077Y-7232D01*
X6083Y-7238D01*
X6090Y-7250D01*
X6090Y-7295D01*
X6031Y-7181D02*
X6024Y-7175D01*
X6017Y-7164D01*
X6017Y-7135D01*
X6024Y-7124D01*
X6031Y-7118D01*
X6044Y-7112D01*
X6057Y-7112D01*
X6077Y-7118D01*
X6155Y-7187D01*
X6155Y-7112D01*
X6017Y-7010D02*
X6017Y-7032D01*
X6024Y-7044D01*
X6031Y-7050D01*
X6050Y-7061D01*
X6077Y-7067D01*
X6129Y-7067D01*
X6142Y-7061D01*
X6149Y-7055D01*
X6155Y-7044D01*
X6155Y-7021D01*
X6149Y-7010D01*
X6142Y-7004D01*
X6129Y-6998D01*
X6096Y-6998D01*
X6083Y-7004D01*
X6077Y-7010D01*
X6070Y-7021D01*
X6070Y-7044D01*
X6077Y-7055D01*
X6083Y-7061D01*
X6096Y-7067D01*
X6605Y-7227D02*
X6540Y-7267D01*
X6605Y-7295D02*
X6467Y-7295D01*
X6467Y-7250D01*
X6474Y-7238D01*
X6481Y-7232D01*
X6494Y-7227D01*
X6513Y-7227D01*
X6527Y-7232D01*
X6533Y-7238D01*
X6540Y-7250D01*
X6540Y-7295D01*
X6481Y-7181D02*
X6474Y-7175D01*
X6467Y-7164D01*
X6467Y-7135D01*
X6474Y-7124D01*
X6481Y-7118D01*
X6494Y-7112D01*
X6507Y-7112D01*
X6527Y-7118D01*
X6605Y-7187D01*
X6605Y-7112D01*
X6467Y-7072D02*
X6467Y-6998D01*
X6520Y-7038D01*
X6520Y-7021D01*
X6527Y-7010D01*
X6533Y-7004D01*
X6546Y-6998D01*
X6579Y-6998D01*
X6592Y-7004D01*
X6599Y-7010D01*
X6605Y-7021D01*
X6605Y-7055D01*
X6599Y-7067D01*
X6592Y-7072D01*
X6905Y-14977D02*
X6840Y-15017D01*
X6905Y-15045D02*
X6767Y-15045D01*
X6767Y-15000D01*
X6774Y-14988D01*
X6781Y-14982D01*
X6794Y-14977D01*
X6813Y-14977D01*
X6827Y-14982D01*
X6833Y-14988D01*
X6840Y-15000D01*
X6840Y-15045D01*
X6781Y-14931D02*
X6774Y-14925D01*
X6767Y-14914D01*
X6767Y-14885D01*
X6774Y-14874D01*
X6781Y-14868D01*
X6794Y-14862D01*
X6807Y-14862D01*
X6827Y-14868D01*
X6905Y-14937D01*
X6905Y-14862D01*
X6767Y-14788D02*
X6767Y-14777D01*
X6774Y-14765D01*
X6781Y-14760D01*
X6794Y-14754D01*
X6820Y-14748D01*
X6853Y-14748D01*
X6879Y-14754D01*
X6892Y-14760D01*
X6899Y-14765D01*
X6905Y-14777D01*
X6905Y-14788D01*
X6899Y-14800D01*
X6892Y-14805D01*
X6879Y-14811D01*
X6853Y-14817D01*
X6820Y-14817D01*
X6794Y-14811D01*
X6781Y-14805D01*
X6774Y-14800D01*
X6767Y-14788D01*
X6822Y-9842D02*
X6817Y-9849D01*
X6800Y-9855D01*
X6788Y-9855D01*
X6771Y-9849D01*
X6760Y-9836D01*
X6754Y-9823D01*
X6748Y-9796D01*
X6748Y-9777D01*
X6754Y-9750D01*
X6760Y-9737D01*
X6771Y-9724D01*
X6788Y-9717D01*
X6800Y-9717D01*
X6817Y-9724D01*
X6822Y-9731D01*
X6868Y-9731D02*
X6874Y-9724D01*
X6885Y-9717D01*
X6914Y-9717D01*
X6925Y-9724D01*
X6931Y-9731D01*
X6937Y-9744D01*
X6937Y-9757D01*
X6931Y-9777D01*
X6862Y-9855D01*
X6937Y-9855D01*
X7045Y-9717D02*
X6988Y-9717D01*
X6982Y-9783D01*
X6988Y-9777D01*
X7000Y-9770D01*
X7028Y-9770D01*
X7040Y-9777D01*
X7045Y-9783D01*
X7051Y-9796D01*
X7051Y-9829D01*
X7045Y-9842D01*
X7040Y-9849D01*
X7028Y-9855D01*
X7000Y-9855D01*
X6988Y-9849D01*
X6982Y-9842D01*
X15355Y-6227D02*
X15290Y-6267D01*
X15355Y-6295D02*
X15217Y-6295D01*
X15217Y-6250D01*
X15224Y-6238D01*
X15231Y-6232D01*
X15244Y-6227D01*
X15263Y-6227D01*
X15277Y-6232D01*
X15283Y-6238D01*
X15290Y-6250D01*
X15290Y-6295D01*
X15231Y-6181D02*
X15224Y-6175D01*
X15217Y-6164D01*
X15217Y-6135D01*
X15224Y-6124D01*
X15231Y-6118D01*
X15244Y-6112D01*
X15257Y-6112D01*
X15277Y-6118D01*
X15355Y-6187D01*
X15355Y-6112D01*
X15263Y-6010D02*
X15355Y-6010D01*
X15211Y-6038D02*
X15309Y-6067D01*
X15309Y-5992D01*
X14855Y-6227D02*
X14790Y-6267D01*
X14855Y-6295D02*
X14717Y-6295D01*
X14717Y-6250D01*
X14724Y-6238D01*
X14731Y-6232D01*
X14744Y-6227D01*
X14763Y-6227D01*
X14777Y-6232D01*
X14783Y-6238D01*
X14790Y-6250D01*
X14790Y-6295D01*
X14731Y-6181D02*
X14724Y-6175D01*
X14717Y-6164D01*
X14717Y-6135D01*
X14724Y-6124D01*
X14731Y-6118D01*
X14744Y-6112D01*
X14757Y-6112D01*
X14777Y-6118D01*
X14855Y-6187D01*
X14855Y-6112D01*
X14717Y-6072D02*
X14717Y-5992D01*
X14855Y-6044D01*
G54D10*
X6062Y-8983D02*
X6062Y-9302D01*
X6081Y-9339D01*
X6100Y-9358D01*
X6137Y-9377D01*
X6212Y-9377D01*
X6250Y-9358D01*
X6268Y-9339D01*
X6287Y-9302D01*
X6287Y-8983D01*
X6681Y-9377D02*
X6456Y-9377D01*
X6568Y-9377D02*
X6568Y-8983D01*
X6531Y-9039D01*
X6493Y-9077D01*
X6456Y-9095D01*
X7056Y-9377D02*
X6831Y-9377D01*
X6943Y-9377D02*
X6943Y-8983D01*
X6906Y-9039D01*
X6868Y-9077D01*
X6831Y-9095D01*
X5593Y-12359D02*
X5650Y-12378D01*
X5668Y-12397D01*
X5687Y-12434D01*
X5687Y-12491D01*
X5668Y-12528D01*
X5650Y-12547D01*
X5612Y-12566D01*
X5462Y-12566D01*
X5462Y-12172D01*
X5593Y-12172D01*
X5631Y-12191D01*
X5650Y-12209D01*
X5668Y-12247D01*
X5668Y-12284D01*
X5650Y-12322D01*
X5631Y-12341D01*
X5593Y-12359D01*
X5462Y-12359D01*
X5856Y-12566D02*
X5856Y-12172D01*
X5987Y-12453D01*
X6118Y-12172D01*
X6118Y-12566D01*
X6306Y-12566D02*
X6306Y-12172D01*
X6456Y-12172D01*
X6493Y-12191D01*
X6512Y-12209D01*
X6531Y-12247D01*
X6531Y-12303D01*
X6512Y-12341D01*
X6493Y-12359D01*
X6456Y-12378D01*
X6306Y-12378D01*
X6681Y-12209D02*
X6699Y-12191D01*
X6737Y-12172D01*
X6831Y-12172D01*
X6868Y-12191D01*
X6887Y-12209D01*
X6906Y-12247D01*
X6906Y-12284D01*
X6887Y-12341D01*
X6662Y-12566D01*
X6906Y-12566D01*
X7131Y-12341D02*
X7093Y-12322D01*
X7074Y-12303D01*
X7056Y-12266D01*
X7056Y-12247D01*
X7074Y-12209D01*
X7093Y-12191D01*
X7131Y-12172D01*
X7206Y-12172D01*
X7243Y-12191D01*
X7262Y-12209D01*
X7281Y-12247D01*
X7281Y-12266D01*
X7262Y-12303D01*
X7243Y-12322D01*
X7206Y-12341D01*
X7131Y-12341D01*
X7093Y-12359D01*
X7074Y-12378D01*
X7056Y-12416D01*
X7056Y-12491D01*
X7074Y-12528D01*
X7093Y-12547D01*
X7131Y-12566D01*
X7206Y-12566D01*
X7243Y-12547D01*
X7262Y-12528D01*
X7281Y-12491D01*
X7281Y-12416D01*
X7262Y-12378D01*
X7243Y-12359D01*
X7206Y-12341D01*
X7524Y-12172D02*
X7562Y-12172D01*
X7599Y-12191D01*
X7618Y-12209D01*
X7637Y-12247D01*
X7656Y-12322D01*
X7656Y-12416D01*
X7637Y-12491D01*
X7618Y-12528D01*
X7599Y-12547D01*
X7562Y-12566D01*
X7524Y-12566D01*
X7487Y-12547D01*
X7468Y-12528D01*
X7449Y-12491D01*
X7431Y-12416D01*
X7431Y-12322D01*
X7449Y-12247D01*
X7468Y-12209D01*
X7487Y-12191D01*
X7524Y-12172D01*
X7171Y-16223D02*
X7153Y-16241D01*
X7096Y-16260D01*
X7059Y-16260D01*
X7003Y-16241D01*
X6965Y-16204D01*
X6946Y-16166D01*
X6928Y-16091D01*
X6928Y-16035D01*
X6946Y-15960D01*
X6965Y-15923D01*
X7003Y-15885D01*
X7059Y-15866D01*
X7096Y-15866D01*
X7153Y-15885D01*
X7171Y-15904D01*
X7415Y-15866D02*
X7490Y-15866D01*
X7528Y-15885D01*
X7565Y-15923D01*
X7584Y-15998D01*
X7584Y-16129D01*
X7565Y-16204D01*
X7528Y-16241D01*
X7490Y-16260D01*
X7415Y-16260D01*
X7378Y-16241D01*
X7340Y-16204D01*
X7321Y-16129D01*
X7321Y-15998D01*
X7340Y-15923D01*
X7378Y-15885D01*
X7415Y-15866D01*
X7753Y-16260D02*
X7753Y-15866D01*
X7978Y-16260D01*
X7978Y-15866D01*
X8371Y-16260D02*
X8146Y-16260D01*
X8259Y-16260D02*
X8259Y-15866D01*
X8221Y-15923D01*
X8184Y-15960D01*
X8146Y-15979D01*
X5850Y-23819D02*
X5850Y-24138D01*
X5868Y-24175D01*
X5887Y-24194D01*
X5925Y-24213D01*
X6000Y-24213D01*
X6037Y-24194D01*
X6056Y-24175D01*
X6075Y-24138D01*
X6075Y-23819D01*
X6243Y-24194D02*
X6300Y-24213D01*
X6393Y-24213D01*
X6431Y-24194D01*
X6450Y-24175D01*
X6468Y-24138D01*
X6468Y-24100D01*
X6450Y-24063D01*
X6431Y-24044D01*
X6393Y-24025D01*
X6318Y-24007D01*
X6281Y-23988D01*
X6262Y-23969D01*
X6243Y-23932D01*
X6243Y-23894D01*
X6262Y-23857D01*
X6281Y-23838D01*
X6318Y-23819D01*
X6412Y-23819D01*
X6468Y-23838D01*
X6768Y-24007D02*
X6825Y-24025D01*
X6843Y-24044D01*
X6862Y-24082D01*
X6862Y-24138D01*
X6843Y-24175D01*
X6825Y-24194D01*
X6787Y-24213D01*
X6637Y-24213D01*
X6637Y-23819D01*
X6768Y-23819D01*
X6806Y-23838D01*
X6825Y-23857D01*
X6843Y-23894D01*
X6843Y-23932D01*
X6825Y-23969D01*
X6806Y-23988D01*
X6768Y-24007D01*
X6637Y-24007D01*
X7031Y-24063D02*
X7331Y-24063D01*
X7518Y-24213D02*
X7518Y-23819D01*
X7650Y-24100D01*
X7781Y-23819D01*
X7781Y-24213D01*
X7968Y-24213D02*
X7968Y-23819D01*
X8156Y-24213D02*
X8156Y-23819D01*
X8381Y-24213D01*
X8381Y-23819D01*
X8568Y-24213D02*
X8568Y-23819D01*
X8756Y-24063D02*
X9056Y-24063D01*
X9374Y-24007D02*
X9431Y-24025D01*
X9449Y-24044D01*
X9468Y-24082D01*
X9468Y-24138D01*
X9449Y-24175D01*
X9431Y-24194D01*
X9393Y-24213D01*
X9243Y-24213D01*
X9243Y-23819D01*
X9374Y-23819D01*
X9412Y-23838D01*
X9431Y-23857D01*
X9449Y-23894D01*
X9449Y-23932D01*
X9431Y-23969D01*
X9412Y-23988D01*
X9374Y-24007D01*
X9243Y-24007D01*
X11359Y-19177D02*
X11359Y-18783D01*
X11509Y-18783D01*
X11546Y-18802D01*
X11565Y-18820D01*
X11584Y-18858D01*
X11584Y-18914D01*
X11565Y-18952D01*
X11546Y-18970D01*
X11509Y-18989D01*
X11359Y-18989D01*
X11715Y-18783D02*
X11959Y-18783D01*
X11828Y-18933D01*
X11884Y-18933D01*
X11921Y-18952D01*
X11940Y-18970D01*
X11959Y-19008D01*
X11959Y-19102D01*
X11940Y-19139D01*
X11921Y-19158D01*
X11884Y-19177D01*
X11771Y-19177D01*
X11734Y-19158D01*
X11715Y-19139D01*
X10815Y-22722D02*
X10796Y-22741D01*
X10740Y-22759D01*
X10703Y-22759D01*
X10647Y-22741D01*
X10609Y-22703D01*
X10590Y-22666D01*
X10572Y-22591D01*
X10572Y-22534D01*
X10590Y-22459D01*
X10609Y-22422D01*
X10647Y-22384D01*
X10703Y-22366D01*
X10740Y-22366D01*
X10796Y-22384D01*
X10815Y-22403D01*
X11059Y-22366D02*
X11134Y-22366D01*
X11171Y-22384D01*
X11209Y-22422D01*
X11228Y-22497D01*
X11228Y-22628D01*
X11209Y-22703D01*
X11171Y-22741D01*
X11134Y-22759D01*
X11059Y-22759D01*
X11021Y-22741D01*
X10984Y-22703D01*
X10965Y-22628D01*
X10965Y-22497D01*
X10984Y-22422D01*
X11021Y-22384D01*
X11059Y-22366D01*
X11396Y-22759D02*
X11396Y-22366D01*
X11621Y-22759D01*
X11621Y-22366D01*
X11809Y-22759D02*
X11809Y-22366D01*
X12034Y-22759D01*
X12034Y-22366D01*
X12128Y-22797D02*
X12428Y-22797D01*
X12690Y-22497D02*
X12690Y-22759D01*
X12596Y-22347D02*
X12503Y-22628D01*
X12746Y-22628D01*
G54D13*
X12211Y-17915D02*
X12221Y-17924D01*
X12230Y-17950D01*
X12230Y-17967D01*
X12221Y-17992D01*
X12202Y-18010D01*
X12183Y-18018D01*
X12145Y-18027D01*
X12116Y-18027D01*
X12078Y-18018D01*
X12059Y-18010D01*
X12040Y-17992D01*
X12030Y-17967D01*
X12030Y-17950D01*
X12040Y-17924D01*
X12050Y-17915D01*
X12230Y-17744D02*
X12230Y-17847D01*
X12230Y-17795D02*
X12030Y-17795D01*
X12059Y-17812D01*
X12078Y-17830D01*
X12088Y-17847D01*
X12030Y-17581D02*
X12030Y-17667D01*
X12126Y-17675D01*
X12116Y-17667D01*
X12107Y-17650D01*
X12107Y-17607D01*
X12116Y-17590D01*
X12126Y-17581D01*
X12145Y-17572D01*
X12192Y-17572D01*
X12211Y-17581D01*
X12221Y-17590D01*
X12230Y-17607D01*
X12230Y-17650D01*
X12221Y-17667D01*
X12211Y-17675D01*
G54D10*
X10634Y-15488D02*
X10446Y-15488D01*
X10446Y-15095D01*
X10746Y-15132D02*
X10765Y-15113D01*
X10803Y-15095D01*
X10896Y-15095D01*
X10934Y-15113D01*
X10953Y-15132D01*
X10971Y-15170D01*
X10971Y-15207D01*
X10953Y-15263D01*
X10728Y-15488D01*
X10971Y-15488D01*
X9228Y-17431D02*
X9228Y-17693D01*
X9134Y-17281D02*
X9040Y-17562D01*
X9284Y-17562D01*
X9434Y-17656D02*
X9453Y-17674D01*
X9434Y-17693D01*
X9415Y-17674D01*
X9434Y-17656D01*
X9434Y-17693D01*
X9584Y-17299D02*
X9846Y-17299D01*
X9678Y-17693D01*
X10165Y-17431D02*
X10165Y-17693D01*
X9996Y-17431D02*
X9996Y-17637D01*
X10015Y-17674D01*
X10053Y-17693D01*
X10109Y-17693D01*
X10146Y-17674D01*
X10165Y-17656D01*
X10353Y-17693D02*
X10353Y-17299D01*
X10353Y-17487D02*
X10578Y-17487D01*
X10578Y-17693D02*
X10578Y-17299D01*
X10784Y-17674D02*
X10784Y-17693D01*
X10765Y-17731D01*
X10746Y-17749D01*
X11459Y-17693D02*
X11234Y-17693D01*
X11346Y-17693D02*
X11346Y-17299D01*
X11309Y-17356D01*
X11271Y-17393D01*
X11234Y-17412D01*
X11628Y-17656D02*
X11646Y-17674D01*
X11628Y-17693D01*
X11609Y-17674D01*
X11628Y-17656D01*
X11628Y-17693D01*
X11796Y-17337D02*
X11815Y-17318D01*
X11852Y-17299D01*
X11946Y-17299D01*
X11984Y-17318D01*
X12002Y-17337D01*
X12021Y-17374D01*
X12021Y-17412D01*
X12002Y-17468D01*
X11777Y-17693D01*
X12021Y-17693D01*
X12171Y-17581D02*
X12359Y-17581D01*
X12134Y-17693D02*
X12265Y-17299D01*
X12396Y-17693D01*
X14590Y-9046D02*
X14665Y-9046D01*
X14703Y-9065D01*
X14740Y-9102D01*
X14759Y-9177D01*
X14759Y-9309D01*
X14740Y-9384D01*
X14703Y-9421D01*
X14665Y-9440D01*
X14590Y-9440D01*
X14553Y-9421D01*
X14515Y-9384D01*
X14496Y-9309D01*
X14496Y-9177D01*
X14515Y-9102D01*
X14553Y-9065D01*
X14590Y-9046D01*
X14909Y-9421D02*
X14965Y-9440D01*
X15059Y-9440D01*
X15096Y-9421D01*
X15115Y-9402D01*
X15134Y-9365D01*
X15134Y-9327D01*
X15115Y-9290D01*
X15096Y-9271D01*
X15059Y-9252D01*
X14984Y-9234D01*
X14946Y-9215D01*
X14928Y-9196D01*
X14909Y-9159D01*
X14909Y-9121D01*
X14928Y-9084D01*
X14946Y-9065D01*
X14984Y-9046D01*
X15078Y-9046D01*
X15134Y-9065D01*
X15528Y-9402D02*
X15509Y-9421D01*
X15453Y-9440D01*
X15415Y-9440D01*
X15359Y-9421D01*
X15321Y-9384D01*
X15303Y-9346D01*
X15284Y-9271D01*
X15284Y-9215D01*
X15303Y-9140D01*
X15321Y-9102D01*
X15359Y-9065D01*
X15415Y-9046D01*
X15453Y-9046D01*
X15509Y-9065D01*
X15528Y-9084D01*
X15903Y-9440D02*
X15678Y-9440D01*
X15790Y-9440D02*
X15790Y-9046D01*
X15753Y-9102D01*
X15715Y-9140D01*
X15678Y-9159D01*
X13587Y-7078D02*
X13587Y-6684D01*
X13812Y-7078D02*
X13643Y-6853D01*
X13812Y-6684D02*
X13587Y-6909D01*
X13981Y-7078D02*
X13981Y-6684D01*
X14075Y-6684D01*
X14131Y-6703D01*
X14168Y-6740D01*
X14187Y-6778D01*
X14206Y-6853D01*
X14206Y-6909D01*
X14187Y-6984D01*
X14168Y-7022D01*
X14131Y-7059D01*
X14075Y-7078D01*
X13981Y-7078D01*
X14337Y-6684D02*
X14581Y-6684D01*
X14450Y-6834D01*
X14506Y-6834D01*
X14543Y-6853D01*
X14562Y-6872D01*
X14581Y-6909D01*
X14581Y-7003D01*
X14562Y-7040D01*
X14543Y-7059D01*
X14506Y-7078D01*
X14393Y-7078D01*
X14356Y-7059D01*
X14337Y-7040D01*
X14731Y-6722D02*
X14750Y-6703D01*
X14787Y-6684D01*
X14881Y-6684D01*
X14918Y-6703D01*
X14937Y-6722D01*
X14956Y-6759D01*
X14956Y-6797D01*
X14937Y-6853D01*
X14712Y-7078D01*
X14956Y-7078D01*
X15087Y-6684D02*
X15349Y-6684D01*
X15181Y-7078D01*
X15574Y-6684D02*
X15612Y-6684D01*
X15649Y-6703D01*
X15668Y-6722D01*
X15687Y-6759D01*
X15706Y-6834D01*
X15706Y-6928D01*
X15687Y-7003D01*
X15668Y-7040D01*
X15649Y-7059D01*
X15612Y-7078D01*
X15574Y-7078D01*
X15537Y-7059D01*
X15518Y-7040D01*
X15499Y-7003D01*
X15481Y-6928D01*
X15481Y-6834D01*
X15499Y-6759D01*
X15518Y-6722D01*
X15537Y-6703D01*
X15574Y-6684D01*
X15949Y-6684D02*
X15987Y-6684D01*
X16024Y-6703D01*
X16043Y-6722D01*
X16062Y-6759D01*
X16081Y-6834D01*
X16081Y-6928D01*
X16062Y-7003D01*
X16043Y-7040D01*
X16024Y-7059D01*
X15987Y-7078D01*
X15949Y-7078D01*
X15912Y-7059D01*
X15893Y-7040D01*
X15874Y-7003D01*
X15856Y-6928D01*
X15856Y-6834D01*
X15874Y-6759D01*
X15893Y-6722D01*
X15912Y-6703D01*
X15949Y-6684D01*
X16212Y-6684D02*
X16456Y-6684D01*
X16324Y-6834D01*
X16381Y-6834D01*
X16418Y-6853D01*
X16437Y-6872D01*
X16456Y-6909D01*
X16456Y-7003D01*
X16437Y-7040D01*
X16418Y-7059D01*
X16381Y-7078D01*
X16268Y-7078D01*
X16231Y-7059D01*
X16212Y-7040D01*
X16831Y-7078D02*
X16606Y-7078D01*
X16718Y-7078D02*
X16718Y-6684D01*
X16681Y-6740D01*
X16643Y-6778D01*
X16606Y-6797D01*
X15075Y-19155D02*
X15131Y-19173D01*
X15225Y-19173D01*
X15262Y-19155D01*
X15281Y-19136D01*
X15300Y-19098D01*
X15300Y-19061D01*
X15281Y-19023D01*
X15262Y-19005D01*
X15225Y-18986D01*
X15150Y-18967D01*
X15112Y-18948D01*
X15093Y-18930D01*
X15075Y-18892D01*
X15075Y-18855D01*
X15093Y-18817D01*
X15112Y-18798D01*
X15150Y-18780D01*
X15243Y-18780D01*
X15300Y-18798D01*
X15431Y-18780D02*
X15525Y-19173D01*
X15600Y-18892D01*
X15674Y-19173D01*
X15768Y-18780D01*
X15881Y-18780D02*
X16124Y-18780D01*
X15993Y-18930D01*
X16049Y-18930D01*
X16087Y-18948D01*
X16106Y-18967D01*
X16124Y-19005D01*
X16124Y-19098D01*
X16106Y-19136D01*
X16087Y-19155D01*
X16049Y-19173D01*
X15937Y-19173D01*
X15899Y-19155D01*
X15881Y-19136D01*
X14315Y-22422D02*
X14372Y-22441D01*
X14465Y-22441D01*
X14503Y-22422D01*
X14522Y-22404D01*
X14540Y-22366D01*
X14540Y-22329D01*
X14522Y-22291D01*
X14503Y-22272D01*
X14465Y-22254D01*
X14390Y-22235D01*
X14353Y-22216D01*
X14334Y-22197D01*
X14315Y-22160D01*
X14315Y-22122D01*
X14334Y-22085D01*
X14353Y-22066D01*
X14390Y-22047D01*
X14484Y-22047D01*
X14540Y-22066D01*
X14671Y-22047D02*
X14765Y-22441D01*
X14840Y-22160D01*
X14915Y-22441D01*
X15009Y-22047D01*
X15065Y-22479D02*
X15365Y-22479D01*
X15459Y-22441D02*
X15459Y-22047D01*
X15609Y-22047D01*
X15646Y-22066D01*
X15665Y-22085D01*
X15684Y-22122D01*
X15684Y-22179D01*
X15665Y-22216D01*
X15646Y-22235D01*
X15609Y-22254D01*
X15459Y-22254D01*
X15853Y-22047D02*
X15853Y-22366D01*
X15871Y-22404D01*
X15890Y-22422D01*
X15928Y-22441D01*
X16003Y-22441D01*
X16040Y-22422D01*
X16059Y-22404D01*
X16078Y-22366D01*
X16078Y-22047D01*
X16246Y-22422D02*
X16303Y-22441D01*
X16396Y-22441D01*
X16434Y-22422D01*
X16453Y-22404D01*
X16471Y-22366D01*
X16471Y-22329D01*
X16453Y-22291D01*
X16434Y-22272D01*
X16396Y-22254D01*
X16321Y-22235D01*
X16284Y-22216D01*
X16265Y-22197D01*
X16246Y-22160D01*
X16246Y-22122D01*
X16265Y-22085D01*
X16284Y-22066D01*
X16321Y-22047D01*
X16415Y-22047D01*
X16471Y-22066D01*
X16640Y-22441D02*
X16640Y-22047D01*
X16640Y-22235D02*
X16865Y-22235D01*
X16865Y-22441D02*
X16865Y-22047D01*
X9075Y-15749D02*
X9394Y-15749D01*
X9431Y-15731D01*
X9450Y-15712D01*
X9469Y-15674D01*
X9469Y-15599D01*
X9450Y-15562D01*
X9431Y-15543D01*
X9394Y-15524D01*
X9075Y-15524D01*
X9244Y-15281D02*
X9225Y-15318D01*
X9206Y-15337D01*
X9169Y-15356D01*
X9150Y-15356D01*
X9112Y-15337D01*
X9094Y-15318D01*
X9075Y-15281D01*
X9075Y-15206D01*
X9094Y-15168D01*
X9112Y-15150D01*
X9150Y-15131D01*
X9169Y-15131D01*
X9206Y-15150D01*
X9225Y-15168D01*
X9244Y-15206D01*
X9244Y-15281D01*
X9262Y-15318D01*
X9281Y-15337D01*
X9319Y-15356D01*
X9394Y-15356D01*
X9431Y-15337D01*
X9450Y-15318D01*
X9469Y-15281D01*
X9469Y-15206D01*
X9450Y-15168D01*
X9431Y-15150D01*
X9394Y-15131D01*
X9319Y-15131D01*
X9281Y-15150D01*
X9262Y-15168D01*
X9244Y-15206D01*
X6988Y-16499D02*
X6988Y-16687D01*
X6595Y-16687D01*
X6970Y-16387D02*
X6988Y-16331D01*
X6988Y-16237D01*
X6970Y-16199D01*
X6951Y-16181D01*
X6913Y-16162D01*
X6876Y-16162D01*
X6838Y-16181D01*
X6820Y-16199D01*
X6801Y-16237D01*
X6782Y-16312D01*
X6763Y-16349D01*
X6745Y-16368D01*
X6707Y-16387D01*
X6670Y-16387D01*
X6632Y-16368D01*
X6613Y-16349D01*
X6595Y-16312D01*
X6595Y-16218D01*
X6613Y-16162D01*
X6988Y-15993D02*
X6595Y-15993D01*
X6876Y-15862D01*
X6595Y-15731D01*
X6988Y-15731D01*
X6988Y-15524D02*
X6988Y-15450D01*
X6970Y-15412D01*
X6951Y-15393D01*
X6895Y-15356D01*
X6820Y-15337D01*
X6670Y-15337D01*
X6632Y-15356D01*
X6613Y-15375D01*
X6595Y-15412D01*
X6595Y-15487D01*
X6613Y-15524D01*
X6632Y-15543D01*
X6670Y-15562D01*
X6763Y-15562D01*
X6801Y-15543D01*
X6820Y-15524D01*
X6838Y-15487D01*
X6838Y-15412D01*
X6820Y-15375D01*
X6801Y-15356D01*
X6763Y-15337D01*
X6988Y-15168D02*
X6595Y-15168D01*
X6595Y-15075D01*
X6613Y-15018D01*
X6651Y-14981D01*
X6688Y-14962D01*
X6763Y-14943D01*
X6820Y-14943D01*
X6895Y-14962D01*
X6932Y-14981D01*
X6970Y-15018D01*
X6988Y-15075D01*
X6988Y-15168D01*
X6970Y-14793D02*
X6988Y-14737D01*
X6988Y-14643D01*
X6970Y-14606D01*
X6951Y-14587D01*
X6913Y-14568D01*
X6876Y-14568D01*
X6838Y-14587D01*
X6820Y-14606D01*
X6801Y-14643D01*
X6782Y-14718D01*
X6763Y-14756D01*
X6745Y-14775D01*
X6707Y-14793D01*
X6670Y-14793D01*
X6632Y-14775D01*
X6613Y-14756D01*
X6595Y-14718D01*
X6595Y-14625D01*
X6613Y-14568D01*
X6595Y-14325D02*
X6595Y-14287D01*
X6613Y-14250D01*
X6632Y-14231D01*
X6670Y-14212D01*
X6745Y-14193D01*
X6838Y-14193D01*
X6913Y-14212D01*
X6951Y-14231D01*
X6970Y-14250D01*
X6988Y-14287D01*
X6988Y-14325D01*
X6970Y-14362D01*
X6951Y-14381D01*
X6913Y-14400D01*
X6838Y-14418D01*
X6745Y-14418D01*
X6670Y-14400D01*
X6632Y-14381D01*
X6613Y-14362D01*
X6595Y-14325D01*
X7172Y-6799D02*
X7491Y-6799D01*
X7528Y-6781D01*
X7547Y-6762D01*
X7566Y-6724D01*
X7566Y-6649D01*
X7547Y-6612D01*
X7528Y-6593D01*
X7491Y-6574D01*
X7172Y-6574D01*
X7172Y-6218D02*
X7172Y-6293D01*
X7191Y-6331D01*
X7210Y-6350D01*
X7266Y-6387D01*
X7341Y-6406D01*
X7491Y-6406D01*
X7528Y-6387D01*
X7547Y-6368D01*
X7566Y-6331D01*
X7566Y-6256D01*
X7547Y-6218D01*
X7528Y-6200D01*
X7491Y-6181D01*
X7397Y-6181D01*
X7360Y-6200D01*
X7341Y-6218D01*
X7322Y-6256D01*
X7322Y-6331D01*
X7341Y-6368D01*
X7360Y-6387D01*
X7397Y-6406D01*
X10716Y-7540D02*
X10322Y-7540D01*
X10603Y-7409D01*
X10322Y-7278D01*
X10716Y-7278D01*
X10716Y-6903D02*
X10716Y-7090D01*
X10322Y-7090D01*
X10491Y-6715D02*
X10472Y-6753D01*
X10453Y-6771D01*
X10416Y-6790D01*
X10397Y-6790D01*
X10359Y-6771D01*
X10341Y-6753D01*
X10322Y-6715D01*
X10322Y-6640D01*
X10341Y-6603D01*
X10359Y-6584D01*
X10397Y-6565D01*
X10416Y-6565D01*
X10453Y-6584D01*
X10472Y-6603D01*
X10491Y-6640D01*
X10491Y-6715D01*
X10509Y-6753D01*
X10528Y-6771D01*
X10566Y-6790D01*
X10641Y-6790D01*
X10678Y-6771D01*
X10697Y-6753D01*
X10716Y-6715D01*
X10716Y-6640D01*
X10697Y-6603D01*
X10678Y-6584D01*
X10641Y-6565D01*
X10566Y-6565D01*
X10528Y-6584D01*
X10509Y-6603D01*
X10491Y-6640D01*
X10322Y-6209D02*
X10322Y-6396D01*
X10509Y-6415D01*
X10491Y-6396D01*
X10472Y-6359D01*
X10472Y-6265D01*
X10491Y-6228D01*
X10509Y-6209D01*
X10547Y-6190D01*
X10641Y-6190D01*
X10678Y-6209D01*
X10697Y-6228D01*
X10716Y-6265D01*
X10716Y-6359D01*
X10697Y-6396D01*
X10678Y-6415D01*
X10716Y-5815D02*
X10716Y-6040D01*
X10716Y-5928D02*
X10322Y-5928D01*
X10378Y-5965D01*
X10416Y-6003D01*
X10434Y-6040D01*
X10716Y-5440D02*
X10716Y-5665D01*
X10716Y-5553D02*
X10322Y-5553D01*
X10378Y-5590D01*
X10416Y-5628D01*
X10434Y-5665D01*
X8229Y-13299D02*
X8547Y-13299D01*
X8585Y-13281D01*
X8603Y-13262D01*
X8622Y-13224D01*
X8622Y-13149D01*
X8603Y-13112D01*
X8585Y-13093D01*
X8547Y-13074D01*
X8229Y-13074D01*
X8266Y-12906D02*
X8247Y-12887D01*
X8229Y-12850D01*
X8229Y-12756D01*
X8247Y-12718D01*
X8266Y-12700D01*
X8304Y-12681D01*
X8341Y-12681D01*
X8397Y-12700D01*
X8622Y-12925D01*
X8622Y-12681D01*
X12737Y-14632D02*
X12756Y-14576D01*
X12756Y-14482D01*
X12737Y-14445D01*
X12719Y-14426D01*
X12681Y-14407D01*
X12644Y-14407D01*
X12606Y-14426D01*
X12587Y-14445D01*
X12569Y-14482D01*
X12550Y-14557D01*
X12531Y-14595D01*
X12512Y-14614D01*
X12475Y-14632D01*
X12437Y-14632D01*
X12400Y-14614D01*
X12381Y-14595D01*
X12362Y-14557D01*
X12362Y-14464D01*
X12381Y-14407D01*
X12362Y-14295D02*
X12362Y-14070D01*
X12756Y-14182D02*
X12362Y-14182D01*
X12756Y-13939D02*
X12362Y-13939D01*
X12644Y-13808D01*
X12362Y-13676D01*
X12756Y-13676D01*
X12362Y-13526D02*
X12362Y-13283D01*
X12512Y-13414D01*
X12512Y-13358D01*
X12531Y-13320D01*
X12550Y-13301D01*
X12587Y-13283D01*
X12681Y-13283D01*
X12719Y-13301D01*
X12737Y-13320D01*
X12756Y-13358D01*
X12756Y-13470D01*
X12737Y-13508D01*
X12719Y-13526D01*
X12400Y-13133D02*
X12381Y-13114D01*
X12362Y-13076D01*
X12362Y-12983D01*
X12381Y-12945D01*
X12400Y-12926D01*
X12437Y-12908D01*
X12475Y-12908D01*
X12531Y-12926D01*
X12756Y-13151D01*
X12756Y-12908D01*
X12550Y-12608D02*
X12550Y-12739D01*
X12756Y-12739D02*
X12362Y-12739D01*
X12362Y-12551D01*
X12362Y-12326D02*
X12362Y-12289D01*
X12381Y-12251D01*
X12400Y-12233D01*
X12437Y-12214D01*
X12512Y-12195D01*
X12606Y-12195D01*
X12681Y-12214D01*
X12719Y-12233D01*
X12737Y-12251D01*
X12756Y-12289D01*
X12756Y-12326D01*
X12737Y-12364D01*
X12719Y-12383D01*
X12681Y-12401D01*
X12606Y-12420D01*
X12512Y-12420D01*
X12437Y-12401D01*
X12400Y-12383D01*
X12381Y-12364D01*
X12362Y-12326D01*
X12362Y-12064D02*
X12362Y-11802D01*
X12756Y-11970D01*
X12400Y-11670D02*
X12381Y-11652D01*
X12362Y-11614D01*
X12362Y-11520D01*
X12381Y-11483D01*
X12400Y-11464D01*
X12437Y-11445D01*
X12475Y-11445D01*
X12531Y-11464D01*
X12756Y-11689D01*
X12756Y-11445D01*
X10031Y-10299D02*
X10349Y-10299D01*
X10387Y-10281D01*
X10405Y-10262D01*
X10424Y-10224D01*
X10424Y-10149D01*
X10405Y-10112D01*
X10387Y-10093D01*
X10349Y-10074D01*
X10031Y-10074D01*
X10424Y-9868D02*
X10424Y-9793D01*
X10405Y-9756D01*
X10387Y-9737D01*
X10330Y-9700D01*
X10255Y-9681D01*
X10105Y-9681D01*
X10068Y-9700D01*
X10049Y-9718D01*
X10031Y-9756D01*
X10031Y-9831D01*
X10049Y-9868D01*
X10068Y-9887D01*
X10105Y-9906D01*
X10199Y-9906D01*
X10237Y-9887D01*
X10255Y-9868D01*
X10274Y-9831D01*
X10274Y-9756D01*
X10255Y-9718D01*
X10237Y-9700D01*
X10199Y-9681D01*
X5857Y-11209D02*
X5464Y-11209D01*
X5651Y-11209D02*
X5651Y-10984D01*
X5857Y-10984D02*
X5464Y-10984D01*
X5464Y-10853D02*
X5464Y-10628D01*
X5857Y-10740D02*
X5464Y-10740D01*
X5464Y-10496D02*
X5782Y-10496D01*
X5820Y-10478D01*
X5839Y-10459D01*
X5857Y-10421D01*
X5857Y-10346D01*
X5839Y-10309D01*
X5820Y-10290D01*
X5782Y-10271D01*
X5464Y-10271D01*
X5501Y-10103D02*
X5482Y-10084D01*
X5464Y-10046D01*
X5464Y-9953D01*
X5482Y-9915D01*
X5501Y-9896D01*
X5539Y-9878D01*
X5576Y-9878D01*
X5632Y-9896D01*
X5857Y-10121D01*
X5857Y-9878D01*
X5857Y-9503D02*
X5857Y-9728D01*
X5857Y-9615D02*
X5464Y-9615D01*
X5520Y-9653D01*
X5557Y-9690D01*
X5576Y-9728D01*
X5857Y-9334D02*
X5464Y-9334D01*
X5464Y-9240D01*
X5482Y-9184D01*
X5520Y-9146D01*
X5557Y-9128D01*
X5632Y-9109D01*
X5689Y-9109D01*
X5764Y-9128D01*
X5801Y-9146D01*
X5839Y-9184D01*
X5857Y-9240D01*
X5857Y-9334D01*
X5651Y-8809D02*
X5651Y-8940D01*
X5857Y-8940D02*
X5464Y-8940D01*
X5464Y-8753D01*
G54D11*
X10555Y-9327D02*
X10490Y-9367D01*
X10555Y-9395D02*
X10417Y-9395D01*
X10417Y-9350D01*
X10424Y-9338D01*
X10431Y-9332D01*
X10444Y-9327D01*
X10463Y-9327D01*
X10477Y-9332D01*
X10483Y-9338D01*
X10490Y-9350D01*
X10490Y-9395D01*
X10431Y-9281D02*
X10424Y-9275D01*
X10417Y-9264D01*
X10417Y-9235D01*
X10424Y-9224D01*
X10431Y-9218D01*
X10444Y-9212D01*
X10457Y-9212D01*
X10477Y-9218D01*
X10555Y-9287D01*
X10555Y-9212D01*
X10555Y-9155D02*
X10555Y-9132D01*
X10549Y-9121D01*
X10542Y-9115D01*
X10523Y-9104D01*
X10496Y-9098D01*
X10444Y-9098D01*
X10431Y-9104D01*
X10424Y-9110D01*
X10417Y-9121D01*
X10417Y-9144D01*
X10424Y-9155D01*
X10431Y-9161D01*
X10444Y-9167D01*
X10477Y-9167D01*
X10490Y-9161D01*
X10496Y-9155D01*
X10503Y-9144D01*
X10503Y-9121D01*
X10496Y-9110D01*
X10490Y-9104D01*
X10477Y-9098D01*
M02*
