G04 (created by PCBNEW (22-Jun-2014 BZR 4027)-stable) date Thu 09 Jul 2015 06:25:10 AM CDT*
%MOIN*%
G04 Gerber Fmt 3.4, Leading zero omitted, Abs format*
%FSLAX34Y34*%
G01*
G70*
G90*
G04 APERTURE LIST*
%ADD10C,0.00590551*%
%ADD11R,0.045X0.025*%
%ADD12R,0.0157X0.0236*%
%ADD13R,0.0236X0.0157*%
%ADD14R,0.03X0.02*%
%ADD15R,0.0472441X0.0590551*%
%ADD16R,0.0590551X0.0472441*%
%ADD17R,0.0570866X0.011811*%
%ADD18C,0.0350394*%
%ADD19R,0.055X0.035*%
%ADD20R,0.0354331X0.0472441*%
%ADD21R,0.0314961X0.023622*%
%ADD22R,0.0787402X0.023622*%
%ADD23R,0.0393701X0.0393701*%
%ADD24R,0.0433071X0.00984252*%
%ADD25R,0.0590551X0.0669291*%
%ADD26R,0.0314961X0.0669291*%
G04 APERTURE END LIST*
G54D10*
G54D11*
X11750Y-10950D03*
X11750Y-10350D03*
G54D12*
X11773Y-9600D03*
X12127Y-9600D03*
G54D13*
X15700Y-15923D03*
X15700Y-16277D03*
X10300Y-7777D03*
X10300Y-7423D03*
G54D12*
X12523Y-9600D03*
X12877Y-9600D03*
G54D13*
X12500Y-10427D03*
X12500Y-10073D03*
X13600Y-6927D03*
X13600Y-6573D03*
G54D12*
X11327Y-15450D03*
X10973Y-15450D03*
X10977Y-10600D03*
X10623Y-10600D03*
X11327Y-15900D03*
X10973Y-15900D03*
X10977Y-11050D03*
X10623Y-11050D03*
X11327Y-13250D03*
X10973Y-13250D03*
X11327Y-14150D03*
X10973Y-14150D03*
X11327Y-15000D03*
X10973Y-15000D03*
G54D13*
X14500Y-18323D03*
X14500Y-18677D03*
X16900Y-15923D03*
X16900Y-16277D03*
G54D14*
X12150Y-8275D03*
X12150Y-9025D03*
X11150Y-8275D03*
X12150Y-8650D03*
X11150Y-9025D03*
G54D15*
X15100Y-15257D03*
X15690Y-15257D03*
X16281Y-15257D03*
X16871Y-15257D03*
X14509Y-15257D03*
X13918Y-15257D03*
X13328Y-15257D03*
X16871Y-10242D03*
X16281Y-10242D03*
X15690Y-10242D03*
X15100Y-10242D03*
X14509Y-10242D03*
X13918Y-10242D03*
X13328Y-10242D03*
G54D16*
X12974Y-11305D03*
X12974Y-11954D03*
G54D12*
X15923Y-16800D03*
X16277Y-16800D03*
G54D13*
X12250Y-6123D03*
X12250Y-6477D03*
X11150Y-9927D03*
X11150Y-9573D03*
X13850Y-19227D03*
X13850Y-18873D03*
X13450Y-19227D03*
X13450Y-18873D03*
X16900Y-18177D03*
X16900Y-17823D03*
G54D12*
X15923Y-18400D03*
X16277Y-18400D03*
G54D17*
X16266Y-17206D03*
X16266Y-17403D03*
X16266Y-17600D03*
X16266Y-17796D03*
X16266Y-17993D03*
X14533Y-17993D03*
X14533Y-17796D03*
X14533Y-17600D03*
X14533Y-17403D03*
X14533Y-17206D03*
G54D18*
X10900Y-20750D03*
X11400Y-20750D03*
X11900Y-20750D03*
X12400Y-20750D03*
G54D19*
X13000Y-6825D03*
X13000Y-6075D03*
G54D20*
X12169Y-7610D03*
X10830Y-7610D03*
G54D21*
X11033Y-11550D03*
X11466Y-11550D03*
X11466Y-12100D03*
X11033Y-12100D03*
G54D22*
X13050Y-9063D03*
X13050Y-8236D03*
G54D23*
X11256Y-20050D03*
X12043Y-20050D03*
X15056Y-19350D03*
X15843Y-19350D03*
G54D24*
X9900Y-15607D03*
X9900Y-15804D03*
X9900Y-15410D03*
X9900Y-15213D03*
X9900Y-14426D03*
X9900Y-14623D03*
X9900Y-15016D03*
X9900Y-14820D03*
X9900Y-14229D03*
X9900Y-14032D03*
X9900Y-12064D03*
X9900Y-12261D03*
X9900Y-12851D03*
X9900Y-13048D03*
X9900Y-12654D03*
X9900Y-12457D03*
X9900Y-13245D03*
X9900Y-13442D03*
X9900Y-13835D03*
X9900Y-13638D03*
X9900Y-10095D03*
X9900Y-10292D03*
X9900Y-10883D03*
X9900Y-11079D03*
X9900Y-10686D03*
X9900Y-10489D03*
X9900Y-11276D03*
X9900Y-11473D03*
X9900Y-11867D03*
X9900Y-11670D03*
G54D25*
X8364Y-9446D03*
X8403Y-16453D03*
G54D26*
X6380Y-6150D03*
X7719Y-6150D03*
X16669Y-6150D03*
X15330Y-6150D03*
M02*
