G04 (created by PCBNEW (22-Jun-2014 BZR 4027)-stable) date Thu 09 Jul 2015 06:25:10 AM CDT*
%MOIN*%
G04 Gerber Fmt 3.4, Leading zero omitted, Abs format*
%FSLAX34Y34*%
G01*
G70*
G90*
G04 APERTURE LIST*
%ADD10C,0.00590551*%
%ADD11C,0.011811*%
%ADD12C,0.005*%
%ADD13C,0.0028*%
%ADD14C,0.0039*%
%ADD15R,0.045X0.025*%
%ADD16R,0.0157X0.0236*%
%ADD17R,0.0236X0.0157*%
%ADD18R,0.03X0.02*%
%ADD19R,0.0472441X0.0590551*%
%ADD20R,0.0590551X0.0472441*%
%ADD21R,0.0570866X0.011811*%
%ADD22C,0.0350394*%
%ADD23R,0.055X0.035*%
%ADD24R,0.0354331X0.0472441*%
%ADD25R,0.0314961X0.023622*%
%ADD26R,0.0787402X0.023622*%
%ADD27R,0.0393701X0.0393701*%
%ADD28R,0.0433071X0.00984252*%
%ADD29R,0.0590551X0.0669291*%
%ADD30R,0.0314961X0.0669291*%
G04 APERTURE END LIST*
G54D10*
G54D11*
X16750Y-16932D02*
X16721Y-16960D01*
X16750Y-16989D01*
X16778Y-16960D01*
X16750Y-16932D01*
X16750Y-16989D01*
G54D12*
X12000Y-11100D02*
X12000Y-10200D01*
X12000Y-10200D02*
X11500Y-10200D01*
X11500Y-10200D02*
X11500Y-11100D01*
X11500Y-11100D02*
X12000Y-11100D01*
G54D13*
X11850Y-9750D02*
X11650Y-9750D01*
X11650Y-9750D02*
X11650Y-9450D01*
X11650Y-9450D02*
X11850Y-9450D01*
X12050Y-9750D02*
X12250Y-9750D01*
X12250Y-9750D02*
X12250Y-9450D01*
X12250Y-9450D02*
X12050Y-9450D01*
X15550Y-16000D02*
X15550Y-15800D01*
X15550Y-15800D02*
X15850Y-15800D01*
X15850Y-15800D02*
X15850Y-16000D01*
X15550Y-16200D02*
X15550Y-16400D01*
X15550Y-16400D02*
X15850Y-16400D01*
X15850Y-16400D02*
X15850Y-16200D01*
X10450Y-7700D02*
X10450Y-7900D01*
X10450Y-7900D02*
X10150Y-7900D01*
X10150Y-7900D02*
X10150Y-7700D01*
X10450Y-7500D02*
X10450Y-7300D01*
X10450Y-7300D02*
X10150Y-7300D01*
X10150Y-7300D02*
X10150Y-7500D01*
X12600Y-9750D02*
X12400Y-9750D01*
X12400Y-9750D02*
X12400Y-9450D01*
X12400Y-9450D02*
X12600Y-9450D01*
X12800Y-9750D02*
X13000Y-9750D01*
X13000Y-9750D02*
X13000Y-9450D01*
X13000Y-9450D02*
X12800Y-9450D01*
X12650Y-10350D02*
X12650Y-10550D01*
X12650Y-10550D02*
X12350Y-10550D01*
X12350Y-10550D02*
X12350Y-10350D01*
X12650Y-10150D02*
X12650Y-9950D01*
X12650Y-9950D02*
X12350Y-9950D01*
X12350Y-9950D02*
X12350Y-10150D01*
X13750Y-6850D02*
X13750Y-7050D01*
X13750Y-7050D02*
X13450Y-7050D01*
X13450Y-7050D02*
X13450Y-6850D01*
X13750Y-6650D02*
X13750Y-6450D01*
X13750Y-6450D02*
X13450Y-6450D01*
X13450Y-6450D02*
X13450Y-6650D01*
X11250Y-15300D02*
X11450Y-15300D01*
X11450Y-15300D02*
X11450Y-15600D01*
X11450Y-15600D02*
X11250Y-15600D01*
X11050Y-15300D02*
X10850Y-15300D01*
X10850Y-15300D02*
X10850Y-15600D01*
X10850Y-15600D02*
X11050Y-15600D01*
X10900Y-10450D02*
X11100Y-10450D01*
X11100Y-10450D02*
X11100Y-10750D01*
X11100Y-10750D02*
X10900Y-10750D01*
X10700Y-10450D02*
X10500Y-10450D01*
X10500Y-10450D02*
X10500Y-10750D01*
X10500Y-10750D02*
X10700Y-10750D01*
X11250Y-15750D02*
X11450Y-15750D01*
X11450Y-15750D02*
X11450Y-16050D01*
X11450Y-16050D02*
X11250Y-16050D01*
X11050Y-15750D02*
X10850Y-15750D01*
X10850Y-15750D02*
X10850Y-16050D01*
X10850Y-16050D02*
X11050Y-16050D01*
X10900Y-10900D02*
X11100Y-10900D01*
X11100Y-10900D02*
X11100Y-11200D01*
X11100Y-11200D02*
X10900Y-11200D01*
X10700Y-10900D02*
X10500Y-10900D01*
X10500Y-10900D02*
X10500Y-11200D01*
X10500Y-11200D02*
X10700Y-11200D01*
X11250Y-13100D02*
X11450Y-13100D01*
X11450Y-13100D02*
X11450Y-13400D01*
X11450Y-13400D02*
X11250Y-13400D01*
X11050Y-13100D02*
X10850Y-13100D01*
X10850Y-13100D02*
X10850Y-13400D01*
X10850Y-13400D02*
X11050Y-13400D01*
X11250Y-14000D02*
X11450Y-14000D01*
X11450Y-14000D02*
X11450Y-14300D01*
X11450Y-14300D02*
X11250Y-14300D01*
X11050Y-14000D02*
X10850Y-14000D01*
X10850Y-14000D02*
X10850Y-14300D01*
X10850Y-14300D02*
X11050Y-14300D01*
X11250Y-14850D02*
X11450Y-14850D01*
X11450Y-14850D02*
X11450Y-15150D01*
X11450Y-15150D02*
X11250Y-15150D01*
X11050Y-14850D02*
X10850Y-14850D01*
X10850Y-14850D02*
X10850Y-15150D01*
X10850Y-15150D02*
X11050Y-15150D01*
X14350Y-18400D02*
X14350Y-18200D01*
X14350Y-18200D02*
X14650Y-18200D01*
X14650Y-18200D02*
X14650Y-18400D01*
X14350Y-18600D02*
X14350Y-18800D01*
X14350Y-18800D02*
X14650Y-18800D01*
X14650Y-18800D02*
X14650Y-18600D01*
X16750Y-16000D02*
X16750Y-15800D01*
X16750Y-15800D02*
X17050Y-15800D01*
X17050Y-15800D02*
X17050Y-16000D01*
X16750Y-16200D02*
X16750Y-16400D01*
X16750Y-16400D02*
X17050Y-16400D01*
X17050Y-16400D02*
X17050Y-16200D01*
G54D12*
X11300Y-9250D02*
X12000Y-9250D01*
X12000Y-9250D02*
X12000Y-8050D01*
X12000Y-8050D02*
X11300Y-8050D01*
X11300Y-8050D02*
X11300Y-9250D01*
G54D13*
X16000Y-16950D02*
X15800Y-16950D01*
X15800Y-16950D02*
X15800Y-16650D01*
X15800Y-16650D02*
X16000Y-16650D01*
X16200Y-16950D02*
X16400Y-16950D01*
X16400Y-16950D02*
X16400Y-16650D01*
X16400Y-16650D02*
X16200Y-16650D01*
X12100Y-6200D02*
X12100Y-6000D01*
X12100Y-6000D02*
X12400Y-6000D01*
X12400Y-6000D02*
X12400Y-6200D01*
X12100Y-6400D02*
X12100Y-6600D01*
X12100Y-6600D02*
X12400Y-6600D01*
X12400Y-6600D02*
X12400Y-6400D01*
X11300Y-9850D02*
X11300Y-10050D01*
X11300Y-10050D02*
X11000Y-10050D01*
X11000Y-10050D02*
X11000Y-9850D01*
X11300Y-9650D02*
X11300Y-9450D01*
X11300Y-9450D02*
X11000Y-9450D01*
X11000Y-9450D02*
X11000Y-9650D01*
X14000Y-19150D02*
X14000Y-19350D01*
X14000Y-19350D02*
X13700Y-19350D01*
X13700Y-19350D02*
X13700Y-19150D01*
X14000Y-18950D02*
X14000Y-18750D01*
X14000Y-18750D02*
X13700Y-18750D01*
X13700Y-18750D02*
X13700Y-18950D01*
X13600Y-19150D02*
X13600Y-19350D01*
X13600Y-19350D02*
X13300Y-19350D01*
X13300Y-19350D02*
X13300Y-19150D01*
X13600Y-18950D02*
X13600Y-18750D01*
X13600Y-18750D02*
X13300Y-18750D01*
X13300Y-18750D02*
X13300Y-18950D01*
X17050Y-18100D02*
X17050Y-18300D01*
X17050Y-18300D02*
X16750Y-18300D01*
X16750Y-18300D02*
X16750Y-18100D01*
X17050Y-17900D02*
X17050Y-17700D01*
X17050Y-17700D02*
X16750Y-17700D01*
X16750Y-17700D02*
X16750Y-17900D01*
X16000Y-18550D02*
X15800Y-18550D01*
X15800Y-18550D02*
X15800Y-18250D01*
X15800Y-18250D02*
X16000Y-18250D01*
X16200Y-18550D02*
X16400Y-18550D01*
X16400Y-18550D02*
X16400Y-18250D01*
X16400Y-18250D02*
X16200Y-18250D01*
G54D14*
X12750Y-7100D02*
G75*
G03X12750Y-7100I-50J0D01*
G74*
G01*
X12700Y-6650D02*
X12700Y-7050D01*
X12700Y-7050D02*
X13300Y-7050D01*
X13300Y-7050D02*
X13300Y-6650D01*
X13300Y-6250D02*
X13300Y-5850D01*
X13300Y-5850D02*
X12700Y-5850D01*
X12700Y-5850D02*
X12700Y-6250D01*
%LPC*%
G54D15*
X11750Y-10950D03*
X11750Y-10350D03*
G54D16*
X11773Y-9600D03*
X12127Y-9600D03*
G54D17*
X15700Y-15923D03*
X15700Y-16277D03*
X10300Y-7777D03*
X10300Y-7423D03*
G54D16*
X12523Y-9600D03*
X12877Y-9600D03*
G54D17*
X12500Y-10427D03*
X12500Y-10073D03*
X13600Y-6927D03*
X13600Y-6573D03*
G54D16*
X11327Y-15450D03*
X10973Y-15450D03*
X10977Y-10600D03*
X10623Y-10600D03*
X11327Y-15900D03*
X10973Y-15900D03*
X10977Y-11050D03*
X10623Y-11050D03*
X11327Y-13250D03*
X10973Y-13250D03*
X11327Y-14150D03*
X10973Y-14150D03*
X11327Y-15000D03*
X10973Y-15000D03*
G54D17*
X14500Y-18323D03*
X14500Y-18677D03*
X16900Y-15923D03*
X16900Y-16277D03*
G54D18*
X12150Y-8275D03*
X12150Y-9025D03*
X11150Y-8275D03*
X12150Y-8650D03*
X11150Y-9025D03*
G54D19*
X15100Y-15257D03*
X15690Y-15257D03*
X16281Y-15257D03*
X16871Y-15257D03*
X14509Y-15257D03*
X13918Y-15257D03*
X13328Y-15257D03*
X16871Y-10242D03*
X16281Y-10242D03*
X15690Y-10242D03*
X15100Y-10242D03*
X14509Y-10242D03*
X13918Y-10242D03*
X13328Y-10242D03*
G54D20*
X12974Y-11305D03*
X12974Y-11954D03*
G54D16*
X15923Y-16800D03*
X16277Y-16800D03*
G54D17*
X12250Y-6123D03*
X12250Y-6477D03*
X11150Y-9927D03*
X11150Y-9573D03*
X13850Y-19227D03*
X13850Y-18873D03*
X13450Y-19227D03*
X13450Y-18873D03*
X16900Y-18177D03*
X16900Y-17823D03*
G54D16*
X15923Y-18400D03*
X16277Y-18400D03*
G54D21*
X16266Y-17206D03*
X16266Y-17403D03*
X16266Y-17600D03*
X16266Y-17796D03*
X16266Y-17993D03*
X14533Y-17993D03*
X14533Y-17796D03*
X14533Y-17600D03*
X14533Y-17403D03*
X14533Y-17206D03*
G54D22*
X10900Y-20750D03*
X11400Y-20750D03*
X11900Y-20750D03*
X12400Y-20750D03*
G54D23*
X13000Y-6825D03*
X13000Y-6075D03*
G54D24*
X12169Y-7610D03*
X10830Y-7610D03*
G54D25*
X11033Y-11550D03*
X11466Y-11550D03*
X11466Y-12100D03*
X11033Y-12100D03*
G54D26*
X13050Y-9063D03*
X13050Y-8236D03*
G54D27*
X11256Y-20050D03*
X12043Y-20050D03*
X15056Y-19350D03*
X15843Y-19350D03*
G54D28*
X9900Y-15607D03*
X9900Y-15804D03*
X9900Y-15410D03*
X9900Y-15213D03*
X9900Y-14426D03*
X9900Y-14623D03*
X9900Y-15016D03*
X9900Y-14820D03*
X9900Y-14229D03*
X9900Y-14032D03*
X9900Y-12064D03*
X9900Y-12261D03*
X9900Y-12851D03*
X9900Y-13048D03*
X9900Y-12654D03*
X9900Y-12457D03*
X9900Y-13245D03*
X9900Y-13442D03*
X9900Y-13835D03*
X9900Y-13638D03*
X9900Y-10095D03*
X9900Y-10292D03*
X9900Y-10883D03*
X9900Y-11079D03*
X9900Y-10686D03*
X9900Y-10489D03*
X9900Y-11276D03*
X9900Y-11473D03*
X9900Y-11867D03*
X9900Y-11670D03*
G54D29*
X8364Y-9446D03*
X8403Y-16453D03*
G54D30*
X6380Y-6150D03*
X7719Y-6150D03*
X16669Y-6150D03*
X15330Y-6150D03*
M02*
