G04 (created by PCBNEW (22-Jun-2014 BZR 4027)-stable) date Thu 09 Jul 2015 06:25:10 AM CDT*
%MOIN*%
G04 Gerber Fmt 3.4, Leading zero omitted, Abs format*
%FSLAX34Y34*%
G01*
G70*
G90*
G04 APERTURE LIST*
%ADD10C,0.00590551*%
%ADD11R,0.0283465X0.023622*%
%ADD12R,0.0157X0.0236*%
%ADD13R,0.0236X0.0157*%
%ADD14R,0.03X0.02*%
%ADD15R,0.0110236X0.0334646*%
%ADD16R,0.0944882X0.0649606*%
%ADD17R,0.019685X0.0137795*%
%ADD18R,0.015748X0.0531496*%
%ADD19R,0.0826772X0.0629921*%
%ADD20R,0.0708661X0.0748031*%
%ADD21R,0.0748031X0.0748031*%
%ADD22C,0.0350394*%
%ADD23R,0.045X0.025*%
%ADD24R,0.023622X0.0787402*%
%ADD25R,0.0669291X0.0590551*%
%ADD26R,0.0314961X0.0669291*%
%ADD27R,0.011811X0.0275591*%
%ADD28R,0.0275591X0.011811*%
%ADD29R,0.019685X0.019685*%
%ADD30R,0.0216535X0.011811*%
%ADD31R,0.011811X0.0216535*%
%ADD32R,0.023622X0.015748*%
G04 APERTURE END LIST*
G54D10*
G54D11*
X11790Y-6124D03*
X11409Y-6124D03*
X11409Y-6675D03*
X11790Y-6675D03*
X11027Y-6675D03*
X11027Y-6124D03*
X12172Y-6124D03*
X12172Y-6675D03*
G54D12*
X10527Y-19150D03*
X10173Y-19150D03*
X10527Y-19600D03*
X10173Y-19600D03*
G54D13*
X10200Y-17423D03*
X10200Y-17777D03*
G54D12*
X10873Y-19150D03*
X11227Y-19150D03*
X6827Y-16700D03*
X6473Y-16700D03*
X7573Y-18000D03*
X7927Y-18000D03*
X6327Y-18500D03*
X5973Y-18500D03*
X15027Y-9200D03*
X14673Y-9200D03*
X15027Y-9650D03*
X14673Y-9650D03*
X11823Y-16950D03*
X12177Y-16950D03*
G54D13*
X6850Y-15423D03*
X6850Y-15777D03*
X10450Y-6727D03*
X10450Y-6373D03*
G54D12*
X8723Y-16550D03*
X9077Y-16550D03*
X8327Y-16650D03*
X7973Y-16650D03*
G54D13*
X9750Y-7723D03*
X9750Y-8077D03*
G54D12*
X11873Y-19150D03*
X12227Y-19150D03*
G54D13*
X12000Y-11177D03*
X12000Y-10823D03*
X6250Y-10127D03*
X6250Y-9773D03*
G54D12*
X12227Y-18600D03*
X11873Y-18600D03*
G54D13*
X11800Y-14773D03*
X11800Y-15127D03*
G54D14*
X6150Y-17275D03*
X6150Y-18025D03*
X7150Y-17275D03*
X6150Y-17650D03*
X7150Y-18025D03*
G54D12*
X6373Y-13000D03*
X6727Y-13000D03*
X7023Y-12450D03*
X7377Y-12450D03*
G54D15*
X10706Y-17419D03*
X10903Y-17419D03*
X11493Y-17419D03*
X11296Y-17419D03*
X11100Y-17419D03*
X11100Y-18580D03*
X11296Y-18580D03*
X11493Y-18580D03*
X10903Y-18580D03*
X10706Y-18580D03*
G54D16*
X11100Y-18000D03*
G54D12*
X7423Y-6000D03*
X7777Y-6000D03*
G54D13*
X6100Y-6973D03*
X6100Y-7327D03*
X6550Y-7327D03*
X6550Y-6973D03*
X6850Y-14723D03*
X6850Y-15077D03*
G54D12*
X7077Y-9800D03*
X6723Y-9800D03*
G54D13*
X15300Y-5973D03*
X15300Y-6327D03*
X14800Y-5973D03*
X14800Y-6327D03*
G54D17*
X6766Y-11333D03*
X6766Y-10566D03*
X6766Y-10822D03*
X6766Y-11077D03*
X6333Y-10822D03*
X6333Y-10566D03*
X6333Y-11077D03*
X6333Y-11333D03*
G54D18*
X7138Y-19496D03*
X7394Y-19496D03*
X7650Y-19496D03*
X7905Y-19496D03*
X8161Y-19496D03*
G54D19*
X8870Y-19546D03*
X6429Y-19546D03*
G54D20*
X6153Y-20550D03*
G54D21*
X7177Y-20550D03*
X8122Y-20550D03*
G54D20*
X9146Y-20550D03*
G54D22*
X10900Y-20750D03*
X11400Y-20750D03*
X11900Y-20750D03*
X12400Y-20750D03*
G54D23*
X12150Y-18100D03*
X12150Y-17500D03*
G54D24*
X10286Y-16550D03*
X11113Y-16550D03*
G54D25*
X15700Y-8533D03*
X15700Y-7666D03*
X14700Y-7666D03*
X14700Y-8533D03*
G54D26*
X14930Y-20550D03*
X16269Y-20550D03*
G54D27*
X8148Y-16188D03*
X7951Y-16188D03*
X8542Y-16188D03*
X8345Y-16188D03*
X7754Y-16188D03*
X7557Y-16188D03*
X8542Y-14711D03*
X8345Y-14711D03*
X8148Y-14711D03*
X7951Y-14711D03*
X7754Y-14711D03*
X7557Y-14711D03*
G54D28*
X8788Y-14957D03*
X8788Y-15154D03*
X8788Y-15351D03*
X8788Y-15548D03*
X8788Y-15745D03*
X8788Y-15942D03*
X7311Y-14957D03*
X7311Y-15154D03*
X7311Y-15351D03*
X7311Y-15548D03*
X7311Y-15745D03*
X7311Y-15942D03*
G54D29*
X8509Y-7090D03*
X8509Y-6696D03*
X8509Y-6303D03*
X8509Y-5909D03*
X8903Y-7090D03*
X9690Y-6696D03*
X9690Y-6303D03*
X8903Y-5909D03*
X9296Y-7090D03*
X9690Y-7090D03*
X9296Y-5909D03*
X9690Y-5909D03*
G54D30*
X11878Y-14082D03*
X11878Y-13885D03*
X11878Y-13688D03*
X11878Y-13492D03*
X11878Y-13295D03*
X11878Y-13098D03*
X11878Y-12901D03*
X11878Y-12704D03*
X11878Y-12507D03*
X11878Y-12311D03*
X11878Y-12114D03*
X11878Y-11917D03*
X9221Y-11917D03*
X9221Y-12114D03*
X9221Y-12311D03*
X9221Y-12507D03*
X9221Y-12704D03*
X9221Y-12901D03*
X9221Y-13098D03*
X9221Y-13295D03*
X9221Y-13492D03*
X9221Y-13688D03*
X9221Y-13885D03*
X9221Y-14082D03*
G54D31*
X9467Y-14328D03*
X9664Y-14328D03*
X9861Y-14328D03*
X10057Y-14328D03*
X10254Y-14328D03*
X10449Y-14328D03*
X10648Y-14328D03*
X10845Y-14328D03*
X11042Y-14328D03*
X11238Y-14328D03*
X11435Y-14328D03*
X11632Y-14328D03*
X11632Y-11671D03*
X11435Y-11671D03*
X11238Y-11671D03*
X11042Y-11671D03*
X10845Y-11671D03*
X10648Y-11671D03*
X10451Y-11671D03*
X10254Y-11671D03*
X10057Y-11671D03*
X9861Y-11671D03*
X9664Y-11671D03*
X9467Y-11671D03*
G54D32*
X8635Y-10000D03*
X7568Y-10000D03*
X8631Y-10393D03*
X7568Y-10393D03*
X8631Y-9606D03*
X7568Y-9606D03*
G54D13*
X10500Y-9073D03*
X10500Y-9427D03*
M02*
