G04 (created by PCBNEW (22-Jun-2014 BZR 4027)-stable) date Thu 09 Jul 2015 06:25:10 AM CDT*
%MOIN*%
G04 Gerber Fmt 3.4, Leading zero omitted, Abs format*
%FSLAX34Y34*%
G01*
G70*
G90*
G04 APERTURE LIST*
%ADD10C,0.00590551*%
%ADD11C,0.011811*%
%ADD12C,0.0028*%
%ADD13C,0.005*%
%ADD14R,0.0283465X0.023622*%
%ADD15R,0.0157X0.0236*%
%ADD16R,0.0236X0.0157*%
%ADD17R,0.03X0.02*%
%ADD18R,0.0110236X0.0334646*%
%ADD19R,0.0944882X0.0649606*%
%ADD20R,0.019685X0.0137795*%
%ADD21R,0.015748X0.0531496*%
%ADD22R,0.0826772X0.0629921*%
%ADD23R,0.0708661X0.0748031*%
%ADD24R,0.0748031X0.0748031*%
%ADD25C,0.0350394*%
%ADD26R,0.045X0.025*%
%ADD27R,0.023622X0.0787402*%
%ADD28R,0.0669291X0.0590551*%
%ADD29R,0.0314961X0.0669291*%
%ADD30R,0.011811X0.0275591*%
%ADD31R,0.0275591X0.011811*%
%ADD32R,0.019685X0.019685*%
%ADD33R,0.0216535X0.011811*%
%ADD34R,0.011811X0.0216535*%
%ADD35R,0.023622X0.015748*%
G04 APERTURE END LIST*
G54D10*
G54D11*
X16139Y-13774D02*
X15857Y-13971D01*
X16139Y-14112D02*
X15548Y-14112D01*
X15548Y-13887D01*
X15576Y-13831D01*
X15604Y-13802D01*
X15660Y-13774D01*
X15745Y-13774D01*
X15801Y-13802D01*
X15829Y-13831D01*
X15857Y-13887D01*
X15857Y-14112D01*
X15829Y-13521D02*
X15829Y-13324D01*
X16139Y-13240D02*
X16139Y-13521D01*
X15548Y-13521D01*
X15548Y-13240D01*
X15548Y-13071D02*
X16139Y-12874D01*
X15548Y-12678D01*
X15548Y-12087D02*
X16139Y-11693D01*
X15548Y-11693D02*
X16139Y-12087D01*
X16139Y-11159D02*
X16139Y-11497D01*
X16139Y-11328D02*
X15548Y-11328D01*
X15632Y-11384D01*
X15689Y-11440D01*
X15717Y-11497D01*
X11500Y-16982D02*
X11528Y-17010D01*
X11500Y-17039D01*
X11471Y-17010D01*
X11500Y-16982D01*
X11500Y-17039D01*
X10600Y-5882D02*
X10628Y-5910D01*
X10600Y-5939D01*
X10571Y-5910D01*
X10600Y-5882D01*
X10600Y-5939D01*
X16450Y-7332D02*
X16478Y-7360D01*
X16450Y-7389D01*
X16421Y-7360D01*
X16450Y-7332D01*
X16450Y-7389D01*
X10000Y-6182D02*
X10028Y-6210D01*
X10000Y-6239D01*
X9971Y-6210D01*
X10000Y-6182D01*
X10000Y-6239D01*
X8950Y-10382D02*
X8978Y-10410D01*
X8950Y-10439D01*
X8921Y-10410D01*
X8950Y-10382D01*
X8950Y-10439D01*
X6950Y-10232D02*
X6978Y-10260D01*
X6950Y-10289D01*
X6921Y-10260D01*
X6950Y-10232D01*
X6950Y-10289D01*
X9100Y-14882D02*
X9128Y-14910D01*
X9100Y-14939D01*
X9071Y-14910D01*
X9100Y-14882D01*
X9100Y-14939D01*
X11950Y-11582D02*
X11978Y-11610D01*
X11950Y-11639D01*
X11921Y-11610D01*
X11950Y-11582D01*
X11950Y-11639D01*
X16595Y-17240D02*
X16989Y-17099D01*
X16595Y-16958D01*
X16989Y-16649D02*
X16960Y-16705D01*
X16932Y-16733D01*
X16876Y-16761D01*
X16707Y-16761D01*
X16651Y-16733D01*
X16623Y-16705D01*
X16595Y-16649D01*
X16595Y-16565D01*
X16623Y-16508D01*
X16651Y-16480D01*
X16707Y-16452D01*
X16876Y-16452D01*
X16932Y-16480D01*
X16960Y-16508D01*
X16989Y-16565D01*
X16989Y-16649D01*
X16989Y-16199D02*
X16595Y-16199D01*
X16398Y-16199D02*
X16426Y-16227D01*
X16454Y-16199D01*
X16426Y-16171D01*
X16398Y-16199D01*
X16454Y-16199D01*
X16989Y-15665D02*
X16398Y-15665D01*
X16960Y-15665D02*
X16989Y-15721D01*
X16989Y-15833D01*
X16960Y-15890D01*
X16932Y-15918D01*
X16876Y-15946D01*
X16707Y-15946D01*
X16651Y-15918D01*
X16623Y-15890D01*
X16595Y-15833D01*
X16595Y-15721D01*
X16623Y-15665D01*
X16595Y-15384D02*
X17185Y-15384D01*
X16623Y-15384D02*
X16595Y-15327D01*
X16595Y-15215D01*
X16623Y-15159D01*
X16651Y-15130D01*
X16707Y-15102D01*
X16876Y-15102D01*
X16932Y-15130D01*
X16960Y-15159D01*
X16989Y-15215D01*
X16989Y-15327D01*
X16960Y-15384D01*
X16595Y-14934D02*
X16595Y-14709D01*
X16398Y-14849D02*
X16904Y-14849D01*
X16960Y-14821D01*
X16989Y-14765D01*
X16989Y-14709D01*
X16989Y-14512D02*
X16595Y-14512D01*
X16707Y-14512D02*
X16651Y-14484D01*
X16623Y-14456D01*
X16595Y-14399D01*
X16595Y-14343D01*
X16932Y-14146D02*
X16960Y-14118D01*
X16989Y-14146D01*
X16960Y-14174D01*
X16932Y-14146D01*
X16989Y-14146D01*
X16989Y-13781D02*
X16960Y-13837D01*
X16932Y-13865D01*
X16876Y-13893D01*
X16707Y-13893D01*
X16651Y-13865D01*
X16623Y-13837D01*
X16595Y-13781D01*
X16595Y-13696D01*
X16623Y-13640D01*
X16651Y-13612D01*
X16707Y-13584D01*
X16876Y-13584D01*
X16932Y-13612D01*
X16960Y-13640D01*
X16989Y-13696D01*
X16989Y-13781D01*
X16989Y-13331D02*
X16595Y-13331D01*
X16707Y-13331D02*
X16651Y-13303D01*
X16623Y-13274D01*
X16595Y-13218D01*
X16595Y-13162D01*
X16595Y-12712D02*
X17073Y-12712D01*
X17129Y-12740D01*
X17157Y-12768D01*
X17185Y-12824D01*
X17185Y-12909D01*
X17157Y-12965D01*
X16960Y-12712D02*
X16989Y-12768D01*
X16989Y-12881D01*
X16960Y-12937D01*
X16932Y-12965D01*
X16876Y-12993D01*
X16707Y-12993D01*
X16651Y-12965D01*
X16623Y-12937D01*
X16595Y-12881D01*
X16595Y-12768D01*
X16623Y-12712D01*
X16370Y-12009D02*
X17129Y-12515D01*
X16989Y-11728D02*
X16960Y-11784D01*
X16932Y-11812D01*
X16876Y-11840D01*
X16707Y-11840D01*
X16651Y-11812D01*
X16623Y-11784D01*
X16595Y-11728D01*
X16595Y-11643D01*
X16623Y-11587D01*
X16651Y-11559D01*
X16707Y-11531D01*
X16876Y-11531D01*
X16932Y-11559D01*
X16960Y-11587D01*
X16989Y-11643D01*
X16989Y-11728D01*
X16960Y-11306D02*
X16989Y-11250D01*
X16989Y-11137D01*
X16960Y-11081D01*
X16904Y-11053D01*
X16876Y-11053D01*
X16820Y-11081D01*
X16792Y-11137D01*
X16792Y-11222D01*
X16764Y-11278D01*
X16707Y-11306D01*
X16679Y-11306D01*
X16623Y-11278D01*
X16595Y-11222D01*
X16595Y-11137D01*
X16623Y-11081D01*
X16989Y-10800D02*
X16398Y-10800D01*
X16989Y-10547D02*
X16679Y-10547D01*
X16623Y-10575D01*
X16595Y-10631D01*
X16595Y-10715D01*
X16623Y-10772D01*
X16651Y-10800D01*
X16595Y-10322D02*
X16989Y-10209D01*
X16707Y-10097D01*
X16989Y-9984D01*
X16595Y-9872D01*
X16989Y-9394D02*
X16679Y-9394D01*
X16623Y-9422D01*
X16595Y-9478D01*
X16595Y-9591D01*
X16623Y-9647D01*
X16960Y-9394D02*
X16989Y-9450D01*
X16989Y-9591D01*
X16960Y-9647D01*
X16904Y-9675D01*
X16848Y-9675D01*
X16792Y-9647D01*
X16764Y-9591D01*
X16764Y-9450D01*
X16735Y-9394D01*
X16595Y-9197D02*
X16595Y-8972D01*
X16398Y-9112D02*
X16904Y-9112D01*
X16960Y-9084D01*
X16989Y-9028D01*
X16989Y-8972D01*
X16960Y-8522D02*
X16989Y-8578D01*
X16989Y-8691D01*
X16960Y-8747D01*
X16932Y-8775D01*
X16876Y-8803D01*
X16707Y-8803D01*
X16651Y-8775D01*
X16623Y-8747D01*
X16595Y-8691D01*
X16595Y-8578D01*
X16623Y-8522D01*
X16989Y-8269D02*
X16398Y-8269D01*
X16989Y-8016D02*
X16679Y-8016D01*
X16623Y-8044D01*
X16595Y-8100D01*
X16595Y-8184D01*
X16623Y-8241D01*
X16651Y-8269D01*
G54D12*
X10450Y-19300D02*
X10650Y-19300D01*
X10650Y-19300D02*
X10650Y-19000D01*
X10650Y-19000D02*
X10450Y-19000D01*
X10250Y-19300D02*
X10050Y-19300D01*
X10050Y-19300D02*
X10050Y-19000D01*
X10050Y-19000D02*
X10250Y-19000D01*
X10450Y-19750D02*
X10650Y-19750D01*
X10650Y-19750D02*
X10650Y-19450D01*
X10650Y-19450D02*
X10450Y-19450D01*
X10250Y-19750D02*
X10050Y-19750D01*
X10050Y-19750D02*
X10050Y-19450D01*
X10050Y-19450D02*
X10250Y-19450D01*
X10350Y-17500D02*
X10350Y-17300D01*
X10350Y-17300D02*
X10050Y-17300D01*
X10050Y-17300D02*
X10050Y-17500D01*
X10350Y-17700D02*
X10350Y-17900D01*
X10350Y-17900D02*
X10050Y-17900D01*
X10050Y-17900D02*
X10050Y-17700D01*
X10950Y-19000D02*
X10750Y-19000D01*
X10750Y-19000D02*
X10750Y-19300D01*
X10750Y-19300D02*
X10950Y-19300D01*
X11150Y-19000D02*
X11350Y-19000D01*
X11350Y-19000D02*
X11350Y-19300D01*
X11350Y-19300D02*
X11150Y-19300D01*
X6750Y-16850D02*
X6950Y-16850D01*
X6950Y-16850D02*
X6950Y-16550D01*
X6950Y-16550D02*
X6750Y-16550D01*
X6550Y-16850D02*
X6350Y-16850D01*
X6350Y-16850D02*
X6350Y-16550D01*
X6350Y-16550D02*
X6550Y-16550D01*
X7650Y-17850D02*
X7450Y-17850D01*
X7450Y-17850D02*
X7450Y-18150D01*
X7450Y-18150D02*
X7650Y-18150D01*
X7850Y-17850D02*
X8050Y-17850D01*
X8050Y-17850D02*
X8050Y-18150D01*
X8050Y-18150D02*
X7850Y-18150D01*
X6250Y-18650D02*
X6450Y-18650D01*
X6450Y-18650D02*
X6450Y-18350D01*
X6450Y-18350D02*
X6250Y-18350D01*
X6050Y-18650D02*
X5850Y-18650D01*
X5850Y-18650D02*
X5850Y-18350D01*
X5850Y-18350D02*
X6050Y-18350D01*
X14950Y-9350D02*
X15150Y-9350D01*
X15150Y-9350D02*
X15150Y-9050D01*
X15150Y-9050D02*
X14950Y-9050D01*
X14750Y-9350D02*
X14550Y-9350D01*
X14550Y-9350D02*
X14550Y-9050D01*
X14550Y-9050D02*
X14750Y-9050D01*
X14950Y-9800D02*
X15150Y-9800D01*
X15150Y-9800D02*
X15150Y-9500D01*
X15150Y-9500D02*
X14950Y-9500D01*
X14750Y-9800D02*
X14550Y-9800D01*
X14550Y-9800D02*
X14550Y-9500D01*
X14550Y-9500D02*
X14750Y-9500D01*
X11900Y-16800D02*
X11700Y-16800D01*
X11700Y-16800D02*
X11700Y-17100D01*
X11700Y-17100D02*
X11900Y-17100D01*
X12100Y-16800D02*
X12300Y-16800D01*
X12300Y-16800D02*
X12300Y-17100D01*
X12300Y-17100D02*
X12100Y-17100D01*
X7000Y-15500D02*
X7000Y-15300D01*
X7000Y-15300D02*
X6700Y-15300D01*
X6700Y-15300D02*
X6700Y-15500D01*
X7000Y-15700D02*
X7000Y-15900D01*
X7000Y-15900D02*
X6700Y-15900D01*
X6700Y-15900D02*
X6700Y-15700D01*
X10300Y-6650D02*
X10300Y-6850D01*
X10300Y-6850D02*
X10600Y-6850D01*
X10600Y-6850D02*
X10600Y-6650D01*
X10300Y-6450D02*
X10300Y-6250D01*
X10300Y-6250D02*
X10600Y-6250D01*
X10600Y-6250D02*
X10600Y-6450D01*
X8800Y-16400D02*
X8600Y-16400D01*
X8600Y-16400D02*
X8600Y-16700D01*
X8600Y-16700D02*
X8800Y-16700D01*
X9000Y-16400D02*
X9200Y-16400D01*
X9200Y-16400D02*
X9200Y-16700D01*
X9200Y-16700D02*
X9000Y-16700D01*
X8250Y-16800D02*
X8450Y-16800D01*
X8450Y-16800D02*
X8450Y-16500D01*
X8450Y-16500D02*
X8250Y-16500D01*
X8050Y-16800D02*
X7850Y-16800D01*
X7850Y-16800D02*
X7850Y-16500D01*
X7850Y-16500D02*
X8050Y-16500D01*
X9900Y-7800D02*
X9900Y-7600D01*
X9900Y-7600D02*
X9600Y-7600D01*
X9600Y-7600D02*
X9600Y-7800D01*
X9900Y-8000D02*
X9900Y-8200D01*
X9900Y-8200D02*
X9600Y-8200D01*
X9600Y-8200D02*
X9600Y-8000D01*
X11950Y-19000D02*
X11750Y-19000D01*
X11750Y-19000D02*
X11750Y-19300D01*
X11750Y-19300D02*
X11950Y-19300D01*
X12150Y-19000D02*
X12350Y-19000D01*
X12350Y-19000D02*
X12350Y-19300D01*
X12350Y-19300D02*
X12150Y-19300D01*
X11850Y-11100D02*
X11850Y-11300D01*
X11850Y-11300D02*
X12150Y-11300D01*
X12150Y-11300D02*
X12150Y-11100D01*
X11850Y-10900D02*
X11850Y-10700D01*
X11850Y-10700D02*
X12150Y-10700D01*
X12150Y-10700D02*
X12150Y-10900D01*
X6100Y-10050D02*
X6100Y-10250D01*
X6100Y-10250D02*
X6400Y-10250D01*
X6400Y-10250D02*
X6400Y-10050D01*
X6100Y-9850D02*
X6100Y-9650D01*
X6100Y-9650D02*
X6400Y-9650D01*
X6400Y-9650D02*
X6400Y-9850D01*
X12150Y-18750D02*
X12350Y-18750D01*
X12350Y-18750D02*
X12350Y-18450D01*
X12350Y-18450D02*
X12150Y-18450D01*
X11950Y-18750D02*
X11750Y-18750D01*
X11750Y-18750D02*
X11750Y-18450D01*
X11750Y-18450D02*
X11950Y-18450D01*
X11950Y-14850D02*
X11950Y-14650D01*
X11950Y-14650D02*
X11650Y-14650D01*
X11650Y-14650D02*
X11650Y-14850D01*
X11950Y-15050D02*
X11950Y-15250D01*
X11950Y-15250D02*
X11650Y-15250D01*
X11650Y-15250D02*
X11650Y-15050D01*
G54D13*
X7000Y-18250D02*
X6300Y-18250D01*
X6300Y-18250D02*
X6300Y-17050D01*
X6300Y-17050D02*
X7000Y-17050D01*
X7000Y-17050D02*
X7000Y-18250D01*
G54D12*
X6450Y-12850D02*
X6250Y-12850D01*
X6250Y-12850D02*
X6250Y-13150D01*
X6250Y-13150D02*
X6450Y-13150D01*
X6650Y-12850D02*
X6850Y-12850D01*
X6850Y-12850D02*
X6850Y-13150D01*
X6850Y-13150D02*
X6650Y-13150D01*
X7100Y-12300D02*
X6900Y-12300D01*
X6900Y-12300D02*
X6900Y-12600D01*
X6900Y-12600D02*
X7100Y-12600D01*
X7300Y-12300D02*
X7500Y-12300D01*
X7500Y-12300D02*
X7500Y-12600D01*
X7500Y-12600D02*
X7300Y-12600D01*
X7500Y-5850D02*
X7300Y-5850D01*
X7300Y-5850D02*
X7300Y-6150D01*
X7300Y-6150D02*
X7500Y-6150D01*
X7700Y-5850D02*
X7900Y-5850D01*
X7900Y-5850D02*
X7900Y-6150D01*
X7900Y-6150D02*
X7700Y-6150D01*
X6250Y-7050D02*
X6250Y-6850D01*
X6250Y-6850D02*
X5950Y-6850D01*
X5950Y-6850D02*
X5950Y-7050D01*
X6250Y-7250D02*
X6250Y-7450D01*
X6250Y-7450D02*
X5950Y-7450D01*
X5950Y-7450D02*
X5950Y-7250D01*
X6400Y-7250D02*
X6400Y-7450D01*
X6400Y-7450D02*
X6700Y-7450D01*
X6700Y-7450D02*
X6700Y-7250D01*
X6400Y-7050D02*
X6400Y-6850D01*
X6400Y-6850D02*
X6700Y-6850D01*
X6700Y-6850D02*
X6700Y-7050D01*
X7000Y-14800D02*
X7000Y-14600D01*
X7000Y-14600D02*
X6700Y-14600D01*
X6700Y-14600D02*
X6700Y-14800D01*
X7000Y-15000D02*
X7000Y-15200D01*
X7000Y-15200D02*
X6700Y-15200D01*
X6700Y-15200D02*
X6700Y-15000D01*
X7000Y-9950D02*
X7200Y-9950D01*
X7200Y-9950D02*
X7200Y-9650D01*
X7200Y-9650D02*
X7000Y-9650D01*
X6800Y-9950D02*
X6600Y-9950D01*
X6600Y-9950D02*
X6600Y-9650D01*
X6600Y-9650D02*
X6800Y-9650D01*
X15450Y-6050D02*
X15450Y-5850D01*
X15450Y-5850D02*
X15150Y-5850D01*
X15150Y-5850D02*
X15150Y-6050D01*
X15450Y-6250D02*
X15450Y-6450D01*
X15450Y-6450D02*
X15150Y-6450D01*
X15150Y-6450D02*
X15150Y-6250D01*
X14950Y-6050D02*
X14950Y-5850D01*
X14950Y-5850D02*
X14650Y-5850D01*
X14650Y-5850D02*
X14650Y-6050D01*
X14950Y-6250D02*
X14950Y-6450D01*
X14950Y-6450D02*
X14650Y-6450D01*
X14650Y-6450D02*
X14650Y-6250D01*
G54D10*
X5484Y-21120D02*
X9657Y-21120D01*
G54D13*
X11900Y-18250D02*
X11900Y-17350D01*
X11900Y-17350D02*
X12400Y-17350D01*
X12400Y-17350D02*
X12400Y-18250D01*
X12400Y-18250D02*
X11900Y-18250D01*
G54D12*
X10650Y-9150D02*
X10650Y-8950D01*
X10650Y-8950D02*
X10350Y-8950D01*
X10350Y-8950D02*
X10350Y-9150D01*
X10650Y-9350D02*
X10650Y-9550D01*
X10650Y-9550D02*
X10350Y-9550D01*
X10350Y-9550D02*
X10350Y-9350D01*
%LPC*%
G54D14*
X11790Y-6124D03*
X11409Y-6124D03*
X11409Y-6675D03*
X11790Y-6675D03*
X11027Y-6675D03*
X11027Y-6124D03*
X12172Y-6124D03*
X12172Y-6675D03*
G54D15*
X10527Y-19150D03*
X10173Y-19150D03*
X10527Y-19600D03*
X10173Y-19600D03*
G54D16*
X10200Y-17423D03*
X10200Y-17777D03*
G54D15*
X10873Y-19150D03*
X11227Y-19150D03*
X6827Y-16700D03*
X6473Y-16700D03*
X7573Y-18000D03*
X7927Y-18000D03*
X6327Y-18500D03*
X5973Y-18500D03*
X15027Y-9200D03*
X14673Y-9200D03*
X15027Y-9650D03*
X14673Y-9650D03*
X11823Y-16950D03*
X12177Y-16950D03*
G54D16*
X6850Y-15423D03*
X6850Y-15777D03*
X10450Y-6727D03*
X10450Y-6373D03*
G54D15*
X8723Y-16550D03*
X9077Y-16550D03*
X8327Y-16650D03*
X7973Y-16650D03*
G54D16*
X9750Y-7723D03*
X9750Y-8077D03*
G54D15*
X11873Y-19150D03*
X12227Y-19150D03*
G54D16*
X12000Y-11177D03*
X12000Y-10823D03*
X6250Y-10127D03*
X6250Y-9773D03*
G54D15*
X12227Y-18600D03*
X11873Y-18600D03*
G54D16*
X11800Y-14773D03*
X11800Y-15127D03*
G54D17*
X6150Y-17275D03*
X6150Y-18025D03*
X7150Y-17275D03*
X6150Y-17650D03*
X7150Y-18025D03*
G54D15*
X6373Y-13000D03*
X6727Y-13000D03*
X7023Y-12450D03*
X7377Y-12450D03*
G54D18*
X10706Y-17419D03*
X10903Y-17419D03*
X11493Y-17419D03*
X11296Y-17419D03*
X11100Y-17419D03*
X11100Y-18580D03*
X11296Y-18580D03*
X11493Y-18580D03*
X10903Y-18580D03*
X10706Y-18580D03*
G54D19*
X11100Y-18000D03*
G54D15*
X7423Y-6000D03*
X7777Y-6000D03*
G54D16*
X6100Y-6973D03*
X6100Y-7327D03*
X6550Y-7327D03*
X6550Y-6973D03*
X6850Y-14723D03*
X6850Y-15077D03*
G54D15*
X7077Y-9800D03*
X6723Y-9800D03*
G54D16*
X15300Y-5973D03*
X15300Y-6327D03*
X14800Y-5973D03*
X14800Y-6327D03*
G54D20*
X6766Y-11333D03*
X6766Y-10566D03*
X6766Y-10822D03*
X6766Y-11077D03*
X6333Y-10822D03*
X6333Y-10566D03*
X6333Y-11077D03*
X6333Y-11333D03*
G54D21*
X7138Y-19496D03*
X7394Y-19496D03*
X7650Y-19496D03*
X7905Y-19496D03*
X8161Y-19496D03*
G54D22*
X8870Y-19546D03*
X6429Y-19546D03*
G54D23*
X6153Y-20550D03*
G54D24*
X7177Y-20550D03*
X8122Y-20550D03*
G54D23*
X9146Y-20550D03*
G54D25*
X10900Y-20750D03*
X11400Y-20750D03*
X11900Y-20750D03*
X12400Y-20750D03*
G54D26*
X12150Y-18100D03*
X12150Y-17500D03*
G54D27*
X10286Y-16550D03*
X11113Y-16550D03*
G54D28*
X15700Y-8533D03*
X15700Y-7666D03*
X14700Y-7666D03*
X14700Y-8533D03*
G54D29*
X14930Y-20550D03*
X16269Y-20550D03*
G54D30*
X8148Y-16188D03*
X7951Y-16188D03*
X8542Y-16188D03*
X8345Y-16188D03*
X7754Y-16188D03*
X7557Y-16188D03*
X8542Y-14711D03*
X8345Y-14711D03*
X8148Y-14711D03*
X7951Y-14711D03*
X7754Y-14711D03*
X7557Y-14711D03*
G54D31*
X8788Y-14957D03*
X8788Y-15154D03*
X8788Y-15351D03*
X8788Y-15548D03*
X8788Y-15745D03*
X8788Y-15942D03*
X7311Y-14957D03*
X7311Y-15154D03*
X7311Y-15351D03*
X7311Y-15548D03*
X7311Y-15745D03*
X7311Y-15942D03*
G54D32*
X8509Y-7090D03*
X8509Y-6696D03*
X8509Y-6303D03*
X8509Y-5909D03*
X8903Y-7090D03*
X9690Y-6696D03*
X9690Y-6303D03*
X8903Y-5909D03*
X9296Y-7090D03*
X9690Y-7090D03*
X9296Y-5909D03*
X9690Y-5909D03*
G54D33*
X11878Y-14082D03*
X11878Y-13885D03*
X11878Y-13688D03*
X11878Y-13492D03*
X11878Y-13295D03*
X11878Y-13098D03*
X11878Y-12901D03*
X11878Y-12704D03*
X11878Y-12507D03*
X11878Y-12311D03*
X11878Y-12114D03*
X11878Y-11917D03*
X9221Y-11917D03*
X9221Y-12114D03*
X9221Y-12311D03*
X9221Y-12507D03*
X9221Y-12704D03*
X9221Y-12901D03*
X9221Y-13098D03*
X9221Y-13295D03*
X9221Y-13492D03*
X9221Y-13688D03*
X9221Y-13885D03*
X9221Y-14082D03*
G54D34*
X9467Y-14328D03*
X9664Y-14328D03*
X9861Y-14328D03*
X10057Y-14328D03*
X10254Y-14328D03*
X10449Y-14328D03*
X10648Y-14328D03*
X10845Y-14328D03*
X11042Y-14328D03*
X11238Y-14328D03*
X11435Y-14328D03*
X11632Y-14328D03*
X11632Y-11671D03*
X11435Y-11671D03*
X11238Y-11671D03*
X11042Y-11671D03*
X10845Y-11671D03*
X10648Y-11671D03*
X10451Y-11671D03*
X10254Y-11671D03*
X10057Y-11671D03*
X9861Y-11671D03*
X9664Y-11671D03*
X9467Y-11671D03*
G54D35*
X8635Y-10000D03*
X7568Y-10000D03*
X8631Y-10393D03*
X7568Y-10393D03*
X8631Y-9606D03*
X7568Y-9606D03*
G54D16*
X10500Y-9073D03*
X10500Y-9427D03*
M02*
