M48
INCH,TZ
T1C0.012
T2C0.022
%
G90
G05
T1
X6000Y-10550
X6000Y-11100
X6350Y-13350
X6500Y-15050
X6700Y-17650
X6750Y-13450
X6900Y-8000
X7000Y-12000
X7100Y-6900
X7150Y-10800
X7200Y-10400
X7350Y-12900
X7400Y-6700
X7500Y-10850
X7700Y-7750
X7750Y-11800
X7800Y-7350
X7800Y-13600
X7800Y-14000
X8000Y-6800
X8050Y-10100
X8050Y-12700
X8300Y-12450
X8550Y-11900
X8600Y-10850
X8700Y-8250
X8750Y-14300
X9000Y-14550
X9000Y-17100
X9050Y-7800
X9100Y-15800
X9150Y-9650
X9150Y-16150
X9250Y-10700
X9250Y-15200
X9350Y-14850
X9400Y-10100
X9400Y-11050
X9500Y-8950
X9850Y-16600
X9850Y-17100
X9900Y-9600
X10200Y-6000
X10200Y-8350
X10250Y-8800
X10450Y-7050
X10500Y-9900
X10500Y-15800
X10550Y-14750
X10550Y-20100
X10950Y-19550
X11350Y-7100
X11450Y-5800
X11800Y-7100
X12200Y-14750
X12250Y-7050
X12300Y-11350
X12300Y-14400
X12550Y-16450
X12550Y-19600
X12600Y-17600
X12600Y-18950
X12650Y-12500
X12700Y-12950
X13050Y-7300
X13050Y-12600
X13100Y-19600
X13350Y-13200
X13350Y-17600
X13923Y-18323
X13950Y-13300
X14150Y-20550
X14300Y-14150
X14500Y-19100
X15500Y-6900
X15500Y-9350
X16050Y-5950
X16200Y-16350
X16400Y-8500
X16400Y-15950
X16450Y-18900
X16650Y-7000
X16800Y-20350
X16900Y-17400
T2
X10900Y-20750
X11400Y-20750
X11900Y-20750
X12400Y-20750
T0
M30
