G04 (created by PCBNEW (22-Jun-2014 BZR 4027)-stable) date Thu 09 Jul 2015 06:25:10 AM CDT*
%MOIN*%
G04 Gerber Fmt 3.4, Leading zero omitted, Abs format*
%FSLAX34Y34*%
G01*
G70*
G90*
G04 APERTURE LIST*
%ADD10C,0.00590551*%
%ADD11R,0.0283465X0.023622*%
%ADD12R,0.0157X0.0236*%
%ADD13R,0.0236X0.0157*%
%ADD14R,0.03X0.02*%
%ADD15R,0.0110236X0.0334646*%
%ADD16R,0.0944882X0.0649606*%
%ADD17R,0.019685X0.0137795*%
%ADD18R,0.015748X0.0531496*%
%ADD19R,0.0826772X0.0629921*%
%ADD20R,0.0708661X0.0748031*%
%ADD21R,0.0748031X0.0748031*%
%ADD22C,0.0350394*%
%ADD23R,0.045X0.025*%
%ADD24R,0.023622X0.0787402*%
%ADD25R,0.0669291X0.0590551*%
%ADD26R,0.0314961X0.0669291*%
%ADD27R,0.011811X0.0275591*%
%ADD28R,0.0275591X0.011811*%
%ADD29R,0.019685X0.019685*%
%ADD30R,0.0216535X0.011811*%
%ADD31R,0.011811X0.0216535*%
%ADD32R,0.023622X0.015748*%
%ADD33C,0.025*%
%ADD34C,0.01*%
%ADD35C,0.008*%
%ADD36C,0.00787402*%
G04 APERTURE END LIST*
G54D10*
G54D11*
X11790Y-6124D03*
X11409Y-6124D03*
X11409Y-6675D03*
X11790Y-6675D03*
X11027Y-6675D03*
X11027Y-6124D03*
X12172Y-6124D03*
X12172Y-6675D03*
G54D12*
X10527Y-19150D03*
X10173Y-19150D03*
X10527Y-19600D03*
X10173Y-19600D03*
G54D13*
X10200Y-17423D03*
X10200Y-17777D03*
G54D12*
X10873Y-19150D03*
X11227Y-19150D03*
X6827Y-16700D03*
X6473Y-16700D03*
X7573Y-18000D03*
X7927Y-18000D03*
X6327Y-18500D03*
X5973Y-18500D03*
X15027Y-9200D03*
X14673Y-9200D03*
X15027Y-9650D03*
X14673Y-9650D03*
X11823Y-16950D03*
X12177Y-16950D03*
G54D13*
X6850Y-15423D03*
X6850Y-15777D03*
X10450Y-6727D03*
X10450Y-6373D03*
G54D12*
X8723Y-16550D03*
X9077Y-16550D03*
X8327Y-16650D03*
X7973Y-16650D03*
G54D13*
X9750Y-7723D03*
X9750Y-8077D03*
G54D12*
X11873Y-19150D03*
X12227Y-19150D03*
G54D13*
X12000Y-11177D03*
X12000Y-10823D03*
X6250Y-10127D03*
X6250Y-9773D03*
G54D12*
X12227Y-18600D03*
X11873Y-18600D03*
G54D13*
X11800Y-14773D03*
X11800Y-15127D03*
G54D14*
X6150Y-17275D03*
X6150Y-18025D03*
X7150Y-17275D03*
X6150Y-17650D03*
X7150Y-18025D03*
G54D12*
X6373Y-13000D03*
X6727Y-13000D03*
X7023Y-12450D03*
X7377Y-12450D03*
G54D15*
X10706Y-17419D03*
X10903Y-17419D03*
X11493Y-17419D03*
X11296Y-17419D03*
X11100Y-17419D03*
X11100Y-18580D03*
X11296Y-18580D03*
X11493Y-18580D03*
X10903Y-18580D03*
X10706Y-18580D03*
G54D16*
X11100Y-18000D03*
G54D12*
X7423Y-6000D03*
X7777Y-6000D03*
G54D13*
X6100Y-6973D03*
X6100Y-7327D03*
X6550Y-7327D03*
X6550Y-6973D03*
X6850Y-14723D03*
X6850Y-15077D03*
G54D12*
X7077Y-9800D03*
X6723Y-9800D03*
G54D13*
X15300Y-5973D03*
X15300Y-6327D03*
X14800Y-5973D03*
X14800Y-6327D03*
G54D17*
X6766Y-11333D03*
X6766Y-10566D03*
X6766Y-10822D03*
X6766Y-11077D03*
X6333Y-10822D03*
X6333Y-10566D03*
X6333Y-11077D03*
X6333Y-11333D03*
G54D18*
X7138Y-19496D03*
X7394Y-19496D03*
X7650Y-19496D03*
X7905Y-19496D03*
X8161Y-19496D03*
G54D19*
X8870Y-19546D03*
X6429Y-19546D03*
G54D20*
X6153Y-20550D03*
G54D21*
X7177Y-20550D03*
X8122Y-20550D03*
G54D20*
X9146Y-20550D03*
G54D22*
X10900Y-20750D03*
X11400Y-20750D03*
X11900Y-20750D03*
X12400Y-20750D03*
G54D23*
X12150Y-18100D03*
X12150Y-17500D03*
G54D24*
X10286Y-16550D03*
X11113Y-16550D03*
G54D25*
X15700Y-8533D03*
X15700Y-7666D03*
X14700Y-7666D03*
X14700Y-8533D03*
G54D26*
X14930Y-20550D03*
X16269Y-20550D03*
G54D27*
X8148Y-16188D03*
X7951Y-16188D03*
X8542Y-16188D03*
X8345Y-16188D03*
X7754Y-16188D03*
X7557Y-16188D03*
X8542Y-14711D03*
X8345Y-14711D03*
X8148Y-14711D03*
X7951Y-14711D03*
X7754Y-14711D03*
X7557Y-14711D03*
G54D28*
X8788Y-14957D03*
X8788Y-15154D03*
X8788Y-15351D03*
X8788Y-15548D03*
X8788Y-15745D03*
X8788Y-15942D03*
X7311Y-14957D03*
X7311Y-15154D03*
X7311Y-15351D03*
X7311Y-15548D03*
X7311Y-15745D03*
X7311Y-15942D03*
G54D29*
X8509Y-7090D03*
X8509Y-6696D03*
X8509Y-6303D03*
X8509Y-5909D03*
X8903Y-7090D03*
X9690Y-6696D03*
X9690Y-6303D03*
X8903Y-5909D03*
X9296Y-7090D03*
X9690Y-7090D03*
X9296Y-5909D03*
X9690Y-5909D03*
G54D30*
X11878Y-14082D03*
X11878Y-13885D03*
X11878Y-13688D03*
X11878Y-13492D03*
X11878Y-13295D03*
X11878Y-13098D03*
X11878Y-12901D03*
X11878Y-12704D03*
X11878Y-12507D03*
X11878Y-12311D03*
X11878Y-12114D03*
X11878Y-11917D03*
X9221Y-11917D03*
X9221Y-12114D03*
X9221Y-12311D03*
X9221Y-12507D03*
X9221Y-12704D03*
X9221Y-12901D03*
X9221Y-13098D03*
X9221Y-13295D03*
X9221Y-13492D03*
X9221Y-13688D03*
X9221Y-13885D03*
X9221Y-14082D03*
G54D31*
X9467Y-14328D03*
X9664Y-14328D03*
X9861Y-14328D03*
X10057Y-14328D03*
X10254Y-14328D03*
X10449Y-14328D03*
X10648Y-14328D03*
X10845Y-14328D03*
X11042Y-14328D03*
X11238Y-14328D03*
X11435Y-14328D03*
X11632Y-14328D03*
X11632Y-11671D03*
X11435Y-11671D03*
X11238Y-11671D03*
X11042Y-11671D03*
X10845Y-11671D03*
X10648Y-11671D03*
X10451Y-11671D03*
X10254Y-11671D03*
X10057Y-11671D03*
X9861Y-11671D03*
X9664Y-11671D03*
X9467Y-11671D03*
G54D32*
X8635Y-10000D03*
X7568Y-10000D03*
X8631Y-10393D03*
X7568Y-10393D03*
X8631Y-9606D03*
X7568Y-9606D03*
G54D13*
X10500Y-9073D03*
X10500Y-9427D03*
G54D33*
X10250Y-8800D03*
X9900Y-9600D03*
X8750Y-14300D03*
X7800Y-7350D03*
X16650Y-7000D03*
X16800Y-20350D03*
X9250Y-10700D03*
X12600Y-18950D03*
X12300Y-11350D03*
X7000Y-12000D03*
X6350Y-13350D03*
X12550Y-16450D03*
X6500Y-15050D03*
X10450Y-7050D03*
X12250Y-7050D03*
X16400Y-8500D03*
X7150Y-10800D03*
X6000Y-10550D03*
X6000Y-11100D03*
X16400Y-15950D03*
X12200Y-14750D03*
X9250Y-15200D03*
X6700Y-17650D03*
X9850Y-17100D03*
X10950Y-19550D03*
X13350Y-17600D03*
X13923Y-18323D03*
X10200Y-8350D03*
X13050Y-7300D03*
X10550Y-20100D03*
X9350Y-14850D03*
X10550Y-14750D03*
X13950Y-13300D03*
X13350Y-13200D03*
X8550Y-11900D03*
X7800Y-13600D03*
X8300Y-12450D03*
X7800Y-14000D03*
X8050Y-12700D03*
X9150Y-9650D03*
X7700Y-7750D03*
X9050Y-7800D03*
X15500Y-9350D03*
X15500Y-6900D03*
X14300Y-14150D03*
X14500Y-19100D03*
X11350Y-7100D03*
X11450Y-5800D03*
X6750Y-13450D03*
X9150Y-16150D03*
X8050Y-10100D03*
X11800Y-7100D03*
X10200Y-6000D03*
X8700Y-8250D03*
X9850Y-16600D03*
X7350Y-12900D03*
X9000Y-14550D03*
X7500Y-10850D03*
X8600Y-10850D03*
X10500Y-9900D03*
X9400Y-11050D03*
X7400Y-6700D03*
X7750Y-11800D03*
X6900Y-8000D03*
X12700Y-12950D03*
X16450Y-18900D03*
X12650Y-12500D03*
X16900Y-17400D03*
X16200Y-16350D03*
X8000Y-6800D03*
X9100Y-15800D03*
X9400Y-10100D03*
X12300Y-14400D03*
X9000Y-17100D03*
X10500Y-15800D03*
X12600Y-17600D03*
X9500Y-8950D03*
X7200Y-10400D03*
X13050Y-12600D03*
X12550Y-19600D03*
X13100Y-19600D03*
X16050Y-5950D03*
X14150Y-20550D03*
X7100Y-6900D03*
G54D34*
X10500Y-9073D02*
X10500Y-9050D01*
X10500Y-9050D02*
X10250Y-8800D01*
X10057Y-9757D02*
X9900Y-9600D01*
X10057Y-9757D02*
X10057Y-11671D01*
X9221Y-14082D02*
X8967Y-14082D01*
X8967Y-14082D02*
X8750Y-14300D01*
X11878Y-11917D02*
X12026Y-11917D01*
X12026Y-11203D02*
X12000Y-11177D01*
X12026Y-11917D02*
X12026Y-11203D01*
X8509Y-7090D02*
X8251Y-7348D01*
X7801Y-7348D02*
X8251Y-7348D01*
X7801Y-7348D02*
X7800Y-7350D01*
X16269Y-20550D02*
X16600Y-20550D01*
X16600Y-20550D02*
X16800Y-20350D01*
X12227Y-18600D02*
X12500Y-18600D01*
X12600Y-18700D02*
X12600Y-18950D01*
X12500Y-18600D02*
X12600Y-18700D01*
X12000Y-11177D02*
X12127Y-11177D01*
X12127Y-11177D02*
X12300Y-11350D01*
X7023Y-12450D02*
X7023Y-12023D01*
X7023Y-12023D02*
X7000Y-12000D01*
X6373Y-13000D02*
X6373Y-13327D01*
X6373Y-13327D02*
X6350Y-13350D01*
X11296Y-17419D02*
X11296Y-17203D01*
X11650Y-16450D02*
X12550Y-16450D01*
X11500Y-16600D02*
X11650Y-16450D01*
X11500Y-17000D02*
X11500Y-16600D01*
X11296Y-17203D02*
X11500Y-17000D01*
X6850Y-15077D02*
X6527Y-15077D01*
X6527Y-15077D02*
X6500Y-15050D01*
X6850Y-15423D02*
X6850Y-15077D01*
X7361Y-15351D02*
X7361Y-15548D01*
X7361Y-15154D02*
X7361Y-15351D01*
X7361Y-14957D02*
X7361Y-15154D01*
X6850Y-15077D02*
X7023Y-15077D01*
X7142Y-14957D02*
X7361Y-14957D01*
X7023Y-15077D02*
X7142Y-14957D01*
X10450Y-6727D02*
X10450Y-7050D01*
X11027Y-6675D02*
X10501Y-6675D01*
X10501Y-6675D02*
X10450Y-6727D01*
X15700Y-8533D02*
X16366Y-8533D01*
X16366Y-8533D02*
X16400Y-8500D01*
X6766Y-10822D02*
X7127Y-10822D01*
X7127Y-10822D02*
X7150Y-10800D01*
X6250Y-10127D02*
X7023Y-10127D01*
X7077Y-10073D02*
X7077Y-9800D01*
X7023Y-10127D02*
X7077Y-10073D01*
X6333Y-10566D02*
X6016Y-10566D01*
X6016Y-10566D02*
X6000Y-10550D01*
X6333Y-11077D02*
X6022Y-11077D01*
X6022Y-11077D02*
X6000Y-11100D01*
X6333Y-10566D02*
X6333Y-10210D01*
X6333Y-10210D02*
X6250Y-10127D01*
X7077Y-9800D02*
X7100Y-9800D01*
X7100Y-9800D02*
X7300Y-10000D01*
X7300Y-10000D02*
X7588Y-10000D01*
X11800Y-14773D02*
X12177Y-14773D01*
X12177Y-14773D02*
X12200Y-14750D01*
X11800Y-14773D02*
X11800Y-14496D01*
X11800Y-14496D02*
X11632Y-14328D01*
X12227Y-18600D02*
X12227Y-18177D01*
X12227Y-18177D02*
X12150Y-18100D01*
X7150Y-18025D02*
X7150Y-19485D01*
X7150Y-19485D02*
X7138Y-19496D01*
X7573Y-18000D02*
X7175Y-18000D01*
X7175Y-18000D02*
X7150Y-18025D01*
X6150Y-18025D02*
X6325Y-18025D01*
X6325Y-18025D02*
X6700Y-17650D01*
X10200Y-17423D02*
X10173Y-17423D01*
X10173Y-17423D02*
X9850Y-17100D01*
X10286Y-16550D02*
X10286Y-16663D01*
X10286Y-16663D02*
X9850Y-17100D01*
X10873Y-19150D02*
X10873Y-19473D01*
X10873Y-19473D02*
X10950Y-19550D01*
X11632Y-11671D02*
X11632Y-11317D01*
X11650Y-8700D02*
X13050Y-7300D01*
X11650Y-11300D02*
X11650Y-8700D01*
X11632Y-11317D02*
X11650Y-11300D01*
X13923Y-18323D02*
X13900Y-18300D01*
X12172Y-6675D02*
X12425Y-6675D01*
X12425Y-6675D02*
X13050Y-7300D01*
X10527Y-20077D02*
X10527Y-19600D01*
X10550Y-20100D02*
X10527Y-20077D01*
X6327Y-18500D02*
X6327Y-18202D01*
X6327Y-18202D02*
X6150Y-18025D01*
X10200Y-17423D02*
X10702Y-17423D01*
X10702Y-17423D02*
X10706Y-17419D01*
X10200Y-17423D02*
X10200Y-16636D01*
X10200Y-16636D02*
X10286Y-16550D01*
X10527Y-19150D02*
X10873Y-19150D01*
X10527Y-19150D02*
X10527Y-19600D01*
X10903Y-18580D02*
X10903Y-19119D01*
X10903Y-19119D02*
X10873Y-19150D01*
X14700Y-8533D02*
X14700Y-9173D01*
X14700Y-9173D02*
X14673Y-9200D01*
G54D35*
X9467Y-14732D02*
X9467Y-14328D01*
X9350Y-14850D02*
X9467Y-14732D01*
X11878Y-13098D02*
X12026Y-13098D01*
X12198Y-13098D02*
X12550Y-13450D01*
X12550Y-13450D02*
X13800Y-13450D01*
X13800Y-13450D02*
X13950Y-13300D01*
X12026Y-13098D02*
X12198Y-13098D01*
X11878Y-12901D02*
X12026Y-12901D01*
X12251Y-12901D02*
X12550Y-13200D01*
X12550Y-13200D02*
X13350Y-13200D01*
X12026Y-12901D02*
X12251Y-12901D01*
X9221Y-12114D02*
X9085Y-12114D01*
X8550Y-11900D02*
X8764Y-12114D01*
X8764Y-12114D02*
X9073Y-12114D01*
X9085Y-12114D02*
X9073Y-12114D01*
X9221Y-13098D02*
X9073Y-13098D01*
X7800Y-13600D02*
X8301Y-13098D01*
X8301Y-13098D02*
X9073Y-13098D01*
X9221Y-12704D02*
X9073Y-12704D01*
X8554Y-12704D02*
X8300Y-12450D01*
X9073Y-12704D02*
X8554Y-12704D01*
X9221Y-13295D02*
X9073Y-13295D01*
X8504Y-13295D02*
X7800Y-14000D01*
X9073Y-13295D02*
X8504Y-13295D01*
X9221Y-12311D02*
X9073Y-12311D01*
X8050Y-12700D02*
X8000Y-12650D01*
X8000Y-12650D02*
X8000Y-12350D01*
X8000Y-12350D02*
X8200Y-12150D01*
X8200Y-12150D02*
X8550Y-12150D01*
X8550Y-12150D02*
X8711Y-12311D01*
X8711Y-12311D02*
X9073Y-12311D01*
X9467Y-11671D02*
X9467Y-11517D01*
X9150Y-10300D02*
X9150Y-9650D01*
X9000Y-10450D02*
X9150Y-10300D01*
X9000Y-11050D02*
X9000Y-10450D01*
X9467Y-11517D02*
X9000Y-11050D01*
X9861Y-11671D02*
X9861Y-9961D01*
X6473Y-7700D02*
X6100Y-7327D01*
X7650Y-7700D02*
X6473Y-7700D01*
X7700Y-7750D02*
X7650Y-7700D01*
X9050Y-8950D02*
X9050Y-7800D01*
X9600Y-9500D02*
X9050Y-8950D01*
X9600Y-9700D02*
X9600Y-9500D01*
X9861Y-9961D02*
X9600Y-9700D01*
X11878Y-13688D02*
X12026Y-13688D01*
X14411Y-13688D02*
X15500Y-12600D01*
X15500Y-12600D02*
X15500Y-9350D01*
X15500Y-6900D02*
X15300Y-6700D01*
X15300Y-6700D02*
X15300Y-6327D01*
X12026Y-13688D02*
X14411Y-13688D01*
X11878Y-13885D02*
X12026Y-13885D01*
X14035Y-13885D02*
X14300Y-14150D01*
X12026Y-13885D02*
X14035Y-13885D01*
X11435Y-11671D02*
X11435Y-7185D01*
X11435Y-7185D02*
X11350Y-7100D01*
X11409Y-6124D02*
X11409Y-5840D01*
X11409Y-5840D02*
X11450Y-5800D01*
X7754Y-16138D02*
X7754Y-16395D01*
X10057Y-14842D02*
X10057Y-14328D01*
X9400Y-15500D02*
X10057Y-14842D01*
X9400Y-17050D02*
X9400Y-15500D01*
X9100Y-17350D02*
X9400Y-17050D01*
X8050Y-17350D02*
X9100Y-17350D01*
X7600Y-16900D02*
X8050Y-17350D01*
X7600Y-16550D02*
X7600Y-16900D01*
X7754Y-16395D02*
X7600Y-16550D01*
X9221Y-13492D02*
X9073Y-13492D01*
X7951Y-14348D02*
X7951Y-14350D01*
X8807Y-13492D02*
X7951Y-14348D01*
X9073Y-13492D02*
X8807Y-13492D01*
X6750Y-13450D02*
X6750Y-13550D01*
X7550Y-14350D02*
X7951Y-14350D01*
X6750Y-13550D02*
X7550Y-14350D01*
X6727Y-13427D02*
X6727Y-13000D01*
X6750Y-13450D02*
X6727Y-13427D01*
X11409Y-6675D02*
X11409Y-6809D01*
X7756Y-10393D02*
X7588Y-10393D01*
X8050Y-10100D02*
X7756Y-10393D01*
X11700Y-7100D02*
X11800Y-7100D01*
X11409Y-6809D02*
X11700Y-7100D01*
X6727Y-13000D02*
X6727Y-11373D01*
X6727Y-11373D02*
X6766Y-11333D01*
X7951Y-14350D02*
X7951Y-14761D01*
X6766Y-11333D02*
X7566Y-11333D01*
X7850Y-10655D02*
X7588Y-10393D01*
X7850Y-11050D02*
X7850Y-10655D01*
X7566Y-11333D02*
X7850Y-11050D01*
X9221Y-13688D02*
X9073Y-13688D01*
X8911Y-13688D02*
X8450Y-14150D01*
X8450Y-14150D02*
X8450Y-14400D01*
X8450Y-14400D02*
X8542Y-14492D01*
X8542Y-14492D02*
X8542Y-14761D01*
X9073Y-13688D02*
X8911Y-13688D01*
X8788Y-14761D02*
X9000Y-14550D01*
X8542Y-14761D02*
X8788Y-14761D01*
X8611Y-10393D02*
X8393Y-10393D01*
X10902Y-6000D02*
X11027Y-6124D01*
X10200Y-6000D02*
X10902Y-6000D01*
X8300Y-8650D02*
X8700Y-8250D01*
X8300Y-10300D02*
X8300Y-8650D01*
X8393Y-10393D02*
X8300Y-10300D01*
X7377Y-12450D02*
X7377Y-11773D01*
X8300Y-10850D02*
X8600Y-10850D01*
X7377Y-11773D02*
X8300Y-10850D01*
X7377Y-12873D02*
X7377Y-12450D01*
X7350Y-12900D02*
X7377Y-12873D01*
X6766Y-11077D02*
X7272Y-11077D01*
X7272Y-11077D02*
X7500Y-10850D01*
X8611Y-10838D02*
X8611Y-10393D01*
X8600Y-10850D02*
X8611Y-10838D01*
X10500Y-9900D02*
X10500Y-9427D01*
X10451Y-11671D02*
X10451Y-9948D01*
X10451Y-9948D02*
X10500Y-9900D01*
X7777Y-6000D02*
X7777Y-6123D01*
X9664Y-11314D02*
X9664Y-11671D01*
X9400Y-11050D02*
X9664Y-11314D01*
X7400Y-6500D02*
X7400Y-6700D01*
X7777Y-6123D02*
X7400Y-6500D01*
X8250Y-5851D02*
X8451Y-5851D01*
X8451Y-5851D02*
X8509Y-5909D01*
G54D34*
X7777Y-6000D02*
X7900Y-6000D01*
X8048Y-5851D02*
X8250Y-5851D01*
X8250Y-5851D02*
X8251Y-5851D01*
X7900Y-6000D02*
X8048Y-5851D01*
G54D35*
X9221Y-12901D02*
X9073Y-12901D01*
X8903Y-7169D02*
X8724Y-7348D01*
X8724Y-7348D02*
X8724Y-7375D01*
X8248Y-12901D02*
X9073Y-12901D01*
X8000Y-13150D02*
X8248Y-12901D01*
X7800Y-13150D02*
X8000Y-13150D01*
X7750Y-13100D02*
X7800Y-13150D01*
X7750Y-11800D02*
X7750Y-13100D01*
X8100Y-8000D02*
X6900Y-8000D01*
X8724Y-7375D02*
X8100Y-8000D01*
X8903Y-7169D02*
X8903Y-7090D01*
X11878Y-12507D02*
X12026Y-12507D01*
X12257Y-12507D02*
X12700Y-12950D01*
X12026Y-12507D02*
X12257Y-12507D01*
X11878Y-12311D02*
X12026Y-12311D01*
X12461Y-12311D02*
X12650Y-12500D01*
X12026Y-12311D02*
X12461Y-12311D01*
X10254Y-14328D02*
X10254Y-14904D01*
X7361Y-16911D02*
X7361Y-15942D01*
X8000Y-17550D02*
X7361Y-16911D01*
X9150Y-17550D02*
X8000Y-17550D01*
X9600Y-17100D02*
X9150Y-17550D01*
X9600Y-15558D02*
X9600Y-17100D01*
X10254Y-14904D02*
X9600Y-15558D01*
X8509Y-6303D02*
X8346Y-6303D01*
X8000Y-6650D02*
X8000Y-6800D01*
X8346Y-6303D02*
X8000Y-6650D01*
X8738Y-15745D02*
X9045Y-15745D01*
X9045Y-15745D02*
X9100Y-15800D01*
X9077Y-16550D02*
X9077Y-17023D01*
X9077Y-17023D02*
X9000Y-17100D01*
X10903Y-17419D02*
X10903Y-17203D01*
X10650Y-15950D02*
X10500Y-15800D01*
X10650Y-16950D02*
X10650Y-15950D01*
X10903Y-17203D02*
X10650Y-16950D01*
X12150Y-17500D02*
X12500Y-17500D01*
X12500Y-17500D02*
X12600Y-17600D01*
X6766Y-10566D02*
X7033Y-10566D01*
X7033Y-10566D02*
X7200Y-10400D01*
X8542Y-16138D02*
X8542Y-16242D01*
X8723Y-16423D02*
X8723Y-16550D01*
X8542Y-16242D02*
X8723Y-16423D01*
X8327Y-16650D02*
X8327Y-16206D01*
X8327Y-16206D02*
X8345Y-16188D01*
X11790Y-6124D02*
X12172Y-6124D01*
X7973Y-16650D02*
X7973Y-16627D01*
X8148Y-16451D02*
X8148Y-16188D01*
X7973Y-16627D02*
X8148Y-16451D01*
G54D34*
X15027Y-9650D02*
X15027Y-9973D01*
X13050Y-10900D02*
X13050Y-12600D01*
X13500Y-10450D02*
X13050Y-10900D01*
X14550Y-10450D02*
X13500Y-10450D01*
X15027Y-9973D02*
X14550Y-10450D01*
X15027Y-9200D02*
X15027Y-9650D01*
G54D35*
X11238Y-14328D02*
X11238Y-15138D01*
X12850Y-20300D02*
X12400Y-20750D01*
X12850Y-16000D02*
X12850Y-20300D01*
X12300Y-15450D02*
X12850Y-16000D01*
X11550Y-15450D02*
X12300Y-15450D01*
X11238Y-15138D02*
X11550Y-15450D01*
X11878Y-14082D02*
X12026Y-14082D01*
X11900Y-20250D02*
X12550Y-19600D01*
X13100Y-19600D02*
X13050Y-19550D01*
X13050Y-19550D02*
X13050Y-14800D01*
X13050Y-14800D02*
X12332Y-14082D01*
X12332Y-14082D02*
X12026Y-14082D01*
X11900Y-20250D02*
X11900Y-20750D01*
X6827Y-16700D02*
X6827Y-16952D01*
X6827Y-16952D02*
X7150Y-17275D01*
G54D34*
X11100Y-18580D02*
X11100Y-19023D01*
X11100Y-19023D02*
X11227Y-19150D01*
X7394Y-19496D02*
X7650Y-19496D01*
X11493Y-18580D02*
X11853Y-18580D01*
X11853Y-18580D02*
X11873Y-18600D01*
X11873Y-18600D02*
X11873Y-19150D01*
G54D35*
X11493Y-17419D02*
X11493Y-17279D01*
X11493Y-17279D02*
X11823Y-16950D01*
G54D34*
X11100Y-17419D02*
X11100Y-16563D01*
X11100Y-16563D02*
X11113Y-16550D01*
X10200Y-17777D02*
X10200Y-18300D01*
X10480Y-18580D02*
X10706Y-18580D01*
X10200Y-18300D02*
X10480Y-18580D01*
G54D35*
X9750Y-7723D02*
X9750Y-7150D01*
X9750Y-7150D02*
X9690Y-7090D01*
X7557Y-14761D02*
X6888Y-14761D01*
X6888Y-14761D02*
X6850Y-14723D01*
X7557Y-14761D02*
X7754Y-14761D01*
X16027Y-5973D02*
X15300Y-5973D01*
X16050Y-5950D02*
X16027Y-5973D01*
X15300Y-5973D02*
X14800Y-5973D01*
X14150Y-20550D02*
X14930Y-20550D01*
X7027Y-6973D02*
X6550Y-6973D01*
X7100Y-6900D02*
X7027Y-6973D01*
X6550Y-6973D02*
X6100Y-6973D01*
G54D10*
G36*
X7598Y-10627D02*
X7548Y-10606D01*
X7451Y-10606D01*
X7362Y-10643D01*
X7349Y-10656D01*
X7287Y-10594D01*
X7198Y-10556D01*
X7101Y-10556D01*
X7012Y-10593D01*
X7004Y-10601D01*
X7004Y-10524D01*
X7004Y-10469D01*
X6983Y-10418D01*
X6943Y-10379D01*
X6892Y-10357D01*
X6812Y-10357D01*
X6777Y-10392D01*
X6777Y-10555D01*
X6969Y-10555D01*
X7004Y-10520D01*
X7004Y-10524D01*
X7004Y-10601D01*
X6999Y-10606D01*
X6969Y-10576D01*
X6777Y-10576D01*
X6777Y-10584D01*
X6755Y-10584D01*
X6755Y-10576D01*
X6748Y-10576D01*
X6748Y-10555D01*
X6755Y-10555D01*
X6755Y-10392D01*
X6721Y-10357D01*
X6640Y-10357D01*
X6589Y-10379D01*
X6550Y-10418D01*
X6538Y-10445D01*
X6532Y-10430D01*
X6501Y-10399D01*
X6501Y-10295D01*
X7022Y-10295D01*
X7023Y-10295D01*
X7023Y-10295D01*
X7087Y-10282D01*
X7141Y-10245D01*
X7195Y-10191D01*
X7195Y-10191D01*
X7195Y-10191D01*
X7225Y-10148D01*
X7235Y-10155D01*
X7300Y-10168D01*
X7372Y-10168D01*
X7383Y-10178D01*
X7426Y-10196D01*
X7427Y-10196D01*
X7383Y-10214D01*
X7350Y-10247D01*
X7332Y-10291D01*
X7332Y-10338D01*
X7332Y-10495D01*
X7350Y-10539D01*
X7383Y-10572D01*
X7426Y-10590D01*
X7473Y-10590D01*
X7561Y-10590D01*
X7598Y-10627D01*
X7598Y-10627D01*
G37*
G54D36*
X7598Y-10627D02*
X7548Y-10606D01*
X7451Y-10606D01*
X7362Y-10643D01*
X7349Y-10656D01*
X7287Y-10594D01*
X7198Y-10556D01*
X7101Y-10556D01*
X7012Y-10593D01*
X7004Y-10601D01*
X7004Y-10524D01*
X7004Y-10469D01*
X6983Y-10418D01*
X6943Y-10379D01*
X6892Y-10357D01*
X6812Y-10357D01*
X6777Y-10392D01*
X6777Y-10555D01*
X6969Y-10555D01*
X7004Y-10520D01*
X7004Y-10524D01*
X7004Y-10601D01*
X6999Y-10606D01*
X6969Y-10576D01*
X6777Y-10576D01*
X6777Y-10584D01*
X6755Y-10584D01*
X6755Y-10576D01*
X6748Y-10576D01*
X6748Y-10555D01*
X6755Y-10555D01*
X6755Y-10392D01*
X6721Y-10357D01*
X6640Y-10357D01*
X6589Y-10379D01*
X6550Y-10418D01*
X6538Y-10445D01*
X6532Y-10430D01*
X6501Y-10399D01*
X6501Y-10295D01*
X7022Y-10295D01*
X7023Y-10295D01*
X7023Y-10295D01*
X7087Y-10282D01*
X7141Y-10245D01*
X7195Y-10191D01*
X7195Y-10191D01*
X7195Y-10191D01*
X7225Y-10148D01*
X7235Y-10155D01*
X7300Y-10168D01*
X7372Y-10168D01*
X7383Y-10178D01*
X7426Y-10196D01*
X7427Y-10196D01*
X7383Y-10214D01*
X7350Y-10247D01*
X7332Y-10291D01*
X7332Y-10338D01*
X7332Y-10495D01*
X7350Y-10539D01*
X7383Y-10572D01*
X7426Y-10590D01*
X7473Y-10590D01*
X7561Y-10590D01*
X7598Y-10627D01*
G54D10*
G36*
X8955Y-16299D02*
X8919Y-16313D01*
X8884Y-16348D01*
X8868Y-16331D01*
X8841Y-16320D01*
X8841Y-16320D01*
X8834Y-16311D01*
X8834Y-16311D01*
X8719Y-16195D01*
X8719Y-16140D01*
X8742Y-16140D01*
X8777Y-16105D01*
X8777Y-15952D01*
X8769Y-15952D01*
X8769Y-15931D01*
X8777Y-15931D01*
X8777Y-15908D01*
X8777Y-15778D01*
X8777Y-15755D01*
X8754Y-15755D01*
X8744Y-15745D01*
X8754Y-15734D01*
X8777Y-15734D01*
X8777Y-15712D01*
X8777Y-15581D01*
X8777Y-15559D01*
X8754Y-15559D01*
X8744Y-15548D01*
X8754Y-15537D01*
X8777Y-15537D01*
X8777Y-15515D01*
X8777Y-15384D01*
X8777Y-15362D01*
X8754Y-15362D01*
X8744Y-15351D01*
X8754Y-15340D01*
X8777Y-15340D01*
X8777Y-15318D01*
X8777Y-15187D01*
X8777Y-15165D01*
X8754Y-15165D01*
X8742Y-15153D01*
X8677Y-15153D01*
X8622Y-15153D01*
X8593Y-15165D01*
X8545Y-15165D01*
X8511Y-15200D01*
X8510Y-15241D01*
X8515Y-15253D01*
X8510Y-15264D01*
X8511Y-15306D01*
X8545Y-15340D01*
X8593Y-15340D01*
X8618Y-15351D01*
X8593Y-15362D01*
X8545Y-15362D01*
X8511Y-15397D01*
X8510Y-15438D01*
X8515Y-15450D01*
X8510Y-15461D01*
X8511Y-15502D01*
X8545Y-15537D01*
X8593Y-15537D01*
X8618Y-15548D01*
X8593Y-15559D01*
X8545Y-15559D01*
X8511Y-15593D01*
X8510Y-15635D01*
X8515Y-15646D01*
X8510Y-15658D01*
X8511Y-15699D01*
X8545Y-15734D01*
X8593Y-15734D01*
X8618Y-15745D01*
X8593Y-15755D01*
X8545Y-15755D01*
X8511Y-15790D01*
X8510Y-15831D01*
X8515Y-15843D01*
X8510Y-15855D01*
X8511Y-15896D01*
X8545Y-15931D01*
X8511Y-15931D01*
X8511Y-15932D01*
X8459Y-15932D01*
X8443Y-15938D01*
X8427Y-15932D01*
X8380Y-15932D01*
X8346Y-15932D01*
X8346Y-14877D01*
X8346Y-14757D01*
X8334Y-14745D01*
X8334Y-14722D01*
X8312Y-14722D01*
X8181Y-14722D01*
X8159Y-14722D01*
X8159Y-14745D01*
X8146Y-14757D01*
X8146Y-14877D01*
X8159Y-14906D01*
X8159Y-14954D01*
X8193Y-14988D01*
X8179Y-14989D01*
X8235Y-14988D01*
X8246Y-14984D01*
X8258Y-14988D01*
X8313Y-14989D01*
X8299Y-14988D01*
X8334Y-14954D01*
X8334Y-14906D01*
X8346Y-14877D01*
X8346Y-15932D01*
X8262Y-15932D01*
X8246Y-15938D01*
X8231Y-15932D01*
X8184Y-15932D01*
X8065Y-15932D01*
X8050Y-15938D01*
X8034Y-15932D01*
X7987Y-15932D01*
X7869Y-15932D01*
X7853Y-15938D01*
X7837Y-15932D01*
X7790Y-15932D01*
X7672Y-15932D01*
X7656Y-15938D01*
X7640Y-15932D01*
X7593Y-15932D01*
X7567Y-15932D01*
X7567Y-15859D01*
X7561Y-15843D01*
X7567Y-15827D01*
X7567Y-15780D01*
X7567Y-15662D01*
X7561Y-15646D01*
X7567Y-15631D01*
X7567Y-15584D01*
X7567Y-15465D01*
X7561Y-15450D01*
X7567Y-15434D01*
X7567Y-15387D01*
X7567Y-15269D01*
X7561Y-15253D01*
X7567Y-15237D01*
X7567Y-15190D01*
X7567Y-15072D01*
X7561Y-15056D01*
X7567Y-15040D01*
X7567Y-14993D01*
X7567Y-14967D01*
X7640Y-14967D01*
X7656Y-14961D01*
X7672Y-14967D01*
X7719Y-14967D01*
X7837Y-14967D01*
X7853Y-14961D01*
X7868Y-14967D01*
X7915Y-14967D01*
X8010Y-14967D01*
X8061Y-14988D01*
X8116Y-14989D01*
X8102Y-14988D01*
X8137Y-14954D01*
X8137Y-14722D01*
X8129Y-14722D01*
X8129Y-14701D01*
X8137Y-14701D01*
X8137Y-14469D01*
X8109Y-14441D01*
X8109Y-14434D01*
X8116Y-14434D01*
X8109Y-14434D01*
X8109Y-14413D01*
X8291Y-14231D01*
X8291Y-14400D01*
X8298Y-14434D01*
X8258Y-14434D01*
X8246Y-14439D01*
X8235Y-14434D01*
X8179Y-14434D01*
X8193Y-14434D01*
X8159Y-14469D01*
X8159Y-14516D01*
X8146Y-14546D01*
X8146Y-14666D01*
X8159Y-14678D01*
X8159Y-14701D01*
X8181Y-14701D01*
X8312Y-14701D01*
X8334Y-14701D01*
X8334Y-14693D01*
X8355Y-14693D01*
X8355Y-14701D01*
X8363Y-14701D01*
X8363Y-14722D01*
X8355Y-14722D01*
X8355Y-14954D01*
X8390Y-14988D01*
X8376Y-14989D01*
X8432Y-14988D01*
X8483Y-14967D01*
X8506Y-14967D01*
X8532Y-14967D01*
X8532Y-15016D01*
X8532Y-15016D01*
X8510Y-15068D01*
X8511Y-15109D01*
X8545Y-15144D01*
X8777Y-15144D01*
X8777Y-15136D01*
X8798Y-15136D01*
X8798Y-15144D01*
X8806Y-15144D01*
X8806Y-15165D01*
X8798Y-15165D01*
X8798Y-15187D01*
X8798Y-15318D01*
X8798Y-15340D01*
X8806Y-15340D01*
X8806Y-15362D01*
X8798Y-15362D01*
X8798Y-15384D01*
X8798Y-15515D01*
X8798Y-15537D01*
X8821Y-15537D01*
X8832Y-15548D01*
X8821Y-15559D01*
X8798Y-15559D01*
X8798Y-15581D01*
X8798Y-15712D01*
X8798Y-15734D01*
X8821Y-15734D01*
X8832Y-15745D01*
X8821Y-15755D01*
X8798Y-15755D01*
X8798Y-15778D01*
X8798Y-15908D01*
X8798Y-15931D01*
X8806Y-15931D01*
X8806Y-15952D01*
X8798Y-15952D01*
X8798Y-16105D01*
X8833Y-16140D01*
X8898Y-16140D01*
X8906Y-16140D01*
X8906Y-16198D01*
X8943Y-16287D01*
X8955Y-16299D01*
X8955Y-16299D01*
G37*
G54D36*
X8955Y-16299D02*
X8919Y-16313D01*
X8884Y-16348D01*
X8868Y-16331D01*
X8841Y-16320D01*
X8841Y-16320D01*
X8834Y-16311D01*
X8834Y-16311D01*
X8719Y-16195D01*
X8719Y-16140D01*
X8742Y-16140D01*
X8777Y-16105D01*
X8777Y-15952D01*
X8769Y-15952D01*
X8769Y-15931D01*
X8777Y-15931D01*
X8777Y-15908D01*
X8777Y-15778D01*
X8777Y-15755D01*
X8754Y-15755D01*
X8744Y-15745D01*
X8754Y-15734D01*
X8777Y-15734D01*
X8777Y-15712D01*
X8777Y-15581D01*
X8777Y-15559D01*
X8754Y-15559D01*
X8744Y-15548D01*
X8754Y-15537D01*
X8777Y-15537D01*
X8777Y-15515D01*
X8777Y-15384D01*
X8777Y-15362D01*
X8754Y-15362D01*
X8744Y-15351D01*
X8754Y-15340D01*
X8777Y-15340D01*
X8777Y-15318D01*
X8777Y-15187D01*
X8777Y-15165D01*
X8754Y-15165D01*
X8742Y-15153D01*
X8677Y-15153D01*
X8622Y-15153D01*
X8593Y-15165D01*
X8545Y-15165D01*
X8511Y-15200D01*
X8510Y-15241D01*
X8515Y-15253D01*
X8510Y-15264D01*
X8511Y-15306D01*
X8545Y-15340D01*
X8593Y-15340D01*
X8618Y-15351D01*
X8593Y-15362D01*
X8545Y-15362D01*
X8511Y-15397D01*
X8510Y-15438D01*
X8515Y-15450D01*
X8510Y-15461D01*
X8511Y-15502D01*
X8545Y-15537D01*
X8593Y-15537D01*
X8618Y-15548D01*
X8593Y-15559D01*
X8545Y-15559D01*
X8511Y-15593D01*
X8510Y-15635D01*
X8515Y-15646D01*
X8510Y-15658D01*
X8511Y-15699D01*
X8545Y-15734D01*
X8593Y-15734D01*
X8618Y-15745D01*
X8593Y-15755D01*
X8545Y-15755D01*
X8511Y-15790D01*
X8510Y-15831D01*
X8515Y-15843D01*
X8510Y-15855D01*
X8511Y-15896D01*
X8545Y-15931D01*
X8511Y-15931D01*
X8511Y-15932D01*
X8459Y-15932D01*
X8443Y-15938D01*
X8427Y-15932D01*
X8380Y-15932D01*
X8346Y-15932D01*
X8346Y-14877D01*
X8346Y-14757D01*
X8334Y-14745D01*
X8334Y-14722D01*
X8312Y-14722D01*
X8181Y-14722D01*
X8159Y-14722D01*
X8159Y-14745D01*
X8146Y-14757D01*
X8146Y-14877D01*
X8159Y-14906D01*
X8159Y-14954D01*
X8193Y-14988D01*
X8179Y-14989D01*
X8235Y-14988D01*
X8246Y-14984D01*
X8258Y-14988D01*
X8313Y-14989D01*
X8299Y-14988D01*
X8334Y-14954D01*
X8334Y-14906D01*
X8346Y-14877D01*
X8346Y-15932D01*
X8262Y-15932D01*
X8246Y-15938D01*
X8231Y-15932D01*
X8184Y-15932D01*
X8065Y-15932D01*
X8050Y-15938D01*
X8034Y-15932D01*
X7987Y-15932D01*
X7869Y-15932D01*
X7853Y-15938D01*
X7837Y-15932D01*
X7790Y-15932D01*
X7672Y-15932D01*
X7656Y-15938D01*
X7640Y-15932D01*
X7593Y-15932D01*
X7567Y-15932D01*
X7567Y-15859D01*
X7561Y-15843D01*
X7567Y-15827D01*
X7567Y-15780D01*
X7567Y-15662D01*
X7561Y-15646D01*
X7567Y-15631D01*
X7567Y-15584D01*
X7567Y-15465D01*
X7561Y-15450D01*
X7567Y-15434D01*
X7567Y-15387D01*
X7567Y-15269D01*
X7561Y-15253D01*
X7567Y-15237D01*
X7567Y-15190D01*
X7567Y-15072D01*
X7561Y-15056D01*
X7567Y-15040D01*
X7567Y-14993D01*
X7567Y-14967D01*
X7640Y-14967D01*
X7656Y-14961D01*
X7672Y-14967D01*
X7719Y-14967D01*
X7837Y-14967D01*
X7853Y-14961D01*
X7868Y-14967D01*
X7915Y-14967D01*
X8010Y-14967D01*
X8061Y-14988D01*
X8116Y-14989D01*
X8102Y-14988D01*
X8137Y-14954D01*
X8137Y-14722D01*
X8129Y-14722D01*
X8129Y-14701D01*
X8137Y-14701D01*
X8137Y-14469D01*
X8109Y-14441D01*
X8109Y-14434D01*
X8116Y-14434D01*
X8109Y-14434D01*
X8109Y-14413D01*
X8291Y-14231D01*
X8291Y-14400D01*
X8298Y-14434D01*
X8258Y-14434D01*
X8246Y-14439D01*
X8235Y-14434D01*
X8179Y-14434D01*
X8193Y-14434D01*
X8159Y-14469D01*
X8159Y-14516D01*
X8146Y-14546D01*
X8146Y-14666D01*
X8159Y-14678D01*
X8159Y-14701D01*
X8181Y-14701D01*
X8312Y-14701D01*
X8334Y-14701D01*
X8334Y-14693D01*
X8355Y-14693D01*
X8355Y-14701D01*
X8363Y-14701D01*
X8363Y-14722D01*
X8355Y-14722D01*
X8355Y-14954D01*
X8390Y-14988D01*
X8376Y-14989D01*
X8432Y-14988D01*
X8483Y-14967D01*
X8506Y-14967D01*
X8532Y-14967D01*
X8532Y-15016D01*
X8532Y-15016D01*
X8510Y-15068D01*
X8511Y-15109D01*
X8545Y-15144D01*
X8777Y-15144D01*
X8777Y-15136D01*
X8798Y-15136D01*
X8798Y-15144D01*
X8806Y-15144D01*
X8806Y-15165D01*
X8798Y-15165D01*
X8798Y-15187D01*
X8798Y-15318D01*
X8798Y-15340D01*
X8806Y-15340D01*
X8806Y-15362D01*
X8798Y-15362D01*
X8798Y-15384D01*
X8798Y-15515D01*
X8798Y-15537D01*
X8821Y-15537D01*
X8832Y-15548D01*
X8821Y-15559D01*
X8798Y-15559D01*
X8798Y-15581D01*
X8798Y-15712D01*
X8798Y-15734D01*
X8821Y-15734D01*
X8832Y-15745D01*
X8821Y-15755D01*
X8798Y-15755D01*
X8798Y-15778D01*
X8798Y-15908D01*
X8798Y-15931D01*
X8806Y-15931D01*
X8806Y-15952D01*
X8798Y-15952D01*
X8798Y-16105D01*
X8833Y-16140D01*
X8898Y-16140D01*
X8906Y-16140D01*
X8906Y-16198D01*
X8943Y-16287D01*
X8955Y-16299D01*
G54D10*
G36*
X9241Y-16984D02*
X9034Y-17191D01*
X8115Y-17191D01*
X7758Y-16834D01*
X7758Y-16615D01*
X7776Y-16597D01*
X7776Y-16791D01*
X7794Y-16834D01*
X7827Y-16868D01*
X7870Y-16886D01*
X7917Y-16886D01*
X8074Y-16886D01*
X8118Y-16868D01*
X8150Y-16836D01*
X8181Y-16868D01*
X8224Y-16886D01*
X8271Y-16886D01*
X8428Y-16886D01*
X8472Y-16868D01*
X8505Y-16834D01*
X8523Y-16791D01*
X8523Y-16744D01*
X8523Y-16508D01*
X8505Y-16465D01*
X8485Y-16444D01*
X8485Y-16444D01*
X8506Y-16444D01*
X8520Y-16444D01*
X8526Y-16449D01*
X8526Y-16455D01*
X8526Y-16691D01*
X8544Y-16734D01*
X8577Y-16768D01*
X8620Y-16786D01*
X8667Y-16786D01*
X8824Y-16786D01*
X8868Y-16768D01*
X8884Y-16751D01*
X8919Y-16786D01*
X8970Y-16807D01*
X9031Y-16807D01*
X9066Y-16772D01*
X9066Y-16560D01*
X9058Y-16560D01*
X9058Y-16539D01*
X9066Y-16539D01*
X9066Y-16531D01*
X9087Y-16531D01*
X9087Y-16539D01*
X9095Y-16539D01*
X9095Y-16560D01*
X9087Y-16560D01*
X9087Y-16772D01*
X9122Y-16807D01*
X9183Y-16807D01*
X9234Y-16786D01*
X9241Y-16778D01*
X9241Y-16984D01*
X9241Y-16984D01*
G37*
G54D36*
X9241Y-16984D02*
X9034Y-17191D01*
X8115Y-17191D01*
X7758Y-16834D01*
X7758Y-16615D01*
X7776Y-16597D01*
X7776Y-16791D01*
X7794Y-16834D01*
X7827Y-16868D01*
X7870Y-16886D01*
X7917Y-16886D01*
X8074Y-16886D01*
X8118Y-16868D01*
X8150Y-16836D01*
X8181Y-16868D01*
X8224Y-16886D01*
X8271Y-16886D01*
X8428Y-16886D01*
X8472Y-16868D01*
X8505Y-16834D01*
X8523Y-16791D01*
X8523Y-16744D01*
X8523Y-16508D01*
X8505Y-16465D01*
X8485Y-16444D01*
X8485Y-16444D01*
X8506Y-16444D01*
X8520Y-16444D01*
X8526Y-16449D01*
X8526Y-16455D01*
X8526Y-16691D01*
X8544Y-16734D01*
X8577Y-16768D01*
X8620Y-16786D01*
X8667Y-16786D01*
X8824Y-16786D01*
X8868Y-16768D01*
X8884Y-16751D01*
X8919Y-16786D01*
X8970Y-16807D01*
X9031Y-16807D01*
X9066Y-16772D01*
X9066Y-16560D01*
X9058Y-16560D01*
X9058Y-16539D01*
X9066Y-16539D01*
X9066Y-16531D01*
X9087Y-16531D01*
X9087Y-16539D01*
X9095Y-16539D01*
X9095Y-16560D01*
X9087Y-16560D01*
X9087Y-16772D01*
X9122Y-16807D01*
X9183Y-16807D01*
X9234Y-16786D01*
X9241Y-16778D01*
X9241Y-16984D01*
G54D10*
G36*
X9253Y-15443D02*
X9241Y-15500D01*
X9241Y-15924D01*
X9198Y-15906D01*
X9101Y-15906D01*
X9042Y-15931D01*
X9030Y-15931D01*
X9065Y-15896D01*
X9065Y-15855D01*
X9060Y-15843D01*
X9065Y-15831D01*
X9065Y-15790D01*
X9030Y-15755D01*
X8983Y-15755D01*
X8957Y-15745D01*
X8983Y-15734D01*
X9030Y-15734D01*
X9065Y-15699D01*
X9065Y-15658D01*
X9060Y-15646D01*
X9065Y-15635D01*
X9065Y-15593D01*
X9030Y-15559D01*
X8983Y-15559D01*
X8957Y-15548D01*
X8983Y-15537D01*
X9030Y-15537D01*
X9065Y-15502D01*
X9065Y-15461D01*
X9060Y-15450D01*
X9065Y-15438D01*
X9065Y-15397D01*
X9030Y-15362D01*
X9065Y-15362D01*
X9065Y-15359D01*
X9112Y-15405D01*
X9201Y-15443D01*
X9253Y-15443D01*
X9253Y-15443D01*
G37*
G54D36*
X9253Y-15443D02*
X9241Y-15500D01*
X9241Y-15924D01*
X9198Y-15906D01*
X9101Y-15906D01*
X9042Y-15931D01*
X9030Y-15931D01*
X9065Y-15896D01*
X9065Y-15855D01*
X9060Y-15843D01*
X9065Y-15831D01*
X9065Y-15790D01*
X9030Y-15755D01*
X8983Y-15755D01*
X8957Y-15745D01*
X8983Y-15734D01*
X9030Y-15734D01*
X9065Y-15699D01*
X9065Y-15658D01*
X9060Y-15646D01*
X9065Y-15635D01*
X9065Y-15593D01*
X9030Y-15559D01*
X8983Y-15559D01*
X8957Y-15548D01*
X8983Y-15537D01*
X9030Y-15537D01*
X9065Y-15502D01*
X9065Y-15461D01*
X9060Y-15450D01*
X9065Y-15438D01*
X9065Y-15397D01*
X9030Y-15362D01*
X9065Y-15362D01*
X9065Y-15359D01*
X9112Y-15405D01*
X9201Y-15443D01*
X9253Y-15443D01*
G54D10*
G36*
X9523Y-6893D02*
X9493Y-6923D01*
X9462Y-6892D01*
X9418Y-6874D01*
X9371Y-6873D01*
X9175Y-6873D01*
X9131Y-6891D01*
X9099Y-6923D01*
X9068Y-6892D01*
X9025Y-6874D01*
X8978Y-6873D01*
X8781Y-6873D01*
X8737Y-6891D01*
X8706Y-6923D01*
X8676Y-6893D01*
X8707Y-6862D01*
X8725Y-6818D01*
X8726Y-6771D01*
X8726Y-6575D01*
X8708Y-6531D01*
X8691Y-6515D01*
X8726Y-6480D01*
X8747Y-6429D01*
X8747Y-6348D01*
X8712Y-6313D01*
X8520Y-6313D01*
X8520Y-6321D01*
X8498Y-6321D01*
X8498Y-6313D01*
X8306Y-6313D01*
X8271Y-6348D01*
X8271Y-6429D01*
X8292Y-6480D01*
X8327Y-6515D01*
X8310Y-6531D01*
X8292Y-6574D01*
X8292Y-6621D01*
X8292Y-6818D01*
X8310Y-6862D01*
X8342Y-6893D01*
X8310Y-6925D01*
X8292Y-6968D01*
X8292Y-7015D01*
X8292Y-7069D01*
X8182Y-7179D01*
X7973Y-7179D01*
X7937Y-7144D01*
X7848Y-7106D01*
X7751Y-7106D01*
X7662Y-7143D01*
X7594Y-7212D01*
X7556Y-7301D01*
X7556Y-7398D01*
X7593Y-7487D01*
X7624Y-7518D01*
X7567Y-7541D01*
X6702Y-7541D01*
X6747Y-7523D01*
X6786Y-7484D01*
X6807Y-7433D01*
X6807Y-7372D01*
X6772Y-7337D01*
X6560Y-7337D01*
X6560Y-7345D01*
X6539Y-7345D01*
X6539Y-7337D01*
X6531Y-7337D01*
X6531Y-7316D01*
X6539Y-7316D01*
X6539Y-7308D01*
X6560Y-7308D01*
X6560Y-7316D01*
X6772Y-7316D01*
X6807Y-7281D01*
X6807Y-7220D01*
X6786Y-7169D01*
X6751Y-7134D01*
X6755Y-7131D01*
X7022Y-7131D01*
X7051Y-7143D01*
X7148Y-7143D01*
X7237Y-7106D01*
X7305Y-7037D01*
X7343Y-6948D01*
X7343Y-6939D01*
X7351Y-6943D01*
X7448Y-6943D01*
X7537Y-6906D01*
X7605Y-6837D01*
X7643Y-6748D01*
X7643Y-6651D01*
X7606Y-6562D01*
X7583Y-6539D01*
X7888Y-6234D01*
X7888Y-6234D01*
X7891Y-6230D01*
X7891Y-6230D01*
X7922Y-6218D01*
X7955Y-6184D01*
X7969Y-6152D01*
X8018Y-6118D01*
X8117Y-6020D01*
X8250Y-6020D01*
X8251Y-6020D01*
X8292Y-6011D01*
X8292Y-6031D01*
X8310Y-6074D01*
X8327Y-6091D01*
X8292Y-6125D01*
X8271Y-6177D01*
X8271Y-6257D01*
X8306Y-6292D01*
X8498Y-6292D01*
X8498Y-6284D01*
X8520Y-6284D01*
X8520Y-6292D01*
X8712Y-6292D01*
X8747Y-6257D01*
X8747Y-6177D01*
X8726Y-6125D01*
X8691Y-6091D01*
X8706Y-6076D01*
X8737Y-6107D01*
X8781Y-6125D01*
X8828Y-6126D01*
X9024Y-6126D01*
X9068Y-6108D01*
X9100Y-6076D01*
X9131Y-6107D01*
X9174Y-6125D01*
X9221Y-6126D01*
X9418Y-6126D01*
X9462Y-6108D01*
X9493Y-6076D01*
X9523Y-6106D01*
X9492Y-6137D01*
X9474Y-6181D01*
X9473Y-6228D01*
X9473Y-6424D01*
X9491Y-6468D01*
X9523Y-6500D01*
X9492Y-6531D01*
X9474Y-6574D01*
X9473Y-6621D01*
X9473Y-6818D01*
X9491Y-6862D01*
X9523Y-6893D01*
X9523Y-6893D01*
G37*
G54D36*
X9523Y-6893D02*
X9493Y-6923D01*
X9462Y-6892D01*
X9418Y-6874D01*
X9371Y-6873D01*
X9175Y-6873D01*
X9131Y-6891D01*
X9099Y-6923D01*
X9068Y-6892D01*
X9025Y-6874D01*
X8978Y-6873D01*
X8781Y-6873D01*
X8737Y-6891D01*
X8706Y-6923D01*
X8676Y-6893D01*
X8707Y-6862D01*
X8725Y-6818D01*
X8726Y-6771D01*
X8726Y-6575D01*
X8708Y-6531D01*
X8691Y-6515D01*
X8726Y-6480D01*
X8747Y-6429D01*
X8747Y-6348D01*
X8712Y-6313D01*
X8520Y-6313D01*
X8520Y-6321D01*
X8498Y-6321D01*
X8498Y-6313D01*
X8306Y-6313D01*
X8271Y-6348D01*
X8271Y-6429D01*
X8292Y-6480D01*
X8327Y-6515D01*
X8310Y-6531D01*
X8292Y-6574D01*
X8292Y-6621D01*
X8292Y-6818D01*
X8310Y-6862D01*
X8342Y-6893D01*
X8310Y-6925D01*
X8292Y-6968D01*
X8292Y-7015D01*
X8292Y-7069D01*
X8182Y-7179D01*
X7973Y-7179D01*
X7937Y-7144D01*
X7848Y-7106D01*
X7751Y-7106D01*
X7662Y-7143D01*
X7594Y-7212D01*
X7556Y-7301D01*
X7556Y-7398D01*
X7593Y-7487D01*
X7624Y-7518D01*
X7567Y-7541D01*
X6702Y-7541D01*
X6747Y-7523D01*
X6786Y-7484D01*
X6807Y-7433D01*
X6807Y-7372D01*
X6772Y-7337D01*
X6560Y-7337D01*
X6560Y-7345D01*
X6539Y-7345D01*
X6539Y-7337D01*
X6531Y-7337D01*
X6531Y-7316D01*
X6539Y-7316D01*
X6539Y-7308D01*
X6560Y-7308D01*
X6560Y-7316D01*
X6772Y-7316D01*
X6807Y-7281D01*
X6807Y-7220D01*
X6786Y-7169D01*
X6751Y-7134D01*
X6755Y-7131D01*
X7022Y-7131D01*
X7051Y-7143D01*
X7148Y-7143D01*
X7237Y-7106D01*
X7305Y-7037D01*
X7343Y-6948D01*
X7343Y-6939D01*
X7351Y-6943D01*
X7448Y-6943D01*
X7537Y-6906D01*
X7605Y-6837D01*
X7643Y-6748D01*
X7643Y-6651D01*
X7606Y-6562D01*
X7583Y-6539D01*
X7888Y-6234D01*
X7888Y-6234D01*
X7891Y-6230D01*
X7891Y-6230D01*
X7922Y-6218D01*
X7955Y-6184D01*
X7969Y-6152D01*
X8018Y-6118D01*
X8117Y-6020D01*
X8250Y-6020D01*
X8251Y-6020D01*
X8292Y-6011D01*
X8292Y-6031D01*
X8310Y-6074D01*
X8327Y-6091D01*
X8292Y-6125D01*
X8271Y-6177D01*
X8271Y-6257D01*
X8306Y-6292D01*
X8498Y-6292D01*
X8498Y-6284D01*
X8520Y-6284D01*
X8520Y-6292D01*
X8712Y-6292D01*
X8747Y-6257D01*
X8747Y-6177D01*
X8726Y-6125D01*
X8691Y-6091D01*
X8706Y-6076D01*
X8737Y-6107D01*
X8781Y-6125D01*
X8828Y-6126D01*
X9024Y-6126D01*
X9068Y-6108D01*
X9100Y-6076D01*
X9131Y-6107D01*
X9174Y-6125D01*
X9221Y-6126D01*
X9418Y-6126D01*
X9462Y-6108D01*
X9493Y-6076D01*
X9523Y-6106D01*
X9492Y-6137D01*
X9474Y-6181D01*
X9473Y-6228D01*
X9473Y-6424D01*
X9491Y-6468D01*
X9523Y-6500D01*
X9492Y-6531D01*
X9474Y-6574D01*
X9473Y-6621D01*
X9473Y-6818D01*
X9491Y-6862D01*
X9523Y-6893D01*
G54D10*
G36*
X9702Y-11129D02*
X9643Y-11069D01*
X9643Y-11001D01*
X9606Y-10912D01*
X9537Y-10844D01*
X9465Y-10814D01*
X9493Y-10748D01*
X9493Y-10651D01*
X9456Y-10562D01*
X9387Y-10494D01*
X9298Y-10456D01*
X9216Y-10456D01*
X9261Y-10411D01*
X9296Y-10360D01*
X9308Y-10300D01*
X9308Y-9835D01*
X9355Y-9787D01*
X9393Y-9698D01*
X9393Y-9601D01*
X9356Y-9512D01*
X9287Y-9444D01*
X9198Y-9406D01*
X9101Y-9406D01*
X9012Y-9443D01*
X8944Y-9512D01*
X8906Y-9601D01*
X8906Y-9698D01*
X8943Y-9787D01*
X8991Y-9835D01*
X8991Y-10234D01*
X8888Y-10338D01*
X8867Y-10368D01*
X8867Y-10291D01*
X8849Y-10248D01*
X8816Y-10214D01*
X8802Y-10209D01*
X8832Y-10196D01*
X8871Y-10157D01*
X8892Y-10106D01*
X8892Y-10045D01*
X8858Y-10010D01*
X8646Y-10010D01*
X8646Y-10018D01*
X8624Y-10018D01*
X8624Y-10010D01*
X8616Y-10010D01*
X8616Y-9989D01*
X8624Y-9989D01*
X8624Y-9981D01*
X8646Y-9981D01*
X8646Y-9989D01*
X8858Y-9989D01*
X8892Y-9954D01*
X8892Y-9893D01*
X8871Y-9842D01*
X8832Y-9803D01*
X8802Y-9790D01*
X8816Y-9785D01*
X8849Y-9752D01*
X8867Y-9708D01*
X8867Y-9661D01*
X8867Y-9504D01*
X8849Y-9460D01*
X8816Y-9427D01*
X8773Y-9409D01*
X8726Y-9409D01*
X8489Y-9409D01*
X8458Y-9422D01*
X8458Y-8715D01*
X8680Y-8493D01*
X8748Y-8493D01*
X8837Y-8456D01*
X8891Y-8401D01*
X8891Y-8950D01*
X8903Y-9010D01*
X8938Y-9061D01*
X9441Y-9565D01*
X9441Y-9700D01*
X9453Y-9760D01*
X9488Y-9811D01*
X9702Y-10026D01*
X9702Y-11129D01*
X9702Y-11129D01*
G37*
G54D36*
X9702Y-11129D02*
X9643Y-11069D01*
X9643Y-11001D01*
X9606Y-10912D01*
X9537Y-10844D01*
X9465Y-10814D01*
X9493Y-10748D01*
X9493Y-10651D01*
X9456Y-10562D01*
X9387Y-10494D01*
X9298Y-10456D01*
X9216Y-10456D01*
X9261Y-10411D01*
X9296Y-10360D01*
X9308Y-10300D01*
X9308Y-9835D01*
X9355Y-9787D01*
X9393Y-9698D01*
X9393Y-9601D01*
X9356Y-9512D01*
X9287Y-9444D01*
X9198Y-9406D01*
X9101Y-9406D01*
X9012Y-9443D01*
X8944Y-9512D01*
X8906Y-9601D01*
X8906Y-9698D01*
X8943Y-9787D01*
X8991Y-9835D01*
X8991Y-10234D01*
X8888Y-10338D01*
X8867Y-10368D01*
X8867Y-10291D01*
X8849Y-10248D01*
X8816Y-10214D01*
X8802Y-10209D01*
X8832Y-10196D01*
X8871Y-10157D01*
X8892Y-10106D01*
X8892Y-10045D01*
X8858Y-10010D01*
X8646Y-10010D01*
X8646Y-10018D01*
X8624Y-10018D01*
X8624Y-10010D01*
X8616Y-10010D01*
X8616Y-9989D01*
X8624Y-9989D01*
X8624Y-9981D01*
X8646Y-9981D01*
X8646Y-9989D01*
X8858Y-9989D01*
X8892Y-9954D01*
X8892Y-9893D01*
X8871Y-9842D01*
X8832Y-9803D01*
X8802Y-9790D01*
X8816Y-9785D01*
X8849Y-9752D01*
X8867Y-9708D01*
X8867Y-9661D01*
X8867Y-9504D01*
X8849Y-9460D01*
X8816Y-9427D01*
X8773Y-9409D01*
X8726Y-9409D01*
X8489Y-9409D01*
X8458Y-9422D01*
X8458Y-8715D01*
X8680Y-8493D01*
X8748Y-8493D01*
X8837Y-8456D01*
X8891Y-8401D01*
X8891Y-8950D01*
X8903Y-9010D01*
X8938Y-9061D01*
X9441Y-9565D01*
X9441Y-9700D01*
X9453Y-9760D01*
X9488Y-9811D01*
X9702Y-10026D01*
X9702Y-11129D01*
G54D10*
G36*
X12691Y-16248D02*
X12687Y-16244D01*
X12598Y-16206D01*
X12501Y-16206D01*
X12412Y-16243D01*
X12374Y-16281D01*
X11650Y-16281D01*
X11585Y-16294D01*
X11531Y-16331D01*
X11531Y-16331D01*
X11381Y-16481D01*
X11349Y-16528D01*
X11349Y-16132D01*
X11331Y-16089D01*
X11298Y-16056D01*
X11255Y-16038D01*
X11208Y-16038D01*
X10971Y-16038D01*
X10928Y-16056D01*
X10895Y-16089D01*
X10877Y-16132D01*
X10877Y-16179D01*
X10877Y-16967D01*
X10895Y-17010D01*
X10928Y-17043D01*
X10931Y-17045D01*
X10931Y-17129D01*
X10913Y-17147D01*
X10913Y-17408D01*
X10921Y-17408D01*
X10921Y-17429D01*
X10913Y-17429D01*
X10913Y-17437D01*
X10892Y-17437D01*
X10892Y-17429D01*
X10884Y-17429D01*
X10884Y-17408D01*
X10892Y-17408D01*
X10892Y-17147D01*
X10857Y-17112D01*
X10820Y-17112D01*
X10769Y-17133D01*
X10769Y-17133D01*
X10738Y-17133D01*
X10627Y-17133D01*
X10584Y-17151D01*
X10551Y-17184D01*
X10533Y-17228D01*
X10533Y-17254D01*
X10395Y-17254D01*
X10384Y-17244D01*
X10368Y-17237D01*
X10368Y-17061D01*
X10428Y-17061D01*
X10471Y-17043D01*
X10504Y-17010D01*
X10522Y-16967D01*
X10522Y-16920D01*
X10522Y-16132D01*
X10504Y-16089D01*
X10471Y-16056D01*
X10428Y-16038D01*
X10381Y-16038D01*
X10145Y-16038D01*
X10101Y-16056D01*
X10068Y-16089D01*
X10050Y-16132D01*
X10050Y-16179D01*
X10050Y-16456D01*
X9987Y-16394D01*
X9898Y-16356D01*
X9801Y-16356D01*
X9758Y-16374D01*
X9758Y-15624D01*
X10366Y-15015D01*
X10400Y-14964D01*
X10404Y-14947D01*
X10412Y-14955D01*
X10501Y-14993D01*
X10598Y-14993D01*
X10687Y-14956D01*
X10755Y-14887D01*
X10793Y-14798D01*
X10793Y-14701D01*
X10756Y-14612D01*
X10698Y-14555D01*
X10730Y-14555D01*
X10746Y-14548D01*
X10762Y-14555D01*
X10809Y-14555D01*
X10927Y-14555D01*
X10943Y-14548D01*
X10959Y-14555D01*
X11006Y-14555D01*
X11080Y-14555D01*
X11080Y-15138D01*
X11092Y-15199D01*
X11127Y-15250D01*
X11438Y-15561D01*
X11438Y-15561D01*
X11489Y-15596D01*
X11549Y-15608D01*
X11550Y-15608D01*
X12234Y-15608D01*
X12691Y-16065D01*
X12691Y-16248D01*
X12691Y-16248D01*
G37*
G54D36*
X12691Y-16248D02*
X12687Y-16244D01*
X12598Y-16206D01*
X12501Y-16206D01*
X12412Y-16243D01*
X12374Y-16281D01*
X11650Y-16281D01*
X11585Y-16294D01*
X11531Y-16331D01*
X11531Y-16331D01*
X11381Y-16481D01*
X11349Y-16528D01*
X11349Y-16132D01*
X11331Y-16089D01*
X11298Y-16056D01*
X11255Y-16038D01*
X11208Y-16038D01*
X10971Y-16038D01*
X10928Y-16056D01*
X10895Y-16089D01*
X10877Y-16132D01*
X10877Y-16179D01*
X10877Y-16967D01*
X10895Y-17010D01*
X10928Y-17043D01*
X10931Y-17045D01*
X10931Y-17129D01*
X10913Y-17147D01*
X10913Y-17408D01*
X10921Y-17408D01*
X10921Y-17429D01*
X10913Y-17429D01*
X10913Y-17437D01*
X10892Y-17437D01*
X10892Y-17429D01*
X10884Y-17429D01*
X10884Y-17408D01*
X10892Y-17408D01*
X10892Y-17147D01*
X10857Y-17112D01*
X10820Y-17112D01*
X10769Y-17133D01*
X10769Y-17133D01*
X10738Y-17133D01*
X10627Y-17133D01*
X10584Y-17151D01*
X10551Y-17184D01*
X10533Y-17228D01*
X10533Y-17254D01*
X10395Y-17254D01*
X10384Y-17244D01*
X10368Y-17237D01*
X10368Y-17061D01*
X10428Y-17061D01*
X10471Y-17043D01*
X10504Y-17010D01*
X10522Y-16967D01*
X10522Y-16920D01*
X10522Y-16132D01*
X10504Y-16089D01*
X10471Y-16056D01*
X10428Y-16038D01*
X10381Y-16038D01*
X10145Y-16038D01*
X10101Y-16056D01*
X10068Y-16089D01*
X10050Y-16132D01*
X10050Y-16179D01*
X10050Y-16456D01*
X9987Y-16394D01*
X9898Y-16356D01*
X9801Y-16356D01*
X9758Y-16374D01*
X9758Y-15624D01*
X10366Y-15015D01*
X10400Y-14964D01*
X10404Y-14947D01*
X10412Y-14955D01*
X10501Y-14993D01*
X10598Y-14993D01*
X10687Y-14956D01*
X10755Y-14887D01*
X10793Y-14798D01*
X10793Y-14701D01*
X10756Y-14612D01*
X10698Y-14555D01*
X10730Y-14555D01*
X10746Y-14548D01*
X10762Y-14555D01*
X10809Y-14555D01*
X10927Y-14555D01*
X10943Y-14548D01*
X10959Y-14555D01*
X11006Y-14555D01*
X11080Y-14555D01*
X11080Y-15138D01*
X11092Y-15199D01*
X11127Y-15250D01*
X11438Y-15561D01*
X11438Y-15561D01*
X11489Y-15596D01*
X11549Y-15608D01*
X11550Y-15608D01*
X12234Y-15608D01*
X12691Y-16065D01*
X12691Y-16248D01*
G54D10*
G36*
X12691Y-18554D02*
X12618Y-18481D01*
X12564Y-18444D01*
X12514Y-18434D01*
X12514Y-17652D01*
X12514Y-17347D01*
X12493Y-17296D01*
X12454Y-17256D01*
X12402Y-17235D01*
X12394Y-17235D01*
X12394Y-17040D01*
X12394Y-16859D01*
X12394Y-16804D01*
X12373Y-16752D01*
X12334Y-16713D01*
X12283Y-16692D01*
X12222Y-16692D01*
X12187Y-16727D01*
X12187Y-16939D01*
X12360Y-16939D01*
X12394Y-16904D01*
X12394Y-16859D01*
X12394Y-17040D01*
X12394Y-16995D01*
X12360Y-16960D01*
X12187Y-16960D01*
X12187Y-17172D01*
X12222Y-17207D01*
X12283Y-17207D01*
X12334Y-17186D01*
X12373Y-17147D01*
X12394Y-17095D01*
X12394Y-17040D01*
X12394Y-17235D01*
X12347Y-17235D01*
X12195Y-17235D01*
X12160Y-17270D01*
X12160Y-17489D01*
X12479Y-17489D01*
X12514Y-17454D01*
X12514Y-17347D01*
X12514Y-17652D01*
X12514Y-17545D01*
X12479Y-17510D01*
X12160Y-17510D01*
X12160Y-17729D01*
X12195Y-17764D01*
X12347Y-17764D01*
X12402Y-17764D01*
X12454Y-17743D01*
X12493Y-17703D01*
X12514Y-17652D01*
X12514Y-18434D01*
X12500Y-18431D01*
X12499Y-18431D01*
X12412Y-18431D01*
X12405Y-18415D01*
X12395Y-18404D01*
X12395Y-18343D01*
X12398Y-18343D01*
X12441Y-18325D01*
X12475Y-18291D01*
X12493Y-18248D01*
X12493Y-18201D01*
X12493Y-17951D01*
X12475Y-17908D01*
X12441Y-17874D01*
X12398Y-17856D01*
X12351Y-17856D01*
X12139Y-17856D01*
X12139Y-17729D01*
X12139Y-17510D01*
X12139Y-17489D01*
X12139Y-17270D01*
X12104Y-17235D01*
X11952Y-17235D01*
X11897Y-17235D01*
X11845Y-17256D01*
X11806Y-17296D01*
X11785Y-17347D01*
X11785Y-17454D01*
X11820Y-17489D01*
X12139Y-17489D01*
X12139Y-17510D01*
X11820Y-17510D01*
X11785Y-17545D01*
X11785Y-17652D01*
X11806Y-17703D01*
X11845Y-17743D01*
X11897Y-17764D01*
X11952Y-17764D01*
X12104Y-17764D01*
X12139Y-17729D01*
X12139Y-17856D01*
X11901Y-17856D01*
X11858Y-17874D01*
X11824Y-17908D01*
X11806Y-17951D01*
X11806Y-17998D01*
X11806Y-18248D01*
X11824Y-18291D01*
X11858Y-18325D01*
X11901Y-18343D01*
X11948Y-18343D01*
X12058Y-18343D01*
X12058Y-18404D01*
X12049Y-18413D01*
X12018Y-18381D01*
X11975Y-18363D01*
X11928Y-18363D01*
X11771Y-18363D01*
X11727Y-18381D01*
X11696Y-18412D01*
X11666Y-18412D01*
X11666Y-18397D01*
X11672Y-18391D01*
X11690Y-18348D01*
X11690Y-18301D01*
X11690Y-17651D01*
X11672Y-17608D01*
X11666Y-17602D01*
X11666Y-17563D01*
X11666Y-17329D01*
X11810Y-17186D01*
X11924Y-17186D01*
X11968Y-17168D01*
X11984Y-17151D01*
X12019Y-17186D01*
X12070Y-17207D01*
X12131Y-17207D01*
X12166Y-17172D01*
X12166Y-16960D01*
X12158Y-16960D01*
X12158Y-16939D01*
X12166Y-16939D01*
X12166Y-16727D01*
X12131Y-16692D01*
X12070Y-16692D01*
X12019Y-16713D01*
X11984Y-16748D01*
X11968Y-16731D01*
X11925Y-16713D01*
X11878Y-16713D01*
X11721Y-16713D01*
X11677Y-16731D01*
X11668Y-16741D01*
X11668Y-16669D01*
X11719Y-16618D01*
X12374Y-16618D01*
X12412Y-16655D01*
X12501Y-16693D01*
X12598Y-16693D01*
X12687Y-16656D01*
X12691Y-16651D01*
X12691Y-18554D01*
X12691Y-18554D01*
G37*
G54D36*
X12691Y-18554D02*
X12618Y-18481D01*
X12564Y-18444D01*
X12514Y-18434D01*
X12514Y-17652D01*
X12514Y-17347D01*
X12493Y-17296D01*
X12454Y-17256D01*
X12402Y-17235D01*
X12394Y-17235D01*
X12394Y-17040D01*
X12394Y-16859D01*
X12394Y-16804D01*
X12373Y-16752D01*
X12334Y-16713D01*
X12283Y-16692D01*
X12222Y-16692D01*
X12187Y-16727D01*
X12187Y-16939D01*
X12360Y-16939D01*
X12394Y-16904D01*
X12394Y-16859D01*
X12394Y-17040D01*
X12394Y-16995D01*
X12360Y-16960D01*
X12187Y-16960D01*
X12187Y-17172D01*
X12222Y-17207D01*
X12283Y-17207D01*
X12334Y-17186D01*
X12373Y-17147D01*
X12394Y-17095D01*
X12394Y-17040D01*
X12394Y-17235D01*
X12347Y-17235D01*
X12195Y-17235D01*
X12160Y-17270D01*
X12160Y-17489D01*
X12479Y-17489D01*
X12514Y-17454D01*
X12514Y-17347D01*
X12514Y-17652D01*
X12514Y-17545D01*
X12479Y-17510D01*
X12160Y-17510D01*
X12160Y-17729D01*
X12195Y-17764D01*
X12347Y-17764D01*
X12402Y-17764D01*
X12454Y-17743D01*
X12493Y-17703D01*
X12514Y-17652D01*
X12514Y-18434D01*
X12500Y-18431D01*
X12499Y-18431D01*
X12412Y-18431D01*
X12405Y-18415D01*
X12395Y-18404D01*
X12395Y-18343D01*
X12398Y-18343D01*
X12441Y-18325D01*
X12475Y-18291D01*
X12493Y-18248D01*
X12493Y-18201D01*
X12493Y-17951D01*
X12475Y-17908D01*
X12441Y-17874D01*
X12398Y-17856D01*
X12351Y-17856D01*
X12139Y-17856D01*
X12139Y-17729D01*
X12139Y-17510D01*
X12139Y-17489D01*
X12139Y-17270D01*
X12104Y-17235D01*
X11952Y-17235D01*
X11897Y-17235D01*
X11845Y-17256D01*
X11806Y-17296D01*
X11785Y-17347D01*
X11785Y-17454D01*
X11820Y-17489D01*
X12139Y-17489D01*
X12139Y-17510D01*
X11820Y-17510D01*
X11785Y-17545D01*
X11785Y-17652D01*
X11806Y-17703D01*
X11845Y-17743D01*
X11897Y-17764D01*
X11952Y-17764D01*
X12104Y-17764D01*
X12139Y-17729D01*
X12139Y-17856D01*
X11901Y-17856D01*
X11858Y-17874D01*
X11824Y-17908D01*
X11806Y-17951D01*
X11806Y-17998D01*
X11806Y-18248D01*
X11824Y-18291D01*
X11858Y-18325D01*
X11901Y-18343D01*
X11948Y-18343D01*
X12058Y-18343D01*
X12058Y-18404D01*
X12049Y-18413D01*
X12018Y-18381D01*
X11975Y-18363D01*
X11928Y-18363D01*
X11771Y-18363D01*
X11727Y-18381D01*
X11696Y-18412D01*
X11666Y-18412D01*
X11666Y-18397D01*
X11672Y-18391D01*
X11690Y-18348D01*
X11690Y-18301D01*
X11690Y-17651D01*
X11672Y-17608D01*
X11666Y-17602D01*
X11666Y-17563D01*
X11666Y-17329D01*
X11810Y-17186D01*
X11924Y-17186D01*
X11968Y-17168D01*
X11984Y-17151D01*
X12019Y-17186D01*
X12070Y-17207D01*
X12131Y-17207D01*
X12166Y-17172D01*
X12166Y-16960D01*
X12158Y-16960D01*
X12158Y-16939D01*
X12166Y-16939D01*
X12166Y-16727D01*
X12131Y-16692D01*
X12070Y-16692D01*
X12019Y-16713D01*
X11984Y-16748D01*
X11968Y-16731D01*
X11925Y-16713D01*
X11878Y-16713D01*
X11721Y-16713D01*
X11677Y-16731D01*
X11668Y-16741D01*
X11668Y-16669D01*
X11719Y-16618D01*
X12374Y-16618D01*
X12412Y-16655D01*
X12501Y-16693D01*
X12598Y-16693D01*
X12687Y-16656D01*
X12691Y-16651D01*
X12691Y-18554D01*
G54D10*
G36*
X17185Y-21097D02*
X17143Y-21097D01*
X17143Y-17351D01*
X17106Y-17262D01*
X17037Y-17194D01*
X16948Y-17156D01*
X16851Y-17156D01*
X16762Y-17193D01*
X16694Y-17262D01*
X16656Y-17351D01*
X16656Y-17448D01*
X16693Y-17537D01*
X16762Y-17605D01*
X16851Y-17643D01*
X16948Y-17643D01*
X17037Y-17606D01*
X17105Y-17537D01*
X17143Y-17448D01*
X17143Y-17351D01*
X17143Y-21097D01*
X17043Y-21097D01*
X17043Y-20301D01*
X17006Y-20212D01*
X16937Y-20144D01*
X16848Y-20106D01*
X16751Y-20106D01*
X16693Y-20131D01*
X16693Y-18851D01*
X16656Y-18762D01*
X16643Y-18749D01*
X16643Y-15901D01*
X16606Y-15812D01*
X16537Y-15744D01*
X16448Y-15706D01*
X16351Y-15706D01*
X16262Y-15743D01*
X16194Y-15812D01*
X16156Y-15901D01*
X16156Y-15998D01*
X16193Y-16087D01*
X16262Y-16155D01*
X16351Y-16193D01*
X16448Y-16193D01*
X16537Y-16156D01*
X16605Y-16087D01*
X16643Y-15998D01*
X16643Y-15901D01*
X16643Y-18749D01*
X16587Y-18694D01*
X16498Y-18656D01*
X16401Y-18656D01*
X16312Y-18693D01*
X16244Y-18762D01*
X16206Y-18851D01*
X16206Y-18948D01*
X16243Y-19037D01*
X16312Y-19105D01*
X16401Y-19143D01*
X16498Y-19143D01*
X16587Y-19106D01*
X16655Y-19037D01*
X16693Y-18948D01*
X16693Y-18851D01*
X16693Y-20131D01*
X16662Y-20143D01*
X16594Y-20212D01*
X16556Y-20301D01*
X16556Y-20355D01*
X16544Y-20367D01*
X16544Y-20191D01*
X16526Y-20148D01*
X16493Y-20115D01*
X16450Y-20097D01*
X16403Y-20097D01*
X16088Y-20097D01*
X16044Y-20115D01*
X16011Y-20148D01*
X15993Y-20191D01*
X15993Y-20238D01*
X15993Y-20908D01*
X16011Y-20951D01*
X16044Y-20984D01*
X16088Y-21002D01*
X16135Y-21002D01*
X16450Y-21002D01*
X16493Y-20984D01*
X16526Y-20951D01*
X16544Y-20908D01*
X16544Y-20861D01*
X16544Y-20718D01*
X16599Y-20718D01*
X16600Y-20718D01*
X16600Y-20718D01*
X16664Y-20705D01*
X16718Y-20668D01*
X16794Y-20593D01*
X16848Y-20593D01*
X16937Y-20556D01*
X17005Y-20487D01*
X17043Y-20398D01*
X17043Y-20301D01*
X17043Y-21097D01*
X15743Y-21097D01*
X15743Y-9301D01*
X15706Y-9212D01*
X15637Y-9144D01*
X15548Y-9106D01*
X15451Y-9106D01*
X15362Y-9143D01*
X15294Y-9212D01*
X15256Y-9301D01*
X15256Y-9398D01*
X15293Y-9487D01*
X15341Y-9535D01*
X15341Y-12534D01*
X14345Y-13530D01*
X14027Y-13530D01*
X14087Y-13506D01*
X14155Y-13437D01*
X14193Y-13348D01*
X14193Y-13251D01*
X14156Y-13162D01*
X14087Y-13094D01*
X13998Y-13056D01*
X13901Y-13056D01*
X13812Y-13093D01*
X13744Y-13162D01*
X13706Y-13251D01*
X13706Y-13291D01*
X13575Y-13291D01*
X13593Y-13248D01*
X13593Y-13151D01*
X13556Y-13062D01*
X13487Y-12994D01*
X13398Y-12956D01*
X13301Y-12956D01*
X13212Y-12993D01*
X13164Y-13041D01*
X12925Y-13041D01*
X12943Y-12998D01*
X12943Y-12901D01*
X12906Y-12812D01*
X12837Y-12744D01*
X12767Y-12714D01*
X12787Y-12706D01*
X12818Y-12675D01*
X12843Y-12737D01*
X12912Y-12805D01*
X13001Y-12843D01*
X13098Y-12843D01*
X13187Y-12806D01*
X13255Y-12737D01*
X13293Y-12648D01*
X13293Y-12551D01*
X13256Y-12462D01*
X13218Y-12424D01*
X13218Y-10969D01*
X13569Y-10618D01*
X14549Y-10618D01*
X14550Y-10618D01*
X14550Y-10618D01*
X14614Y-10605D01*
X14668Y-10568D01*
X15145Y-10091D01*
X15145Y-10091D01*
X15145Y-10091D01*
X15182Y-10037D01*
X15182Y-10037D01*
X15192Y-9985D01*
X15195Y-9973D01*
X15195Y-9973D01*
X15195Y-9973D01*
X15195Y-9845D01*
X15205Y-9834D01*
X15223Y-9791D01*
X15223Y-9744D01*
X15223Y-9508D01*
X15205Y-9465D01*
X15195Y-9454D01*
X15195Y-9395D01*
X15205Y-9384D01*
X15223Y-9341D01*
X15223Y-9294D01*
X15223Y-9058D01*
X15205Y-9015D01*
X15174Y-8983D01*
X15174Y-7934D01*
X15174Y-7399D01*
X15173Y-7343D01*
X15152Y-7292D01*
X15113Y-7253D01*
X15062Y-7232D01*
X15057Y-7232D01*
X15057Y-6433D01*
X15057Y-6372D01*
X15022Y-6337D01*
X14810Y-6337D01*
X14810Y-6510D01*
X14845Y-6544D01*
X14890Y-6544D01*
X14945Y-6544D01*
X14997Y-6523D01*
X15036Y-6484D01*
X15057Y-6433D01*
X15057Y-7232D01*
X14789Y-7232D01*
X14789Y-6510D01*
X14789Y-6337D01*
X14577Y-6337D01*
X14542Y-6372D01*
X14542Y-6433D01*
X14563Y-6484D01*
X14602Y-6523D01*
X14654Y-6544D01*
X14709Y-6544D01*
X14754Y-6544D01*
X14789Y-6510D01*
X14789Y-7232D01*
X14745Y-7232D01*
X14710Y-7267D01*
X14710Y-7656D01*
X15139Y-7656D01*
X15174Y-7621D01*
X15174Y-7399D01*
X15174Y-7934D01*
X15174Y-7712D01*
X15139Y-7677D01*
X14710Y-7677D01*
X14710Y-8066D01*
X14745Y-8101D01*
X15062Y-8101D01*
X15113Y-8080D01*
X15152Y-8041D01*
X15173Y-7990D01*
X15174Y-7934D01*
X15174Y-8983D01*
X15172Y-8981D01*
X15129Y-8963D01*
X15082Y-8963D01*
X14925Y-8963D01*
X14881Y-8981D01*
X14868Y-8995D01*
X14868Y-8946D01*
X15058Y-8946D01*
X15101Y-8928D01*
X15134Y-8895D01*
X15152Y-8851D01*
X15152Y-8804D01*
X15152Y-8214D01*
X15134Y-8170D01*
X15101Y-8137D01*
X15058Y-8119D01*
X15011Y-8119D01*
X14689Y-8119D01*
X14689Y-8066D01*
X14689Y-7677D01*
X14689Y-7656D01*
X14689Y-7267D01*
X14654Y-7232D01*
X14337Y-7232D01*
X14286Y-7253D01*
X14247Y-7292D01*
X14226Y-7343D01*
X14225Y-7399D01*
X14225Y-7621D01*
X14260Y-7656D01*
X14689Y-7656D01*
X14689Y-7677D01*
X14260Y-7677D01*
X14225Y-7712D01*
X14225Y-7934D01*
X14226Y-7990D01*
X14247Y-8041D01*
X14286Y-8080D01*
X14337Y-8101D01*
X14654Y-8101D01*
X14689Y-8066D01*
X14689Y-8119D01*
X14341Y-8119D01*
X14298Y-8137D01*
X14265Y-8170D01*
X14247Y-8214D01*
X14247Y-8261D01*
X14247Y-8851D01*
X14265Y-8895D01*
X14298Y-8928D01*
X14341Y-8946D01*
X14388Y-8946D01*
X14531Y-8946D01*
X14531Y-8980D01*
X14527Y-8981D01*
X14494Y-9015D01*
X14476Y-9058D01*
X14476Y-9105D01*
X14476Y-9341D01*
X14494Y-9384D01*
X14521Y-9411D01*
X14515Y-9413D01*
X14476Y-9452D01*
X14455Y-9504D01*
X14455Y-9559D01*
X14455Y-9604D01*
X14489Y-9639D01*
X14662Y-9639D01*
X14662Y-9631D01*
X14683Y-9631D01*
X14683Y-9639D01*
X14691Y-9639D01*
X14691Y-9660D01*
X14683Y-9660D01*
X14683Y-9872D01*
X14718Y-9907D01*
X14779Y-9907D01*
X14830Y-9886D01*
X14858Y-9857D01*
X14858Y-9903D01*
X14662Y-10099D01*
X14662Y-9872D01*
X14662Y-9660D01*
X14489Y-9660D01*
X14455Y-9695D01*
X14455Y-9740D01*
X14455Y-9795D01*
X14476Y-9847D01*
X14515Y-9886D01*
X14566Y-9907D01*
X14627Y-9907D01*
X14662Y-9872D01*
X14662Y-10099D01*
X14480Y-10281D01*
X13500Y-10281D01*
X13435Y-10294D01*
X13381Y-10331D01*
X13293Y-10419D01*
X13293Y-7251D01*
X13256Y-7162D01*
X13187Y-7094D01*
X13098Y-7056D01*
X13044Y-7056D01*
X12544Y-6556D01*
X12489Y-6520D01*
X12425Y-6507D01*
X12425Y-6507D01*
X12421Y-6507D01*
X12414Y-6490D01*
X12381Y-6457D01*
X12338Y-6439D01*
X12291Y-6439D01*
X12011Y-6439D01*
X11960Y-6418D01*
X11905Y-6418D01*
X11836Y-6418D01*
X11801Y-6452D01*
X11801Y-6664D01*
X11809Y-6664D01*
X11809Y-6686D01*
X11801Y-6686D01*
X11801Y-6694D01*
X11780Y-6694D01*
X11780Y-6686D01*
X11772Y-6686D01*
X11772Y-6664D01*
X11780Y-6664D01*
X11780Y-6452D01*
X11745Y-6418D01*
X11676Y-6418D01*
X11621Y-6418D01*
X11570Y-6439D01*
X11527Y-6439D01*
X11243Y-6439D01*
X11218Y-6450D01*
X11192Y-6439D01*
X11145Y-6439D01*
X10862Y-6439D01*
X10818Y-6457D01*
X10785Y-6490D01*
X10778Y-6507D01*
X10695Y-6507D01*
X10707Y-6479D01*
X10707Y-6418D01*
X10672Y-6383D01*
X10460Y-6383D01*
X10460Y-6391D01*
X10439Y-6391D01*
X10439Y-6383D01*
X10227Y-6383D01*
X10192Y-6418D01*
X10192Y-6479D01*
X10213Y-6530D01*
X10248Y-6565D01*
X10231Y-6581D01*
X10213Y-6624D01*
X10213Y-6671D01*
X10213Y-6828D01*
X10231Y-6872D01*
X10257Y-6898D01*
X10244Y-6912D01*
X10206Y-7001D01*
X10206Y-7098D01*
X10243Y-7187D01*
X10312Y-7255D01*
X10401Y-7293D01*
X10498Y-7293D01*
X10587Y-7256D01*
X10655Y-7187D01*
X10693Y-7098D01*
X10693Y-7001D01*
X10656Y-6912D01*
X10642Y-6898D01*
X10668Y-6872D01*
X10680Y-6843D01*
X10778Y-6843D01*
X10785Y-6860D01*
X10818Y-6893D01*
X10861Y-6911D01*
X10908Y-6911D01*
X11192Y-6911D01*
X11195Y-6910D01*
X11144Y-6962D01*
X11106Y-7051D01*
X11106Y-7148D01*
X11143Y-7237D01*
X11212Y-7305D01*
X11277Y-7333D01*
X11277Y-11444D01*
X11274Y-11444D01*
X11156Y-11444D01*
X11140Y-11451D01*
X11124Y-11444D01*
X11077Y-11444D01*
X10959Y-11444D01*
X10943Y-11451D01*
X10927Y-11444D01*
X10880Y-11444D01*
X10762Y-11444D01*
X10746Y-11451D01*
X10731Y-11444D01*
X10684Y-11444D01*
X10609Y-11444D01*
X10609Y-10117D01*
X10637Y-10106D01*
X10705Y-10037D01*
X10743Y-9948D01*
X10743Y-9851D01*
X10706Y-9762D01*
X10658Y-9714D01*
X10658Y-9616D01*
X10684Y-9605D01*
X10718Y-9572D01*
X10736Y-9529D01*
X10736Y-9482D01*
X10736Y-9325D01*
X10718Y-9281D01*
X10686Y-9249D01*
X10718Y-9218D01*
X10736Y-9175D01*
X10736Y-9128D01*
X10736Y-8971D01*
X10718Y-8927D01*
X10684Y-8894D01*
X10641Y-8876D01*
X10594Y-8876D01*
X10564Y-8876D01*
X10493Y-8805D01*
X10493Y-8751D01*
X10456Y-8662D01*
X10387Y-8594D01*
X10317Y-8564D01*
X10337Y-8556D01*
X10405Y-8487D01*
X10443Y-8398D01*
X10443Y-8301D01*
X10406Y-8212D01*
X10337Y-8144D01*
X10248Y-8106D01*
X10151Y-8106D01*
X10062Y-8143D01*
X9996Y-8209D01*
X10007Y-8183D01*
X10007Y-7970D01*
X9986Y-7919D01*
X9951Y-7884D01*
X9968Y-7868D01*
X9986Y-7825D01*
X9986Y-7778D01*
X9986Y-7621D01*
X9968Y-7577D01*
X9934Y-7544D01*
X9908Y-7533D01*
X9908Y-7150D01*
X9907Y-7144D01*
X9907Y-6968D01*
X9889Y-6925D01*
X9857Y-6893D01*
X9889Y-6862D01*
X9907Y-6818D01*
X9907Y-6771D01*
X9907Y-6575D01*
X9889Y-6531D01*
X9857Y-6499D01*
X9889Y-6468D01*
X9907Y-6425D01*
X9907Y-6378D01*
X9907Y-6181D01*
X9889Y-6137D01*
X9857Y-6106D01*
X9889Y-6074D01*
X9907Y-6031D01*
X9907Y-5984D01*
X9907Y-5787D01*
X9889Y-5744D01*
X9855Y-5710D01*
X9812Y-5692D01*
X9765Y-5692D01*
X9568Y-5692D01*
X9525Y-5710D01*
X9493Y-5742D01*
X9462Y-5710D01*
X9418Y-5692D01*
X9371Y-5692D01*
X9175Y-5692D01*
X9131Y-5710D01*
X9099Y-5742D01*
X9068Y-5710D01*
X9025Y-5692D01*
X8978Y-5692D01*
X8781Y-5692D01*
X8737Y-5710D01*
X8706Y-5742D01*
X8674Y-5710D01*
X8631Y-5692D01*
X8584Y-5692D01*
X8387Y-5692D01*
X8385Y-5693D01*
X8302Y-5693D01*
X8251Y-5683D01*
X8250Y-5683D01*
X8048Y-5683D01*
X7983Y-5696D01*
X7929Y-5733D01*
X7929Y-5733D01*
X7892Y-5769D01*
X7879Y-5763D01*
X7832Y-5763D01*
X7675Y-5763D01*
X7631Y-5781D01*
X7615Y-5798D01*
X7580Y-5763D01*
X7529Y-5742D01*
X7468Y-5742D01*
X7433Y-5777D01*
X7433Y-5989D01*
X7441Y-5989D01*
X7441Y-6010D01*
X7433Y-6010D01*
X7433Y-6018D01*
X7412Y-6018D01*
X7412Y-6010D01*
X7412Y-5989D01*
X7412Y-5777D01*
X7377Y-5742D01*
X7316Y-5742D01*
X7265Y-5763D01*
X7226Y-5802D01*
X7205Y-5854D01*
X7205Y-5909D01*
X7205Y-5954D01*
X7239Y-5989D01*
X7412Y-5989D01*
X7412Y-6010D01*
X7239Y-6010D01*
X7205Y-6045D01*
X7205Y-6090D01*
X7205Y-6145D01*
X7226Y-6197D01*
X7265Y-6236D01*
X7316Y-6257D01*
X7377Y-6257D01*
X7412Y-6222D01*
X7412Y-6257D01*
X7412Y-6257D01*
X7419Y-6257D01*
X7412Y-6264D01*
X7288Y-6388D01*
X7253Y-6439D01*
X7241Y-6500D01*
X7241Y-6514D01*
X7194Y-6562D01*
X7156Y-6651D01*
X7156Y-6660D01*
X7148Y-6656D01*
X7051Y-6656D01*
X6962Y-6693D01*
X6894Y-6762D01*
X6872Y-6814D01*
X6755Y-6814D01*
X6734Y-6794D01*
X6691Y-6776D01*
X6644Y-6776D01*
X6408Y-6776D01*
X6365Y-6794D01*
X6344Y-6814D01*
X6305Y-6814D01*
X6284Y-6794D01*
X6241Y-6776D01*
X6194Y-6776D01*
X5958Y-6776D01*
X5915Y-6794D01*
X5881Y-6827D01*
X5863Y-6870D01*
X5863Y-6917D01*
X5863Y-7074D01*
X5881Y-7118D01*
X5913Y-7150D01*
X5881Y-7181D01*
X5863Y-7224D01*
X5863Y-7271D01*
X5863Y-7428D01*
X5881Y-7472D01*
X5915Y-7505D01*
X5958Y-7523D01*
X6005Y-7523D01*
X6073Y-7523D01*
X6361Y-7811D01*
X6412Y-7846D01*
X6473Y-7858D01*
X6698Y-7858D01*
X6694Y-7862D01*
X6656Y-7951D01*
X6656Y-8048D01*
X6693Y-8137D01*
X6762Y-8205D01*
X6851Y-8243D01*
X6948Y-8243D01*
X7037Y-8206D01*
X7085Y-8158D01*
X8100Y-8158D01*
X8160Y-8146D01*
X8160Y-8146D01*
X8211Y-8111D01*
X8836Y-7487D01*
X8836Y-7487D01*
X8870Y-7436D01*
X8873Y-7422D01*
X8988Y-7307D01*
X9024Y-7307D01*
X9068Y-7289D01*
X9100Y-7257D01*
X9131Y-7289D01*
X9174Y-7307D01*
X9221Y-7307D01*
X9418Y-7307D01*
X9462Y-7289D01*
X9493Y-7257D01*
X9525Y-7289D01*
X9568Y-7307D01*
X9591Y-7307D01*
X9591Y-7533D01*
X9565Y-7544D01*
X9531Y-7577D01*
X9513Y-7620D01*
X9513Y-7667D01*
X9513Y-7824D01*
X9531Y-7868D01*
X9548Y-7884D01*
X9513Y-7919D01*
X9492Y-7970D01*
X9492Y-8031D01*
X9527Y-8066D01*
X9739Y-8066D01*
X9739Y-8058D01*
X9760Y-8058D01*
X9760Y-8066D01*
X9972Y-8066D01*
X10007Y-8031D01*
X10007Y-7970D01*
X10007Y-8183D01*
X10007Y-8122D01*
X9972Y-8087D01*
X9760Y-8087D01*
X9760Y-8260D01*
X9795Y-8294D01*
X9840Y-8294D01*
X9895Y-8294D01*
X9947Y-8273D01*
X9983Y-8236D01*
X9956Y-8301D01*
X9956Y-8398D01*
X9993Y-8487D01*
X10062Y-8555D01*
X10132Y-8585D01*
X10112Y-8593D01*
X10044Y-8662D01*
X10006Y-8751D01*
X10006Y-8848D01*
X10043Y-8937D01*
X10112Y-9005D01*
X10201Y-9043D01*
X10255Y-9043D01*
X10263Y-9051D01*
X10263Y-9174D01*
X10281Y-9218D01*
X10313Y-9250D01*
X10281Y-9281D01*
X10263Y-9324D01*
X10263Y-9371D01*
X10263Y-9528D01*
X10281Y-9572D01*
X10315Y-9605D01*
X10341Y-9616D01*
X10341Y-9714D01*
X10294Y-9762D01*
X10256Y-9851D01*
X10256Y-9948D01*
X10293Y-10036D01*
X10293Y-11423D01*
X10286Y-11423D01*
X10293Y-11423D01*
X10293Y-11430D01*
X10265Y-11458D01*
X10265Y-11660D01*
X10273Y-11660D01*
X10273Y-11681D01*
X10265Y-11681D01*
X10265Y-11884D01*
X10300Y-11918D01*
X10286Y-11918D01*
X10341Y-11918D01*
X10392Y-11897D01*
X10415Y-11897D01*
X10534Y-11897D01*
X10549Y-11891D01*
X10565Y-11897D01*
X10612Y-11897D01*
X10730Y-11897D01*
X10746Y-11891D01*
X10762Y-11897D01*
X10809Y-11897D01*
X10927Y-11897D01*
X10943Y-11891D01*
X10959Y-11897D01*
X11006Y-11897D01*
X11124Y-11897D01*
X11140Y-11891D01*
X11156Y-11897D01*
X11203Y-11897D01*
X11321Y-11897D01*
X11337Y-11891D01*
X11353Y-11897D01*
X11400Y-11897D01*
X11518Y-11897D01*
X11534Y-11891D01*
X11550Y-11897D01*
X11597Y-11897D01*
X11652Y-11897D01*
X11652Y-11976D01*
X11631Y-12027D01*
X11631Y-12082D01*
X11631Y-12068D01*
X11665Y-12103D01*
X11868Y-12103D01*
X11868Y-12095D01*
X11889Y-12095D01*
X11889Y-12103D01*
X12091Y-12103D01*
X12126Y-12068D01*
X12126Y-12082D01*
X12126Y-12048D01*
X12145Y-12036D01*
X12181Y-11981D01*
X12194Y-11917D01*
X12194Y-11569D01*
X12251Y-11593D01*
X12348Y-11593D01*
X12437Y-11556D01*
X12505Y-11487D01*
X12543Y-11398D01*
X12543Y-11301D01*
X12506Y-11212D01*
X12437Y-11144D01*
X12348Y-11106D01*
X12294Y-11106D01*
X12245Y-11058D01*
X12222Y-11042D01*
X12218Y-11031D01*
X12201Y-11015D01*
X12236Y-10980D01*
X12257Y-10929D01*
X12257Y-10716D01*
X12236Y-10665D01*
X12197Y-10626D01*
X12145Y-10605D01*
X12090Y-10605D01*
X12045Y-10605D01*
X12010Y-10639D01*
X12010Y-10812D01*
X12222Y-10812D01*
X12257Y-10777D01*
X12257Y-10716D01*
X12257Y-10929D01*
X12257Y-10868D01*
X12222Y-10833D01*
X12010Y-10833D01*
X12010Y-10841D01*
X11989Y-10841D01*
X11989Y-10833D01*
X11981Y-10833D01*
X11981Y-10812D01*
X11989Y-10812D01*
X11989Y-10639D01*
X11954Y-10605D01*
X11909Y-10605D01*
X11854Y-10605D01*
X11818Y-10620D01*
X11818Y-8769D01*
X13044Y-7543D01*
X13098Y-7543D01*
X13187Y-7506D01*
X13255Y-7437D01*
X13293Y-7348D01*
X13293Y-7251D01*
X13293Y-10419D01*
X12931Y-10781D01*
X12894Y-10835D01*
X12881Y-10900D01*
X12881Y-10900D01*
X12881Y-12424D01*
X12881Y-12424D01*
X12856Y-12362D01*
X12787Y-12294D01*
X12698Y-12256D01*
X12630Y-12256D01*
X12572Y-12199D01*
X12521Y-12164D01*
X12461Y-12152D01*
X12126Y-12152D01*
X12126Y-12145D01*
X12126Y-12152D01*
X12119Y-12152D01*
X12091Y-12124D01*
X11889Y-12124D01*
X11889Y-12132D01*
X11868Y-12132D01*
X11868Y-12124D01*
X11665Y-12124D01*
X11631Y-12159D01*
X11631Y-12145D01*
X11631Y-12201D01*
X11652Y-12252D01*
X11652Y-12275D01*
X11652Y-12393D01*
X11658Y-12409D01*
X11652Y-12425D01*
X11652Y-12472D01*
X11652Y-12566D01*
X11631Y-12617D01*
X11631Y-12673D01*
X11631Y-12659D01*
X11665Y-12694D01*
X11868Y-12694D01*
X11868Y-12686D01*
X11889Y-12686D01*
X11889Y-12694D01*
X12091Y-12694D01*
X12119Y-12665D01*
X12126Y-12665D01*
X12126Y-12673D01*
X12126Y-12665D01*
X12192Y-12665D01*
X12274Y-12748D01*
X12251Y-12743D01*
X12126Y-12743D01*
X12126Y-12736D01*
X12126Y-12743D01*
X12119Y-12743D01*
X12091Y-12715D01*
X11889Y-12715D01*
X11889Y-12723D01*
X11868Y-12723D01*
X11868Y-12715D01*
X11665Y-12715D01*
X11631Y-12750D01*
X11631Y-12736D01*
X11631Y-12791D01*
X11652Y-12842D01*
X11652Y-12865D01*
X11652Y-12984D01*
X11658Y-12999D01*
X11652Y-13015D01*
X11652Y-13062D01*
X11652Y-13180D01*
X11658Y-13196D01*
X11652Y-13212D01*
X11652Y-13259D01*
X11652Y-13377D01*
X11658Y-13393D01*
X11652Y-13409D01*
X11652Y-13456D01*
X11652Y-13574D01*
X11658Y-13590D01*
X11652Y-13606D01*
X11652Y-13653D01*
X11652Y-13771D01*
X11658Y-13787D01*
X11652Y-13803D01*
X11652Y-13850D01*
X11652Y-13968D01*
X11658Y-13984D01*
X11652Y-14000D01*
X11652Y-14047D01*
X11652Y-14102D01*
X11573Y-14102D01*
X11522Y-14081D01*
X11467Y-14081D01*
X11481Y-14081D01*
X11446Y-14115D01*
X11446Y-14318D01*
X11454Y-14318D01*
X11454Y-14339D01*
X11446Y-14339D01*
X11446Y-14541D01*
X11481Y-14576D01*
X11467Y-14576D01*
X11522Y-14576D01*
X11573Y-14555D01*
X11597Y-14555D01*
X11621Y-14555D01*
X11631Y-14565D01*
X11631Y-14587D01*
X11615Y-14594D01*
X11581Y-14627D01*
X11563Y-14670D01*
X11563Y-14717D01*
X11563Y-14874D01*
X11581Y-14918D01*
X11598Y-14934D01*
X11563Y-14969D01*
X11542Y-15020D01*
X11542Y-15081D01*
X11577Y-15116D01*
X11789Y-15116D01*
X11789Y-15108D01*
X11810Y-15108D01*
X11810Y-15116D01*
X12022Y-15116D01*
X12057Y-15081D01*
X12057Y-15020D01*
X12036Y-14969D01*
X12007Y-14941D01*
X12047Y-14941D01*
X12062Y-14955D01*
X12151Y-14993D01*
X12248Y-14993D01*
X12337Y-14956D01*
X12405Y-14887D01*
X12443Y-14798D01*
X12443Y-14701D01*
X12406Y-14612D01*
X12337Y-14544D01*
X12248Y-14506D01*
X12151Y-14506D01*
X12062Y-14543D01*
X12001Y-14604D01*
X11995Y-14604D01*
X11984Y-14594D01*
X11968Y-14587D01*
X11968Y-14496D01*
X11968Y-14496D01*
X11968Y-14496D01*
X11965Y-14483D01*
X11955Y-14431D01*
X11955Y-14431D01*
X11918Y-14377D01*
X11918Y-14377D01*
X11809Y-14268D01*
X11809Y-14259D01*
X12010Y-14259D01*
X12053Y-14241D01*
X12054Y-14240D01*
X12267Y-14240D01*
X12891Y-14865D01*
X12891Y-15818D01*
X12411Y-15338D01*
X12360Y-15303D01*
X12300Y-15291D01*
X12028Y-15291D01*
X12036Y-15284D01*
X12057Y-15233D01*
X12057Y-15172D01*
X12022Y-15137D01*
X11810Y-15137D01*
X11810Y-15145D01*
X11789Y-15145D01*
X11789Y-15137D01*
X11577Y-15137D01*
X11542Y-15172D01*
X11542Y-15219D01*
X11397Y-15073D01*
X11397Y-14576D01*
X11404Y-14576D01*
X11397Y-14576D01*
X11397Y-14569D01*
X11425Y-14541D01*
X11425Y-14339D01*
X11417Y-14339D01*
X11417Y-14318D01*
X11425Y-14318D01*
X11425Y-14115D01*
X11390Y-14081D01*
X11404Y-14081D01*
X11348Y-14081D01*
X11297Y-14102D01*
X11274Y-14102D01*
X11156Y-14102D01*
X11140Y-14108D01*
X11124Y-14102D01*
X11077Y-14102D01*
X10959Y-14102D01*
X10943Y-14108D01*
X10927Y-14102D01*
X10880Y-14102D01*
X10762Y-14102D01*
X10746Y-14108D01*
X10731Y-14102D01*
X10684Y-14102D01*
X10565Y-14102D01*
X10549Y-14109D01*
X10532Y-14102D01*
X10485Y-14102D01*
X10367Y-14102D01*
X10352Y-14108D01*
X10337Y-14102D01*
X10290Y-14102D01*
X10172Y-14102D01*
X10156Y-14108D01*
X10140Y-14102D01*
X10093Y-14102D01*
X9975Y-14102D01*
X9959Y-14108D01*
X9943Y-14102D01*
X9896Y-14102D01*
X9778Y-14102D01*
X9762Y-14108D01*
X9746Y-14102D01*
X9699Y-14102D01*
X9581Y-14102D01*
X9565Y-14108D01*
X9549Y-14102D01*
X9502Y-14102D01*
X9447Y-14102D01*
X9447Y-14023D01*
X9468Y-13972D01*
X9468Y-13917D01*
X9468Y-13931D01*
X9434Y-13896D01*
X9231Y-13896D01*
X9231Y-13904D01*
X9210Y-13904D01*
X9210Y-13896D01*
X9008Y-13896D01*
X8990Y-13914D01*
X8967Y-13914D01*
X8967Y-13914D01*
X8954Y-13917D01*
X8902Y-13927D01*
X8882Y-13940D01*
X8973Y-13849D01*
X8973Y-13854D01*
X8973Y-13849D01*
X8976Y-13847D01*
X8980Y-13847D01*
X9008Y-13875D01*
X9210Y-13875D01*
X9210Y-13867D01*
X9231Y-13867D01*
X9231Y-13875D01*
X9434Y-13875D01*
X9468Y-13840D01*
X9468Y-13854D01*
X9468Y-13798D01*
X9447Y-13747D01*
X9447Y-13724D01*
X9447Y-13606D01*
X9441Y-13590D01*
X9447Y-13574D01*
X9447Y-13527D01*
X9447Y-13409D01*
X9441Y-13393D01*
X9447Y-13377D01*
X9447Y-13330D01*
X9447Y-13212D01*
X9441Y-13196D01*
X9447Y-13181D01*
X9447Y-13134D01*
X9447Y-13015D01*
X9441Y-13000D01*
X9447Y-12984D01*
X9447Y-12937D01*
X9447Y-12819D01*
X9441Y-12803D01*
X9447Y-12787D01*
X9447Y-12740D01*
X9447Y-12622D01*
X9441Y-12606D01*
X9447Y-12590D01*
X9447Y-12543D01*
X9447Y-12425D01*
X9441Y-12409D01*
X9447Y-12393D01*
X9447Y-12346D01*
X9447Y-12228D01*
X9441Y-12212D01*
X9447Y-12196D01*
X9447Y-12149D01*
X9447Y-12031D01*
X9441Y-12015D01*
X9447Y-11999D01*
X9447Y-11952D01*
X9447Y-11897D01*
X9549Y-11897D01*
X9565Y-11891D01*
X9581Y-11897D01*
X9628Y-11897D01*
X9746Y-11897D01*
X9762Y-11891D01*
X9778Y-11897D01*
X9825Y-11897D01*
X9943Y-11897D01*
X9959Y-11891D01*
X9975Y-11897D01*
X10022Y-11897D01*
X10116Y-11897D01*
X10167Y-11918D01*
X10223Y-11918D01*
X10209Y-11918D01*
X10244Y-11884D01*
X10244Y-11681D01*
X10236Y-11681D01*
X10236Y-11660D01*
X10244Y-11660D01*
X10244Y-11458D01*
X10225Y-11440D01*
X10225Y-9757D01*
X10213Y-9693D01*
X10176Y-9639D01*
X10176Y-9639D01*
X10143Y-9605D01*
X10143Y-9551D01*
X10106Y-9462D01*
X10037Y-9394D01*
X9948Y-9356D01*
X9851Y-9356D01*
X9762Y-9393D01*
X9739Y-9416D01*
X9739Y-8260D01*
X9739Y-8087D01*
X9527Y-8087D01*
X9492Y-8122D01*
X9492Y-8183D01*
X9513Y-8234D01*
X9552Y-8273D01*
X9604Y-8294D01*
X9659Y-8294D01*
X9704Y-8294D01*
X9739Y-8260D01*
X9739Y-9416D01*
X9734Y-9421D01*
X9711Y-9388D01*
X9208Y-8884D01*
X9208Y-7985D01*
X9255Y-7937D01*
X9293Y-7848D01*
X9293Y-7751D01*
X9256Y-7662D01*
X9187Y-7594D01*
X9098Y-7556D01*
X9001Y-7556D01*
X8912Y-7593D01*
X8844Y-7662D01*
X8806Y-7751D01*
X8806Y-7848D01*
X8843Y-7937D01*
X8891Y-7985D01*
X8891Y-8098D01*
X8837Y-8044D01*
X8748Y-8006D01*
X8651Y-8006D01*
X8562Y-8043D01*
X8494Y-8112D01*
X8456Y-8201D01*
X8456Y-8269D01*
X8188Y-8538D01*
X8153Y-8589D01*
X8141Y-8650D01*
X8141Y-9874D01*
X8098Y-9856D01*
X8001Y-9856D01*
X7912Y-9893D01*
X7844Y-9962D01*
X7806Y-10051D01*
X7806Y-10119D01*
X7790Y-10135D01*
X7804Y-10102D01*
X7804Y-10055D01*
X7804Y-9897D01*
X7786Y-9854D01*
X7753Y-9821D01*
X7710Y-9803D01*
X7710Y-9803D01*
X7753Y-9785D01*
X7786Y-9752D01*
X7804Y-9708D01*
X7804Y-9661D01*
X7804Y-9504D01*
X7786Y-9460D01*
X7753Y-9427D01*
X7710Y-9409D01*
X7663Y-9409D01*
X7427Y-9409D01*
X7383Y-9427D01*
X7350Y-9460D01*
X7332Y-9503D01*
X7332Y-9550D01*
X7332Y-9708D01*
X7350Y-9751D01*
X7383Y-9785D01*
X7426Y-9803D01*
X7427Y-9803D01*
X7383Y-9821D01*
X7372Y-9831D01*
X7369Y-9831D01*
X7273Y-9735D01*
X7273Y-9658D01*
X7255Y-9615D01*
X7222Y-9581D01*
X7179Y-9563D01*
X7132Y-9563D01*
X6975Y-9563D01*
X6931Y-9581D01*
X6915Y-9598D01*
X6880Y-9563D01*
X6829Y-9542D01*
X6768Y-9542D01*
X6733Y-9577D01*
X6733Y-9789D01*
X6741Y-9789D01*
X6741Y-9810D01*
X6733Y-9810D01*
X6733Y-9818D01*
X6712Y-9818D01*
X6712Y-9810D01*
X6712Y-9789D01*
X6712Y-9577D01*
X6677Y-9542D01*
X6616Y-9542D01*
X6565Y-9563D01*
X6526Y-9602D01*
X6505Y-9654D01*
X6505Y-9661D01*
X6486Y-9615D01*
X6447Y-9576D01*
X6395Y-9555D01*
X6340Y-9555D01*
X6295Y-9555D01*
X6260Y-9589D01*
X6260Y-9762D01*
X6472Y-9762D01*
X6505Y-9729D01*
X6505Y-9754D01*
X6539Y-9789D01*
X6712Y-9789D01*
X6712Y-9810D01*
X6539Y-9810D01*
X6507Y-9843D01*
X6507Y-9818D01*
X6472Y-9783D01*
X6260Y-9783D01*
X6260Y-9791D01*
X6239Y-9791D01*
X6239Y-9783D01*
X6239Y-9762D01*
X6239Y-9589D01*
X6204Y-9555D01*
X6159Y-9555D01*
X6104Y-9555D01*
X6052Y-9576D01*
X6013Y-9615D01*
X5992Y-9666D01*
X5992Y-9727D01*
X6027Y-9762D01*
X6239Y-9762D01*
X6239Y-9783D01*
X6027Y-9783D01*
X5992Y-9818D01*
X5992Y-9879D01*
X6013Y-9930D01*
X6048Y-9965D01*
X6031Y-9981D01*
X6013Y-10024D01*
X6013Y-10071D01*
X6013Y-10228D01*
X6031Y-10272D01*
X6065Y-10305D01*
X6108Y-10323D01*
X6155Y-10323D01*
X6165Y-10323D01*
X6165Y-10371D01*
X6137Y-10344D01*
X6048Y-10306D01*
X5951Y-10306D01*
X5862Y-10343D01*
X5794Y-10412D01*
X5756Y-10501D01*
X5756Y-10598D01*
X5793Y-10687D01*
X5862Y-10755D01*
X5951Y-10793D01*
X6048Y-10793D01*
X6095Y-10773D01*
X6095Y-10780D01*
X6095Y-10776D01*
X6130Y-10811D01*
X6322Y-10811D01*
X6322Y-10803D01*
X6344Y-10803D01*
X6344Y-10811D01*
X6351Y-10811D01*
X6351Y-10832D01*
X6344Y-10832D01*
X6344Y-10840D01*
X6322Y-10840D01*
X6322Y-10832D01*
X6130Y-10832D01*
X6095Y-10867D01*
X6095Y-10863D01*
X6095Y-10876D01*
X6048Y-10856D01*
X5951Y-10856D01*
X5862Y-10893D01*
X5794Y-10962D01*
X5756Y-11051D01*
X5756Y-11148D01*
X5793Y-11237D01*
X5862Y-11305D01*
X5951Y-11343D01*
X6048Y-11343D01*
X6120Y-11313D01*
X6130Y-11323D01*
X6322Y-11323D01*
X6322Y-11315D01*
X6344Y-11315D01*
X6344Y-11323D01*
X6351Y-11323D01*
X6351Y-11344D01*
X6344Y-11344D01*
X6344Y-11507D01*
X6378Y-11542D01*
X6459Y-11542D01*
X6510Y-11520D01*
X6549Y-11481D01*
X6561Y-11454D01*
X6567Y-11469D01*
X6568Y-11470D01*
X6568Y-12794D01*
X6549Y-12813D01*
X6518Y-12781D01*
X6475Y-12763D01*
X6428Y-12763D01*
X6322Y-12763D01*
X6322Y-11507D01*
X6322Y-11344D01*
X6130Y-11344D01*
X6095Y-11379D01*
X6095Y-11375D01*
X6095Y-11430D01*
X6116Y-11481D01*
X6156Y-11520D01*
X6207Y-11542D01*
X6287Y-11542D01*
X6322Y-11507D01*
X6322Y-12763D01*
X6271Y-12763D01*
X6227Y-12781D01*
X6194Y-12815D01*
X6176Y-12858D01*
X6176Y-12905D01*
X6176Y-13141D01*
X6187Y-13168D01*
X6144Y-13212D01*
X6106Y-13301D01*
X6106Y-13398D01*
X6143Y-13487D01*
X6212Y-13555D01*
X6301Y-13593D01*
X6398Y-13593D01*
X6487Y-13556D01*
X6518Y-13525D01*
X6543Y-13587D01*
X6612Y-13655D01*
X6646Y-13670D01*
X7438Y-14461D01*
X7438Y-14461D01*
X7446Y-14467D01*
X7432Y-14473D01*
X7398Y-14507D01*
X7380Y-14550D01*
X7380Y-14597D01*
X7380Y-14602D01*
X7078Y-14602D01*
X7068Y-14577D01*
X7034Y-14544D01*
X6991Y-14526D01*
X6944Y-14526D01*
X6708Y-14526D01*
X6665Y-14544D01*
X6631Y-14577D01*
X6613Y-14620D01*
X6613Y-14667D01*
X6613Y-14824D01*
X6618Y-14835D01*
X6548Y-14806D01*
X6451Y-14806D01*
X6362Y-14843D01*
X6294Y-14912D01*
X6256Y-15001D01*
X6256Y-15098D01*
X6293Y-15187D01*
X6362Y-15255D01*
X6451Y-15293D01*
X6548Y-15293D01*
X6637Y-15256D01*
X6648Y-15245D01*
X6654Y-15245D01*
X6659Y-15250D01*
X6631Y-15277D01*
X6613Y-15320D01*
X6613Y-15367D01*
X6613Y-15524D01*
X6631Y-15568D01*
X6648Y-15584D01*
X6613Y-15619D01*
X6592Y-15670D01*
X6592Y-15731D01*
X6627Y-15766D01*
X6839Y-15766D01*
X6839Y-15758D01*
X6860Y-15758D01*
X6860Y-15766D01*
X6868Y-15766D01*
X6868Y-15787D01*
X6860Y-15787D01*
X6860Y-15960D01*
X6895Y-15994D01*
X6940Y-15994D01*
X6995Y-15994D01*
X7047Y-15973D01*
X7055Y-15964D01*
X7055Y-16024D01*
X7073Y-16067D01*
X7107Y-16101D01*
X7150Y-16119D01*
X7197Y-16119D01*
X7202Y-16119D01*
X7202Y-16911D01*
X7214Y-16971D01*
X7249Y-17022D01*
X7283Y-17056D01*
X7276Y-17056D01*
X7155Y-17056D01*
X6994Y-16895D01*
X7005Y-16884D01*
X7023Y-16841D01*
X7023Y-16794D01*
X7023Y-16558D01*
X7005Y-16515D01*
X6972Y-16481D01*
X6929Y-16463D01*
X6882Y-16463D01*
X6839Y-16463D01*
X6839Y-15960D01*
X6839Y-15787D01*
X6627Y-15787D01*
X6592Y-15822D01*
X6592Y-15883D01*
X6613Y-15934D01*
X6652Y-15973D01*
X6704Y-15994D01*
X6759Y-15994D01*
X6804Y-15994D01*
X6839Y-15960D01*
X6839Y-16463D01*
X6725Y-16463D01*
X6681Y-16481D01*
X6665Y-16498D01*
X6630Y-16463D01*
X6579Y-16442D01*
X6518Y-16442D01*
X6483Y-16477D01*
X6483Y-16689D01*
X6491Y-16689D01*
X6491Y-16710D01*
X6483Y-16710D01*
X6483Y-16922D01*
X6518Y-16957D01*
X6579Y-16957D01*
X6630Y-16936D01*
X6665Y-16901D01*
X6668Y-16905D01*
X6668Y-16952D01*
X6680Y-17012D01*
X6715Y-17063D01*
X6881Y-17230D01*
X6881Y-17398D01*
X6899Y-17441D01*
X6933Y-17475D01*
X6976Y-17493D01*
X7023Y-17493D01*
X7323Y-17493D01*
X7366Y-17475D01*
X7400Y-17441D01*
X7418Y-17398D01*
X7418Y-17351D01*
X7418Y-17191D01*
X7888Y-17661D01*
X7888Y-17661D01*
X7939Y-17696D01*
X8000Y-17708D01*
X9150Y-17708D01*
X9210Y-17696D01*
X9210Y-17696D01*
X9261Y-17661D01*
X9664Y-17258D01*
X9712Y-17305D01*
X9801Y-17343D01*
X9855Y-17343D01*
X9963Y-17451D01*
X9963Y-17524D01*
X9981Y-17568D01*
X10013Y-17600D01*
X9981Y-17631D01*
X9963Y-17674D01*
X9963Y-17721D01*
X9963Y-17878D01*
X9981Y-17922D01*
X10015Y-17955D01*
X10031Y-17962D01*
X10031Y-18299D01*
X10031Y-18300D01*
X10044Y-18364D01*
X10081Y-18418D01*
X10361Y-18699D01*
X10361Y-18699D01*
X10416Y-18736D01*
X10480Y-18748D01*
X10533Y-18748D01*
X10533Y-18771D01*
X10550Y-18814D01*
X10584Y-18848D01*
X10627Y-18866D01*
X10674Y-18866D01*
X10735Y-18866D01*
X10735Y-18928D01*
X10727Y-18931D01*
X10699Y-18959D01*
X10672Y-18931D01*
X10629Y-18913D01*
X10582Y-18913D01*
X10425Y-18913D01*
X10381Y-18931D01*
X10365Y-18948D01*
X10330Y-18913D01*
X10279Y-18892D01*
X10218Y-18892D01*
X10183Y-18927D01*
X10183Y-19139D01*
X10191Y-19139D01*
X10191Y-19160D01*
X10183Y-19160D01*
X10183Y-19372D01*
X10186Y-19375D01*
X10183Y-19377D01*
X10183Y-19589D01*
X10191Y-19589D01*
X10191Y-19610D01*
X10183Y-19610D01*
X10183Y-19822D01*
X10218Y-19857D01*
X10279Y-19857D01*
X10330Y-19836D01*
X10358Y-19807D01*
X10358Y-19947D01*
X10344Y-19962D01*
X10306Y-20051D01*
X10306Y-20148D01*
X10343Y-20237D01*
X10412Y-20305D01*
X10501Y-20343D01*
X10598Y-20343D01*
X10687Y-20306D01*
X10755Y-20237D01*
X10793Y-20148D01*
X10793Y-20051D01*
X10756Y-19962D01*
X10695Y-19901D01*
X10695Y-19795D01*
X10705Y-19784D01*
X10723Y-19741D01*
X10723Y-19694D01*
X10723Y-19638D01*
X10743Y-19687D01*
X10812Y-19755D01*
X10901Y-19793D01*
X10998Y-19793D01*
X11087Y-19756D01*
X11155Y-19687D01*
X11193Y-19598D01*
X11193Y-19501D01*
X11156Y-19412D01*
X11129Y-19386D01*
X11171Y-19386D01*
X11328Y-19386D01*
X11372Y-19368D01*
X11405Y-19334D01*
X11423Y-19291D01*
X11423Y-19244D01*
X11423Y-19008D01*
X11405Y-18965D01*
X11372Y-18931D01*
X11329Y-18913D01*
X11282Y-18913D01*
X11268Y-18913D01*
X11268Y-18870D01*
X11286Y-18852D01*
X11286Y-18591D01*
X11278Y-18591D01*
X11278Y-18570D01*
X11286Y-18570D01*
X11286Y-18562D01*
X11307Y-18562D01*
X11307Y-18570D01*
X11315Y-18570D01*
X11315Y-18591D01*
X11307Y-18591D01*
X11307Y-18852D01*
X11342Y-18887D01*
X11379Y-18887D01*
X11430Y-18866D01*
X11430Y-18866D01*
X11461Y-18866D01*
X11572Y-18866D01*
X11615Y-18848D01*
X11648Y-18815D01*
X11666Y-18771D01*
X11666Y-18748D01*
X11679Y-18748D01*
X11694Y-18784D01*
X11704Y-18795D01*
X11704Y-18954D01*
X11694Y-18965D01*
X11676Y-19008D01*
X11676Y-19055D01*
X11676Y-19291D01*
X11694Y-19334D01*
X11727Y-19368D01*
X11770Y-19386D01*
X11817Y-19386D01*
X11974Y-19386D01*
X12018Y-19368D01*
X12034Y-19351D01*
X12069Y-19386D01*
X12120Y-19407D01*
X12181Y-19407D01*
X12216Y-19372D01*
X12216Y-19160D01*
X12208Y-19160D01*
X12208Y-19139D01*
X12216Y-19139D01*
X12216Y-18927D01*
X12181Y-18892D01*
X12120Y-18892D01*
X12069Y-18913D01*
X12041Y-18942D01*
X12041Y-18795D01*
X12050Y-18786D01*
X12081Y-18818D01*
X12124Y-18836D01*
X12171Y-18836D01*
X12328Y-18836D01*
X12372Y-18818D01*
X12405Y-18784D01*
X12412Y-18768D01*
X12430Y-18768D01*
X12431Y-18769D01*
X12431Y-18774D01*
X12394Y-18812D01*
X12356Y-18901D01*
X12356Y-18902D01*
X12333Y-18892D01*
X12272Y-18892D01*
X12237Y-18927D01*
X12237Y-19139D01*
X12410Y-19139D01*
X12427Y-19121D01*
X12462Y-19155D01*
X12551Y-19193D01*
X12648Y-19193D01*
X12691Y-19175D01*
X12691Y-19398D01*
X12687Y-19394D01*
X12598Y-19356D01*
X12501Y-19356D01*
X12444Y-19380D01*
X12444Y-19240D01*
X12444Y-19195D01*
X12410Y-19160D01*
X12237Y-19160D01*
X12237Y-19372D01*
X12272Y-19407D01*
X12333Y-19407D01*
X12384Y-19386D01*
X12423Y-19347D01*
X12444Y-19295D01*
X12444Y-19240D01*
X12444Y-19380D01*
X12412Y-19393D01*
X12344Y-19462D01*
X12306Y-19551D01*
X12306Y-19619D01*
X11788Y-20138D01*
X11753Y-20189D01*
X11741Y-20250D01*
X11741Y-20497D01*
X11734Y-20501D01*
X11651Y-20583D01*
X11650Y-20587D01*
X11648Y-20584D01*
X11566Y-20501D01*
X11458Y-20456D01*
X11341Y-20456D01*
X11234Y-20501D01*
X11165Y-20570D01*
X11109Y-20555D01*
X11094Y-20570D01*
X11094Y-20540D01*
X11079Y-20484D01*
X10964Y-20435D01*
X10839Y-20435D01*
X10723Y-20482D01*
X10720Y-20484D01*
X10705Y-20540D01*
X10900Y-20734D01*
X11094Y-20540D01*
X11094Y-20570D01*
X10915Y-20750D01*
X11109Y-20944D01*
X11165Y-20929D01*
X11233Y-20998D01*
X11341Y-21043D01*
X11458Y-21043D01*
X11565Y-20998D01*
X11648Y-20916D01*
X11649Y-20912D01*
X11651Y-20915D01*
X11733Y-20998D01*
X11841Y-21043D01*
X11958Y-21043D01*
X12065Y-20998D01*
X12148Y-20916D01*
X12149Y-20912D01*
X12151Y-20915D01*
X12233Y-20998D01*
X12341Y-21043D01*
X12458Y-21043D01*
X12565Y-20998D01*
X12648Y-20916D01*
X12693Y-20808D01*
X12693Y-20691D01*
X12689Y-20683D01*
X12961Y-20411D01*
X12996Y-20360D01*
X12996Y-20360D01*
X13008Y-20300D01*
X13008Y-19825D01*
X13051Y-19843D01*
X13148Y-19843D01*
X13237Y-19806D01*
X13305Y-19737D01*
X13343Y-19648D01*
X13343Y-19551D01*
X13306Y-19462D01*
X13237Y-19394D01*
X13208Y-19381D01*
X13208Y-17801D01*
X13212Y-17805D01*
X13301Y-17843D01*
X13398Y-17843D01*
X13487Y-17806D01*
X13555Y-17737D01*
X13593Y-17648D01*
X13593Y-17551D01*
X13556Y-17462D01*
X13487Y-17394D01*
X13398Y-17356D01*
X13301Y-17356D01*
X13212Y-17393D01*
X13208Y-17398D01*
X13208Y-14800D01*
X13196Y-14739D01*
X13196Y-14739D01*
X13161Y-14688D01*
X12517Y-14043D01*
X13970Y-14043D01*
X14056Y-14130D01*
X14056Y-14198D01*
X14093Y-14287D01*
X14162Y-14355D01*
X14251Y-14393D01*
X14348Y-14393D01*
X14437Y-14356D01*
X14505Y-14287D01*
X14543Y-14198D01*
X14543Y-14101D01*
X14506Y-14012D01*
X14437Y-13944D01*
X14348Y-13906D01*
X14280Y-13906D01*
X14220Y-13847D01*
X14411Y-13847D01*
X14471Y-13835D01*
X14471Y-13835D01*
X14522Y-13800D01*
X15611Y-12711D01*
X15611Y-12711D01*
X15646Y-12660D01*
X15658Y-12600D01*
X15658Y-12600D01*
X15658Y-9535D01*
X15705Y-9487D01*
X15743Y-9398D01*
X15743Y-9301D01*
X15743Y-21097D01*
X15206Y-21097D01*
X15206Y-20861D01*
X15206Y-20191D01*
X15188Y-20148D01*
X15155Y-20115D01*
X15111Y-20097D01*
X15064Y-20097D01*
X14749Y-20097D01*
X14743Y-20099D01*
X14743Y-19051D01*
X14706Y-18962D01*
X14637Y-18894D01*
X14548Y-18856D01*
X14451Y-18856D01*
X14362Y-18893D01*
X14294Y-18962D01*
X14256Y-19051D01*
X14256Y-19148D01*
X14293Y-19237D01*
X14362Y-19305D01*
X14451Y-19343D01*
X14548Y-19343D01*
X14637Y-19306D01*
X14705Y-19237D01*
X14743Y-19148D01*
X14743Y-19051D01*
X14743Y-20099D01*
X14706Y-20115D01*
X14673Y-20148D01*
X14655Y-20191D01*
X14655Y-20238D01*
X14655Y-20391D01*
X14335Y-20391D01*
X14287Y-20344D01*
X14198Y-20306D01*
X14166Y-20306D01*
X14166Y-18274D01*
X14129Y-18185D01*
X14060Y-18117D01*
X13971Y-18079D01*
X13874Y-18079D01*
X13785Y-18116D01*
X13717Y-18185D01*
X13679Y-18274D01*
X13679Y-18371D01*
X13716Y-18460D01*
X13785Y-18528D01*
X13874Y-18566D01*
X13971Y-18566D01*
X14060Y-18529D01*
X14128Y-18460D01*
X14166Y-18371D01*
X14166Y-18274D01*
X14166Y-20306D01*
X14101Y-20306D01*
X14012Y-20343D01*
X13944Y-20412D01*
X13906Y-20501D01*
X13906Y-20598D01*
X13943Y-20687D01*
X14012Y-20755D01*
X14101Y-20793D01*
X14198Y-20793D01*
X14287Y-20756D01*
X14335Y-20708D01*
X14655Y-20708D01*
X14655Y-20908D01*
X14673Y-20951D01*
X14706Y-20984D01*
X14749Y-21002D01*
X14796Y-21002D01*
X15111Y-21002D01*
X15155Y-20984D01*
X15188Y-20951D01*
X15206Y-20908D01*
X15206Y-20861D01*
X15206Y-21097D01*
X11094Y-21097D01*
X11094Y-20959D01*
X10900Y-20765D01*
X10884Y-20780D01*
X10884Y-20750D01*
X10690Y-20555D01*
X10634Y-20570D01*
X10585Y-20685D01*
X10585Y-20810D01*
X10632Y-20926D01*
X10634Y-20929D01*
X10690Y-20944D01*
X10884Y-20750D01*
X10884Y-20780D01*
X10705Y-20959D01*
X10720Y-21015D01*
X10835Y-21064D01*
X10960Y-21064D01*
X11076Y-21017D01*
X11079Y-21015D01*
X11094Y-20959D01*
X11094Y-21097D01*
X10162Y-21097D01*
X10162Y-19822D01*
X10162Y-19610D01*
X10162Y-19589D01*
X10162Y-19377D01*
X10159Y-19375D01*
X10162Y-19372D01*
X10162Y-19160D01*
X10162Y-19139D01*
X10162Y-18927D01*
X10127Y-18892D01*
X10066Y-18892D01*
X10015Y-18913D01*
X9976Y-18952D01*
X9955Y-19004D01*
X9955Y-19059D01*
X9955Y-19104D01*
X9989Y-19139D01*
X10162Y-19139D01*
X10162Y-19160D01*
X9989Y-19160D01*
X9955Y-19195D01*
X9955Y-19240D01*
X9955Y-19295D01*
X9976Y-19347D01*
X10004Y-19375D01*
X9976Y-19402D01*
X9955Y-19454D01*
X9955Y-19509D01*
X9955Y-19554D01*
X9989Y-19589D01*
X10162Y-19589D01*
X10162Y-19610D01*
X9989Y-19610D01*
X9955Y-19645D01*
X9955Y-19690D01*
X9955Y-19745D01*
X9976Y-19797D01*
X10015Y-19836D01*
X10066Y-19857D01*
X10127Y-19857D01*
X10162Y-19822D01*
X10162Y-21097D01*
X9639Y-21097D01*
X9639Y-20896D01*
X9639Y-20203D01*
X9639Y-20148D01*
X9618Y-20096D01*
X9579Y-20057D01*
X9527Y-20036D01*
X9423Y-20036D01*
X9423Y-19833D01*
X9423Y-19258D01*
X9423Y-19203D01*
X9401Y-19152D01*
X9362Y-19112D01*
X9311Y-19091D01*
X8915Y-19091D01*
X8881Y-19126D01*
X8881Y-19535D01*
X9388Y-19535D01*
X9423Y-19500D01*
X9423Y-19258D01*
X9423Y-19833D01*
X9423Y-19591D01*
X9388Y-19556D01*
X8881Y-19556D01*
X8881Y-19965D01*
X8915Y-20000D01*
X9311Y-20000D01*
X9362Y-19979D01*
X9401Y-19940D01*
X9423Y-19888D01*
X9423Y-19833D01*
X9423Y-20036D01*
X9191Y-20036D01*
X9156Y-20071D01*
X9156Y-20539D01*
X9604Y-20539D01*
X9639Y-20504D01*
X9639Y-20203D01*
X9639Y-20896D01*
X9639Y-20595D01*
X9604Y-20560D01*
X9156Y-20560D01*
X9156Y-21028D01*
X9191Y-21063D01*
X9527Y-21063D01*
X9579Y-21042D01*
X9618Y-21003D01*
X9639Y-20951D01*
X9639Y-20896D01*
X9639Y-21097D01*
X9135Y-21097D01*
X9135Y-21028D01*
X9135Y-20560D01*
X9135Y-20539D01*
X9135Y-20071D01*
X9100Y-20036D01*
X8859Y-20036D01*
X8859Y-19965D01*
X8859Y-19556D01*
X8851Y-19556D01*
X8851Y-19535D01*
X8859Y-19535D01*
X8859Y-19126D01*
X8825Y-19091D01*
X8429Y-19091D01*
X8378Y-19112D01*
X8348Y-19142D01*
X8319Y-19112D01*
X8268Y-19091D01*
X8207Y-19091D01*
X8172Y-19126D01*
X8172Y-19486D01*
X8180Y-19486D01*
X8180Y-19507D01*
X8172Y-19507D01*
X8172Y-19867D01*
X8207Y-19901D01*
X8268Y-19901D01*
X8317Y-19881D01*
X8317Y-19888D01*
X8339Y-19940D01*
X8378Y-19979D01*
X8429Y-20000D01*
X8825Y-20000D01*
X8859Y-19965D01*
X8859Y-20036D01*
X8764Y-20036D01*
X8712Y-20057D01*
X8673Y-20096D01*
X8652Y-20148D01*
X8652Y-20203D01*
X8652Y-20504D01*
X8687Y-20539D01*
X9135Y-20539D01*
X9135Y-20560D01*
X8687Y-20560D01*
X8652Y-20595D01*
X8652Y-20896D01*
X8652Y-20951D01*
X8673Y-21003D01*
X8712Y-21042D01*
X8764Y-21063D01*
X9100Y-21063D01*
X9135Y-21028D01*
X9135Y-21097D01*
X8635Y-21097D01*
X8635Y-20896D01*
X8635Y-20203D01*
X8635Y-20148D01*
X8614Y-20096D01*
X8575Y-20057D01*
X8524Y-20036D01*
X8167Y-20036D01*
X8151Y-20053D01*
X8151Y-19867D01*
X8151Y-19507D01*
X8143Y-19507D01*
X8143Y-19486D01*
X8151Y-19486D01*
X8151Y-19126D01*
X8144Y-19120D01*
X8144Y-18090D01*
X8144Y-17909D01*
X8144Y-17854D01*
X8123Y-17802D01*
X8084Y-17763D01*
X8033Y-17742D01*
X7972Y-17742D01*
X7937Y-17777D01*
X7937Y-17989D01*
X8110Y-17989D01*
X8144Y-17954D01*
X8144Y-17909D01*
X8144Y-18090D01*
X8144Y-18045D01*
X8110Y-18010D01*
X7937Y-18010D01*
X7937Y-18222D01*
X7972Y-18257D01*
X8033Y-18257D01*
X8084Y-18236D01*
X8123Y-18197D01*
X8144Y-18145D01*
X8144Y-18090D01*
X8144Y-19120D01*
X8116Y-19091D01*
X8055Y-19091D01*
X8004Y-19112D01*
X8004Y-19113D01*
X7961Y-19112D01*
X7803Y-19112D01*
X7777Y-19123D01*
X7752Y-19113D01*
X7705Y-19112D01*
X7547Y-19112D01*
X7522Y-19123D01*
X7496Y-19113D01*
X7449Y-19112D01*
X7318Y-19112D01*
X7318Y-18243D01*
X7323Y-18243D01*
X7366Y-18225D01*
X7400Y-18191D01*
X7400Y-18190D01*
X7427Y-18218D01*
X7470Y-18236D01*
X7517Y-18236D01*
X7674Y-18236D01*
X7718Y-18218D01*
X7734Y-18201D01*
X7769Y-18236D01*
X7820Y-18257D01*
X7881Y-18257D01*
X7916Y-18222D01*
X7916Y-18010D01*
X7908Y-18010D01*
X7908Y-17989D01*
X7916Y-17989D01*
X7916Y-17777D01*
X7881Y-17742D01*
X7820Y-17742D01*
X7769Y-17763D01*
X7734Y-17798D01*
X7718Y-17781D01*
X7675Y-17763D01*
X7628Y-17763D01*
X7471Y-17763D01*
X7427Y-17781D01*
X7394Y-17815D01*
X7387Y-17831D01*
X7373Y-17831D01*
X7366Y-17824D01*
X7323Y-17806D01*
X7276Y-17806D01*
X6976Y-17806D01*
X6943Y-17820D01*
X6943Y-17601D01*
X6906Y-17512D01*
X6837Y-17444D01*
X6748Y-17406D01*
X6651Y-17406D01*
X6562Y-17443D01*
X6494Y-17512D01*
X6462Y-17588D01*
X6462Y-16922D01*
X6462Y-16710D01*
X6462Y-16689D01*
X6462Y-16477D01*
X6427Y-16442D01*
X6366Y-16442D01*
X6315Y-16463D01*
X6276Y-16502D01*
X6255Y-16554D01*
X6255Y-16609D01*
X6255Y-16654D01*
X6289Y-16689D01*
X6462Y-16689D01*
X6462Y-16710D01*
X6289Y-16710D01*
X6255Y-16745D01*
X6255Y-16790D01*
X6255Y-16845D01*
X6276Y-16897D01*
X6315Y-16936D01*
X6366Y-16957D01*
X6427Y-16957D01*
X6462Y-16922D01*
X6462Y-17588D01*
X6456Y-17601D01*
X6456Y-17655D01*
X6439Y-17672D01*
X6439Y-17522D01*
X6418Y-17471D01*
X6394Y-17447D01*
X6400Y-17441D01*
X6418Y-17398D01*
X6418Y-17351D01*
X6418Y-17151D01*
X6400Y-17108D01*
X6366Y-17074D01*
X6323Y-17056D01*
X6276Y-17056D01*
X5976Y-17056D01*
X5933Y-17074D01*
X5899Y-17108D01*
X5881Y-17151D01*
X5881Y-17198D01*
X5881Y-17398D01*
X5899Y-17441D01*
X5905Y-17447D01*
X5881Y-17471D01*
X5860Y-17522D01*
X5860Y-17604D01*
X5895Y-17639D01*
X6139Y-17639D01*
X6139Y-17631D01*
X6160Y-17631D01*
X6160Y-17639D01*
X6404Y-17639D01*
X6439Y-17604D01*
X6439Y-17522D01*
X6439Y-17672D01*
X6428Y-17684D01*
X6404Y-17660D01*
X6160Y-17660D01*
X6160Y-17668D01*
X6139Y-17668D01*
X6139Y-17660D01*
X5895Y-17660D01*
X5860Y-17695D01*
X5860Y-17777D01*
X5881Y-17828D01*
X5905Y-17852D01*
X5899Y-17858D01*
X5881Y-17901D01*
X5881Y-17948D01*
X5881Y-18148D01*
X5899Y-18191D01*
X5933Y-18225D01*
X5976Y-18243D01*
X6017Y-18243D01*
X5983Y-18277D01*
X5983Y-18489D01*
X5991Y-18489D01*
X5991Y-18510D01*
X5983Y-18510D01*
X5983Y-18722D01*
X6018Y-18757D01*
X6079Y-18757D01*
X6130Y-18736D01*
X6165Y-18701D01*
X6181Y-18718D01*
X6224Y-18736D01*
X6271Y-18736D01*
X6428Y-18736D01*
X6472Y-18718D01*
X6505Y-18684D01*
X6523Y-18641D01*
X6523Y-18594D01*
X6523Y-18358D01*
X6505Y-18315D01*
X6495Y-18304D01*
X6495Y-18202D01*
X6482Y-18137D01*
X6469Y-18118D01*
X6694Y-17893D01*
X6748Y-17893D01*
X6837Y-17856D01*
X6905Y-17787D01*
X6943Y-17698D01*
X6943Y-17601D01*
X6943Y-17820D01*
X6933Y-17824D01*
X6899Y-17858D01*
X6881Y-17901D01*
X6881Y-17948D01*
X6881Y-18148D01*
X6899Y-18191D01*
X6933Y-18225D01*
X6976Y-18243D01*
X6981Y-18243D01*
X6981Y-19141D01*
X6964Y-19159D01*
X6960Y-19152D01*
X6921Y-19112D01*
X6870Y-19091D01*
X6475Y-19091D01*
X6440Y-19126D01*
X6440Y-19535D01*
X6448Y-19535D01*
X6448Y-19556D01*
X6440Y-19556D01*
X6440Y-19965D01*
X6475Y-20000D01*
X6870Y-20000D01*
X6921Y-19979D01*
X6960Y-19940D01*
X6982Y-19888D01*
X6982Y-19852D01*
X6992Y-19862D01*
X7035Y-19880D01*
X7082Y-19880D01*
X7240Y-19880D01*
X7266Y-19870D01*
X7291Y-19880D01*
X7338Y-19880D01*
X7496Y-19880D01*
X7522Y-19870D01*
X7547Y-19880D01*
X7594Y-19880D01*
X7752Y-19880D01*
X7777Y-19870D01*
X7803Y-19880D01*
X7850Y-19880D01*
X8004Y-19880D01*
X8004Y-19880D01*
X8055Y-19901D01*
X8116Y-19901D01*
X8151Y-19867D01*
X8151Y-20053D01*
X8133Y-20071D01*
X8133Y-20539D01*
X8600Y-20539D01*
X8635Y-20504D01*
X8635Y-20203D01*
X8635Y-20896D01*
X8635Y-20595D01*
X8600Y-20560D01*
X8133Y-20560D01*
X8133Y-21028D01*
X8167Y-21063D01*
X8524Y-21063D01*
X8575Y-21042D01*
X8614Y-21003D01*
X8635Y-20951D01*
X8635Y-20896D01*
X8635Y-21097D01*
X8111Y-21097D01*
X8111Y-21028D01*
X8111Y-20560D01*
X8111Y-20539D01*
X8111Y-20071D01*
X8076Y-20036D01*
X7720Y-20036D01*
X7669Y-20057D01*
X7650Y-20077D01*
X7630Y-20057D01*
X7579Y-20036D01*
X7223Y-20036D01*
X7188Y-20071D01*
X7188Y-20539D01*
X7643Y-20539D01*
X7656Y-20539D01*
X8111Y-20539D01*
X8111Y-20560D01*
X7656Y-20560D01*
X7643Y-20560D01*
X7188Y-20560D01*
X7188Y-21028D01*
X7223Y-21063D01*
X7579Y-21063D01*
X7630Y-21042D01*
X7650Y-21022D01*
X7669Y-21042D01*
X7720Y-21063D01*
X8076Y-21063D01*
X8111Y-21028D01*
X8111Y-21097D01*
X7166Y-21097D01*
X7166Y-21028D01*
X7166Y-20560D01*
X7166Y-20539D01*
X7166Y-20071D01*
X7132Y-20036D01*
X6775Y-20036D01*
X6724Y-20057D01*
X6685Y-20096D01*
X6664Y-20148D01*
X6664Y-20203D01*
X6664Y-20504D01*
X6699Y-20539D01*
X7166Y-20539D01*
X7166Y-20560D01*
X6699Y-20560D01*
X6664Y-20595D01*
X6664Y-20896D01*
X6664Y-20951D01*
X6685Y-21003D01*
X6724Y-21042D01*
X6775Y-21063D01*
X7132Y-21063D01*
X7166Y-21028D01*
X7166Y-21097D01*
X6647Y-21097D01*
X6647Y-20896D01*
X6647Y-20203D01*
X6647Y-20148D01*
X6626Y-20096D01*
X6587Y-20057D01*
X6535Y-20036D01*
X6418Y-20036D01*
X6418Y-19965D01*
X6418Y-19556D01*
X6418Y-19535D01*
X6418Y-19126D01*
X6384Y-19091D01*
X5988Y-19091D01*
X5962Y-19102D01*
X5962Y-18722D01*
X5962Y-18510D01*
X5962Y-18489D01*
X5962Y-18277D01*
X5927Y-18242D01*
X5866Y-18242D01*
X5815Y-18263D01*
X5776Y-18302D01*
X5755Y-18354D01*
X5755Y-18409D01*
X5755Y-18454D01*
X5789Y-18489D01*
X5962Y-18489D01*
X5962Y-18510D01*
X5789Y-18510D01*
X5755Y-18545D01*
X5755Y-18590D01*
X5755Y-18645D01*
X5776Y-18697D01*
X5815Y-18736D01*
X5866Y-18757D01*
X5927Y-18757D01*
X5962Y-18722D01*
X5962Y-19102D01*
X5937Y-19112D01*
X5898Y-19152D01*
X5876Y-19203D01*
X5876Y-19258D01*
X5876Y-19500D01*
X5911Y-19535D01*
X6418Y-19535D01*
X6418Y-19556D01*
X5911Y-19556D01*
X5876Y-19591D01*
X5876Y-19833D01*
X5876Y-19888D01*
X5898Y-19940D01*
X5937Y-19979D01*
X5988Y-20000D01*
X6384Y-20000D01*
X6418Y-19965D01*
X6418Y-20036D01*
X6199Y-20036D01*
X6164Y-20071D01*
X6164Y-20539D01*
X6612Y-20539D01*
X6647Y-20504D01*
X6647Y-20203D01*
X6647Y-20896D01*
X6647Y-20595D01*
X6612Y-20560D01*
X6164Y-20560D01*
X6164Y-21028D01*
X6199Y-21063D01*
X6535Y-21063D01*
X6587Y-21042D01*
X6626Y-21003D01*
X6647Y-20951D01*
X6647Y-20896D01*
X6647Y-21097D01*
X6143Y-21097D01*
X6143Y-21028D01*
X6143Y-20560D01*
X6143Y-20539D01*
X6143Y-20071D01*
X6108Y-20036D01*
X5772Y-20036D01*
X5720Y-20057D01*
X5681Y-20096D01*
X5660Y-20148D01*
X5660Y-20203D01*
X5660Y-20504D01*
X5695Y-20539D01*
X6143Y-20539D01*
X6143Y-20560D01*
X5695Y-20560D01*
X5660Y-20595D01*
X5660Y-20896D01*
X5660Y-20951D01*
X5681Y-21003D01*
X5720Y-21042D01*
X5772Y-21063D01*
X6108Y-21063D01*
X6143Y-21028D01*
X6143Y-21097D01*
X5649Y-21097D01*
X5649Y-5649D01*
X11256Y-5649D01*
X11244Y-5662D01*
X11206Y-5751D01*
X11206Y-5848D01*
X11226Y-5895D01*
X11218Y-5898D01*
X11192Y-5888D01*
X11145Y-5888D01*
X11014Y-5888D01*
X10963Y-5853D01*
X10902Y-5841D01*
X10385Y-5841D01*
X10337Y-5794D01*
X10248Y-5756D01*
X10151Y-5756D01*
X10062Y-5793D01*
X9994Y-5862D01*
X9956Y-5951D01*
X9956Y-6048D01*
X9993Y-6137D01*
X10062Y-6205D01*
X10151Y-6243D01*
X10202Y-6243D01*
X10192Y-6266D01*
X10192Y-6327D01*
X10227Y-6362D01*
X10439Y-6362D01*
X10439Y-6354D01*
X10460Y-6354D01*
X10460Y-6362D01*
X10672Y-6362D01*
X10707Y-6327D01*
X10707Y-6266D01*
X10686Y-6215D01*
X10647Y-6176D01*
X10602Y-6158D01*
X10767Y-6158D01*
X10767Y-6265D01*
X10785Y-6309D01*
X10818Y-6342D01*
X10861Y-6360D01*
X10908Y-6360D01*
X11192Y-6360D01*
X11218Y-6349D01*
X11243Y-6360D01*
X11290Y-6360D01*
X11574Y-6360D01*
X11600Y-6349D01*
X11625Y-6360D01*
X11672Y-6360D01*
X11956Y-6360D01*
X11981Y-6349D01*
X12007Y-6360D01*
X12054Y-6360D01*
X12337Y-6360D01*
X12381Y-6342D01*
X12414Y-6309D01*
X12432Y-6266D01*
X12432Y-6219D01*
X12432Y-5982D01*
X12414Y-5939D01*
X12381Y-5906D01*
X12338Y-5888D01*
X12291Y-5888D01*
X12007Y-5888D01*
X11981Y-5898D01*
X11956Y-5888D01*
X11909Y-5888D01*
X11676Y-5888D01*
X11693Y-5848D01*
X11693Y-5751D01*
X11656Y-5662D01*
X11643Y-5649D01*
X17185Y-5649D01*
X17185Y-10710D01*
X16893Y-10710D01*
X16893Y-6951D01*
X16856Y-6862D01*
X16787Y-6794D01*
X16698Y-6756D01*
X16601Y-6756D01*
X16512Y-6793D01*
X16444Y-6862D01*
X16406Y-6951D01*
X16406Y-7048D01*
X16443Y-7137D01*
X16512Y-7205D01*
X16601Y-7243D01*
X16698Y-7243D01*
X16787Y-7206D01*
X16855Y-7137D01*
X16893Y-7048D01*
X16893Y-6951D01*
X16893Y-10710D01*
X16643Y-10710D01*
X16643Y-8451D01*
X16606Y-8362D01*
X16537Y-8294D01*
X16448Y-8256D01*
X16351Y-8256D01*
X16293Y-8281D01*
X16293Y-5901D01*
X16256Y-5812D01*
X16187Y-5744D01*
X16098Y-5706D01*
X16001Y-5706D01*
X15912Y-5743D01*
X15844Y-5812D01*
X15842Y-5814D01*
X15505Y-5814D01*
X15484Y-5794D01*
X15441Y-5776D01*
X15394Y-5776D01*
X15158Y-5776D01*
X15115Y-5794D01*
X15094Y-5814D01*
X15005Y-5814D01*
X14984Y-5794D01*
X14941Y-5776D01*
X14894Y-5776D01*
X14658Y-5776D01*
X14615Y-5794D01*
X14581Y-5827D01*
X14563Y-5870D01*
X14563Y-5917D01*
X14563Y-6074D01*
X14581Y-6118D01*
X14598Y-6134D01*
X14563Y-6169D01*
X14542Y-6220D01*
X14542Y-6281D01*
X14577Y-6316D01*
X14789Y-6316D01*
X14789Y-6308D01*
X14810Y-6308D01*
X14810Y-6316D01*
X15022Y-6316D01*
X15057Y-6281D01*
X15057Y-6220D01*
X15036Y-6169D01*
X15001Y-6134D01*
X15005Y-6131D01*
X15094Y-6131D01*
X15113Y-6150D01*
X15081Y-6181D01*
X15063Y-6224D01*
X15063Y-6271D01*
X15063Y-6428D01*
X15081Y-6472D01*
X15115Y-6505D01*
X15141Y-6516D01*
X15141Y-6700D01*
X15153Y-6760D01*
X15188Y-6811D01*
X15256Y-6880D01*
X15256Y-6948D01*
X15293Y-7037D01*
X15362Y-7105D01*
X15451Y-7143D01*
X15548Y-7143D01*
X15637Y-7106D01*
X15705Y-7037D01*
X15743Y-6948D01*
X15743Y-6851D01*
X15706Y-6762D01*
X15637Y-6694D01*
X15548Y-6656D01*
X15480Y-6656D01*
X15458Y-6634D01*
X15458Y-6516D01*
X15484Y-6505D01*
X15518Y-6472D01*
X15536Y-6429D01*
X15536Y-6382D01*
X15536Y-6225D01*
X15518Y-6181D01*
X15486Y-6149D01*
X15505Y-6131D01*
X15887Y-6131D01*
X15912Y-6155D01*
X16001Y-6193D01*
X16098Y-6193D01*
X16187Y-6156D01*
X16255Y-6087D01*
X16293Y-5998D01*
X16293Y-5901D01*
X16293Y-8281D01*
X16262Y-8293D01*
X16194Y-8362D01*
X16192Y-8364D01*
X16152Y-8364D01*
X16152Y-8214D01*
X16152Y-7938D01*
X16152Y-7348D01*
X16134Y-7304D01*
X16101Y-7271D01*
X16058Y-7253D01*
X16011Y-7253D01*
X15341Y-7253D01*
X15298Y-7271D01*
X15265Y-7304D01*
X15247Y-7348D01*
X15247Y-7395D01*
X15247Y-7985D01*
X15265Y-8029D01*
X15298Y-8062D01*
X15341Y-8080D01*
X15388Y-8080D01*
X16058Y-8080D01*
X16101Y-8062D01*
X16134Y-8029D01*
X16152Y-7985D01*
X16152Y-7938D01*
X16152Y-8214D01*
X16134Y-8170D01*
X16101Y-8137D01*
X16058Y-8119D01*
X16011Y-8119D01*
X15341Y-8119D01*
X15298Y-8137D01*
X15265Y-8170D01*
X15247Y-8214D01*
X15247Y-8261D01*
X15247Y-8851D01*
X15265Y-8895D01*
X15298Y-8928D01*
X15341Y-8946D01*
X15388Y-8946D01*
X16058Y-8946D01*
X16101Y-8928D01*
X16134Y-8895D01*
X16152Y-8851D01*
X16152Y-8804D01*
X16152Y-8701D01*
X16257Y-8701D01*
X16262Y-8705D01*
X16351Y-8743D01*
X16448Y-8743D01*
X16537Y-8706D01*
X16605Y-8637D01*
X16643Y-8548D01*
X16643Y-8451D01*
X16643Y-10710D01*
X15910Y-10710D01*
X15910Y-14789D01*
X17185Y-14789D01*
X17185Y-21097D01*
X17185Y-21097D01*
G37*
G54D36*
X17185Y-21097D02*
X17143Y-21097D01*
X17143Y-17351D01*
X17106Y-17262D01*
X17037Y-17194D01*
X16948Y-17156D01*
X16851Y-17156D01*
X16762Y-17193D01*
X16694Y-17262D01*
X16656Y-17351D01*
X16656Y-17448D01*
X16693Y-17537D01*
X16762Y-17605D01*
X16851Y-17643D01*
X16948Y-17643D01*
X17037Y-17606D01*
X17105Y-17537D01*
X17143Y-17448D01*
X17143Y-17351D01*
X17143Y-21097D01*
X17043Y-21097D01*
X17043Y-20301D01*
X17006Y-20212D01*
X16937Y-20144D01*
X16848Y-20106D01*
X16751Y-20106D01*
X16693Y-20131D01*
X16693Y-18851D01*
X16656Y-18762D01*
X16643Y-18749D01*
X16643Y-15901D01*
X16606Y-15812D01*
X16537Y-15744D01*
X16448Y-15706D01*
X16351Y-15706D01*
X16262Y-15743D01*
X16194Y-15812D01*
X16156Y-15901D01*
X16156Y-15998D01*
X16193Y-16087D01*
X16262Y-16155D01*
X16351Y-16193D01*
X16448Y-16193D01*
X16537Y-16156D01*
X16605Y-16087D01*
X16643Y-15998D01*
X16643Y-15901D01*
X16643Y-18749D01*
X16587Y-18694D01*
X16498Y-18656D01*
X16401Y-18656D01*
X16312Y-18693D01*
X16244Y-18762D01*
X16206Y-18851D01*
X16206Y-18948D01*
X16243Y-19037D01*
X16312Y-19105D01*
X16401Y-19143D01*
X16498Y-19143D01*
X16587Y-19106D01*
X16655Y-19037D01*
X16693Y-18948D01*
X16693Y-18851D01*
X16693Y-20131D01*
X16662Y-20143D01*
X16594Y-20212D01*
X16556Y-20301D01*
X16556Y-20355D01*
X16544Y-20367D01*
X16544Y-20191D01*
X16526Y-20148D01*
X16493Y-20115D01*
X16450Y-20097D01*
X16403Y-20097D01*
X16088Y-20097D01*
X16044Y-20115D01*
X16011Y-20148D01*
X15993Y-20191D01*
X15993Y-20238D01*
X15993Y-20908D01*
X16011Y-20951D01*
X16044Y-20984D01*
X16088Y-21002D01*
X16135Y-21002D01*
X16450Y-21002D01*
X16493Y-20984D01*
X16526Y-20951D01*
X16544Y-20908D01*
X16544Y-20861D01*
X16544Y-20718D01*
X16599Y-20718D01*
X16600Y-20718D01*
X16600Y-20718D01*
X16664Y-20705D01*
X16718Y-20668D01*
X16794Y-20593D01*
X16848Y-20593D01*
X16937Y-20556D01*
X17005Y-20487D01*
X17043Y-20398D01*
X17043Y-20301D01*
X17043Y-21097D01*
X15743Y-21097D01*
X15743Y-9301D01*
X15706Y-9212D01*
X15637Y-9144D01*
X15548Y-9106D01*
X15451Y-9106D01*
X15362Y-9143D01*
X15294Y-9212D01*
X15256Y-9301D01*
X15256Y-9398D01*
X15293Y-9487D01*
X15341Y-9535D01*
X15341Y-12534D01*
X14345Y-13530D01*
X14027Y-13530D01*
X14087Y-13506D01*
X14155Y-13437D01*
X14193Y-13348D01*
X14193Y-13251D01*
X14156Y-13162D01*
X14087Y-13094D01*
X13998Y-13056D01*
X13901Y-13056D01*
X13812Y-13093D01*
X13744Y-13162D01*
X13706Y-13251D01*
X13706Y-13291D01*
X13575Y-13291D01*
X13593Y-13248D01*
X13593Y-13151D01*
X13556Y-13062D01*
X13487Y-12994D01*
X13398Y-12956D01*
X13301Y-12956D01*
X13212Y-12993D01*
X13164Y-13041D01*
X12925Y-13041D01*
X12943Y-12998D01*
X12943Y-12901D01*
X12906Y-12812D01*
X12837Y-12744D01*
X12767Y-12714D01*
X12787Y-12706D01*
X12818Y-12675D01*
X12843Y-12737D01*
X12912Y-12805D01*
X13001Y-12843D01*
X13098Y-12843D01*
X13187Y-12806D01*
X13255Y-12737D01*
X13293Y-12648D01*
X13293Y-12551D01*
X13256Y-12462D01*
X13218Y-12424D01*
X13218Y-10969D01*
X13569Y-10618D01*
X14549Y-10618D01*
X14550Y-10618D01*
X14550Y-10618D01*
X14614Y-10605D01*
X14668Y-10568D01*
X15145Y-10091D01*
X15145Y-10091D01*
X15145Y-10091D01*
X15182Y-10037D01*
X15182Y-10037D01*
X15192Y-9985D01*
X15195Y-9973D01*
X15195Y-9973D01*
X15195Y-9973D01*
X15195Y-9845D01*
X15205Y-9834D01*
X15223Y-9791D01*
X15223Y-9744D01*
X15223Y-9508D01*
X15205Y-9465D01*
X15195Y-9454D01*
X15195Y-9395D01*
X15205Y-9384D01*
X15223Y-9341D01*
X15223Y-9294D01*
X15223Y-9058D01*
X15205Y-9015D01*
X15174Y-8983D01*
X15174Y-7934D01*
X15174Y-7399D01*
X15173Y-7343D01*
X15152Y-7292D01*
X15113Y-7253D01*
X15062Y-7232D01*
X15057Y-7232D01*
X15057Y-6433D01*
X15057Y-6372D01*
X15022Y-6337D01*
X14810Y-6337D01*
X14810Y-6510D01*
X14845Y-6544D01*
X14890Y-6544D01*
X14945Y-6544D01*
X14997Y-6523D01*
X15036Y-6484D01*
X15057Y-6433D01*
X15057Y-7232D01*
X14789Y-7232D01*
X14789Y-6510D01*
X14789Y-6337D01*
X14577Y-6337D01*
X14542Y-6372D01*
X14542Y-6433D01*
X14563Y-6484D01*
X14602Y-6523D01*
X14654Y-6544D01*
X14709Y-6544D01*
X14754Y-6544D01*
X14789Y-6510D01*
X14789Y-7232D01*
X14745Y-7232D01*
X14710Y-7267D01*
X14710Y-7656D01*
X15139Y-7656D01*
X15174Y-7621D01*
X15174Y-7399D01*
X15174Y-7934D01*
X15174Y-7712D01*
X15139Y-7677D01*
X14710Y-7677D01*
X14710Y-8066D01*
X14745Y-8101D01*
X15062Y-8101D01*
X15113Y-8080D01*
X15152Y-8041D01*
X15173Y-7990D01*
X15174Y-7934D01*
X15174Y-8983D01*
X15172Y-8981D01*
X15129Y-8963D01*
X15082Y-8963D01*
X14925Y-8963D01*
X14881Y-8981D01*
X14868Y-8995D01*
X14868Y-8946D01*
X15058Y-8946D01*
X15101Y-8928D01*
X15134Y-8895D01*
X15152Y-8851D01*
X15152Y-8804D01*
X15152Y-8214D01*
X15134Y-8170D01*
X15101Y-8137D01*
X15058Y-8119D01*
X15011Y-8119D01*
X14689Y-8119D01*
X14689Y-8066D01*
X14689Y-7677D01*
X14689Y-7656D01*
X14689Y-7267D01*
X14654Y-7232D01*
X14337Y-7232D01*
X14286Y-7253D01*
X14247Y-7292D01*
X14226Y-7343D01*
X14225Y-7399D01*
X14225Y-7621D01*
X14260Y-7656D01*
X14689Y-7656D01*
X14689Y-7677D01*
X14260Y-7677D01*
X14225Y-7712D01*
X14225Y-7934D01*
X14226Y-7990D01*
X14247Y-8041D01*
X14286Y-8080D01*
X14337Y-8101D01*
X14654Y-8101D01*
X14689Y-8066D01*
X14689Y-8119D01*
X14341Y-8119D01*
X14298Y-8137D01*
X14265Y-8170D01*
X14247Y-8214D01*
X14247Y-8261D01*
X14247Y-8851D01*
X14265Y-8895D01*
X14298Y-8928D01*
X14341Y-8946D01*
X14388Y-8946D01*
X14531Y-8946D01*
X14531Y-8980D01*
X14527Y-8981D01*
X14494Y-9015D01*
X14476Y-9058D01*
X14476Y-9105D01*
X14476Y-9341D01*
X14494Y-9384D01*
X14521Y-9411D01*
X14515Y-9413D01*
X14476Y-9452D01*
X14455Y-9504D01*
X14455Y-9559D01*
X14455Y-9604D01*
X14489Y-9639D01*
X14662Y-9639D01*
X14662Y-9631D01*
X14683Y-9631D01*
X14683Y-9639D01*
X14691Y-9639D01*
X14691Y-9660D01*
X14683Y-9660D01*
X14683Y-9872D01*
X14718Y-9907D01*
X14779Y-9907D01*
X14830Y-9886D01*
X14858Y-9857D01*
X14858Y-9903D01*
X14662Y-10099D01*
X14662Y-9872D01*
X14662Y-9660D01*
X14489Y-9660D01*
X14455Y-9695D01*
X14455Y-9740D01*
X14455Y-9795D01*
X14476Y-9847D01*
X14515Y-9886D01*
X14566Y-9907D01*
X14627Y-9907D01*
X14662Y-9872D01*
X14662Y-10099D01*
X14480Y-10281D01*
X13500Y-10281D01*
X13435Y-10294D01*
X13381Y-10331D01*
X13293Y-10419D01*
X13293Y-7251D01*
X13256Y-7162D01*
X13187Y-7094D01*
X13098Y-7056D01*
X13044Y-7056D01*
X12544Y-6556D01*
X12489Y-6520D01*
X12425Y-6507D01*
X12425Y-6507D01*
X12421Y-6507D01*
X12414Y-6490D01*
X12381Y-6457D01*
X12338Y-6439D01*
X12291Y-6439D01*
X12011Y-6439D01*
X11960Y-6418D01*
X11905Y-6418D01*
X11836Y-6418D01*
X11801Y-6452D01*
X11801Y-6664D01*
X11809Y-6664D01*
X11809Y-6686D01*
X11801Y-6686D01*
X11801Y-6694D01*
X11780Y-6694D01*
X11780Y-6686D01*
X11772Y-6686D01*
X11772Y-6664D01*
X11780Y-6664D01*
X11780Y-6452D01*
X11745Y-6418D01*
X11676Y-6418D01*
X11621Y-6418D01*
X11570Y-6439D01*
X11527Y-6439D01*
X11243Y-6439D01*
X11218Y-6450D01*
X11192Y-6439D01*
X11145Y-6439D01*
X10862Y-6439D01*
X10818Y-6457D01*
X10785Y-6490D01*
X10778Y-6507D01*
X10695Y-6507D01*
X10707Y-6479D01*
X10707Y-6418D01*
X10672Y-6383D01*
X10460Y-6383D01*
X10460Y-6391D01*
X10439Y-6391D01*
X10439Y-6383D01*
X10227Y-6383D01*
X10192Y-6418D01*
X10192Y-6479D01*
X10213Y-6530D01*
X10248Y-6565D01*
X10231Y-6581D01*
X10213Y-6624D01*
X10213Y-6671D01*
X10213Y-6828D01*
X10231Y-6872D01*
X10257Y-6898D01*
X10244Y-6912D01*
X10206Y-7001D01*
X10206Y-7098D01*
X10243Y-7187D01*
X10312Y-7255D01*
X10401Y-7293D01*
X10498Y-7293D01*
X10587Y-7256D01*
X10655Y-7187D01*
X10693Y-7098D01*
X10693Y-7001D01*
X10656Y-6912D01*
X10642Y-6898D01*
X10668Y-6872D01*
X10680Y-6843D01*
X10778Y-6843D01*
X10785Y-6860D01*
X10818Y-6893D01*
X10861Y-6911D01*
X10908Y-6911D01*
X11192Y-6911D01*
X11195Y-6910D01*
X11144Y-6962D01*
X11106Y-7051D01*
X11106Y-7148D01*
X11143Y-7237D01*
X11212Y-7305D01*
X11277Y-7333D01*
X11277Y-11444D01*
X11274Y-11444D01*
X11156Y-11444D01*
X11140Y-11451D01*
X11124Y-11444D01*
X11077Y-11444D01*
X10959Y-11444D01*
X10943Y-11451D01*
X10927Y-11444D01*
X10880Y-11444D01*
X10762Y-11444D01*
X10746Y-11451D01*
X10731Y-11444D01*
X10684Y-11444D01*
X10609Y-11444D01*
X10609Y-10117D01*
X10637Y-10106D01*
X10705Y-10037D01*
X10743Y-9948D01*
X10743Y-9851D01*
X10706Y-9762D01*
X10658Y-9714D01*
X10658Y-9616D01*
X10684Y-9605D01*
X10718Y-9572D01*
X10736Y-9529D01*
X10736Y-9482D01*
X10736Y-9325D01*
X10718Y-9281D01*
X10686Y-9249D01*
X10718Y-9218D01*
X10736Y-9175D01*
X10736Y-9128D01*
X10736Y-8971D01*
X10718Y-8927D01*
X10684Y-8894D01*
X10641Y-8876D01*
X10594Y-8876D01*
X10564Y-8876D01*
X10493Y-8805D01*
X10493Y-8751D01*
X10456Y-8662D01*
X10387Y-8594D01*
X10317Y-8564D01*
X10337Y-8556D01*
X10405Y-8487D01*
X10443Y-8398D01*
X10443Y-8301D01*
X10406Y-8212D01*
X10337Y-8144D01*
X10248Y-8106D01*
X10151Y-8106D01*
X10062Y-8143D01*
X9996Y-8209D01*
X10007Y-8183D01*
X10007Y-7970D01*
X9986Y-7919D01*
X9951Y-7884D01*
X9968Y-7868D01*
X9986Y-7825D01*
X9986Y-7778D01*
X9986Y-7621D01*
X9968Y-7577D01*
X9934Y-7544D01*
X9908Y-7533D01*
X9908Y-7150D01*
X9907Y-7144D01*
X9907Y-6968D01*
X9889Y-6925D01*
X9857Y-6893D01*
X9889Y-6862D01*
X9907Y-6818D01*
X9907Y-6771D01*
X9907Y-6575D01*
X9889Y-6531D01*
X9857Y-6499D01*
X9889Y-6468D01*
X9907Y-6425D01*
X9907Y-6378D01*
X9907Y-6181D01*
X9889Y-6137D01*
X9857Y-6106D01*
X9889Y-6074D01*
X9907Y-6031D01*
X9907Y-5984D01*
X9907Y-5787D01*
X9889Y-5744D01*
X9855Y-5710D01*
X9812Y-5692D01*
X9765Y-5692D01*
X9568Y-5692D01*
X9525Y-5710D01*
X9493Y-5742D01*
X9462Y-5710D01*
X9418Y-5692D01*
X9371Y-5692D01*
X9175Y-5692D01*
X9131Y-5710D01*
X9099Y-5742D01*
X9068Y-5710D01*
X9025Y-5692D01*
X8978Y-5692D01*
X8781Y-5692D01*
X8737Y-5710D01*
X8706Y-5742D01*
X8674Y-5710D01*
X8631Y-5692D01*
X8584Y-5692D01*
X8387Y-5692D01*
X8385Y-5693D01*
X8302Y-5693D01*
X8251Y-5683D01*
X8250Y-5683D01*
X8048Y-5683D01*
X7983Y-5696D01*
X7929Y-5733D01*
X7929Y-5733D01*
X7892Y-5769D01*
X7879Y-5763D01*
X7832Y-5763D01*
X7675Y-5763D01*
X7631Y-5781D01*
X7615Y-5798D01*
X7580Y-5763D01*
X7529Y-5742D01*
X7468Y-5742D01*
X7433Y-5777D01*
X7433Y-5989D01*
X7441Y-5989D01*
X7441Y-6010D01*
X7433Y-6010D01*
X7433Y-6018D01*
X7412Y-6018D01*
X7412Y-6010D01*
X7412Y-5989D01*
X7412Y-5777D01*
X7377Y-5742D01*
X7316Y-5742D01*
X7265Y-5763D01*
X7226Y-5802D01*
X7205Y-5854D01*
X7205Y-5909D01*
X7205Y-5954D01*
X7239Y-5989D01*
X7412Y-5989D01*
X7412Y-6010D01*
X7239Y-6010D01*
X7205Y-6045D01*
X7205Y-6090D01*
X7205Y-6145D01*
X7226Y-6197D01*
X7265Y-6236D01*
X7316Y-6257D01*
X7377Y-6257D01*
X7412Y-6222D01*
X7412Y-6257D01*
X7412Y-6257D01*
X7419Y-6257D01*
X7412Y-6264D01*
X7288Y-6388D01*
X7253Y-6439D01*
X7241Y-6500D01*
X7241Y-6514D01*
X7194Y-6562D01*
X7156Y-6651D01*
X7156Y-6660D01*
X7148Y-6656D01*
X7051Y-6656D01*
X6962Y-6693D01*
X6894Y-6762D01*
X6872Y-6814D01*
X6755Y-6814D01*
X6734Y-6794D01*
X6691Y-6776D01*
X6644Y-6776D01*
X6408Y-6776D01*
X6365Y-6794D01*
X6344Y-6814D01*
X6305Y-6814D01*
X6284Y-6794D01*
X6241Y-6776D01*
X6194Y-6776D01*
X5958Y-6776D01*
X5915Y-6794D01*
X5881Y-6827D01*
X5863Y-6870D01*
X5863Y-6917D01*
X5863Y-7074D01*
X5881Y-7118D01*
X5913Y-7150D01*
X5881Y-7181D01*
X5863Y-7224D01*
X5863Y-7271D01*
X5863Y-7428D01*
X5881Y-7472D01*
X5915Y-7505D01*
X5958Y-7523D01*
X6005Y-7523D01*
X6073Y-7523D01*
X6361Y-7811D01*
X6412Y-7846D01*
X6473Y-7858D01*
X6698Y-7858D01*
X6694Y-7862D01*
X6656Y-7951D01*
X6656Y-8048D01*
X6693Y-8137D01*
X6762Y-8205D01*
X6851Y-8243D01*
X6948Y-8243D01*
X7037Y-8206D01*
X7085Y-8158D01*
X8100Y-8158D01*
X8160Y-8146D01*
X8160Y-8146D01*
X8211Y-8111D01*
X8836Y-7487D01*
X8836Y-7487D01*
X8870Y-7436D01*
X8873Y-7422D01*
X8988Y-7307D01*
X9024Y-7307D01*
X9068Y-7289D01*
X9100Y-7257D01*
X9131Y-7289D01*
X9174Y-7307D01*
X9221Y-7307D01*
X9418Y-7307D01*
X9462Y-7289D01*
X9493Y-7257D01*
X9525Y-7289D01*
X9568Y-7307D01*
X9591Y-7307D01*
X9591Y-7533D01*
X9565Y-7544D01*
X9531Y-7577D01*
X9513Y-7620D01*
X9513Y-7667D01*
X9513Y-7824D01*
X9531Y-7868D01*
X9548Y-7884D01*
X9513Y-7919D01*
X9492Y-7970D01*
X9492Y-8031D01*
X9527Y-8066D01*
X9739Y-8066D01*
X9739Y-8058D01*
X9760Y-8058D01*
X9760Y-8066D01*
X9972Y-8066D01*
X10007Y-8031D01*
X10007Y-7970D01*
X10007Y-8183D01*
X10007Y-8122D01*
X9972Y-8087D01*
X9760Y-8087D01*
X9760Y-8260D01*
X9795Y-8294D01*
X9840Y-8294D01*
X9895Y-8294D01*
X9947Y-8273D01*
X9983Y-8236D01*
X9956Y-8301D01*
X9956Y-8398D01*
X9993Y-8487D01*
X10062Y-8555D01*
X10132Y-8585D01*
X10112Y-8593D01*
X10044Y-8662D01*
X10006Y-8751D01*
X10006Y-8848D01*
X10043Y-8937D01*
X10112Y-9005D01*
X10201Y-9043D01*
X10255Y-9043D01*
X10263Y-9051D01*
X10263Y-9174D01*
X10281Y-9218D01*
X10313Y-9250D01*
X10281Y-9281D01*
X10263Y-9324D01*
X10263Y-9371D01*
X10263Y-9528D01*
X10281Y-9572D01*
X10315Y-9605D01*
X10341Y-9616D01*
X10341Y-9714D01*
X10294Y-9762D01*
X10256Y-9851D01*
X10256Y-9948D01*
X10293Y-10036D01*
X10293Y-11423D01*
X10286Y-11423D01*
X10293Y-11423D01*
X10293Y-11430D01*
X10265Y-11458D01*
X10265Y-11660D01*
X10273Y-11660D01*
X10273Y-11681D01*
X10265Y-11681D01*
X10265Y-11884D01*
X10300Y-11918D01*
X10286Y-11918D01*
X10341Y-11918D01*
X10392Y-11897D01*
X10415Y-11897D01*
X10534Y-11897D01*
X10549Y-11891D01*
X10565Y-11897D01*
X10612Y-11897D01*
X10730Y-11897D01*
X10746Y-11891D01*
X10762Y-11897D01*
X10809Y-11897D01*
X10927Y-11897D01*
X10943Y-11891D01*
X10959Y-11897D01*
X11006Y-11897D01*
X11124Y-11897D01*
X11140Y-11891D01*
X11156Y-11897D01*
X11203Y-11897D01*
X11321Y-11897D01*
X11337Y-11891D01*
X11353Y-11897D01*
X11400Y-11897D01*
X11518Y-11897D01*
X11534Y-11891D01*
X11550Y-11897D01*
X11597Y-11897D01*
X11652Y-11897D01*
X11652Y-11976D01*
X11631Y-12027D01*
X11631Y-12082D01*
X11631Y-12068D01*
X11665Y-12103D01*
X11868Y-12103D01*
X11868Y-12095D01*
X11889Y-12095D01*
X11889Y-12103D01*
X12091Y-12103D01*
X12126Y-12068D01*
X12126Y-12082D01*
X12126Y-12048D01*
X12145Y-12036D01*
X12181Y-11981D01*
X12194Y-11917D01*
X12194Y-11569D01*
X12251Y-11593D01*
X12348Y-11593D01*
X12437Y-11556D01*
X12505Y-11487D01*
X12543Y-11398D01*
X12543Y-11301D01*
X12506Y-11212D01*
X12437Y-11144D01*
X12348Y-11106D01*
X12294Y-11106D01*
X12245Y-11058D01*
X12222Y-11042D01*
X12218Y-11031D01*
X12201Y-11015D01*
X12236Y-10980D01*
X12257Y-10929D01*
X12257Y-10716D01*
X12236Y-10665D01*
X12197Y-10626D01*
X12145Y-10605D01*
X12090Y-10605D01*
X12045Y-10605D01*
X12010Y-10639D01*
X12010Y-10812D01*
X12222Y-10812D01*
X12257Y-10777D01*
X12257Y-10716D01*
X12257Y-10929D01*
X12257Y-10868D01*
X12222Y-10833D01*
X12010Y-10833D01*
X12010Y-10841D01*
X11989Y-10841D01*
X11989Y-10833D01*
X11981Y-10833D01*
X11981Y-10812D01*
X11989Y-10812D01*
X11989Y-10639D01*
X11954Y-10605D01*
X11909Y-10605D01*
X11854Y-10605D01*
X11818Y-10620D01*
X11818Y-8769D01*
X13044Y-7543D01*
X13098Y-7543D01*
X13187Y-7506D01*
X13255Y-7437D01*
X13293Y-7348D01*
X13293Y-7251D01*
X13293Y-10419D01*
X12931Y-10781D01*
X12894Y-10835D01*
X12881Y-10900D01*
X12881Y-10900D01*
X12881Y-12424D01*
X12881Y-12424D01*
X12856Y-12362D01*
X12787Y-12294D01*
X12698Y-12256D01*
X12630Y-12256D01*
X12572Y-12199D01*
X12521Y-12164D01*
X12461Y-12152D01*
X12126Y-12152D01*
X12126Y-12145D01*
X12126Y-12152D01*
X12119Y-12152D01*
X12091Y-12124D01*
X11889Y-12124D01*
X11889Y-12132D01*
X11868Y-12132D01*
X11868Y-12124D01*
X11665Y-12124D01*
X11631Y-12159D01*
X11631Y-12145D01*
X11631Y-12201D01*
X11652Y-12252D01*
X11652Y-12275D01*
X11652Y-12393D01*
X11658Y-12409D01*
X11652Y-12425D01*
X11652Y-12472D01*
X11652Y-12566D01*
X11631Y-12617D01*
X11631Y-12673D01*
X11631Y-12659D01*
X11665Y-12694D01*
X11868Y-12694D01*
X11868Y-12686D01*
X11889Y-12686D01*
X11889Y-12694D01*
X12091Y-12694D01*
X12119Y-12665D01*
X12126Y-12665D01*
X12126Y-12673D01*
X12126Y-12665D01*
X12192Y-12665D01*
X12274Y-12748D01*
X12251Y-12743D01*
X12126Y-12743D01*
X12126Y-12736D01*
X12126Y-12743D01*
X12119Y-12743D01*
X12091Y-12715D01*
X11889Y-12715D01*
X11889Y-12723D01*
X11868Y-12723D01*
X11868Y-12715D01*
X11665Y-12715D01*
X11631Y-12750D01*
X11631Y-12736D01*
X11631Y-12791D01*
X11652Y-12842D01*
X11652Y-12865D01*
X11652Y-12984D01*
X11658Y-12999D01*
X11652Y-13015D01*
X11652Y-13062D01*
X11652Y-13180D01*
X11658Y-13196D01*
X11652Y-13212D01*
X11652Y-13259D01*
X11652Y-13377D01*
X11658Y-13393D01*
X11652Y-13409D01*
X11652Y-13456D01*
X11652Y-13574D01*
X11658Y-13590D01*
X11652Y-13606D01*
X11652Y-13653D01*
X11652Y-13771D01*
X11658Y-13787D01*
X11652Y-13803D01*
X11652Y-13850D01*
X11652Y-13968D01*
X11658Y-13984D01*
X11652Y-14000D01*
X11652Y-14047D01*
X11652Y-14102D01*
X11573Y-14102D01*
X11522Y-14081D01*
X11467Y-14081D01*
X11481Y-14081D01*
X11446Y-14115D01*
X11446Y-14318D01*
X11454Y-14318D01*
X11454Y-14339D01*
X11446Y-14339D01*
X11446Y-14541D01*
X11481Y-14576D01*
X11467Y-14576D01*
X11522Y-14576D01*
X11573Y-14555D01*
X11597Y-14555D01*
X11621Y-14555D01*
X11631Y-14565D01*
X11631Y-14587D01*
X11615Y-14594D01*
X11581Y-14627D01*
X11563Y-14670D01*
X11563Y-14717D01*
X11563Y-14874D01*
X11581Y-14918D01*
X11598Y-14934D01*
X11563Y-14969D01*
X11542Y-15020D01*
X11542Y-15081D01*
X11577Y-15116D01*
X11789Y-15116D01*
X11789Y-15108D01*
X11810Y-15108D01*
X11810Y-15116D01*
X12022Y-15116D01*
X12057Y-15081D01*
X12057Y-15020D01*
X12036Y-14969D01*
X12007Y-14941D01*
X12047Y-14941D01*
X12062Y-14955D01*
X12151Y-14993D01*
X12248Y-14993D01*
X12337Y-14956D01*
X12405Y-14887D01*
X12443Y-14798D01*
X12443Y-14701D01*
X12406Y-14612D01*
X12337Y-14544D01*
X12248Y-14506D01*
X12151Y-14506D01*
X12062Y-14543D01*
X12001Y-14604D01*
X11995Y-14604D01*
X11984Y-14594D01*
X11968Y-14587D01*
X11968Y-14496D01*
X11968Y-14496D01*
X11968Y-14496D01*
X11965Y-14483D01*
X11955Y-14431D01*
X11955Y-14431D01*
X11918Y-14377D01*
X11918Y-14377D01*
X11809Y-14268D01*
X11809Y-14259D01*
X12010Y-14259D01*
X12053Y-14241D01*
X12054Y-14240D01*
X12267Y-14240D01*
X12891Y-14865D01*
X12891Y-15818D01*
X12411Y-15338D01*
X12360Y-15303D01*
X12300Y-15291D01*
X12028Y-15291D01*
X12036Y-15284D01*
X12057Y-15233D01*
X12057Y-15172D01*
X12022Y-15137D01*
X11810Y-15137D01*
X11810Y-15145D01*
X11789Y-15145D01*
X11789Y-15137D01*
X11577Y-15137D01*
X11542Y-15172D01*
X11542Y-15219D01*
X11397Y-15073D01*
X11397Y-14576D01*
X11404Y-14576D01*
X11397Y-14576D01*
X11397Y-14569D01*
X11425Y-14541D01*
X11425Y-14339D01*
X11417Y-14339D01*
X11417Y-14318D01*
X11425Y-14318D01*
X11425Y-14115D01*
X11390Y-14081D01*
X11404Y-14081D01*
X11348Y-14081D01*
X11297Y-14102D01*
X11274Y-14102D01*
X11156Y-14102D01*
X11140Y-14108D01*
X11124Y-14102D01*
X11077Y-14102D01*
X10959Y-14102D01*
X10943Y-14108D01*
X10927Y-14102D01*
X10880Y-14102D01*
X10762Y-14102D01*
X10746Y-14108D01*
X10731Y-14102D01*
X10684Y-14102D01*
X10565Y-14102D01*
X10549Y-14109D01*
X10532Y-14102D01*
X10485Y-14102D01*
X10367Y-14102D01*
X10352Y-14108D01*
X10337Y-14102D01*
X10290Y-14102D01*
X10172Y-14102D01*
X10156Y-14108D01*
X10140Y-14102D01*
X10093Y-14102D01*
X9975Y-14102D01*
X9959Y-14108D01*
X9943Y-14102D01*
X9896Y-14102D01*
X9778Y-14102D01*
X9762Y-14108D01*
X9746Y-14102D01*
X9699Y-14102D01*
X9581Y-14102D01*
X9565Y-14108D01*
X9549Y-14102D01*
X9502Y-14102D01*
X9447Y-14102D01*
X9447Y-14023D01*
X9468Y-13972D01*
X9468Y-13917D01*
X9468Y-13931D01*
X9434Y-13896D01*
X9231Y-13896D01*
X9231Y-13904D01*
X9210Y-13904D01*
X9210Y-13896D01*
X9008Y-13896D01*
X8990Y-13914D01*
X8967Y-13914D01*
X8967Y-13914D01*
X8954Y-13917D01*
X8902Y-13927D01*
X8882Y-13940D01*
X8973Y-13849D01*
X8973Y-13854D01*
X8973Y-13849D01*
X8976Y-13847D01*
X8980Y-13847D01*
X9008Y-13875D01*
X9210Y-13875D01*
X9210Y-13867D01*
X9231Y-13867D01*
X9231Y-13875D01*
X9434Y-13875D01*
X9468Y-13840D01*
X9468Y-13854D01*
X9468Y-13798D01*
X9447Y-13747D01*
X9447Y-13724D01*
X9447Y-13606D01*
X9441Y-13590D01*
X9447Y-13574D01*
X9447Y-13527D01*
X9447Y-13409D01*
X9441Y-13393D01*
X9447Y-13377D01*
X9447Y-13330D01*
X9447Y-13212D01*
X9441Y-13196D01*
X9447Y-13181D01*
X9447Y-13134D01*
X9447Y-13015D01*
X9441Y-13000D01*
X9447Y-12984D01*
X9447Y-12937D01*
X9447Y-12819D01*
X9441Y-12803D01*
X9447Y-12787D01*
X9447Y-12740D01*
X9447Y-12622D01*
X9441Y-12606D01*
X9447Y-12590D01*
X9447Y-12543D01*
X9447Y-12425D01*
X9441Y-12409D01*
X9447Y-12393D01*
X9447Y-12346D01*
X9447Y-12228D01*
X9441Y-12212D01*
X9447Y-12196D01*
X9447Y-12149D01*
X9447Y-12031D01*
X9441Y-12015D01*
X9447Y-11999D01*
X9447Y-11952D01*
X9447Y-11897D01*
X9549Y-11897D01*
X9565Y-11891D01*
X9581Y-11897D01*
X9628Y-11897D01*
X9746Y-11897D01*
X9762Y-11891D01*
X9778Y-11897D01*
X9825Y-11897D01*
X9943Y-11897D01*
X9959Y-11891D01*
X9975Y-11897D01*
X10022Y-11897D01*
X10116Y-11897D01*
X10167Y-11918D01*
X10223Y-11918D01*
X10209Y-11918D01*
X10244Y-11884D01*
X10244Y-11681D01*
X10236Y-11681D01*
X10236Y-11660D01*
X10244Y-11660D01*
X10244Y-11458D01*
X10225Y-11440D01*
X10225Y-9757D01*
X10213Y-9693D01*
X10176Y-9639D01*
X10176Y-9639D01*
X10143Y-9605D01*
X10143Y-9551D01*
X10106Y-9462D01*
X10037Y-9394D01*
X9948Y-9356D01*
X9851Y-9356D01*
X9762Y-9393D01*
X9739Y-9416D01*
X9739Y-8260D01*
X9739Y-8087D01*
X9527Y-8087D01*
X9492Y-8122D01*
X9492Y-8183D01*
X9513Y-8234D01*
X9552Y-8273D01*
X9604Y-8294D01*
X9659Y-8294D01*
X9704Y-8294D01*
X9739Y-8260D01*
X9739Y-9416D01*
X9734Y-9421D01*
X9711Y-9388D01*
X9208Y-8884D01*
X9208Y-7985D01*
X9255Y-7937D01*
X9293Y-7848D01*
X9293Y-7751D01*
X9256Y-7662D01*
X9187Y-7594D01*
X9098Y-7556D01*
X9001Y-7556D01*
X8912Y-7593D01*
X8844Y-7662D01*
X8806Y-7751D01*
X8806Y-7848D01*
X8843Y-7937D01*
X8891Y-7985D01*
X8891Y-8098D01*
X8837Y-8044D01*
X8748Y-8006D01*
X8651Y-8006D01*
X8562Y-8043D01*
X8494Y-8112D01*
X8456Y-8201D01*
X8456Y-8269D01*
X8188Y-8538D01*
X8153Y-8589D01*
X8141Y-8650D01*
X8141Y-9874D01*
X8098Y-9856D01*
X8001Y-9856D01*
X7912Y-9893D01*
X7844Y-9962D01*
X7806Y-10051D01*
X7806Y-10119D01*
X7790Y-10135D01*
X7804Y-10102D01*
X7804Y-10055D01*
X7804Y-9897D01*
X7786Y-9854D01*
X7753Y-9821D01*
X7710Y-9803D01*
X7710Y-9803D01*
X7753Y-9785D01*
X7786Y-9752D01*
X7804Y-9708D01*
X7804Y-9661D01*
X7804Y-9504D01*
X7786Y-9460D01*
X7753Y-9427D01*
X7710Y-9409D01*
X7663Y-9409D01*
X7427Y-9409D01*
X7383Y-9427D01*
X7350Y-9460D01*
X7332Y-9503D01*
X7332Y-9550D01*
X7332Y-9708D01*
X7350Y-9751D01*
X7383Y-9785D01*
X7426Y-9803D01*
X7427Y-9803D01*
X7383Y-9821D01*
X7372Y-9831D01*
X7369Y-9831D01*
X7273Y-9735D01*
X7273Y-9658D01*
X7255Y-9615D01*
X7222Y-9581D01*
X7179Y-9563D01*
X7132Y-9563D01*
X6975Y-9563D01*
X6931Y-9581D01*
X6915Y-9598D01*
X6880Y-9563D01*
X6829Y-9542D01*
X6768Y-9542D01*
X6733Y-9577D01*
X6733Y-9789D01*
X6741Y-9789D01*
X6741Y-9810D01*
X6733Y-9810D01*
X6733Y-9818D01*
X6712Y-9818D01*
X6712Y-9810D01*
X6712Y-9789D01*
X6712Y-9577D01*
X6677Y-9542D01*
X6616Y-9542D01*
X6565Y-9563D01*
X6526Y-9602D01*
X6505Y-9654D01*
X6505Y-9661D01*
X6486Y-9615D01*
X6447Y-9576D01*
X6395Y-9555D01*
X6340Y-9555D01*
X6295Y-9555D01*
X6260Y-9589D01*
X6260Y-9762D01*
X6472Y-9762D01*
X6505Y-9729D01*
X6505Y-9754D01*
X6539Y-9789D01*
X6712Y-9789D01*
X6712Y-9810D01*
X6539Y-9810D01*
X6507Y-9843D01*
X6507Y-9818D01*
X6472Y-9783D01*
X6260Y-9783D01*
X6260Y-9791D01*
X6239Y-9791D01*
X6239Y-9783D01*
X6239Y-9762D01*
X6239Y-9589D01*
X6204Y-9555D01*
X6159Y-9555D01*
X6104Y-9555D01*
X6052Y-9576D01*
X6013Y-9615D01*
X5992Y-9666D01*
X5992Y-9727D01*
X6027Y-9762D01*
X6239Y-9762D01*
X6239Y-9783D01*
X6027Y-9783D01*
X5992Y-9818D01*
X5992Y-9879D01*
X6013Y-9930D01*
X6048Y-9965D01*
X6031Y-9981D01*
X6013Y-10024D01*
X6013Y-10071D01*
X6013Y-10228D01*
X6031Y-10272D01*
X6065Y-10305D01*
X6108Y-10323D01*
X6155Y-10323D01*
X6165Y-10323D01*
X6165Y-10371D01*
X6137Y-10344D01*
X6048Y-10306D01*
X5951Y-10306D01*
X5862Y-10343D01*
X5794Y-10412D01*
X5756Y-10501D01*
X5756Y-10598D01*
X5793Y-10687D01*
X5862Y-10755D01*
X5951Y-10793D01*
X6048Y-10793D01*
X6095Y-10773D01*
X6095Y-10780D01*
X6095Y-10776D01*
X6130Y-10811D01*
X6322Y-10811D01*
X6322Y-10803D01*
X6344Y-10803D01*
X6344Y-10811D01*
X6351Y-10811D01*
X6351Y-10832D01*
X6344Y-10832D01*
X6344Y-10840D01*
X6322Y-10840D01*
X6322Y-10832D01*
X6130Y-10832D01*
X6095Y-10867D01*
X6095Y-10863D01*
X6095Y-10876D01*
X6048Y-10856D01*
X5951Y-10856D01*
X5862Y-10893D01*
X5794Y-10962D01*
X5756Y-11051D01*
X5756Y-11148D01*
X5793Y-11237D01*
X5862Y-11305D01*
X5951Y-11343D01*
X6048Y-11343D01*
X6120Y-11313D01*
X6130Y-11323D01*
X6322Y-11323D01*
X6322Y-11315D01*
X6344Y-11315D01*
X6344Y-11323D01*
X6351Y-11323D01*
X6351Y-11344D01*
X6344Y-11344D01*
X6344Y-11507D01*
X6378Y-11542D01*
X6459Y-11542D01*
X6510Y-11520D01*
X6549Y-11481D01*
X6561Y-11454D01*
X6567Y-11469D01*
X6568Y-11470D01*
X6568Y-12794D01*
X6549Y-12813D01*
X6518Y-12781D01*
X6475Y-12763D01*
X6428Y-12763D01*
X6322Y-12763D01*
X6322Y-11507D01*
X6322Y-11344D01*
X6130Y-11344D01*
X6095Y-11379D01*
X6095Y-11375D01*
X6095Y-11430D01*
X6116Y-11481D01*
X6156Y-11520D01*
X6207Y-11542D01*
X6287Y-11542D01*
X6322Y-11507D01*
X6322Y-12763D01*
X6271Y-12763D01*
X6227Y-12781D01*
X6194Y-12815D01*
X6176Y-12858D01*
X6176Y-12905D01*
X6176Y-13141D01*
X6187Y-13168D01*
X6144Y-13212D01*
X6106Y-13301D01*
X6106Y-13398D01*
X6143Y-13487D01*
X6212Y-13555D01*
X6301Y-13593D01*
X6398Y-13593D01*
X6487Y-13556D01*
X6518Y-13525D01*
X6543Y-13587D01*
X6612Y-13655D01*
X6646Y-13670D01*
X7438Y-14461D01*
X7438Y-14461D01*
X7446Y-14467D01*
X7432Y-14473D01*
X7398Y-14507D01*
X7380Y-14550D01*
X7380Y-14597D01*
X7380Y-14602D01*
X7078Y-14602D01*
X7068Y-14577D01*
X7034Y-14544D01*
X6991Y-14526D01*
X6944Y-14526D01*
X6708Y-14526D01*
X6665Y-14544D01*
X6631Y-14577D01*
X6613Y-14620D01*
X6613Y-14667D01*
X6613Y-14824D01*
X6618Y-14835D01*
X6548Y-14806D01*
X6451Y-14806D01*
X6362Y-14843D01*
X6294Y-14912D01*
X6256Y-15001D01*
X6256Y-15098D01*
X6293Y-15187D01*
X6362Y-15255D01*
X6451Y-15293D01*
X6548Y-15293D01*
X6637Y-15256D01*
X6648Y-15245D01*
X6654Y-15245D01*
X6659Y-15250D01*
X6631Y-15277D01*
X6613Y-15320D01*
X6613Y-15367D01*
X6613Y-15524D01*
X6631Y-15568D01*
X6648Y-15584D01*
X6613Y-15619D01*
X6592Y-15670D01*
X6592Y-15731D01*
X6627Y-15766D01*
X6839Y-15766D01*
X6839Y-15758D01*
X6860Y-15758D01*
X6860Y-15766D01*
X6868Y-15766D01*
X6868Y-15787D01*
X6860Y-15787D01*
X6860Y-15960D01*
X6895Y-15994D01*
X6940Y-15994D01*
X6995Y-15994D01*
X7047Y-15973D01*
X7055Y-15964D01*
X7055Y-16024D01*
X7073Y-16067D01*
X7107Y-16101D01*
X7150Y-16119D01*
X7197Y-16119D01*
X7202Y-16119D01*
X7202Y-16911D01*
X7214Y-16971D01*
X7249Y-17022D01*
X7283Y-17056D01*
X7276Y-17056D01*
X7155Y-17056D01*
X6994Y-16895D01*
X7005Y-16884D01*
X7023Y-16841D01*
X7023Y-16794D01*
X7023Y-16558D01*
X7005Y-16515D01*
X6972Y-16481D01*
X6929Y-16463D01*
X6882Y-16463D01*
X6839Y-16463D01*
X6839Y-15960D01*
X6839Y-15787D01*
X6627Y-15787D01*
X6592Y-15822D01*
X6592Y-15883D01*
X6613Y-15934D01*
X6652Y-15973D01*
X6704Y-15994D01*
X6759Y-15994D01*
X6804Y-15994D01*
X6839Y-15960D01*
X6839Y-16463D01*
X6725Y-16463D01*
X6681Y-16481D01*
X6665Y-16498D01*
X6630Y-16463D01*
X6579Y-16442D01*
X6518Y-16442D01*
X6483Y-16477D01*
X6483Y-16689D01*
X6491Y-16689D01*
X6491Y-16710D01*
X6483Y-16710D01*
X6483Y-16922D01*
X6518Y-16957D01*
X6579Y-16957D01*
X6630Y-16936D01*
X6665Y-16901D01*
X6668Y-16905D01*
X6668Y-16952D01*
X6680Y-17012D01*
X6715Y-17063D01*
X6881Y-17230D01*
X6881Y-17398D01*
X6899Y-17441D01*
X6933Y-17475D01*
X6976Y-17493D01*
X7023Y-17493D01*
X7323Y-17493D01*
X7366Y-17475D01*
X7400Y-17441D01*
X7418Y-17398D01*
X7418Y-17351D01*
X7418Y-17191D01*
X7888Y-17661D01*
X7888Y-17661D01*
X7939Y-17696D01*
X8000Y-17708D01*
X9150Y-17708D01*
X9210Y-17696D01*
X9210Y-17696D01*
X9261Y-17661D01*
X9664Y-17258D01*
X9712Y-17305D01*
X9801Y-17343D01*
X9855Y-17343D01*
X9963Y-17451D01*
X9963Y-17524D01*
X9981Y-17568D01*
X10013Y-17600D01*
X9981Y-17631D01*
X9963Y-17674D01*
X9963Y-17721D01*
X9963Y-17878D01*
X9981Y-17922D01*
X10015Y-17955D01*
X10031Y-17962D01*
X10031Y-18299D01*
X10031Y-18300D01*
X10044Y-18364D01*
X10081Y-18418D01*
X10361Y-18699D01*
X10361Y-18699D01*
X10416Y-18736D01*
X10480Y-18748D01*
X10533Y-18748D01*
X10533Y-18771D01*
X10550Y-18814D01*
X10584Y-18848D01*
X10627Y-18866D01*
X10674Y-18866D01*
X10735Y-18866D01*
X10735Y-18928D01*
X10727Y-18931D01*
X10699Y-18959D01*
X10672Y-18931D01*
X10629Y-18913D01*
X10582Y-18913D01*
X10425Y-18913D01*
X10381Y-18931D01*
X10365Y-18948D01*
X10330Y-18913D01*
X10279Y-18892D01*
X10218Y-18892D01*
X10183Y-18927D01*
X10183Y-19139D01*
X10191Y-19139D01*
X10191Y-19160D01*
X10183Y-19160D01*
X10183Y-19372D01*
X10186Y-19375D01*
X10183Y-19377D01*
X10183Y-19589D01*
X10191Y-19589D01*
X10191Y-19610D01*
X10183Y-19610D01*
X10183Y-19822D01*
X10218Y-19857D01*
X10279Y-19857D01*
X10330Y-19836D01*
X10358Y-19807D01*
X10358Y-19947D01*
X10344Y-19962D01*
X10306Y-20051D01*
X10306Y-20148D01*
X10343Y-20237D01*
X10412Y-20305D01*
X10501Y-20343D01*
X10598Y-20343D01*
X10687Y-20306D01*
X10755Y-20237D01*
X10793Y-20148D01*
X10793Y-20051D01*
X10756Y-19962D01*
X10695Y-19901D01*
X10695Y-19795D01*
X10705Y-19784D01*
X10723Y-19741D01*
X10723Y-19694D01*
X10723Y-19638D01*
X10743Y-19687D01*
X10812Y-19755D01*
X10901Y-19793D01*
X10998Y-19793D01*
X11087Y-19756D01*
X11155Y-19687D01*
X11193Y-19598D01*
X11193Y-19501D01*
X11156Y-19412D01*
X11129Y-19386D01*
X11171Y-19386D01*
X11328Y-19386D01*
X11372Y-19368D01*
X11405Y-19334D01*
X11423Y-19291D01*
X11423Y-19244D01*
X11423Y-19008D01*
X11405Y-18965D01*
X11372Y-18931D01*
X11329Y-18913D01*
X11282Y-18913D01*
X11268Y-18913D01*
X11268Y-18870D01*
X11286Y-18852D01*
X11286Y-18591D01*
X11278Y-18591D01*
X11278Y-18570D01*
X11286Y-18570D01*
X11286Y-18562D01*
X11307Y-18562D01*
X11307Y-18570D01*
X11315Y-18570D01*
X11315Y-18591D01*
X11307Y-18591D01*
X11307Y-18852D01*
X11342Y-18887D01*
X11379Y-18887D01*
X11430Y-18866D01*
X11430Y-18866D01*
X11461Y-18866D01*
X11572Y-18866D01*
X11615Y-18848D01*
X11648Y-18815D01*
X11666Y-18771D01*
X11666Y-18748D01*
X11679Y-18748D01*
X11694Y-18784D01*
X11704Y-18795D01*
X11704Y-18954D01*
X11694Y-18965D01*
X11676Y-19008D01*
X11676Y-19055D01*
X11676Y-19291D01*
X11694Y-19334D01*
X11727Y-19368D01*
X11770Y-19386D01*
X11817Y-19386D01*
X11974Y-19386D01*
X12018Y-19368D01*
X12034Y-19351D01*
X12069Y-19386D01*
X12120Y-19407D01*
X12181Y-19407D01*
X12216Y-19372D01*
X12216Y-19160D01*
X12208Y-19160D01*
X12208Y-19139D01*
X12216Y-19139D01*
X12216Y-18927D01*
X12181Y-18892D01*
X12120Y-18892D01*
X12069Y-18913D01*
X12041Y-18942D01*
X12041Y-18795D01*
X12050Y-18786D01*
X12081Y-18818D01*
X12124Y-18836D01*
X12171Y-18836D01*
X12328Y-18836D01*
X12372Y-18818D01*
X12405Y-18784D01*
X12412Y-18768D01*
X12430Y-18768D01*
X12431Y-18769D01*
X12431Y-18774D01*
X12394Y-18812D01*
X12356Y-18901D01*
X12356Y-18902D01*
X12333Y-18892D01*
X12272Y-18892D01*
X12237Y-18927D01*
X12237Y-19139D01*
X12410Y-19139D01*
X12427Y-19121D01*
X12462Y-19155D01*
X12551Y-19193D01*
X12648Y-19193D01*
X12691Y-19175D01*
X12691Y-19398D01*
X12687Y-19394D01*
X12598Y-19356D01*
X12501Y-19356D01*
X12444Y-19380D01*
X12444Y-19240D01*
X12444Y-19195D01*
X12410Y-19160D01*
X12237Y-19160D01*
X12237Y-19372D01*
X12272Y-19407D01*
X12333Y-19407D01*
X12384Y-19386D01*
X12423Y-19347D01*
X12444Y-19295D01*
X12444Y-19240D01*
X12444Y-19380D01*
X12412Y-19393D01*
X12344Y-19462D01*
X12306Y-19551D01*
X12306Y-19619D01*
X11788Y-20138D01*
X11753Y-20189D01*
X11741Y-20250D01*
X11741Y-20497D01*
X11734Y-20501D01*
X11651Y-20583D01*
X11650Y-20587D01*
X11648Y-20584D01*
X11566Y-20501D01*
X11458Y-20456D01*
X11341Y-20456D01*
X11234Y-20501D01*
X11165Y-20570D01*
X11109Y-20555D01*
X11094Y-20570D01*
X11094Y-20540D01*
X11079Y-20484D01*
X10964Y-20435D01*
X10839Y-20435D01*
X10723Y-20482D01*
X10720Y-20484D01*
X10705Y-20540D01*
X10900Y-20734D01*
X11094Y-20540D01*
X11094Y-20570D01*
X10915Y-20750D01*
X11109Y-20944D01*
X11165Y-20929D01*
X11233Y-20998D01*
X11341Y-21043D01*
X11458Y-21043D01*
X11565Y-20998D01*
X11648Y-20916D01*
X11649Y-20912D01*
X11651Y-20915D01*
X11733Y-20998D01*
X11841Y-21043D01*
X11958Y-21043D01*
X12065Y-20998D01*
X12148Y-20916D01*
X12149Y-20912D01*
X12151Y-20915D01*
X12233Y-20998D01*
X12341Y-21043D01*
X12458Y-21043D01*
X12565Y-20998D01*
X12648Y-20916D01*
X12693Y-20808D01*
X12693Y-20691D01*
X12689Y-20683D01*
X12961Y-20411D01*
X12996Y-20360D01*
X12996Y-20360D01*
X13008Y-20300D01*
X13008Y-19825D01*
X13051Y-19843D01*
X13148Y-19843D01*
X13237Y-19806D01*
X13305Y-19737D01*
X13343Y-19648D01*
X13343Y-19551D01*
X13306Y-19462D01*
X13237Y-19394D01*
X13208Y-19381D01*
X13208Y-17801D01*
X13212Y-17805D01*
X13301Y-17843D01*
X13398Y-17843D01*
X13487Y-17806D01*
X13555Y-17737D01*
X13593Y-17648D01*
X13593Y-17551D01*
X13556Y-17462D01*
X13487Y-17394D01*
X13398Y-17356D01*
X13301Y-17356D01*
X13212Y-17393D01*
X13208Y-17398D01*
X13208Y-14800D01*
X13196Y-14739D01*
X13196Y-14739D01*
X13161Y-14688D01*
X12517Y-14043D01*
X13970Y-14043D01*
X14056Y-14130D01*
X14056Y-14198D01*
X14093Y-14287D01*
X14162Y-14355D01*
X14251Y-14393D01*
X14348Y-14393D01*
X14437Y-14356D01*
X14505Y-14287D01*
X14543Y-14198D01*
X14543Y-14101D01*
X14506Y-14012D01*
X14437Y-13944D01*
X14348Y-13906D01*
X14280Y-13906D01*
X14220Y-13847D01*
X14411Y-13847D01*
X14471Y-13835D01*
X14471Y-13835D01*
X14522Y-13800D01*
X15611Y-12711D01*
X15611Y-12711D01*
X15646Y-12660D01*
X15658Y-12600D01*
X15658Y-12600D01*
X15658Y-9535D01*
X15705Y-9487D01*
X15743Y-9398D01*
X15743Y-9301D01*
X15743Y-21097D01*
X15206Y-21097D01*
X15206Y-20861D01*
X15206Y-20191D01*
X15188Y-20148D01*
X15155Y-20115D01*
X15111Y-20097D01*
X15064Y-20097D01*
X14749Y-20097D01*
X14743Y-20099D01*
X14743Y-19051D01*
X14706Y-18962D01*
X14637Y-18894D01*
X14548Y-18856D01*
X14451Y-18856D01*
X14362Y-18893D01*
X14294Y-18962D01*
X14256Y-19051D01*
X14256Y-19148D01*
X14293Y-19237D01*
X14362Y-19305D01*
X14451Y-19343D01*
X14548Y-19343D01*
X14637Y-19306D01*
X14705Y-19237D01*
X14743Y-19148D01*
X14743Y-19051D01*
X14743Y-20099D01*
X14706Y-20115D01*
X14673Y-20148D01*
X14655Y-20191D01*
X14655Y-20238D01*
X14655Y-20391D01*
X14335Y-20391D01*
X14287Y-20344D01*
X14198Y-20306D01*
X14166Y-20306D01*
X14166Y-18274D01*
X14129Y-18185D01*
X14060Y-18117D01*
X13971Y-18079D01*
X13874Y-18079D01*
X13785Y-18116D01*
X13717Y-18185D01*
X13679Y-18274D01*
X13679Y-18371D01*
X13716Y-18460D01*
X13785Y-18528D01*
X13874Y-18566D01*
X13971Y-18566D01*
X14060Y-18529D01*
X14128Y-18460D01*
X14166Y-18371D01*
X14166Y-18274D01*
X14166Y-20306D01*
X14101Y-20306D01*
X14012Y-20343D01*
X13944Y-20412D01*
X13906Y-20501D01*
X13906Y-20598D01*
X13943Y-20687D01*
X14012Y-20755D01*
X14101Y-20793D01*
X14198Y-20793D01*
X14287Y-20756D01*
X14335Y-20708D01*
X14655Y-20708D01*
X14655Y-20908D01*
X14673Y-20951D01*
X14706Y-20984D01*
X14749Y-21002D01*
X14796Y-21002D01*
X15111Y-21002D01*
X15155Y-20984D01*
X15188Y-20951D01*
X15206Y-20908D01*
X15206Y-20861D01*
X15206Y-21097D01*
X11094Y-21097D01*
X11094Y-20959D01*
X10900Y-20765D01*
X10884Y-20780D01*
X10884Y-20750D01*
X10690Y-20555D01*
X10634Y-20570D01*
X10585Y-20685D01*
X10585Y-20810D01*
X10632Y-20926D01*
X10634Y-20929D01*
X10690Y-20944D01*
X10884Y-20750D01*
X10884Y-20780D01*
X10705Y-20959D01*
X10720Y-21015D01*
X10835Y-21064D01*
X10960Y-21064D01*
X11076Y-21017D01*
X11079Y-21015D01*
X11094Y-20959D01*
X11094Y-21097D01*
X10162Y-21097D01*
X10162Y-19822D01*
X10162Y-19610D01*
X10162Y-19589D01*
X10162Y-19377D01*
X10159Y-19375D01*
X10162Y-19372D01*
X10162Y-19160D01*
X10162Y-19139D01*
X10162Y-18927D01*
X10127Y-18892D01*
X10066Y-18892D01*
X10015Y-18913D01*
X9976Y-18952D01*
X9955Y-19004D01*
X9955Y-19059D01*
X9955Y-19104D01*
X9989Y-19139D01*
X10162Y-19139D01*
X10162Y-19160D01*
X9989Y-19160D01*
X9955Y-19195D01*
X9955Y-19240D01*
X9955Y-19295D01*
X9976Y-19347D01*
X10004Y-19375D01*
X9976Y-19402D01*
X9955Y-19454D01*
X9955Y-19509D01*
X9955Y-19554D01*
X9989Y-19589D01*
X10162Y-19589D01*
X10162Y-19610D01*
X9989Y-19610D01*
X9955Y-19645D01*
X9955Y-19690D01*
X9955Y-19745D01*
X9976Y-19797D01*
X10015Y-19836D01*
X10066Y-19857D01*
X10127Y-19857D01*
X10162Y-19822D01*
X10162Y-21097D01*
X9639Y-21097D01*
X9639Y-20896D01*
X9639Y-20203D01*
X9639Y-20148D01*
X9618Y-20096D01*
X9579Y-20057D01*
X9527Y-20036D01*
X9423Y-20036D01*
X9423Y-19833D01*
X9423Y-19258D01*
X9423Y-19203D01*
X9401Y-19152D01*
X9362Y-19112D01*
X9311Y-19091D01*
X8915Y-19091D01*
X8881Y-19126D01*
X8881Y-19535D01*
X9388Y-19535D01*
X9423Y-19500D01*
X9423Y-19258D01*
X9423Y-19833D01*
X9423Y-19591D01*
X9388Y-19556D01*
X8881Y-19556D01*
X8881Y-19965D01*
X8915Y-20000D01*
X9311Y-20000D01*
X9362Y-19979D01*
X9401Y-19940D01*
X9423Y-19888D01*
X9423Y-19833D01*
X9423Y-20036D01*
X9191Y-20036D01*
X9156Y-20071D01*
X9156Y-20539D01*
X9604Y-20539D01*
X9639Y-20504D01*
X9639Y-20203D01*
X9639Y-20896D01*
X9639Y-20595D01*
X9604Y-20560D01*
X9156Y-20560D01*
X9156Y-21028D01*
X9191Y-21063D01*
X9527Y-21063D01*
X9579Y-21042D01*
X9618Y-21003D01*
X9639Y-20951D01*
X9639Y-20896D01*
X9639Y-21097D01*
X9135Y-21097D01*
X9135Y-21028D01*
X9135Y-20560D01*
X9135Y-20539D01*
X9135Y-20071D01*
X9100Y-20036D01*
X8859Y-20036D01*
X8859Y-19965D01*
X8859Y-19556D01*
X8851Y-19556D01*
X8851Y-19535D01*
X8859Y-19535D01*
X8859Y-19126D01*
X8825Y-19091D01*
X8429Y-19091D01*
X8378Y-19112D01*
X8348Y-19142D01*
X8319Y-19112D01*
X8268Y-19091D01*
X8207Y-19091D01*
X8172Y-19126D01*
X8172Y-19486D01*
X8180Y-19486D01*
X8180Y-19507D01*
X8172Y-19507D01*
X8172Y-19867D01*
X8207Y-19901D01*
X8268Y-19901D01*
X8317Y-19881D01*
X8317Y-19888D01*
X8339Y-19940D01*
X8378Y-19979D01*
X8429Y-20000D01*
X8825Y-20000D01*
X8859Y-19965D01*
X8859Y-20036D01*
X8764Y-20036D01*
X8712Y-20057D01*
X8673Y-20096D01*
X8652Y-20148D01*
X8652Y-20203D01*
X8652Y-20504D01*
X8687Y-20539D01*
X9135Y-20539D01*
X9135Y-20560D01*
X8687Y-20560D01*
X8652Y-20595D01*
X8652Y-20896D01*
X8652Y-20951D01*
X8673Y-21003D01*
X8712Y-21042D01*
X8764Y-21063D01*
X9100Y-21063D01*
X9135Y-21028D01*
X9135Y-21097D01*
X8635Y-21097D01*
X8635Y-20896D01*
X8635Y-20203D01*
X8635Y-20148D01*
X8614Y-20096D01*
X8575Y-20057D01*
X8524Y-20036D01*
X8167Y-20036D01*
X8151Y-20053D01*
X8151Y-19867D01*
X8151Y-19507D01*
X8143Y-19507D01*
X8143Y-19486D01*
X8151Y-19486D01*
X8151Y-19126D01*
X8144Y-19120D01*
X8144Y-18090D01*
X8144Y-17909D01*
X8144Y-17854D01*
X8123Y-17802D01*
X8084Y-17763D01*
X8033Y-17742D01*
X7972Y-17742D01*
X7937Y-17777D01*
X7937Y-17989D01*
X8110Y-17989D01*
X8144Y-17954D01*
X8144Y-17909D01*
X8144Y-18090D01*
X8144Y-18045D01*
X8110Y-18010D01*
X7937Y-18010D01*
X7937Y-18222D01*
X7972Y-18257D01*
X8033Y-18257D01*
X8084Y-18236D01*
X8123Y-18197D01*
X8144Y-18145D01*
X8144Y-18090D01*
X8144Y-19120D01*
X8116Y-19091D01*
X8055Y-19091D01*
X8004Y-19112D01*
X8004Y-19113D01*
X7961Y-19112D01*
X7803Y-19112D01*
X7777Y-19123D01*
X7752Y-19113D01*
X7705Y-19112D01*
X7547Y-19112D01*
X7522Y-19123D01*
X7496Y-19113D01*
X7449Y-19112D01*
X7318Y-19112D01*
X7318Y-18243D01*
X7323Y-18243D01*
X7366Y-18225D01*
X7400Y-18191D01*
X7400Y-18190D01*
X7427Y-18218D01*
X7470Y-18236D01*
X7517Y-18236D01*
X7674Y-18236D01*
X7718Y-18218D01*
X7734Y-18201D01*
X7769Y-18236D01*
X7820Y-18257D01*
X7881Y-18257D01*
X7916Y-18222D01*
X7916Y-18010D01*
X7908Y-18010D01*
X7908Y-17989D01*
X7916Y-17989D01*
X7916Y-17777D01*
X7881Y-17742D01*
X7820Y-17742D01*
X7769Y-17763D01*
X7734Y-17798D01*
X7718Y-17781D01*
X7675Y-17763D01*
X7628Y-17763D01*
X7471Y-17763D01*
X7427Y-17781D01*
X7394Y-17815D01*
X7387Y-17831D01*
X7373Y-17831D01*
X7366Y-17824D01*
X7323Y-17806D01*
X7276Y-17806D01*
X6976Y-17806D01*
X6943Y-17820D01*
X6943Y-17601D01*
X6906Y-17512D01*
X6837Y-17444D01*
X6748Y-17406D01*
X6651Y-17406D01*
X6562Y-17443D01*
X6494Y-17512D01*
X6462Y-17588D01*
X6462Y-16922D01*
X6462Y-16710D01*
X6462Y-16689D01*
X6462Y-16477D01*
X6427Y-16442D01*
X6366Y-16442D01*
X6315Y-16463D01*
X6276Y-16502D01*
X6255Y-16554D01*
X6255Y-16609D01*
X6255Y-16654D01*
X6289Y-16689D01*
X6462Y-16689D01*
X6462Y-16710D01*
X6289Y-16710D01*
X6255Y-16745D01*
X6255Y-16790D01*
X6255Y-16845D01*
X6276Y-16897D01*
X6315Y-16936D01*
X6366Y-16957D01*
X6427Y-16957D01*
X6462Y-16922D01*
X6462Y-17588D01*
X6456Y-17601D01*
X6456Y-17655D01*
X6439Y-17672D01*
X6439Y-17522D01*
X6418Y-17471D01*
X6394Y-17447D01*
X6400Y-17441D01*
X6418Y-17398D01*
X6418Y-17351D01*
X6418Y-17151D01*
X6400Y-17108D01*
X6366Y-17074D01*
X6323Y-17056D01*
X6276Y-17056D01*
X5976Y-17056D01*
X5933Y-17074D01*
X5899Y-17108D01*
X5881Y-17151D01*
X5881Y-17198D01*
X5881Y-17398D01*
X5899Y-17441D01*
X5905Y-17447D01*
X5881Y-17471D01*
X5860Y-17522D01*
X5860Y-17604D01*
X5895Y-17639D01*
X6139Y-17639D01*
X6139Y-17631D01*
X6160Y-17631D01*
X6160Y-17639D01*
X6404Y-17639D01*
X6439Y-17604D01*
X6439Y-17522D01*
X6439Y-17672D01*
X6428Y-17684D01*
X6404Y-17660D01*
X6160Y-17660D01*
X6160Y-17668D01*
X6139Y-17668D01*
X6139Y-17660D01*
X5895Y-17660D01*
X5860Y-17695D01*
X5860Y-17777D01*
X5881Y-17828D01*
X5905Y-17852D01*
X5899Y-17858D01*
X5881Y-17901D01*
X5881Y-17948D01*
X5881Y-18148D01*
X5899Y-18191D01*
X5933Y-18225D01*
X5976Y-18243D01*
X6017Y-18243D01*
X5983Y-18277D01*
X5983Y-18489D01*
X5991Y-18489D01*
X5991Y-18510D01*
X5983Y-18510D01*
X5983Y-18722D01*
X6018Y-18757D01*
X6079Y-18757D01*
X6130Y-18736D01*
X6165Y-18701D01*
X6181Y-18718D01*
X6224Y-18736D01*
X6271Y-18736D01*
X6428Y-18736D01*
X6472Y-18718D01*
X6505Y-18684D01*
X6523Y-18641D01*
X6523Y-18594D01*
X6523Y-18358D01*
X6505Y-18315D01*
X6495Y-18304D01*
X6495Y-18202D01*
X6482Y-18137D01*
X6469Y-18118D01*
X6694Y-17893D01*
X6748Y-17893D01*
X6837Y-17856D01*
X6905Y-17787D01*
X6943Y-17698D01*
X6943Y-17601D01*
X6943Y-17820D01*
X6933Y-17824D01*
X6899Y-17858D01*
X6881Y-17901D01*
X6881Y-17948D01*
X6881Y-18148D01*
X6899Y-18191D01*
X6933Y-18225D01*
X6976Y-18243D01*
X6981Y-18243D01*
X6981Y-19141D01*
X6964Y-19159D01*
X6960Y-19152D01*
X6921Y-19112D01*
X6870Y-19091D01*
X6475Y-19091D01*
X6440Y-19126D01*
X6440Y-19535D01*
X6448Y-19535D01*
X6448Y-19556D01*
X6440Y-19556D01*
X6440Y-19965D01*
X6475Y-20000D01*
X6870Y-20000D01*
X6921Y-19979D01*
X6960Y-19940D01*
X6982Y-19888D01*
X6982Y-19852D01*
X6992Y-19862D01*
X7035Y-19880D01*
X7082Y-19880D01*
X7240Y-19880D01*
X7266Y-19870D01*
X7291Y-19880D01*
X7338Y-19880D01*
X7496Y-19880D01*
X7522Y-19870D01*
X7547Y-19880D01*
X7594Y-19880D01*
X7752Y-19880D01*
X7777Y-19870D01*
X7803Y-19880D01*
X7850Y-19880D01*
X8004Y-19880D01*
X8004Y-19880D01*
X8055Y-19901D01*
X8116Y-19901D01*
X8151Y-19867D01*
X8151Y-20053D01*
X8133Y-20071D01*
X8133Y-20539D01*
X8600Y-20539D01*
X8635Y-20504D01*
X8635Y-20203D01*
X8635Y-20896D01*
X8635Y-20595D01*
X8600Y-20560D01*
X8133Y-20560D01*
X8133Y-21028D01*
X8167Y-21063D01*
X8524Y-21063D01*
X8575Y-21042D01*
X8614Y-21003D01*
X8635Y-20951D01*
X8635Y-20896D01*
X8635Y-21097D01*
X8111Y-21097D01*
X8111Y-21028D01*
X8111Y-20560D01*
X8111Y-20539D01*
X8111Y-20071D01*
X8076Y-20036D01*
X7720Y-20036D01*
X7669Y-20057D01*
X7650Y-20077D01*
X7630Y-20057D01*
X7579Y-20036D01*
X7223Y-20036D01*
X7188Y-20071D01*
X7188Y-20539D01*
X7643Y-20539D01*
X7656Y-20539D01*
X8111Y-20539D01*
X8111Y-20560D01*
X7656Y-20560D01*
X7643Y-20560D01*
X7188Y-20560D01*
X7188Y-21028D01*
X7223Y-21063D01*
X7579Y-21063D01*
X7630Y-21042D01*
X7650Y-21022D01*
X7669Y-21042D01*
X7720Y-21063D01*
X8076Y-21063D01*
X8111Y-21028D01*
X8111Y-21097D01*
X7166Y-21097D01*
X7166Y-21028D01*
X7166Y-20560D01*
X7166Y-20539D01*
X7166Y-20071D01*
X7132Y-20036D01*
X6775Y-20036D01*
X6724Y-20057D01*
X6685Y-20096D01*
X6664Y-20148D01*
X6664Y-20203D01*
X6664Y-20504D01*
X6699Y-20539D01*
X7166Y-20539D01*
X7166Y-20560D01*
X6699Y-20560D01*
X6664Y-20595D01*
X6664Y-20896D01*
X6664Y-20951D01*
X6685Y-21003D01*
X6724Y-21042D01*
X6775Y-21063D01*
X7132Y-21063D01*
X7166Y-21028D01*
X7166Y-21097D01*
X6647Y-21097D01*
X6647Y-20896D01*
X6647Y-20203D01*
X6647Y-20148D01*
X6626Y-20096D01*
X6587Y-20057D01*
X6535Y-20036D01*
X6418Y-20036D01*
X6418Y-19965D01*
X6418Y-19556D01*
X6418Y-19535D01*
X6418Y-19126D01*
X6384Y-19091D01*
X5988Y-19091D01*
X5962Y-19102D01*
X5962Y-18722D01*
X5962Y-18510D01*
X5962Y-18489D01*
X5962Y-18277D01*
X5927Y-18242D01*
X5866Y-18242D01*
X5815Y-18263D01*
X5776Y-18302D01*
X5755Y-18354D01*
X5755Y-18409D01*
X5755Y-18454D01*
X5789Y-18489D01*
X5962Y-18489D01*
X5962Y-18510D01*
X5789Y-18510D01*
X5755Y-18545D01*
X5755Y-18590D01*
X5755Y-18645D01*
X5776Y-18697D01*
X5815Y-18736D01*
X5866Y-18757D01*
X5927Y-18757D01*
X5962Y-18722D01*
X5962Y-19102D01*
X5937Y-19112D01*
X5898Y-19152D01*
X5876Y-19203D01*
X5876Y-19258D01*
X5876Y-19500D01*
X5911Y-19535D01*
X6418Y-19535D01*
X6418Y-19556D01*
X5911Y-19556D01*
X5876Y-19591D01*
X5876Y-19833D01*
X5876Y-19888D01*
X5898Y-19940D01*
X5937Y-19979D01*
X5988Y-20000D01*
X6384Y-20000D01*
X6418Y-19965D01*
X6418Y-20036D01*
X6199Y-20036D01*
X6164Y-20071D01*
X6164Y-20539D01*
X6612Y-20539D01*
X6647Y-20504D01*
X6647Y-20203D01*
X6647Y-20896D01*
X6647Y-20595D01*
X6612Y-20560D01*
X6164Y-20560D01*
X6164Y-21028D01*
X6199Y-21063D01*
X6535Y-21063D01*
X6587Y-21042D01*
X6626Y-21003D01*
X6647Y-20951D01*
X6647Y-20896D01*
X6647Y-21097D01*
X6143Y-21097D01*
X6143Y-21028D01*
X6143Y-20560D01*
X6143Y-20539D01*
X6143Y-20071D01*
X6108Y-20036D01*
X5772Y-20036D01*
X5720Y-20057D01*
X5681Y-20096D01*
X5660Y-20148D01*
X5660Y-20203D01*
X5660Y-20504D01*
X5695Y-20539D01*
X6143Y-20539D01*
X6143Y-20560D01*
X5695Y-20560D01*
X5660Y-20595D01*
X5660Y-20896D01*
X5660Y-20951D01*
X5681Y-21003D01*
X5720Y-21042D01*
X5772Y-21063D01*
X6108Y-21063D01*
X6143Y-21028D01*
X6143Y-21097D01*
X5649Y-21097D01*
X5649Y-5649D01*
X11256Y-5649D01*
X11244Y-5662D01*
X11206Y-5751D01*
X11206Y-5848D01*
X11226Y-5895D01*
X11218Y-5898D01*
X11192Y-5888D01*
X11145Y-5888D01*
X11014Y-5888D01*
X10963Y-5853D01*
X10902Y-5841D01*
X10385Y-5841D01*
X10337Y-5794D01*
X10248Y-5756D01*
X10151Y-5756D01*
X10062Y-5793D01*
X9994Y-5862D01*
X9956Y-5951D01*
X9956Y-6048D01*
X9993Y-6137D01*
X10062Y-6205D01*
X10151Y-6243D01*
X10202Y-6243D01*
X10192Y-6266D01*
X10192Y-6327D01*
X10227Y-6362D01*
X10439Y-6362D01*
X10439Y-6354D01*
X10460Y-6354D01*
X10460Y-6362D01*
X10672Y-6362D01*
X10707Y-6327D01*
X10707Y-6266D01*
X10686Y-6215D01*
X10647Y-6176D01*
X10602Y-6158D01*
X10767Y-6158D01*
X10767Y-6265D01*
X10785Y-6309D01*
X10818Y-6342D01*
X10861Y-6360D01*
X10908Y-6360D01*
X11192Y-6360D01*
X11218Y-6349D01*
X11243Y-6360D01*
X11290Y-6360D01*
X11574Y-6360D01*
X11600Y-6349D01*
X11625Y-6360D01*
X11672Y-6360D01*
X11956Y-6360D01*
X11981Y-6349D01*
X12007Y-6360D01*
X12054Y-6360D01*
X12337Y-6360D01*
X12381Y-6342D01*
X12414Y-6309D01*
X12432Y-6266D01*
X12432Y-6219D01*
X12432Y-5982D01*
X12414Y-5939D01*
X12381Y-5906D01*
X12338Y-5888D01*
X12291Y-5888D01*
X12007Y-5888D01*
X11981Y-5898D01*
X11956Y-5888D01*
X11909Y-5888D01*
X11676Y-5888D01*
X11693Y-5848D01*
X11693Y-5751D01*
X11656Y-5662D01*
X11643Y-5649D01*
X17185Y-5649D01*
X17185Y-10710D01*
X16893Y-10710D01*
X16893Y-6951D01*
X16856Y-6862D01*
X16787Y-6794D01*
X16698Y-6756D01*
X16601Y-6756D01*
X16512Y-6793D01*
X16444Y-6862D01*
X16406Y-6951D01*
X16406Y-7048D01*
X16443Y-7137D01*
X16512Y-7205D01*
X16601Y-7243D01*
X16698Y-7243D01*
X16787Y-7206D01*
X16855Y-7137D01*
X16893Y-7048D01*
X16893Y-6951D01*
X16893Y-10710D01*
X16643Y-10710D01*
X16643Y-8451D01*
X16606Y-8362D01*
X16537Y-8294D01*
X16448Y-8256D01*
X16351Y-8256D01*
X16293Y-8281D01*
X16293Y-5901D01*
X16256Y-5812D01*
X16187Y-5744D01*
X16098Y-5706D01*
X16001Y-5706D01*
X15912Y-5743D01*
X15844Y-5812D01*
X15842Y-5814D01*
X15505Y-5814D01*
X15484Y-5794D01*
X15441Y-5776D01*
X15394Y-5776D01*
X15158Y-5776D01*
X15115Y-5794D01*
X15094Y-5814D01*
X15005Y-5814D01*
X14984Y-5794D01*
X14941Y-5776D01*
X14894Y-5776D01*
X14658Y-5776D01*
X14615Y-5794D01*
X14581Y-5827D01*
X14563Y-5870D01*
X14563Y-5917D01*
X14563Y-6074D01*
X14581Y-6118D01*
X14598Y-6134D01*
X14563Y-6169D01*
X14542Y-6220D01*
X14542Y-6281D01*
X14577Y-6316D01*
X14789Y-6316D01*
X14789Y-6308D01*
X14810Y-6308D01*
X14810Y-6316D01*
X15022Y-6316D01*
X15057Y-6281D01*
X15057Y-6220D01*
X15036Y-6169D01*
X15001Y-6134D01*
X15005Y-6131D01*
X15094Y-6131D01*
X15113Y-6150D01*
X15081Y-6181D01*
X15063Y-6224D01*
X15063Y-6271D01*
X15063Y-6428D01*
X15081Y-6472D01*
X15115Y-6505D01*
X15141Y-6516D01*
X15141Y-6700D01*
X15153Y-6760D01*
X15188Y-6811D01*
X15256Y-6880D01*
X15256Y-6948D01*
X15293Y-7037D01*
X15362Y-7105D01*
X15451Y-7143D01*
X15548Y-7143D01*
X15637Y-7106D01*
X15705Y-7037D01*
X15743Y-6948D01*
X15743Y-6851D01*
X15706Y-6762D01*
X15637Y-6694D01*
X15548Y-6656D01*
X15480Y-6656D01*
X15458Y-6634D01*
X15458Y-6516D01*
X15484Y-6505D01*
X15518Y-6472D01*
X15536Y-6429D01*
X15536Y-6382D01*
X15536Y-6225D01*
X15518Y-6181D01*
X15486Y-6149D01*
X15505Y-6131D01*
X15887Y-6131D01*
X15912Y-6155D01*
X16001Y-6193D01*
X16098Y-6193D01*
X16187Y-6156D01*
X16255Y-6087D01*
X16293Y-5998D01*
X16293Y-5901D01*
X16293Y-8281D01*
X16262Y-8293D01*
X16194Y-8362D01*
X16192Y-8364D01*
X16152Y-8364D01*
X16152Y-8214D01*
X16152Y-7938D01*
X16152Y-7348D01*
X16134Y-7304D01*
X16101Y-7271D01*
X16058Y-7253D01*
X16011Y-7253D01*
X15341Y-7253D01*
X15298Y-7271D01*
X15265Y-7304D01*
X15247Y-7348D01*
X15247Y-7395D01*
X15247Y-7985D01*
X15265Y-8029D01*
X15298Y-8062D01*
X15341Y-8080D01*
X15388Y-8080D01*
X16058Y-8080D01*
X16101Y-8062D01*
X16134Y-8029D01*
X16152Y-7985D01*
X16152Y-7938D01*
X16152Y-8214D01*
X16134Y-8170D01*
X16101Y-8137D01*
X16058Y-8119D01*
X16011Y-8119D01*
X15341Y-8119D01*
X15298Y-8137D01*
X15265Y-8170D01*
X15247Y-8214D01*
X15247Y-8261D01*
X15247Y-8851D01*
X15265Y-8895D01*
X15298Y-8928D01*
X15341Y-8946D01*
X15388Y-8946D01*
X16058Y-8946D01*
X16101Y-8928D01*
X16134Y-8895D01*
X16152Y-8851D01*
X16152Y-8804D01*
X16152Y-8701D01*
X16257Y-8701D01*
X16262Y-8705D01*
X16351Y-8743D01*
X16448Y-8743D01*
X16537Y-8706D01*
X16605Y-8637D01*
X16643Y-8548D01*
X16643Y-8451D01*
X16643Y-10710D01*
X15910Y-10710D01*
X15910Y-14789D01*
X17185Y-14789D01*
X17185Y-21097D01*
M02*
