G04 (created by PCBNEW (22-Jun-2014 BZR 4027)-stable) date Tue 07 Jul 2015 09:18:42 PM CDT*
%MOIN*%
G04 Gerber Fmt 3.4, Leading zero omitted, Abs format*
%FSLAX34Y34*%
G01*
G70*
G90*
G04 APERTURE LIST*
%ADD10C,0.00590551*%
%ADD11C,0.0350394*%
%ADD12C,0.025*%
%ADD13C,0.008*%
%ADD14C,0.00787402*%
G04 APERTURE END LIST*
G54D10*
G54D11*
X10900Y-20750D03*
X11400Y-20750D03*
X11900Y-20750D03*
X12400Y-20750D03*
G54D12*
X10250Y-8800D03*
X9900Y-9600D03*
X8750Y-14300D03*
X7800Y-7350D03*
X16650Y-7000D03*
X16800Y-20350D03*
X9250Y-10700D03*
X12600Y-18950D03*
X12300Y-11350D03*
X7000Y-12000D03*
X6350Y-13350D03*
X12550Y-16450D03*
X6500Y-15050D03*
X10450Y-7050D03*
X12250Y-7050D03*
X16400Y-8500D03*
X7150Y-10800D03*
X6000Y-10550D03*
X6000Y-11100D03*
X16400Y-15950D03*
X12200Y-14750D03*
X9250Y-15200D03*
X6700Y-17650D03*
X9850Y-17100D03*
X10950Y-19550D03*
X13350Y-17600D03*
X13923Y-18323D03*
X10200Y-8350D03*
X13050Y-7300D03*
X10550Y-20100D03*
X9350Y-14850D03*
X10550Y-14750D03*
X13950Y-13300D03*
X13350Y-13200D03*
X8550Y-11900D03*
X7800Y-13600D03*
X8300Y-12450D03*
X7800Y-14000D03*
X8050Y-12700D03*
X9150Y-9650D03*
X7700Y-7750D03*
X9050Y-7800D03*
X15500Y-9350D03*
X15500Y-6900D03*
X14300Y-14150D03*
X14500Y-19100D03*
X11350Y-7100D03*
X11450Y-5800D03*
X6750Y-13450D03*
X9150Y-16150D03*
X8050Y-10100D03*
X11800Y-7100D03*
X10200Y-6000D03*
X8700Y-8250D03*
X9850Y-16600D03*
X7350Y-12900D03*
X9000Y-14550D03*
X7500Y-10850D03*
X8600Y-10850D03*
X10500Y-9900D03*
X9400Y-11050D03*
X7400Y-6700D03*
X7750Y-11800D03*
X6900Y-8000D03*
X12700Y-12950D03*
X16450Y-18900D03*
X12650Y-12500D03*
X16900Y-17400D03*
X16200Y-16350D03*
X8000Y-6800D03*
X9100Y-15800D03*
X9400Y-10100D03*
X12300Y-14400D03*
X9000Y-17100D03*
X10500Y-15800D03*
X12600Y-17600D03*
X9500Y-8950D03*
X7200Y-10400D03*
X13050Y-12600D03*
X12550Y-19600D03*
X13100Y-19600D03*
X16050Y-5950D03*
X14150Y-20550D03*
X7100Y-6900D03*
G54D13*
X6750Y-15750D02*
X6750Y-13450D01*
X7200Y-16200D02*
X6750Y-15750D01*
X9100Y-16200D02*
X7200Y-16200D01*
X9150Y-16150D02*
X9100Y-16200D01*
X8050Y-8000D02*
X8050Y-10100D01*
X9450Y-6600D02*
X8050Y-8000D01*
X11700Y-6600D02*
X9450Y-6600D01*
X11800Y-6500D02*
X11700Y-6600D01*
X11800Y-7100D02*
X11800Y-6500D01*
X9750Y-14550D02*
X9000Y-14550D01*
X9900Y-14700D02*
X9750Y-14550D01*
X9900Y-16550D02*
X9900Y-14700D01*
X9850Y-16600D02*
X9900Y-16550D01*
X11400Y-10800D02*
X11400Y-20750D01*
X10500Y-9900D02*
X11400Y-10800D01*
X12700Y-12950D02*
X13250Y-13500D01*
X13250Y-13500D02*
X13250Y-16600D01*
X13250Y-16600D02*
X15550Y-18900D01*
X15550Y-18900D02*
X16450Y-18900D01*
X12650Y-12500D02*
X12400Y-12750D01*
X12400Y-12750D02*
X12400Y-13050D01*
X12400Y-13050D02*
X13050Y-13700D01*
X13050Y-13700D02*
X13050Y-16800D01*
X13050Y-16800D02*
X15450Y-19200D01*
X15450Y-19200D02*
X16550Y-19200D01*
X16550Y-19200D02*
X16900Y-18850D01*
X16900Y-18850D02*
X16900Y-17400D01*
G54D10*
G36*
X17185Y-21097D02*
X17143Y-21097D01*
X17143Y-17351D01*
X17106Y-17262D01*
X17037Y-17194D01*
X16948Y-17156D01*
X16851Y-17156D01*
X16762Y-17193D01*
X16694Y-17262D01*
X16656Y-17351D01*
X16656Y-17448D01*
X16693Y-17537D01*
X16741Y-17585D01*
X16741Y-18784D01*
X16687Y-18838D01*
X16656Y-18762D01*
X16643Y-18749D01*
X16643Y-15901D01*
X16606Y-15812D01*
X16537Y-15744D01*
X16448Y-15706D01*
X16351Y-15706D01*
X16262Y-15743D01*
X16194Y-15812D01*
X16156Y-15901D01*
X16156Y-15998D01*
X16193Y-16087D01*
X16262Y-16155D01*
X16351Y-16193D01*
X16448Y-16193D01*
X16537Y-16156D01*
X16605Y-16087D01*
X16643Y-15998D01*
X16643Y-15901D01*
X16643Y-18749D01*
X16587Y-18694D01*
X16498Y-18656D01*
X16401Y-18656D01*
X16312Y-18693D01*
X16264Y-18741D01*
X15743Y-18741D01*
X15743Y-9301D01*
X15743Y-6851D01*
X15706Y-6762D01*
X15637Y-6694D01*
X15548Y-6656D01*
X15451Y-6656D01*
X15362Y-6693D01*
X15294Y-6762D01*
X15256Y-6851D01*
X15256Y-6948D01*
X15293Y-7037D01*
X15362Y-7105D01*
X15451Y-7143D01*
X15548Y-7143D01*
X15637Y-7106D01*
X15705Y-7037D01*
X15743Y-6948D01*
X15743Y-6851D01*
X15743Y-9301D01*
X15706Y-9212D01*
X15637Y-9144D01*
X15548Y-9106D01*
X15451Y-9106D01*
X15362Y-9143D01*
X15294Y-9212D01*
X15256Y-9301D01*
X15256Y-9398D01*
X15293Y-9487D01*
X15362Y-9555D01*
X15451Y-9593D01*
X15548Y-9593D01*
X15637Y-9556D01*
X15705Y-9487D01*
X15743Y-9398D01*
X15743Y-9301D01*
X15743Y-18741D01*
X15615Y-18741D01*
X14543Y-17669D01*
X14543Y-14101D01*
X14506Y-14012D01*
X14437Y-13944D01*
X14348Y-13906D01*
X14251Y-13906D01*
X14193Y-13931D01*
X14193Y-13251D01*
X14156Y-13162D01*
X14087Y-13094D01*
X13998Y-13056D01*
X13901Y-13056D01*
X13812Y-13093D01*
X13744Y-13162D01*
X13706Y-13251D01*
X13706Y-13348D01*
X13743Y-13437D01*
X13812Y-13505D01*
X13901Y-13543D01*
X13998Y-13543D01*
X14087Y-13506D01*
X14155Y-13437D01*
X14193Y-13348D01*
X14193Y-13251D01*
X14193Y-13931D01*
X14162Y-13943D01*
X14094Y-14012D01*
X14056Y-14101D01*
X14056Y-14198D01*
X14093Y-14287D01*
X14162Y-14355D01*
X14251Y-14393D01*
X14348Y-14393D01*
X14437Y-14356D01*
X14505Y-14287D01*
X14543Y-14198D01*
X14543Y-14101D01*
X14543Y-17669D01*
X13408Y-16534D01*
X13408Y-13500D01*
X13396Y-13443D01*
X13398Y-13443D01*
X13487Y-13406D01*
X13555Y-13337D01*
X13593Y-13248D01*
X13593Y-13151D01*
X13556Y-13062D01*
X13487Y-12994D01*
X13398Y-12956D01*
X13301Y-12956D01*
X13212Y-12993D01*
X13144Y-13062D01*
X13112Y-13138D01*
X12943Y-12969D01*
X12943Y-12901D01*
X12906Y-12812D01*
X12837Y-12744D01*
X12767Y-12714D01*
X12787Y-12706D01*
X12818Y-12675D01*
X12843Y-12737D01*
X12912Y-12805D01*
X13001Y-12843D01*
X13098Y-12843D01*
X13187Y-12806D01*
X13255Y-12737D01*
X13293Y-12648D01*
X13293Y-12551D01*
X13293Y-7251D01*
X13256Y-7162D01*
X13187Y-7094D01*
X13098Y-7056D01*
X13001Y-7056D01*
X12912Y-7093D01*
X12844Y-7162D01*
X12806Y-7251D01*
X12806Y-7348D01*
X12843Y-7437D01*
X12912Y-7505D01*
X13001Y-7543D01*
X13098Y-7543D01*
X13187Y-7506D01*
X13255Y-7437D01*
X13293Y-7348D01*
X13293Y-7251D01*
X13293Y-12551D01*
X13256Y-12462D01*
X13187Y-12394D01*
X13098Y-12356D01*
X13001Y-12356D01*
X12912Y-12393D01*
X12881Y-12424D01*
X12856Y-12362D01*
X12787Y-12294D01*
X12698Y-12256D01*
X12601Y-12256D01*
X12543Y-12281D01*
X12543Y-11301D01*
X12506Y-11212D01*
X12493Y-11199D01*
X12493Y-7001D01*
X12456Y-6912D01*
X12387Y-6844D01*
X12298Y-6806D01*
X12201Y-6806D01*
X12112Y-6843D01*
X12044Y-6912D01*
X12014Y-6982D01*
X12006Y-6962D01*
X11958Y-6914D01*
X11958Y-6500D01*
X11946Y-6439D01*
X11946Y-6439D01*
X11911Y-6388D01*
X11860Y-6353D01*
X11800Y-6341D01*
X11739Y-6353D01*
X11688Y-6388D01*
X11634Y-6441D01*
X10443Y-6441D01*
X10443Y-5951D01*
X10406Y-5862D01*
X10337Y-5794D01*
X10248Y-5756D01*
X10151Y-5756D01*
X10062Y-5793D01*
X9994Y-5862D01*
X9956Y-5951D01*
X9956Y-6048D01*
X9993Y-6137D01*
X10062Y-6205D01*
X10151Y-6243D01*
X10248Y-6243D01*
X10337Y-6206D01*
X10405Y-6137D01*
X10443Y-6048D01*
X10443Y-5951D01*
X10443Y-6441D01*
X9450Y-6441D01*
X9389Y-6453D01*
X9338Y-6488D01*
X8043Y-7783D01*
X8043Y-7301D01*
X8006Y-7212D01*
X7937Y-7144D01*
X7848Y-7106D01*
X7751Y-7106D01*
X7662Y-7143D01*
X7643Y-7163D01*
X7643Y-6651D01*
X7606Y-6562D01*
X7537Y-6494D01*
X7448Y-6456D01*
X7351Y-6456D01*
X7262Y-6493D01*
X7194Y-6562D01*
X7156Y-6651D01*
X7156Y-6660D01*
X7148Y-6656D01*
X7051Y-6656D01*
X6962Y-6693D01*
X6894Y-6762D01*
X6856Y-6851D01*
X6856Y-6948D01*
X6893Y-7037D01*
X6962Y-7105D01*
X7051Y-7143D01*
X7148Y-7143D01*
X7237Y-7106D01*
X7305Y-7037D01*
X7343Y-6948D01*
X7343Y-6939D01*
X7351Y-6943D01*
X7448Y-6943D01*
X7537Y-6906D01*
X7605Y-6837D01*
X7643Y-6748D01*
X7643Y-6651D01*
X7643Y-7163D01*
X7594Y-7212D01*
X7556Y-7301D01*
X7556Y-7398D01*
X7593Y-7487D01*
X7624Y-7518D01*
X7562Y-7543D01*
X7494Y-7612D01*
X7456Y-7701D01*
X7456Y-7798D01*
X7493Y-7887D01*
X7562Y-7955D01*
X7651Y-7993D01*
X7748Y-7993D01*
X7837Y-7956D01*
X7905Y-7887D01*
X7943Y-7798D01*
X7943Y-7701D01*
X7906Y-7612D01*
X7875Y-7581D01*
X7937Y-7556D01*
X8005Y-7487D01*
X8043Y-7398D01*
X8043Y-7301D01*
X8043Y-7783D01*
X7938Y-7888D01*
X7903Y-7939D01*
X7891Y-8000D01*
X7891Y-9914D01*
X7844Y-9962D01*
X7806Y-10051D01*
X7806Y-10148D01*
X7843Y-10237D01*
X7912Y-10305D01*
X8001Y-10343D01*
X8098Y-10343D01*
X8187Y-10306D01*
X8255Y-10237D01*
X8293Y-10148D01*
X8293Y-10051D01*
X8256Y-9962D01*
X8208Y-9914D01*
X8208Y-8065D01*
X9515Y-6758D01*
X11641Y-6758D01*
X11641Y-6914D01*
X11594Y-6962D01*
X11574Y-7007D01*
X11556Y-6962D01*
X11487Y-6894D01*
X11398Y-6856D01*
X11301Y-6856D01*
X11212Y-6893D01*
X11144Y-6962D01*
X11106Y-7051D01*
X11106Y-7148D01*
X11143Y-7237D01*
X11212Y-7305D01*
X11301Y-7343D01*
X11398Y-7343D01*
X11487Y-7306D01*
X11555Y-7237D01*
X11575Y-7192D01*
X11593Y-7237D01*
X11662Y-7305D01*
X11751Y-7343D01*
X11848Y-7343D01*
X11937Y-7306D01*
X12005Y-7237D01*
X12035Y-7167D01*
X12043Y-7187D01*
X12112Y-7255D01*
X12201Y-7293D01*
X12298Y-7293D01*
X12387Y-7256D01*
X12455Y-7187D01*
X12493Y-7098D01*
X12493Y-7001D01*
X12493Y-11199D01*
X12437Y-11144D01*
X12348Y-11106D01*
X12251Y-11106D01*
X12162Y-11143D01*
X12094Y-11212D01*
X12056Y-11301D01*
X12056Y-11398D01*
X12093Y-11487D01*
X12162Y-11555D01*
X12251Y-11593D01*
X12348Y-11593D01*
X12437Y-11556D01*
X12505Y-11487D01*
X12543Y-11398D01*
X12543Y-11301D01*
X12543Y-12281D01*
X12512Y-12293D01*
X12444Y-12362D01*
X12406Y-12451D01*
X12406Y-12519D01*
X12288Y-12638D01*
X12253Y-12689D01*
X12241Y-12750D01*
X12241Y-13050D01*
X12253Y-13110D01*
X12288Y-13161D01*
X12891Y-13765D01*
X12891Y-16800D01*
X12903Y-16860D01*
X12938Y-16911D01*
X13383Y-17356D01*
X13301Y-17356D01*
X13212Y-17393D01*
X13144Y-17462D01*
X13106Y-17551D01*
X13106Y-17648D01*
X13143Y-17737D01*
X13212Y-17805D01*
X13301Y-17843D01*
X13398Y-17843D01*
X13487Y-17806D01*
X13555Y-17737D01*
X13593Y-17648D01*
X13593Y-17566D01*
X15338Y-19311D01*
X15338Y-19311D01*
X15389Y-19346D01*
X15449Y-19358D01*
X15450Y-19358D01*
X16550Y-19358D01*
X16610Y-19346D01*
X16610Y-19346D01*
X16661Y-19311D01*
X17011Y-18961D01*
X17011Y-18961D01*
X17011Y-18961D01*
X17046Y-18910D01*
X17058Y-18850D01*
X17058Y-18850D01*
X17058Y-17585D01*
X17105Y-17537D01*
X17143Y-17448D01*
X17143Y-17351D01*
X17143Y-21097D01*
X17043Y-21097D01*
X17043Y-20301D01*
X17006Y-20212D01*
X16937Y-20144D01*
X16848Y-20106D01*
X16751Y-20106D01*
X16662Y-20143D01*
X16594Y-20212D01*
X16556Y-20301D01*
X16556Y-20398D01*
X16593Y-20487D01*
X16662Y-20555D01*
X16751Y-20593D01*
X16848Y-20593D01*
X16937Y-20556D01*
X17005Y-20487D01*
X17043Y-20398D01*
X17043Y-20301D01*
X17043Y-21097D01*
X14743Y-21097D01*
X14743Y-19051D01*
X14706Y-18962D01*
X14637Y-18894D01*
X14548Y-18856D01*
X14451Y-18856D01*
X14362Y-18893D01*
X14294Y-18962D01*
X14256Y-19051D01*
X14256Y-19148D01*
X14293Y-19237D01*
X14362Y-19305D01*
X14451Y-19343D01*
X14548Y-19343D01*
X14637Y-19306D01*
X14705Y-19237D01*
X14743Y-19148D01*
X14743Y-19051D01*
X14743Y-21097D01*
X14393Y-21097D01*
X14393Y-20501D01*
X14356Y-20412D01*
X14287Y-20344D01*
X14198Y-20306D01*
X14166Y-20306D01*
X14166Y-18274D01*
X14129Y-18185D01*
X14060Y-18117D01*
X13971Y-18079D01*
X13874Y-18079D01*
X13785Y-18116D01*
X13717Y-18185D01*
X13679Y-18274D01*
X13679Y-18371D01*
X13716Y-18460D01*
X13785Y-18528D01*
X13874Y-18566D01*
X13971Y-18566D01*
X14060Y-18529D01*
X14128Y-18460D01*
X14166Y-18371D01*
X14166Y-18274D01*
X14166Y-20306D01*
X14101Y-20306D01*
X14012Y-20343D01*
X13944Y-20412D01*
X13906Y-20501D01*
X13906Y-20598D01*
X13943Y-20687D01*
X14012Y-20755D01*
X14101Y-20793D01*
X14198Y-20793D01*
X14287Y-20756D01*
X14355Y-20687D01*
X14393Y-20598D01*
X14393Y-20501D01*
X14393Y-21097D01*
X13343Y-21097D01*
X13343Y-19551D01*
X13306Y-19462D01*
X13237Y-19394D01*
X13148Y-19356D01*
X13051Y-19356D01*
X12962Y-19393D01*
X12894Y-19462D01*
X12856Y-19551D01*
X12856Y-19648D01*
X12893Y-19737D01*
X12962Y-19805D01*
X13051Y-19843D01*
X13148Y-19843D01*
X13237Y-19806D01*
X13305Y-19737D01*
X13343Y-19648D01*
X13343Y-19551D01*
X13343Y-21097D01*
X12843Y-21097D01*
X12843Y-18901D01*
X12806Y-18812D01*
X12793Y-18799D01*
X12793Y-16401D01*
X12756Y-16312D01*
X12687Y-16244D01*
X12598Y-16206D01*
X12501Y-16206D01*
X12443Y-16231D01*
X12443Y-14701D01*
X12406Y-14612D01*
X12337Y-14544D01*
X12248Y-14506D01*
X12151Y-14506D01*
X12062Y-14543D01*
X11994Y-14612D01*
X11956Y-14701D01*
X11956Y-14798D01*
X11993Y-14887D01*
X12062Y-14955D01*
X12151Y-14993D01*
X12248Y-14993D01*
X12337Y-14956D01*
X12405Y-14887D01*
X12443Y-14798D01*
X12443Y-14701D01*
X12443Y-16231D01*
X12412Y-16243D01*
X12344Y-16312D01*
X12306Y-16401D01*
X12306Y-16498D01*
X12343Y-16587D01*
X12412Y-16655D01*
X12501Y-16693D01*
X12598Y-16693D01*
X12687Y-16656D01*
X12755Y-16587D01*
X12793Y-16498D01*
X12793Y-16401D01*
X12793Y-18799D01*
X12737Y-18744D01*
X12648Y-18706D01*
X12551Y-18706D01*
X12462Y-18743D01*
X12394Y-18812D01*
X12356Y-18901D01*
X12356Y-18998D01*
X12393Y-19087D01*
X12462Y-19155D01*
X12551Y-19193D01*
X12648Y-19193D01*
X12737Y-19156D01*
X12805Y-19087D01*
X12843Y-18998D01*
X12843Y-18901D01*
X12843Y-21097D01*
X12793Y-21097D01*
X12793Y-19551D01*
X12756Y-19462D01*
X12687Y-19394D01*
X12598Y-19356D01*
X12501Y-19356D01*
X12412Y-19393D01*
X12344Y-19462D01*
X12306Y-19551D01*
X12306Y-19648D01*
X12343Y-19737D01*
X12412Y-19805D01*
X12501Y-19843D01*
X12598Y-19843D01*
X12687Y-19806D01*
X12755Y-19737D01*
X12793Y-19648D01*
X12793Y-19551D01*
X12793Y-21097D01*
X12693Y-21097D01*
X12693Y-20691D01*
X12648Y-20584D01*
X12566Y-20501D01*
X12458Y-20456D01*
X12341Y-20456D01*
X12234Y-20501D01*
X12151Y-20583D01*
X12150Y-20587D01*
X12148Y-20584D01*
X12066Y-20501D01*
X11958Y-20456D01*
X11841Y-20456D01*
X11734Y-20501D01*
X11651Y-20583D01*
X11650Y-20587D01*
X11648Y-20584D01*
X11566Y-20501D01*
X11558Y-20498D01*
X11558Y-10800D01*
X11546Y-10739D01*
X11511Y-10688D01*
X10743Y-9919D01*
X10743Y-9851D01*
X10706Y-9762D01*
X10693Y-9749D01*
X10693Y-7001D01*
X10656Y-6912D01*
X10587Y-6844D01*
X10498Y-6806D01*
X10401Y-6806D01*
X10312Y-6843D01*
X10244Y-6912D01*
X10206Y-7001D01*
X10206Y-7098D01*
X10243Y-7187D01*
X10312Y-7255D01*
X10401Y-7293D01*
X10498Y-7293D01*
X10587Y-7256D01*
X10655Y-7187D01*
X10693Y-7098D01*
X10693Y-7001D01*
X10693Y-9749D01*
X10637Y-9694D01*
X10548Y-9656D01*
X10493Y-9656D01*
X10493Y-8751D01*
X10456Y-8662D01*
X10387Y-8594D01*
X10317Y-8564D01*
X10337Y-8556D01*
X10405Y-8487D01*
X10443Y-8398D01*
X10443Y-8301D01*
X10406Y-8212D01*
X10337Y-8144D01*
X10248Y-8106D01*
X10151Y-8106D01*
X10062Y-8143D01*
X9994Y-8212D01*
X9956Y-8301D01*
X9956Y-8398D01*
X9993Y-8487D01*
X10062Y-8555D01*
X10132Y-8585D01*
X10112Y-8593D01*
X10044Y-8662D01*
X10006Y-8751D01*
X10006Y-8848D01*
X10043Y-8937D01*
X10112Y-9005D01*
X10201Y-9043D01*
X10298Y-9043D01*
X10387Y-9006D01*
X10455Y-8937D01*
X10493Y-8848D01*
X10493Y-8751D01*
X10493Y-9656D01*
X10451Y-9656D01*
X10362Y-9693D01*
X10294Y-9762D01*
X10256Y-9851D01*
X10256Y-9948D01*
X10293Y-10037D01*
X10362Y-10105D01*
X10451Y-10143D01*
X10519Y-10143D01*
X11241Y-10865D01*
X11241Y-20497D01*
X11234Y-20501D01*
X11193Y-20542D01*
X11193Y-19501D01*
X11156Y-19412D01*
X11087Y-19344D01*
X10998Y-19306D01*
X10901Y-19306D01*
X10812Y-19343D01*
X10793Y-19363D01*
X10793Y-14701D01*
X10756Y-14612D01*
X10687Y-14544D01*
X10598Y-14506D01*
X10501Y-14506D01*
X10412Y-14543D01*
X10344Y-14612D01*
X10306Y-14701D01*
X10306Y-14798D01*
X10343Y-14887D01*
X10412Y-14955D01*
X10501Y-14993D01*
X10598Y-14993D01*
X10687Y-14956D01*
X10755Y-14887D01*
X10793Y-14798D01*
X10793Y-14701D01*
X10793Y-19363D01*
X10744Y-19412D01*
X10706Y-19501D01*
X10706Y-19598D01*
X10743Y-19687D01*
X10812Y-19755D01*
X10901Y-19793D01*
X10998Y-19793D01*
X11087Y-19756D01*
X11155Y-19687D01*
X11193Y-19598D01*
X11193Y-19501D01*
X11193Y-20542D01*
X11165Y-20570D01*
X11109Y-20555D01*
X11094Y-20570D01*
X11094Y-20540D01*
X11079Y-20484D01*
X10964Y-20435D01*
X10839Y-20435D01*
X10793Y-20453D01*
X10793Y-20051D01*
X10756Y-19962D01*
X10687Y-19894D01*
X10598Y-19856D01*
X10501Y-19856D01*
X10412Y-19893D01*
X10344Y-19962D01*
X10306Y-20051D01*
X10306Y-20148D01*
X10343Y-20237D01*
X10412Y-20305D01*
X10501Y-20343D01*
X10598Y-20343D01*
X10687Y-20306D01*
X10755Y-20237D01*
X10793Y-20148D01*
X10793Y-20051D01*
X10793Y-20453D01*
X10723Y-20482D01*
X10720Y-20484D01*
X10705Y-20540D01*
X10900Y-20734D01*
X11094Y-20540D01*
X11094Y-20570D01*
X10915Y-20750D01*
X11109Y-20944D01*
X11165Y-20929D01*
X11233Y-20998D01*
X11341Y-21043D01*
X11458Y-21043D01*
X11565Y-20998D01*
X11648Y-20916D01*
X11649Y-20912D01*
X11651Y-20915D01*
X11733Y-20998D01*
X11841Y-21043D01*
X11958Y-21043D01*
X12065Y-20998D01*
X12148Y-20916D01*
X12149Y-20912D01*
X12151Y-20915D01*
X12233Y-20998D01*
X12341Y-21043D01*
X12458Y-21043D01*
X12565Y-20998D01*
X12648Y-20916D01*
X12693Y-20808D01*
X12693Y-20691D01*
X12693Y-21097D01*
X11094Y-21097D01*
X11094Y-20959D01*
X10900Y-20765D01*
X10884Y-20780D01*
X10884Y-20750D01*
X10690Y-20555D01*
X10634Y-20570D01*
X10585Y-20685D01*
X10585Y-20810D01*
X10632Y-20926D01*
X10634Y-20929D01*
X10690Y-20944D01*
X10884Y-20750D01*
X10884Y-20780D01*
X10705Y-20959D01*
X10720Y-21015D01*
X10835Y-21064D01*
X10960Y-21064D01*
X11076Y-21017D01*
X11079Y-21015D01*
X11094Y-20959D01*
X11094Y-21097D01*
X10143Y-21097D01*
X10143Y-9551D01*
X10106Y-9462D01*
X10037Y-9394D01*
X9948Y-9356D01*
X9851Y-9356D01*
X9762Y-9393D01*
X9694Y-9462D01*
X9656Y-9551D01*
X9656Y-9648D01*
X9693Y-9737D01*
X9762Y-9805D01*
X9851Y-9843D01*
X9948Y-9843D01*
X10037Y-9806D01*
X10105Y-9737D01*
X10143Y-9648D01*
X10143Y-9551D01*
X10143Y-21097D01*
X10093Y-21097D01*
X10093Y-17051D01*
X10093Y-16551D01*
X10058Y-16467D01*
X10058Y-14700D01*
X10046Y-14639D01*
X10011Y-14588D01*
X9861Y-14438D01*
X9810Y-14403D01*
X9750Y-14391D01*
X9643Y-14391D01*
X9643Y-11001D01*
X9606Y-10912D01*
X9537Y-10844D01*
X9465Y-10814D01*
X9493Y-10748D01*
X9493Y-10651D01*
X9456Y-10562D01*
X9393Y-10499D01*
X9393Y-9601D01*
X9356Y-9512D01*
X9293Y-9449D01*
X9293Y-7751D01*
X9256Y-7662D01*
X9187Y-7594D01*
X9098Y-7556D01*
X9001Y-7556D01*
X8912Y-7593D01*
X8844Y-7662D01*
X8806Y-7751D01*
X8806Y-7848D01*
X8843Y-7937D01*
X8912Y-8005D01*
X9001Y-8043D01*
X9098Y-8043D01*
X9187Y-8006D01*
X9255Y-7937D01*
X9293Y-7848D01*
X9293Y-7751D01*
X9293Y-9449D01*
X9287Y-9444D01*
X9198Y-9406D01*
X9101Y-9406D01*
X9012Y-9443D01*
X8944Y-9512D01*
X8943Y-9514D01*
X8943Y-8201D01*
X8906Y-8112D01*
X8837Y-8044D01*
X8748Y-8006D01*
X8651Y-8006D01*
X8562Y-8043D01*
X8494Y-8112D01*
X8456Y-8201D01*
X8456Y-8298D01*
X8493Y-8387D01*
X8562Y-8455D01*
X8651Y-8493D01*
X8748Y-8493D01*
X8837Y-8456D01*
X8905Y-8387D01*
X8943Y-8298D01*
X8943Y-8201D01*
X8943Y-9514D01*
X8906Y-9601D01*
X8906Y-9698D01*
X8943Y-9787D01*
X9012Y-9855D01*
X9101Y-9893D01*
X9198Y-9893D01*
X9287Y-9856D01*
X9355Y-9787D01*
X9393Y-9698D01*
X9393Y-9601D01*
X9393Y-10499D01*
X9387Y-10494D01*
X9298Y-10456D01*
X9201Y-10456D01*
X9112Y-10493D01*
X9044Y-10562D01*
X9006Y-10651D01*
X9006Y-10748D01*
X9043Y-10837D01*
X9112Y-10905D01*
X9184Y-10935D01*
X9156Y-11001D01*
X9156Y-11098D01*
X9193Y-11187D01*
X9262Y-11255D01*
X9351Y-11293D01*
X9448Y-11293D01*
X9537Y-11256D01*
X9605Y-11187D01*
X9643Y-11098D01*
X9643Y-11001D01*
X9643Y-14391D01*
X9185Y-14391D01*
X9137Y-14344D01*
X9048Y-14306D01*
X8993Y-14306D01*
X8993Y-14251D01*
X8956Y-14162D01*
X8887Y-14094D01*
X8843Y-14075D01*
X8843Y-10801D01*
X8806Y-10712D01*
X8737Y-10644D01*
X8648Y-10606D01*
X8551Y-10606D01*
X8462Y-10643D01*
X8394Y-10712D01*
X8356Y-10801D01*
X8356Y-10898D01*
X8393Y-10987D01*
X8462Y-11055D01*
X8551Y-11093D01*
X8648Y-11093D01*
X8737Y-11056D01*
X8805Y-10987D01*
X8843Y-10898D01*
X8843Y-10801D01*
X8843Y-14075D01*
X8798Y-14056D01*
X8793Y-14056D01*
X8793Y-11851D01*
X8756Y-11762D01*
X8687Y-11694D01*
X8598Y-11656D01*
X8501Y-11656D01*
X8412Y-11693D01*
X8344Y-11762D01*
X8306Y-11851D01*
X8306Y-11948D01*
X8343Y-12037D01*
X8412Y-12105D01*
X8501Y-12143D01*
X8598Y-12143D01*
X8687Y-12106D01*
X8755Y-12037D01*
X8793Y-11948D01*
X8793Y-11851D01*
X8793Y-14056D01*
X8701Y-14056D01*
X8612Y-14093D01*
X8544Y-14162D01*
X8543Y-14164D01*
X8543Y-12401D01*
X8506Y-12312D01*
X8437Y-12244D01*
X8348Y-12206D01*
X8251Y-12206D01*
X8162Y-12243D01*
X8094Y-12312D01*
X8056Y-12401D01*
X8056Y-12456D01*
X8001Y-12456D01*
X7993Y-12460D01*
X7993Y-11751D01*
X7956Y-11662D01*
X7887Y-11594D01*
X7798Y-11556D01*
X7743Y-11556D01*
X7743Y-10801D01*
X7706Y-10712D01*
X7637Y-10644D01*
X7548Y-10606D01*
X7451Y-10606D01*
X7362Y-10643D01*
X7349Y-10656D01*
X7287Y-10594D01*
X7198Y-10556D01*
X7143Y-10556D01*
X7143Y-7951D01*
X7106Y-7862D01*
X7037Y-7794D01*
X6948Y-7756D01*
X6851Y-7756D01*
X6762Y-7793D01*
X6694Y-7862D01*
X6656Y-7951D01*
X6656Y-8048D01*
X6693Y-8137D01*
X6762Y-8205D01*
X6851Y-8243D01*
X6948Y-8243D01*
X7037Y-8206D01*
X7105Y-8137D01*
X7143Y-8048D01*
X7143Y-7951D01*
X7143Y-10556D01*
X7101Y-10556D01*
X7012Y-10593D01*
X6944Y-10662D01*
X6906Y-10751D01*
X6906Y-10848D01*
X6943Y-10937D01*
X7012Y-11005D01*
X7101Y-11043D01*
X7198Y-11043D01*
X7287Y-11006D01*
X7300Y-10993D01*
X7362Y-11055D01*
X7451Y-11093D01*
X7548Y-11093D01*
X7637Y-11056D01*
X7705Y-10987D01*
X7743Y-10898D01*
X7743Y-10801D01*
X7743Y-11556D01*
X7701Y-11556D01*
X7612Y-11593D01*
X7544Y-11662D01*
X7506Y-11751D01*
X7506Y-11848D01*
X7543Y-11937D01*
X7612Y-12005D01*
X7701Y-12043D01*
X7798Y-12043D01*
X7887Y-12006D01*
X7955Y-11937D01*
X7993Y-11848D01*
X7993Y-11751D01*
X7993Y-12460D01*
X7912Y-12493D01*
X7844Y-12562D01*
X7806Y-12651D01*
X7806Y-12748D01*
X7843Y-12837D01*
X7912Y-12905D01*
X8001Y-12943D01*
X8098Y-12943D01*
X8187Y-12906D01*
X8255Y-12837D01*
X8293Y-12748D01*
X8293Y-12693D01*
X8348Y-12693D01*
X8437Y-12656D01*
X8505Y-12587D01*
X8543Y-12498D01*
X8543Y-12401D01*
X8543Y-14164D01*
X8506Y-14251D01*
X8506Y-14348D01*
X8543Y-14437D01*
X8612Y-14505D01*
X8701Y-14543D01*
X8756Y-14543D01*
X8756Y-14598D01*
X8793Y-14687D01*
X8862Y-14755D01*
X8951Y-14793D01*
X9048Y-14793D01*
X9123Y-14762D01*
X9106Y-14801D01*
X9106Y-14898D01*
X9141Y-14981D01*
X9112Y-14993D01*
X9044Y-15062D01*
X9006Y-15151D01*
X9006Y-15248D01*
X9043Y-15337D01*
X9112Y-15405D01*
X9201Y-15443D01*
X9298Y-15443D01*
X9387Y-15406D01*
X9455Y-15337D01*
X9493Y-15248D01*
X9493Y-15151D01*
X9458Y-15068D01*
X9487Y-15056D01*
X9555Y-14987D01*
X9593Y-14898D01*
X9593Y-14801D01*
X9556Y-14712D01*
X9551Y-14708D01*
X9684Y-14708D01*
X9741Y-14765D01*
X9741Y-16381D01*
X9712Y-16393D01*
X9644Y-16462D01*
X9606Y-16551D01*
X9606Y-16648D01*
X9643Y-16737D01*
X9712Y-16805D01*
X9801Y-16843D01*
X9898Y-16843D01*
X9987Y-16806D01*
X10055Y-16737D01*
X10093Y-16648D01*
X10093Y-16551D01*
X10093Y-17051D01*
X10056Y-16962D01*
X9987Y-16894D01*
X9898Y-16856D01*
X9801Y-16856D01*
X9712Y-16893D01*
X9644Y-16962D01*
X9606Y-17051D01*
X9606Y-17148D01*
X9643Y-17237D01*
X9712Y-17305D01*
X9801Y-17343D01*
X9898Y-17343D01*
X9987Y-17306D01*
X10055Y-17237D01*
X10093Y-17148D01*
X10093Y-17051D01*
X10093Y-21097D01*
X9393Y-21097D01*
X9393Y-16101D01*
X9356Y-16012D01*
X9287Y-15944D01*
X9198Y-15906D01*
X9101Y-15906D01*
X9012Y-15943D01*
X8944Y-16012D01*
X8931Y-16041D01*
X8043Y-16041D01*
X8043Y-13951D01*
X8006Y-13862D01*
X7943Y-13799D01*
X8005Y-13737D01*
X8043Y-13648D01*
X8043Y-13551D01*
X8006Y-13462D01*
X7937Y-13394D01*
X7848Y-13356D01*
X7751Y-13356D01*
X7662Y-13393D01*
X7594Y-13462D01*
X7593Y-13464D01*
X7593Y-12851D01*
X7556Y-12762D01*
X7487Y-12694D01*
X7398Y-12656D01*
X7301Y-12656D01*
X7243Y-12681D01*
X7243Y-11951D01*
X7206Y-11862D01*
X7137Y-11794D01*
X7048Y-11756D01*
X6951Y-11756D01*
X6862Y-11793D01*
X6794Y-11862D01*
X6756Y-11951D01*
X6756Y-12048D01*
X6793Y-12137D01*
X6862Y-12205D01*
X6951Y-12243D01*
X7048Y-12243D01*
X7137Y-12206D01*
X7205Y-12137D01*
X7243Y-12048D01*
X7243Y-11951D01*
X7243Y-12681D01*
X7212Y-12693D01*
X7144Y-12762D01*
X7106Y-12851D01*
X7106Y-12948D01*
X7143Y-13037D01*
X7212Y-13105D01*
X7301Y-13143D01*
X7398Y-13143D01*
X7487Y-13106D01*
X7555Y-13037D01*
X7593Y-12948D01*
X7593Y-12851D01*
X7593Y-13464D01*
X7556Y-13551D01*
X7556Y-13648D01*
X7593Y-13737D01*
X7656Y-13800D01*
X7594Y-13862D01*
X7556Y-13951D01*
X7556Y-14048D01*
X7593Y-14137D01*
X7662Y-14205D01*
X7751Y-14243D01*
X7848Y-14243D01*
X7937Y-14206D01*
X8005Y-14137D01*
X8043Y-14048D01*
X8043Y-13951D01*
X8043Y-16041D01*
X7265Y-16041D01*
X6908Y-15684D01*
X6908Y-13635D01*
X6955Y-13587D01*
X6993Y-13498D01*
X6993Y-13401D01*
X6956Y-13312D01*
X6887Y-13244D01*
X6798Y-13206D01*
X6701Y-13206D01*
X6612Y-13243D01*
X6581Y-13274D01*
X6556Y-13212D01*
X6487Y-13144D01*
X6398Y-13106D01*
X6301Y-13106D01*
X6243Y-13131D01*
X6243Y-11051D01*
X6243Y-10501D01*
X6206Y-10412D01*
X6137Y-10344D01*
X6048Y-10306D01*
X5951Y-10306D01*
X5862Y-10343D01*
X5794Y-10412D01*
X5756Y-10501D01*
X5756Y-10598D01*
X5793Y-10687D01*
X5862Y-10755D01*
X5951Y-10793D01*
X6048Y-10793D01*
X6137Y-10756D01*
X6205Y-10687D01*
X6243Y-10598D01*
X6243Y-10501D01*
X6243Y-11051D01*
X6206Y-10962D01*
X6137Y-10894D01*
X6048Y-10856D01*
X5951Y-10856D01*
X5862Y-10893D01*
X5794Y-10962D01*
X5756Y-11051D01*
X5756Y-11148D01*
X5793Y-11237D01*
X5862Y-11305D01*
X5951Y-11343D01*
X6048Y-11343D01*
X6137Y-11306D01*
X6205Y-11237D01*
X6243Y-11148D01*
X6243Y-11051D01*
X6243Y-13131D01*
X6212Y-13143D01*
X6144Y-13212D01*
X6106Y-13301D01*
X6106Y-13398D01*
X6143Y-13487D01*
X6212Y-13555D01*
X6301Y-13593D01*
X6398Y-13593D01*
X6487Y-13556D01*
X6518Y-13525D01*
X6543Y-13587D01*
X6591Y-13635D01*
X6591Y-14824D01*
X6548Y-14806D01*
X6451Y-14806D01*
X6362Y-14843D01*
X6294Y-14912D01*
X6256Y-15001D01*
X6256Y-15098D01*
X6293Y-15187D01*
X6362Y-15255D01*
X6451Y-15293D01*
X6548Y-15293D01*
X6591Y-15275D01*
X6591Y-15750D01*
X6603Y-15810D01*
X6638Y-15861D01*
X7088Y-16311D01*
X7139Y-16346D01*
X7139Y-16346D01*
X7200Y-16358D01*
X9017Y-16358D01*
X9101Y-16393D01*
X9198Y-16393D01*
X9287Y-16356D01*
X9355Y-16287D01*
X9393Y-16198D01*
X9393Y-16101D01*
X9393Y-21097D01*
X6943Y-21097D01*
X6943Y-17601D01*
X6906Y-17512D01*
X6837Y-17444D01*
X6748Y-17406D01*
X6651Y-17406D01*
X6562Y-17443D01*
X6494Y-17512D01*
X6456Y-17601D01*
X6456Y-17698D01*
X6493Y-17787D01*
X6562Y-17855D01*
X6651Y-17893D01*
X6748Y-17893D01*
X6837Y-17856D01*
X6905Y-17787D01*
X6943Y-17698D01*
X6943Y-17601D01*
X6943Y-21097D01*
X5649Y-21097D01*
X5649Y-5649D01*
X11256Y-5649D01*
X11244Y-5662D01*
X11206Y-5751D01*
X11206Y-5848D01*
X11243Y-5937D01*
X11312Y-6005D01*
X11401Y-6043D01*
X11498Y-6043D01*
X11587Y-6006D01*
X11655Y-5937D01*
X11693Y-5848D01*
X11693Y-5751D01*
X11656Y-5662D01*
X11643Y-5649D01*
X17185Y-5649D01*
X17185Y-10710D01*
X16893Y-10710D01*
X16893Y-6951D01*
X16856Y-6862D01*
X16787Y-6794D01*
X16698Y-6756D01*
X16601Y-6756D01*
X16512Y-6793D01*
X16444Y-6862D01*
X16406Y-6951D01*
X16406Y-7048D01*
X16443Y-7137D01*
X16512Y-7205D01*
X16601Y-7243D01*
X16698Y-7243D01*
X16787Y-7206D01*
X16855Y-7137D01*
X16893Y-7048D01*
X16893Y-6951D01*
X16893Y-10710D01*
X16643Y-10710D01*
X16643Y-8451D01*
X16606Y-8362D01*
X16537Y-8294D01*
X16448Y-8256D01*
X16351Y-8256D01*
X16293Y-8281D01*
X16293Y-5901D01*
X16256Y-5812D01*
X16187Y-5744D01*
X16098Y-5706D01*
X16001Y-5706D01*
X15912Y-5743D01*
X15844Y-5812D01*
X15806Y-5901D01*
X15806Y-5998D01*
X15843Y-6087D01*
X15912Y-6155D01*
X16001Y-6193D01*
X16098Y-6193D01*
X16187Y-6156D01*
X16255Y-6087D01*
X16293Y-5998D01*
X16293Y-5901D01*
X16293Y-8281D01*
X16262Y-8293D01*
X16194Y-8362D01*
X16156Y-8451D01*
X16156Y-8548D01*
X16193Y-8637D01*
X16262Y-8705D01*
X16351Y-8743D01*
X16448Y-8743D01*
X16537Y-8706D01*
X16605Y-8637D01*
X16643Y-8548D01*
X16643Y-8451D01*
X16643Y-10710D01*
X15910Y-10710D01*
X15910Y-14789D01*
X17185Y-14789D01*
X17185Y-21097D01*
X17185Y-21097D01*
G37*
G54D14*
X17185Y-21097D02*
X17143Y-21097D01*
X17143Y-17351D01*
X17106Y-17262D01*
X17037Y-17194D01*
X16948Y-17156D01*
X16851Y-17156D01*
X16762Y-17193D01*
X16694Y-17262D01*
X16656Y-17351D01*
X16656Y-17448D01*
X16693Y-17537D01*
X16741Y-17585D01*
X16741Y-18784D01*
X16687Y-18838D01*
X16656Y-18762D01*
X16643Y-18749D01*
X16643Y-15901D01*
X16606Y-15812D01*
X16537Y-15744D01*
X16448Y-15706D01*
X16351Y-15706D01*
X16262Y-15743D01*
X16194Y-15812D01*
X16156Y-15901D01*
X16156Y-15998D01*
X16193Y-16087D01*
X16262Y-16155D01*
X16351Y-16193D01*
X16448Y-16193D01*
X16537Y-16156D01*
X16605Y-16087D01*
X16643Y-15998D01*
X16643Y-15901D01*
X16643Y-18749D01*
X16587Y-18694D01*
X16498Y-18656D01*
X16401Y-18656D01*
X16312Y-18693D01*
X16264Y-18741D01*
X15743Y-18741D01*
X15743Y-9301D01*
X15743Y-6851D01*
X15706Y-6762D01*
X15637Y-6694D01*
X15548Y-6656D01*
X15451Y-6656D01*
X15362Y-6693D01*
X15294Y-6762D01*
X15256Y-6851D01*
X15256Y-6948D01*
X15293Y-7037D01*
X15362Y-7105D01*
X15451Y-7143D01*
X15548Y-7143D01*
X15637Y-7106D01*
X15705Y-7037D01*
X15743Y-6948D01*
X15743Y-6851D01*
X15743Y-9301D01*
X15706Y-9212D01*
X15637Y-9144D01*
X15548Y-9106D01*
X15451Y-9106D01*
X15362Y-9143D01*
X15294Y-9212D01*
X15256Y-9301D01*
X15256Y-9398D01*
X15293Y-9487D01*
X15362Y-9555D01*
X15451Y-9593D01*
X15548Y-9593D01*
X15637Y-9556D01*
X15705Y-9487D01*
X15743Y-9398D01*
X15743Y-9301D01*
X15743Y-18741D01*
X15615Y-18741D01*
X14543Y-17669D01*
X14543Y-14101D01*
X14506Y-14012D01*
X14437Y-13944D01*
X14348Y-13906D01*
X14251Y-13906D01*
X14193Y-13931D01*
X14193Y-13251D01*
X14156Y-13162D01*
X14087Y-13094D01*
X13998Y-13056D01*
X13901Y-13056D01*
X13812Y-13093D01*
X13744Y-13162D01*
X13706Y-13251D01*
X13706Y-13348D01*
X13743Y-13437D01*
X13812Y-13505D01*
X13901Y-13543D01*
X13998Y-13543D01*
X14087Y-13506D01*
X14155Y-13437D01*
X14193Y-13348D01*
X14193Y-13251D01*
X14193Y-13931D01*
X14162Y-13943D01*
X14094Y-14012D01*
X14056Y-14101D01*
X14056Y-14198D01*
X14093Y-14287D01*
X14162Y-14355D01*
X14251Y-14393D01*
X14348Y-14393D01*
X14437Y-14356D01*
X14505Y-14287D01*
X14543Y-14198D01*
X14543Y-14101D01*
X14543Y-17669D01*
X13408Y-16534D01*
X13408Y-13500D01*
X13396Y-13443D01*
X13398Y-13443D01*
X13487Y-13406D01*
X13555Y-13337D01*
X13593Y-13248D01*
X13593Y-13151D01*
X13556Y-13062D01*
X13487Y-12994D01*
X13398Y-12956D01*
X13301Y-12956D01*
X13212Y-12993D01*
X13144Y-13062D01*
X13112Y-13138D01*
X12943Y-12969D01*
X12943Y-12901D01*
X12906Y-12812D01*
X12837Y-12744D01*
X12767Y-12714D01*
X12787Y-12706D01*
X12818Y-12675D01*
X12843Y-12737D01*
X12912Y-12805D01*
X13001Y-12843D01*
X13098Y-12843D01*
X13187Y-12806D01*
X13255Y-12737D01*
X13293Y-12648D01*
X13293Y-12551D01*
X13293Y-7251D01*
X13256Y-7162D01*
X13187Y-7094D01*
X13098Y-7056D01*
X13001Y-7056D01*
X12912Y-7093D01*
X12844Y-7162D01*
X12806Y-7251D01*
X12806Y-7348D01*
X12843Y-7437D01*
X12912Y-7505D01*
X13001Y-7543D01*
X13098Y-7543D01*
X13187Y-7506D01*
X13255Y-7437D01*
X13293Y-7348D01*
X13293Y-7251D01*
X13293Y-12551D01*
X13256Y-12462D01*
X13187Y-12394D01*
X13098Y-12356D01*
X13001Y-12356D01*
X12912Y-12393D01*
X12881Y-12424D01*
X12856Y-12362D01*
X12787Y-12294D01*
X12698Y-12256D01*
X12601Y-12256D01*
X12543Y-12281D01*
X12543Y-11301D01*
X12506Y-11212D01*
X12493Y-11199D01*
X12493Y-7001D01*
X12456Y-6912D01*
X12387Y-6844D01*
X12298Y-6806D01*
X12201Y-6806D01*
X12112Y-6843D01*
X12044Y-6912D01*
X12014Y-6982D01*
X12006Y-6962D01*
X11958Y-6914D01*
X11958Y-6500D01*
X11946Y-6439D01*
X11946Y-6439D01*
X11911Y-6388D01*
X11860Y-6353D01*
X11800Y-6341D01*
X11739Y-6353D01*
X11688Y-6388D01*
X11634Y-6441D01*
X10443Y-6441D01*
X10443Y-5951D01*
X10406Y-5862D01*
X10337Y-5794D01*
X10248Y-5756D01*
X10151Y-5756D01*
X10062Y-5793D01*
X9994Y-5862D01*
X9956Y-5951D01*
X9956Y-6048D01*
X9993Y-6137D01*
X10062Y-6205D01*
X10151Y-6243D01*
X10248Y-6243D01*
X10337Y-6206D01*
X10405Y-6137D01*
X10443Y-6048D01*
X10443Y-5951D01*
X10443Y-6441D01*
X9450Y-6441D01*
X9389Y-6453D01*
X9338Y-6488D01*
X8043Y-7783D01*
X8043Y-7301D01*
X8006Y-7212D01*
X7937Y-7144D01*
X7848Y-7106D01*
X7751Y-7106D01*
X7662Y-7143D01*
X7643Y-7163D01*
X7643Y-6651D01*
X7606Y-6562D01*
X7537Y-6494D01*
X7448Y-6456D01*
X7351Y-6456D01*
X7262Y-6493D01*
X7194Y-6562D01*
X7156Y-6651D01*
X7156Y-6660D01*
X7148Y-6656D01*
X7051Y-6656D01*
X6962Y-6693D01*
X6894Y-6762D01*
X6856Y-6851D01*
X6856Y-6948D01*
X6893Y-7037D01*
X6962Y-7105D01*
X7051Y-7143D01*
X7148Y-7143D01*
X7237Y-7106D01*
X7305Y-7037D01*
X7343Y-6948D01*
X7343Y-6939D01*
X7351Y-6943D01*
X7448Y-6943D01*
X7537Y-6906D01*
X7605Y-6837D01*
X7643Y-6748D01*
X7643Y-6651D01*
X7643Y-7163D01*
X7594Y-7212D01*
X7556Y-7301D01*
X7556Y-7398D01*
X7593Y-7487D01*
X7624Y-7518D01*
X7562Y-7543D01*
X7494Y-7612D01*
X7456Y-7701D01*
X7456Y-7798D01*
X7493Y-7887D01*
X7562Y-7955D01*
X7651Y-7993D01*
X7748Y-7993D01*
X7837Y-7956D01*
X7905Y-7887D01*
X7943Y-7798D01*
X7943Y-7701D01*
X7906Y-7612D01*
X7875Y-7581D01*
X7937Y-7556D01*
X8005Y-7487D01*
X8043Y-7398D01*
X8043Y-7301D01*
X8043Y-7783D01*
X7938Y-7888D01*
X7903Y-7939D01*
X7891Y-8000D01*
X7891Y-9914D01*
X7844Y-9962D01*
X7806Y-10051D01*
X7806Y-10148D01*
X7843Y-10237D01*
X7912Y-10305D01*
X8001Y-10343D01*
X8098Y-10343D01*
X8187Y-10306D01*
X8255Y-10237D01*
X8293Y-10148D01*
X8293Y-10051D01*
X8256Y-9962D01*
X8208Y-9914D01*
X8208Y-8065D01*
X9515Y-6758D01*
X11641Y-6758D01*
X11641Y-6914D01*
X11594Y-6962D01*
X11574Y-7007D01*
X11556Y-6962D01*
X11487Y-6894D01*
X11398Y-6856D01*
X11301Y-6856D01*
X11212Y-6893D01*
X11144Y-6962D01*
X11106Y-7051D01*
X11106Y-7148D01*
X11143Y-7237D01*
X11212Y-7305D01*
X11301Y-7343D01*
X11398Y-7343D01*
X11487Y-7306D01*
X11555Y-7237D01*
X11575Y-7192D01*
X11593Y-7237D01*
X11662Y-7305D01*
X11751Y-7343D01*
X11848Y-7343D01*
X11937Y-7306D01*
X12005Y-7237D01*
X12035Y-7167D01*
X12043Y-7187D01*
X12112Y-7255D01*
X12201Y-7293D01*
X12298Y-7293D01*
X12387Y-7256D01*
X12455Y-7187D01*
X12493Y-7098D01*
X12493Y-7001D01*
X12493Y-11199D01*
X12437Y-11144D01*
X12348Y-11106D01*
X12251Y-11106D01*
X12162Y-11143D01*
X12094Y-11212D01*
X12056Y-11301D01*
X12056Y-11398D01*
X12093Y-11487D01*
X12162Y-11555D01*
X12251Y-11593D01*
X12348Y-11593D01*
X12437Y-11556D01*
X12505Y-11487D01*
X12543Y-11398D01*
X12543Y-11301D01*
X12543Y-12281D01*
X12512Y-12293D01*
X12444Y-12362D01*
X12406Y-12451D01*
X12406Y-12519D01*
X12288Y-12638D01*
X12253Y-12689D01*
X12241Y-12750D01*
X12241Y-13050D01*
X12253Y-13110D01*
X12288Y-13161D01*
X12891Y-13765D01*
X12891Y-16800D01*
X12903Y-16860D01*
X12938Y-16911D01*
X13383Y-17356D01*
X13301Y-17356D01*
X13212Y-17393D01*
X13144Y-17462D01*
X13106Y-17551D01*
X13106Y-17648D01*
X13143Y-17737D01*
X13212Y-17805D01*
X13301Y-17843D01*
X13398Y-17843D01*
X13487Y-17806D01*
X13555Y-17737D01*
X13593Y-17648D01*
X13593Y-17566D01*
X15338Y-19311D01*
X15338Y-19311D01*
X15389Y-19346D01*
X15449Y-19358D01*
X15450Y-19358D01*
X16550Y-19358D01*
X16610Y-19346D01*
X16610Y-19346D01*
X16661Y-19311D01*
X17011Y-18961D01*
X17011Y-18961D01*
X17011Y-18961D01*
X17046Y-18910D01*
X17058Y-18850D01*
X17058Y-18850D01*
X17058Y-17585D01*
X17105Y-17537D01*
X17143Y-17448D01*
X17143Y-17351D01*
X17143Y-21097D01*
X17043Y-21097D01*
X17043Y-20301D01*
X17006Y-20212D01*
X16937Y-20144D01*
X16848Y-20106D01*
X16751Y-20106D01*
X16662Y-20143D01*
X16594Y-20212D01*
X16556Y-20301D01*
X16556Y-20398D01*
X16593Y-20487D01*
X16662Y-20555D01*
X16751Y-20593D01*
X16848Y-20593D01*
X16937Y-20556D01*
X17005Y-20487D01*
X17043Y-20398D01*
X17043Y-20301D01*
X17043Y-21097D01*
X14743Y-21097D01*
X14743Y-19051D01*
X14706Y-18962D01*
X14637Y-18894D01*
X14548Y-18856D01*
X14451Y-18856D01*
X14362Y-18893D01*
X14294Y-18962D01*
X14256Y-19051D01*
X14256Y-19148D01*
X14293Y-19237D01*
X14362Y-19305D01*
X14451Y-19343D01*
X14548Y-19343D01*
X14637Y-19306D01*
X14705Y-19237D01*
X14743Y-19148D01*
X14743Y-19051D01*
X14743Y-21097D01*
X14393Y-21097D01*
X14393Y-20501D01*
X14356Y-20412D01*
X14287Y-20344D01*
X14198Y-20306D01*
X14166Y-20306D01*
X14166Y-18274D01*
X14129Y-18185D01*
X14060Y-18117D01*
X13971Y-18079D01*
X13874Y-18079D01*
X13785Y-18116D01*
X13717Y-18185D01*
X13679Y-18274D01*
X13679Y-18371D01*
X13716Y-18460D01*
X13785Y-18528D01*
X13874Y-18566D01*
X13971Y-18566D01*
X14060Y-18529D01*
X14128Y-18460D01*
X14166Y-18371D01*
X14166Y-18274D01*
X14166Y-20306D01*
X14101Y-20306D01*
X14012Y-20343D01*
X13944Y-20412D01*
X13906Y-20501D01*
X13906Y-20598D01*
X13943Y-20687D01*
X14012Y-20755D01*
X14101Y-20793D01*
X14198Y-20793D01*
X14287Y-20756D01*
X14355Y-20687D01*
X14393Y-20598D01*
X14393Y-20501D01*
X14393Y-21097D01*
X13343Y-21097D01*
X13343Y-19551D01*
X13306Y-19462D01*
X13237Y-19394D01*
X13148Y-19356D01*
X13051Y-19356D01*
X12962Y-19393D01*
X12894Y-19462D01*
X12856Y-19551D01*
X12856Y-19648D01*
X12893Y-19737D01*
X12962Y-19805D01*
X13051Y-19843D01*
X13148Y-19843D01*
X13237Y-19806D01*
X13305Y-19737D01*
X13343Y-19648D01*
X13343Y-19551D01*
X13343Y-21097D01*
X12843Y-21097D01*
X12843Y-18901D01*
X12806Y-18812D01*
X12793Y-18799D01*
X12793Y-16401D01*
X12756Y-16312D01*
X12687Y-16244D01*
X12598Y-16206D01*
X12501Y-16206D01*
X12443Y-16231D01*
X12443Y-14701D01*
X12406Y-14612D01*
X12337Y-14544D01*
X12248Y-14506D01*
X12151Y-14506D01*
X12062Y-14543D01*
X11994Y-14612D01*
X11956Y-14701D01*
X11956Y-14798D01*
X11993Y-14887D01*
X12062Y-14955D01*
X12151Y-14993D01*
X12248Y-14993D01*
X12337Y-14956D01*
X12405Y-14887D01*
X12443Y-14798D01*
X12443Y-14701D01*
X12443Y-16231D01*
X12412Y-16243D01*
X12344Y-16312D01*
X12306Y-16401D01*
X12306Y-16498D01*
X12343Y-16587D01*
X12412Y-16655D01*
X12501Y-16693D01*
X12598Y-16693D01*
X12687Y-16656D01*
X12755Y-16587D01*
X12793Y-16498D01*
X12793Y-16401D01*
X12793Y-18799D01*
X12737Y-18744D01*
X12648Y-18706D01*
X12551Y-18706D01*
X12462Y-18743D01*
X12394Y-18812D01*
X12356Y-18901D01*
X12356Y-18998D01*
X12393Y-19087D01*
X12462Y-19155D01*
X12551Y-19193D01*
X12648Y-19193D01*
X12737Y-19156D01*
X12805Y-19087D01*
X12843Y-18998D01*
X12843Y-18901D01*
X12843Y-21097D01*
X12793Y-21097D01*
X12793Y-19551D01*
X12756Y-19462D01*
X12687Y-19394D01*
X12598Y-19356D01*
X12501Y-19356D01*
X12412Y-19393D01*
X12344Y-19462D01*
X12306Y-19551D01*
X12306Y-19648D01*
X12343Y-19737D01*
X12412Y-19805D01*
X12501Y-19843D01*
X12598Y-19843D01*
X12687Y-19806D01*
X12755Y-19737D01*
X12793Y-19648D01*
X12793Y-19551D01*
X12793Y-21097D01*
X12693Y-21097D01*
X12693Y-20691D01*
X12648Y-20584D01*
X12566Y-20501D01*
X12458Y-20456D01*
X12341Y-20456D01*
X12234Y-20501D01*
X12151Y-20583D01*
X12150Y-20587D01*
X12148Y-20584D01*
X12066Y-20501D01*
X11958Y-20456D01*
X11841Y-20456D01*
X11734Y-20501D01*
X11651Y-20583D01*
X11650Y-20587D01*
X11648Y-20584D01*
X11566Y-20501D01*
X11558Y-20498D01*
X11558Y-10800D01*
X11546Y-10739D01*
X11511Y-10688D01*
X10743Y-9919D01*
X10743Y-9851D01*
X10706Y-9762D01*
X10693Y-9749D01*
X10693Y-7001D01*
X10656Y-6912D01*
X10587Y-6844D01*
X10498Y-6806D01*
X10401Y-6806D01*
X10312Y-6843D01*
X10244Y-6912D01*
X10206Y-7001D01*
X10206Y-7098D01*
X10243Y-7187D01*
X10312Y-7255D01*
X10401Y-7293D01*
X10498Y-7293D01*
X10587Y-7256D01*
X10655Y-7187D01*
X10693Y-7098D01*
X10693Y-7001D01*
X10693Y-9749D01*
X10637Y-9694D01*
X10548Y-9656D01*
X10493Y-9656D01*
X10493Y-8751D01*
X10456Y-8662D01*
X10387Y-8594D01*
X10317Y-8564D01*
X10337Y-8556D01*
X10405Y-8487D01*
X10443Y-8398D01*
X10443Y-8301D01*
X10406Y-8212D01*
X10337Y-8144D01*
X10248Y-8106D01*
X10151Y-8106D01*
X10062Y-8143D01*
X9994Y-8212D01*
X9956Y-8301D01*
X9956Y-8398D01*
X9993Y-8487D01*
X10062Y-8555D01*
X10132Y-8585D01*
X10112Y-8593D01*
X10044Y-8662D01*
X10006Y-8751D01*
X10006Y-8848D01*
X10043Y-8937D01*
X10112Y-9005D01*
X10201Y-9043D01*
X10298Y-9043D01*
X10387Y-9006D01*
X10455Y-8937D01*
X10493Y-8848D01*
X10493Y-8751D01*
X10493Y-9656D01*
X10451Y-9656D01*
X10362Y-9693D01*
X10294Y-9762D01*
X10256Y-9851D01*
X10256Y-9948D01*
X10293Y-10037D01*
X10362Y-10105D01*
X10451Y-10143D01*
X10519Y-10143D01*
X11241Y-10865D01*
X11241Y-20497D01*
X11234Y-20501D01*
X11193Y-20542D01*
X11193Y-19501D01*
X11156Y-19412D01*
X11087Y-19344D01*
X10998Y-19306D01*
X10901Y-19306D01*
X10812Y-19343D01*
X10793Y-19363D01*
X10793Y-14701D01*
X10756Y-14612D01*
X10687Y-14544D01*
X10598Y-14506D01*
X10501Y-14506D01*
X10412Y-14543D01*
X10344Y-14612D01*
X10306Y-14701D01*
X10306Y-14798D01*
X10343Y-14887D01*
X10412Y-14955D01*
X10501Y-14993D01*
X10598Y-14993D01*
X10687Y-14956D01*
X10755Y-14887D01*
X10793Y-14798D01*
X10793Y-14701D01*
X10793Y-19363D01*
X10744Y-19412D01*
X10706Y-19501D01*
X10706Y-19598D01*
X10743Y-19687D01*
X10812Y-19755D01*
X10901Y-19793D01*
X10998Y-19793D01*
X11087Y-19756D01*
X11155Y-19687D01*
X11193Y-19598D01*
X11193Y-19501D01*
X11193Y-20542D01*
X11165Y-20570D01*
X11109Y-20555D01*
X11094Y-20570D01*
X11094Y-20540D01*
X11079Y-20484D01*
X10964Y-20435D01*
X10839Y-20435D01*
X10793Y-20453D01*
X10793Y-20051D01*
X10756Y-19962D01*
X10687Y-19894D01*
X10598Y-19856D01*
X10501Y-19856D01*
X10412Y-19893D01*
X10344Y-19962D01*
X10306Y-20051D01*
X10306Y-20148D01*
X10343Y-20237D01*
X10412Y-20305D01*
X10501Y-20343D01*
X10598Y-20343D01*
X10687Y-20306D01*
X10755Y-20237D01*
X10793Y-20148D01*
X10793Y-20051D01*
X10793Y-20453D01*
X10723Y-20482D01*
X10720Y-20484D01*
X10705Y-20540D01*
X10900Y-20734D01*
X11094Y-20540D01*
X11094Y-20570D01*
X10915Y-20750D01*
X11109Y-20944D01*
X11165Y-20929D01*
X11233Y-20998D01*
X11341Y-21043D01*
X11458Y-21043D01*
X11565Y-20998D01*
X11648Y-20916D01*
X11649Y-20912D01*
X11651Y-20915D01*
X11733Y-20998D01*
X11841Y-21043D01*
X11958Y-21043D01*
X12065Y-20998D01*
X12148Y-20916D01*
X12149Y-20912D01*
X12151Y-20915D01*
X12233Y-20998D01*
X12341Y-21043D01*
X12458Y-21043D01*
X12565Y-20998D01*
X12648Y-20916D01*
X12693Y-20808D01*
X12693Y-20691D01*
X12693Y-21097D01*
X11094Y-21097D01*
X11094Y-20959D01*
X10900Y-20765D01*
X10884Y-20780D01*
X10884Y-20750D01*
X10690Y-20555D01*
X10634Y-20570D01*
X10585Y-20685D01*
X10585Y-20810D01*
X10632Y-20926D01*
X10634Y-20929D01*
X10690Y-20944D01*
X10884Y-20750D01*
X10884Y-20780D01*
X10705Y-20959D01*
X10720Y-21015D01*
X10835Y-21064D01*
X10960Y-21064D01*
X11076Y-21017D01*
X11079Y-21015D01*
X11094Y-20959D01*
X11094Y-21097D01*
X10143Y-21097D01*
X10143Y-9551D01*
X10106Y-9462D01*
X10037Y-9394D01*
X9948Y-9356D01*
X9851Y-9356D01*
X9762Y-9393D01*
X9694Y-9462D01*
X9656Y-9551D01*
X9656Y-9648D01*
X9693Y-9737D01*
X9762Y-9805D01*
X9851Y-9843D01*
X9948Y-9843D01*
X10037Y-9806D01*
X10105Y-9737D01*
X10143Y-9648D01*
X10143Y-9551D01*
X10143Y-21097D01*
X10093Y-21097D01*
X10093Y-17051D01*
X10093Y-16551D01*
X10058Y-16467D01*
X10058Y-14700D01*
X10046Y-14639D01*
X10011Y-14588D01*
X9861Y-14438D01*
X9810Y-14403D01*
X9750Y-14391D01*
X9643Y-14391D01*
X9643Y-11001D01*
X9606Y-10912D01*
X9537Y-10844D01*
X9465Y-10814D01*
X9493Y-10748D01*
X9493Y-10651D01*
X9456Y-10562D01*
X9393Y-10499D01*
X9393Y-9601D01*
X9356Y-9512D01*
X9293Y-9449D01*
X9293Y-7751D01*
X9256Y-7662D01*
X9187Y-7594D01*
X9098Y-7556D01*
X9001Y-7556D01*
X8912Y-7593D01*
X8844Y-7662D01*
X8806Y-7751D01*
X8806Y-7848D01*
X8843Y-7937D01*
X8912Y-8005D01*
X9001Y-8043D01*
X9098Y-8043D01*
X9187Y-8006D01*
X9255Y-7937D01*
X9293Y-7848D01*
X9293Y-7751D01*
X9293Y-9449D01*
X9287Y-9444D01*
X9198Y-9406D01*
X9101Y-9406D01*
X9012Y-9443D01*
X8944Y-9512D01*
X8943Y-9514D01*
X8943Y-8201D01*
X8906Y-8112D01*
X8837Y-8044D01*
X8748Y-8006D01*
X8651Y-8006D01*
X8562Y-8043D01*
X8494Y-8112D01*
X8456Y-8201D01*
X8456Y-8298D01*
X8493Y-8387D01*
X8562Y-8455D01*
X8651Y-8493D01*
X8748Y-8493D01*
X8837Y-8456D01*
X8905Y-8387D01*
X8943Y-8298D01*
X8943Y-8201D01*
X8943Y-9514D01*
X8906Y-9601D01*
X8906Y-9698D01*
X8943Y-9787D01*
X9012Y-9855D01*
X9101Y-9893D01*
X9198Y-9893D01*
X9287Y-9856D01*
X9355Y-9787D01*
X9393Y-9698D01*
X9393Y-9601D01*
X9393Y-10499D01*
X9387Y-10494D01*
X9298Y-10456D01*
X9201Y-10456D01*
X9112Y-10493D01*
X9044Y-10562D01*
X9006Y-10651D01*
X9006Y-10748D01*
X9043Y-10837D01*
X9112Y-10905D01*
X9184Y-10935D01*
X9156Y-11001D01*
X9156Y-11098D01*
X9193Y-11187D01*
X9262Y-11255D01*
X9351Y-11293D01*
X9448Y-11293D01*
X9537Y-11256D01*
X9605Y-11187D01*
X9643Y-11098D01*
X9643Y-11001D01*
X9643Y-14391D01*
X9185Y-14391D01*
X9137Y-14344D01*
X9048Y-14306D01*
X8993Y-14306D01*
X8993Y-14251D01*
X8956Y-14162D01*
X8887Y-14094D01*
X8843Y-14075D01*
X8843Y-10801D01*
X8806Y-10712D01*
X8737Y-10644D01*
X8648Y-10606D01*
X8551Y-10606D01*
X8462Y-10643D01*
X8394Y-10712D01*
X8356Y-10801D01*
X8356Y-10898D01*
X8393Y-10987D01*
X8462Y-11055D01*
X8551Y-11093D01*
X8648Y-11093D01*
X8737Y-11056D01*
X8805Y-10987D01*
X8843Y-10898D01*
X8843Y-10801D01*
X8843Y-14075D01*
X8798Y-14056D01*
X8793Y-14056D01*
X8793Y-11851D01*
X8756Y-11762D01*
X8687Y-11694D01*
X8598Y-11656D01*
X8501Y-11656D01*
X8412Y-11693D01*
X8344Y-11762D01*
X8306Y-11851D01*
X8306Y-11948D01*
X8343Y-12037D01*
X8412Y-12105D01*
X8501Y-12143D01*
X8598Y-12143D01*
X8687Y-12106D01*
X8755Y-12037D01*
X8793Y-11948D01*
X8793Y-11851D01*
X8793Y-14056D01*
X8701Y-14056D01*
X8612Y-14093D01*
X8544Y-14162D01*
X8543Y-14164D01*
X8543Y-12401D01*
X8506Y-12312D01*
X8437Y-12244D01*
X8348Y-12206D01*
X8251Y-12206D01*
X8162Y-12243D01*
X8094Y-12312D01*
X8056Y-12401D01*
X8056Y-12456D01*
X8001Y-12456D01*
X7993Y-12460D01*
X7993Y-11751D01*
X7956Y-11662D01*
X7887Y-11594D01*
X7798Y-11556D01*
X7743Y-11556D01*
X7743Y-10801D01*
X7706Y-10712D01*
X7637Y-10644D01*
X7548Y-10606D01*
X7451Y-10606D01*
X7362Y-10643D01*
X7349Y-10656D01*
X7287Y-10594D01*
X7198Y-10556D01*
X7143Y-10556D01*
X7143Y-7951D01*
X7106Y-7862D01*
X7037Y-7794D01*
X6948Y-7756D01*
X6851Y-7756D01*
X6762Y-7793D01*
X6694Y-7862D01*
X6656Y-7951D01*
X6656Y-8048D01*
X6693Y-8137D01*
X6762Y-8205D01*
X6851Y-8243D01*
X6948Y-8243D01*
X7037Y-8206D01*
X7105Y-8137D01*
X7143Y-8048D01*
X7143Y-7951D01*
X7143Y-10556D01*
X7101Y-10556D01*
X7012Y-10593D01*
X6944Y-10662D01*
X6906Y-10751D01*
X6906Y-10848D01*
X6943Y-10937D01*
X7012Y-11005D01*
X7101Y-11043D01*
X7198Y-11043D01*
X7287Y-11006D01*
X7300Y-10993D01*
X7362Y-11055D01*
X7451Y-11093D01*
X7548Y-11093D01*
X7637Y-11056D01*
X7705Y-10987D01*
X7743Y-10898D01*
X7743Y-10801D01*
X7743Y-11556D01*
X7701Y-11556D01*
X7612Y-11593D01*
X7544Y-11662D01*
X7506Y-11751D01*
X7506Y-11848D01*
X7543Y-11937D01*
X7612Y-12005D01*
X7701Y-12043D01*
X7798Y-12043D01*
X7887Y-12006D01*
X7955Y-11937D01*
X7993Y-11848D01*
X7993Y-11751D01*
X7993Y-12460D01*
X7912Y-12493D01*
X7844Y-12562D01*
X7806Y-12651D01*
X7806Y-12748D01*
X7843Y-12837D01*
X7912Y-12905D01*
X8001Y-12943D01*
X8098Y-12943D01*
X8187Y-12906D01*
X8255Y-12837D01*
X8293Y-12748D01*
X8293Y-12693D01*
X8348Y-12693D01*
X8437Y-12656D01*
X8505Y-12587D01*
X8543Y-12498D01*
X8543Y-12401D01*
X8543Y-14164D01*
X8506Y-14251D01*
X8506Y-14348D01*
X8543Y-14437D01*
X8612Y-14505D01*
X8701Y-14543D01*
X8756Y-14543D01*
X8756Y-14598D01*
X8793Y-14687D01*
X8862Y-14755D01*
X8951Y-14793D01*
X9048Y-14793D01*
X9123Y-14762D01*
X9106Y-14801D01*
X9106Y-14898D01*
X9141Y-14981D01*
X9112Y-14993D01*
X9044Y-15062D01*
X9006Y-15151D01*
X9006Y-15248D01*
X9043Y-15337D01*
X9112Y-15405D01*
X9201Y-15443D01*
X9298Y-15443D01*
X9387Y-15406D01*
X9455Y-15337D01*
X9493Y-15248D01*
X9493Y-15151D01*
X9458Y-15068D01*
X9487Y-15056D01*
X9555Y-14987D01*
X9593Y-14898D01*
X9593Y-14801D01*
X9556Y-14712D01*
X9551Y-14708D01*
X9684Y-14708D01*
X9741Y-14765D01*
X9741Y-16381D01*
X9712Y-16393D01*
X9644Y-16462D01*
X9606Y-16551D01*
X9606Y-16648D01*
X9643Y-16737D01*
X9712Y-16805D01*
X9801Y-16843D01*
X9898Y-16843D01*
X9987Y-16806D01*
X10055Y-16737D01*
X10093Y-16648D01*
X10093Y-16551D01*
X10093Y-17051D01*
X10056Y-16962D01*
X9987Y-16894D01*
X9898Y-16856D01*
X9801Y-16856D01*
X9712Y-16893D01*
X9644Y-16962D01*
X9606Y-17051D01*
X9606Y-17148D01*
X9643Y-17237D01*
X9712Y-17305D01*
X9801Y-17343D01*
X9898Y-17343D01*
X9987Y-17306D01*
X10055Y-17237D01*
X10093Y-17148D01*
X10093Y-17051D01*
X10093Y-21097D01*
X9393Y-21097D01*
X9393Y-16101D01*
X9356Y-16012D01*
X9287Y-15944D01*
X9198Y-15906D01*
X9101Y-15906D01*
X9012Y-15943D01*
X8944Y-16012D01*
X8931Y-16041D01*
X8043Y-16041D01*
X8043Y-13951D01*
X8006Y-13862D01*
X7943Y-13799D01*
X8005Y-13737D01*
X8043Y-13648D01*
X8043Y-13551D01*
X8006Y-13462D01*
X7937Y-13394D01*
X7848Y-13356D01*
X7751Y-13356D01*
X7662Y-13393D01*
X7594Y-13462D01*
X7593Y-13464D01*
X7593Y-12851D01*
X7556Y-12762D01*
X7487Y-12694D01*
X7398Y-12656D01*
X7301Y-12656D01*
X7243Y-12681D01*
X7243Y-11951D01*
X7206Y-11862D01*
X7137Y-11794D01*
X7048Y-11756D01*
X6951Y-11756D01*
X6862Y-11793D01*
X6794Y-11862D01*
X6756Y-11951D01*
X6756Y-12048D01*
X6793Y-12137D01*
X6862Y-12205D01*
X6951Y-12243D01*
X7048Y-12243D01*
X7137Y-12206D01*
X7205Y-12137D01*
X7243Y-12048D01*
X7243Y-11951D01*
X7243Y-12681D01*
X7212Y-12693D01*
X7144Y-12762D01*
X7106Y-12851D01*
X7106Y-12948D01*
X7143Y-13037D01*
X7212Y-13105D01*
X7301Y-13143D01*
X7398Y-13143D01*
X7487Y-13106D01*
X7555Y-13037D01*
X7593Y-12948D01*
X7593Y-12851D01*
X7593Y-13464D01*
X7556Y-13551D01*
X7556Y-13648D01*
X7593Y-13737D01*
X7656Y-13800D01*
X7594Y-13862D01*
X7556Y-13951D01*
X7556Y-14048D01*
X7593Y-14137D01*
X7662Y-14205D01*
X7751Y-14243D01*
X7848Y-14243D01*
X7937Y-14206D01*
X8005Y-14137D01*
X8043Y-14048D01*
X8043Y-13951D01*
X8043Y-16041D01*
X7265Y-16041D01*
X6908Y-15684D01*
X6908Y-13635D01*
X6955Y-13587D01*
X6993Y-13498D01*
X6993Y-13401D01*
X6956Y-13312D01*
X6887Y-13244D01*
X6798Y-13206D01*
X6701Y-13206D01*
X6612Y-13243D01*
X6581Y-13274D01*
X6556Y-13212D01*
X6487Y-13144D01*
X6398Y-13106D01*
X6301Y-13106D01*
X6243Y-13131D01*
X6243Y-11051D01*
X6243Y-10501D01*
X6206Y-10412D01*
X6137Y-10344D01*
X6048Y-10306D01*
X5951Y-10306D01*
X5862Y-10343D01*
X5794Y-10412D01*
X5756Y-10501D01*
X5756Y-10598D01*
X5793Y-10687D01*
X5862Y-10755D01*
X5951Y-10793D01*
X6048Y-10793D01*
X6137Y-10756D01*
X6205Y-10687D01*
X6243Y-10598D01*
X6243Y-10501D01*
X6243Y-11051D01*
X6206Y-10962D01*
X6137Y-10894D01*
X6048Y-10856D01*
X5951Y-10856D01*
X5862Y-10893D01*
X5794Y-10962D01*
X5756Y-11051D01*
X5756Y-11148D01*
X5793Y-11237D01*
X5862Y-11305D01*
X5951Y-11343D01*
X6048Y-11343D01*
X6137Y-11306D01*
X6205Y-11237D01*
X6243Y-11148D01*
X6243Y-11051D01*
X6243Y-13131D01*
X6212Y-13143D01*
X6144Y-13212D01*
X6106Y-13301D01*
X6106Y-13398D01*
X6143Y-13487D01*
X6212Y-13555D01*
X6301Y-13593D01*
X6398Y-13593D01*
X6487Y-13556D01*
X6518Y-13525D01*
X6543Y-13587D01*
X6591Y-13635D01*
X6591Y-14824D01*
X6548Y-14806D01*
X6451Y-14806D01*
X6362Y-14843D01*
X6294Y-14912D01*
X6256Y-15001D01*
X6256Y-15098D01*
X6293Y-15187D01*
X6362Y-15255D01*
X6451Y-15293D01*
X6548Y-15293D01*
X6591Y-15275D01*
X6591Y-15750D01*
X6603Y-15810D01*
X6638Y-15861D01*
X7088Y-16311D01*
X7139Y-16346D01*
X7139Y-16346D01*
X7200Y-16358D01*
X9017Y-16358D01*
X9101Y-16393D01*
X9198Y-16393D01*
X9287Y-16356D01*
X9355Y-16287D01*
X9393Y-16198D01*
X9393Y-16101D01*
X9393Y-21097D01*
X6943Y-21097D01*
X6943Y-17601D01*
X6906Y-17512D01*
X6837Y-17444D01*
X6748Y-17406D01*
X6651Y-17406D01*
X6562Y-17443D01*
X6494Y-17512D01*
X6456Y-17601D01*
X6456Y-17698D01*
X6493Y-17787D01*
X6562Y-17855D01*
X6651Y-17893D01*
X6748Y-17893D01*
X6837Y-17856D01*
X6905Y-17787D01*
X6943Y-17698D01*
X6943Y-17601D01*
X6943Y-21097D01*
X5649Y-21097D01*
X5649Y-5649D01*
X11256Y-5649D01*
X11244Y-5662D01*
X11206Y-5751D01*
X11206Y-5848D01*
X11243Y-5937D01*
X11312Y-6005D01*
X11401Y-6043D01*
X11498Y-6043D01*
X11587Y-6006D01*
X11655Y-5937D01*
X11693Y-5848D01*
X11693Y-5751D01*
X11656Y-5662D01*
X11643Y-5649D01*
X17185Y-5649D01*
X17185Y-10710D01*
X16893Y-10710D01*
X16893Y-6951D01*
X16856Y-6862D01*
X16787Y-6794D01*
X16698Y-6756D01*
X16601Y-6756D01*
X16512Y-6793D01*
X16444Y-6862D01*
X16406Y-6951D01*
X16406Y-7048D01*
X16443Y-7137D01*
X16512Y-7205D01*
X16601Y-7243D01*
X16698Y-7243D01*
X16787Y-7206D01*
X16855Y-7137D01*
X16893Y-7048D01*
X16893Y-6951D01*
X16893Y-10710D01*
X16643Y-10710D01*
X16643Y-8451D01*
X16606Y-8362D01*
X16537Y-8294D01*
X16448Y-8256D01*
X16351Y-8256D01*
X16293Y-8281D01*
X16293Y-5901D01*
X16256Y-5812D01*
X16187Y-5744D01*
X16098Y-5706D01*
X16001Y-5706D01*
X15912Y-5743D01*
X15844Y-5812D01*
X15806Y-5901D01*
X15806Y-5998D01*
X15843Y-6087D01*
X15912Y-6155D01*
X16001Y-6193D01*
X16098Y-6193D01*
X16187Y-6156D01*
X16255Y-6087D01*
X16293Y-5998D01*
X16293Y-5901D01*
X16293Y-8281D01*
X16262Y-8293D01*
X16194Y-8362D01*
X16156Y-8451D01*
X16156Y-8548D01*
X16193Y-8637D01*
X16262Y-8705D01*
X16351Y-8743D01*
X16448Y-8743D01*
X16537Y-8706D01*
X16605Y-8637D01*
X16643Y-8548D01*
X16643Y-8451D01*
X16643Y-10710D01*
X15910Y-10710D01*
X15910Y-14789D01*
X17185Y-14789D01*
X17185Y-21097D01*
M02*
